<svg xmlns="http://www.w3.org/2000/svg" version="1.1" xmlns:xlink="http://www.w3.org/1999/xlink" xmlns:svgjs="http://svgjs.dev/svgjs" width="1440" height="1560" preserveAspectRatio="none" viewBox="0 0 1440 1560"><g mask="url(&quot;#SvgjsMask1024&quot;)" fill="none"><path d="M77.85 333.71L121.16 358.71L121.16 408.71L77.85 433.71L34.55 408.71L34.55 358.71zM34.55 408.71L77.85 433.71L77.85 483.71L34.55 508.71L-8.75 483.71L-8.75 433.71zM34.55 558.71L77.85 583.71L77.85 633.71L34.55 658.71L-8.75 633.71L-8.75 583.71zM77.85 633.71L121.16 658.71L121.16 708.71L77.85 733.71L34.55 708.71L34.55 658.71zM34.55 858.71L77.85 883.71L77.85 933.71L34.55 958.71L-8.75 933.71L-8.75 883.71zM34.55 1308.71L77.85 1333.71L77.85 1383.71L34.55 1408.71L-8.75 1383.71L-8.75 1333.71zM77.85 1383.71L121.16 1408.71L121.16 1458.71L77.85 1483.71L34.55 1458.71L34.55 1408.71zM77.85 1533.71L121.16 1558.71L121.16 1608.71L77.85 1633.71L34.55 1608.71L34.55 1558.71zM164.46 183.71L207.76 208.71L207.76 258.71L164.46 283.71L121.16 258.71L121.16 208.71zM164.46 333.71L207.76 358.71L207.76 408.71L164.46 433.71L121.16 408.71L121.16 358.71zM164.46 633.71L207.76 658.71L207.76 708.71L164.46 733.71L121.16 708.71L121.16 658.71zM121.16 708.71L164.46 733.71L164.46 783.71L121.16 808.71L77.85 783.71L77.85 733.71zM121.16 858.71L164.46 883.71L164.46 933.71L121.16 958.71L77.85 933.71L77.85 883.71zM164.46 1233.71L207.76 1258.71L207.76 1308.71L164.46 1333.71L121.16 1308.71L121.16 1258.71zM121.16 1308.71L164.46 1333.71L164.46 1383.71L121.16 1408.71L77.85 1383.71L77.85 1333.71zM164.46 1383.71L207.76 1408.71L207.76 1458.71L164.46 1483.71L121.16 1458.71L121.16 1408.71zM121.16 1458.71L164.46 1483.71L164.46 1533.71L121.16 1558.71L77.85 1533.71L77.85 1483.71zM164.46 1533.71L207.76 1558.71L207.76 1608.71L164.46 1633.71L121.16 1608.71L121.16 1558.71zM207.76 108.71L251.06 133.71L251.06 183.71L207.76 208.71L164.46 183.71L164.46 133.71zM251.06 183.71L294.37 208.71L294.37 258.71L251.06 283.71L207.76 258.71L207.76 208.71zM251.06 483.71L294.37 508.71L294.37 558.71L251.06 583.71L207.76 558.71L207.76 508.71zM251.06 633.71L294.37 658.71L294.37 708.71L251.06 733.71L207.76 708.71L207.76 658.71zM207.76 708.71L251.06 733.71L251.06 783.71L207.76 808.71L164.46 783.71L164.46 733.71zM251.06 783.71L294.37 808.71L294.37 858.71L251.06 883.71L207.76 858.71L207.76 808.71zM251.06 933.71L294.37 958.71L294.37 1008.71L251.06 1033.71L207.76 1008.71L207.76 958.71zM251.06 1083.71L294.37 1108.71L294.37 1158.71L251.06 1183.71L207.76 1158.71L207.76 1108.71zM251.06 1233.71L294.37 1258.71L294.37 1308.71L251.06 1333.71L207.76 1308.71L207.76 1258.71zM207.76 1308.71L251.06 1333.71L251.06 1383.71L207.76 1408.71L164.46 1383.71L164.46 1333.71zM294.37 -41.29L337.67 -16.29L337.67 33.71L294.37 58.71L251.06 33.71L251.06 -16.29zM294.37 258.71L337.67 283.71L337.67 333.71L294.37 358.71L251.06 333.71L251.06 283.71zM294.37 408.71L337.67 433.71L337.67 483.71L294.37 508.71L251.06 483.71L251.06 433.71zM294.37 708.71L337.67 733.71L337.67 783.71L294.37 808.71L251.06 783.71L251.06 733.71zM294.37 1158.71L337.67 1183.71L337.67 1233.71L294.37 1258.71L251.06 1233.71L251.06 1183.71zM337.67 1233.71L380.97 1258.71L380.97 1308.71L337.67 1333.71L294.37 1308.71L294.37 1258.71zM294.37 1308.71L337.67 1333.71L337.67 1383.71L294.37 1408.71L251.06 1383.71L251.06 1333.71zM337.67 1383.71L380.97 1408.71L380.97 1458.71L337.67 1483.71L294.37 1458.71L294.37 1408.71zM294.37 1458.71L337.67 1483.71L337.67 1533.71L294.37 1558.71L251.06 1533.71L251.06 1483.71zM337.67 1533.71L380.97 1558.71L380.97 1608.71L337.67 1633.71L294.37 1608.71L294.37 1558.71zM380.97 -41.29L424.27 -16.29L424.27 33.71L380.97 58.71L337.67 33.71L337.67 -16.29zM380.97 108.71L424.27 133.71L424.27 183.71L380.97 208.71L337.67 183.71L337.67 133.71zM424.27 183.71L467.58 208.71L467.58 258.71L424.27 283.71L380.97 258.71L380.97 208.71zM380.97 1008.71L424.27 1033.71L424.27 1083.71L380.97 1108.71L337.67 1083.71L337.67 1033.71zM424.27 1083.71L467.58 1108.71L467.58 1158.71L424.27 1183.71L380.97 1158.71L380.97 1108.71zM424.27 1233.71L467.58 1258.71L467.58 1308.71L424.27 1333.71L380.97 1308.71L380.97 1258.71zM380.97 1308.71L424.27 1333.71L424.27 1383.71L380.97 1408.71L337.67 1383.71L337.67 1333.71zM380.97 1458.71L424.27 1483.71L424.27 1533.71L380.97 1558.71L337.67 1533.71L337.67 1483.71zM510.88 183.71L554.18 208.71L554.18 258.71L510.88 283.71L467.58 258.71L467.58 208.71zM467.58 258.71L510.88 283.71L510.88 333.71L467.58 358.71L424.27 333.71L424.27 283.71zM467.58 408.71L510.88 433.71L510.88 483.71L467.58 508.71L424.27 483.71L424.27 433.71zM510.88 483.71L554.18 508.71L554.18 558.71L510.88 583.71L467.58 558.71L467.58 508.71zM467.58 558.71L510.88 583.71L510.88 633.71L467.58 658.71L424.27 633.71L424.27 583.71zM510.88 783.71L554.18 808.71L554.18 858.71L510.88 883.71L467.58 858.71L467.58 808.71zM510.88 1083.71L554.18 1108.71L554.18 1158.71L510.88 1183.71L467.58 1158.71L467.58 1108.71zM467.58 1158.71L510.88 1183.71L510.88 1233.71L467.58 1258.71L424.27 1233.71L424.27 1183.71zM467.58 1308.71L510.88 1333.71L510.88 1383.71L467.58 1408.71L424.27 1383.71L424.27 1333.71zM554.18 -41.29L597.48 -16.29L597.48 33.71L554.18 58.71L510.88 33.71L510.88 -16.29zM597.48 33.71L640.78 58.71L640.78 108.71L597.48 133.71L554.18 108.71L554.18 58.71zM554.18 108.71L597.48 133.71L597.48 183.71L554.18 208.71L510.88 183.71L510.88 133.71zM597.48 183.71L640.78 208.71L640.78 258.71L597.48 283.71L554.18 258.71L554.18 208.71zM597.48 333.71L640.78 358.71L640.78 408.71L597.48 433.71L554.18 408.71L554.18 358.71zM597.48 483.71L640.78 508.71L640.78 558.71L597.48 583.71L554.18 558.71L554.18 508.71zM597.48 783.71L640.78 808.71L640.78 858.71L597.48 883.71L554.18 858.71L554.18 808.71zM554.18 858.71L597.48 883.71L597.48 933.71L554.18 958.71L510.88 933.71L510.88 883.71zM597.48 933.71L640.78 958.71L640.78 1008.71L597.48 1033.71L554.18 1008.71L554.18 958.71zM554.18 1008.71L597.48 1033.71L597.48 1083.71L554.18 1108.71L510.88 1083.71L510.88 1033.71zM554.18 1158.71L597.48 1183.71L597.48 1233.71L554.18 1258.71L510.88 1233.71L510.88 1183.71zM597.48 1233.71L640.78 1258.71L640.78 1308.71L597.48 1333.71L554.18 1308.71L554.18 1258.71zM597.48 1533.71L640.78 1558.71L640.78 1608.71L597.48 1633.71L554.18 1608.71L554.18 1558.71zM640.78 -41.29L684.09 -16.29L684.09 33.71L640.78 58.71L597.48 33.71L597.48 -16.29zM684.09 33.71L727.39 58.71L727.39 108.71L684.09 133.71L640.78 108.71L640.78 58.71zM640.78 108.71L684.09 133.71L684.09 183.71L640.78 208.71L597.48 183.71L597.48 133.71zM640.78 258.71L684.09 283.71L684.09 333.71L640.78 358.71L597.48 333.71L597.48 283.71zM640.78 408.71L684.09 433.71L684.09 483.71L640.78 508.71L597.48 483.71L597.48 433.71zM640.78 708.71L684.09 733.71L684.09 783.71L640.78 808.71L597.48 783.71L597.48 733.71zM684.09 933.71L727.39 958.71L727.39 1008.71L684.09 1033.71L640.78 1008.71L640.78 958.71zM640.78 1158.71L684.09 1183.71L684.09 1233.71L640.78 1258.71L597.48 1233.71L597.48 1183.71zM640.78 1308.71L684.09 1333.71L684.09 1383.71L640.78 1408.71L597.48 1383.71L597.48 1333.71zM727.39 108.71L770.69 133.71L770.69 183.71L727.39 208.71L684.09 183.71L684.09 133.71zM770.69 183.71L814 208.71L814 258.71L770.69 283.71L727.39 258.71L727.39 208.71zM727.39 258.71L770.69 283.71L770.69 333.71L727.39 358.71L684.09 333.71L684.09 283.71zM770.69 333.71L814 358.71L814 408.71L770.69 433.71L727.39 408.71L727.39 358.71zM727.39 408.71L770.69 433.71L770.69 483.71L727.39 508.71L684.09 483.71L684.09 433.71zM727.39 558.71L770.69 583.71L770.69 633.71L727.39 658.71L684.09 633.71L684.09 583.71zM727.39 708.71L770.69 733.71L770.69 783.71L727.39 808.71L684.09 783.71L684.09 733.71zM727.39 858.71L770.69 883.71L770.69 933.71L727.39 958.71L684.09 933.71L684.09 883.71zM727.39 1008.71L770.69 1033.71L770.69 1083.71L727.39 1108.71L684.09 1083.71L684.09 1033.71zM770.69 1083.71L814 1108.71L814 1158.71L770.69 1183.71L727.39 1158.71L727.39 1108.71zM727.39 1158.71L770.69 1183.71L770.69 1233.71L727.39 1258.71L684.09 1233.71L684.09 1183.71zM770.69 1533.71L814 1558.71L814 1608.71L770.69 1633.71L727.39 1608.71L727.39 1558.71zM814 -41.29L857.3 -16.29L857.3 33.71L814 58.71L770.69 33.71L770.69 -16.29zM857.3 33.71L900.6 58.71L900.6 108.71L857.3 133.71L814 108.71L814 58.71zM814 108.71L857.3 133.71L857.3 183.71L814 208.71L770.69 183.71L770.69 133.71zM857.3 183.71L900.6 208.71L900.6 258.71L857.3 283.71L814 258.71L814 208.71zM814 258.71L857.3 283.71L857.3 333.71L814 358.71L770.69 333.71L770.69 283.71zM857.3 333.71L900.6 358.71L900.6 408.71L857.3 433.71L814 408.71L814 358.71zM857.3 633.71L900.6 658.71L900.6 708.71L857.3 733.71L814 708.71L814 658.71zM814 708.71L857.3 733.71L857.3 783.71L814 808.71L770.69 783.71L770.69 733.71zM857.3 783.71L900.6 808.71L900.6 858.71L857.3 883.71L814 858.71L814 808.71zM814 858.71L857.3 883.71L857.3 933.71L814 958.71L770.69 933.71L770.69 883.71zM857.3 933.71L900.6 958.71L900.6 1008.71L857.3 1033.71L814 1008.71L814 958.71zM857.3 1083.71L900.6 1108.71L900.6 1158.71L857.3 1183.71L814 1158.71L814 1108.71zM857.3 1383.71L900.6 1408.71L900.6 1458.71L857.3 1483.71L814 1458.71L814 1408.71zM857.3 1533.71L900.6 1558.71L900.6 1608.71L857.3 1633.71L814 1608.71L814 1558.71zM943.9 33.71L987.21 58.71L987.21 108.71L943.9 133.71L900.6 108.71L900.6 58.71zM900.6 108.71L943.9 133.71L943.9 183.71L900.6 208.71L857.3 183.71L857.3 133.71zM900.6 258.71L943.9 283.71L943.9 333.71L900.6 358.71L857.3 333.71L857.3 283.71zM900.6 558.71L943.9 583.71L943.9 633.71L900.6 658.71L857.3 633.71L857.3 583.71zM900.6 708.71L943.9 733.71L943.9 783.71L900.6 808.71L857.3 783.71L857.3 733.71zM900.6 858.71L943.9 883.71L943.9 933.71L900.6 958.71L857.3 933.71L857.3 883.71zM943.9 933.71L987.21 958.71L987.21 1008.71L943.9 1033.71L900.6 1008.71L900.6 958.71zM900.6 1008.71L943.9 1033.71L943.9 1083.71L900.6 1108.71L857.3 1083.71L857.3 1033.71zM900.6 1158.71L943.9 1183.71L943.9 1233.71L900.6 1258.71L857.3 1233.71L857.3 1183.71zM900.6 1308.71L943.9 1333.71L943.9 1383.71L900.6 1408.71L857.3 1383.71L857.3 1333.71zM943.9 1383.71L987.21 1408.71L987.21 1458.71L943.9 1483.71L900.6 1458.71L900.6 1408.71zM943.9 1533.71L987.21 1558.71L987.21 1608.71L943.9 1633.71L900.6 1608.71L900.6 1558.71zM1030.51 333.71L1073.81 358.71L1073.81 408.71L1030.51 433.71L987.21 408.71L987.21 358.71zM987.21 558.71L1030.51 583.71L1030.51 633.71L987.21 658.71L943.9 633.71L943.9 583.71zM987.21 708.71L1030.51 733.71L1030.51 783.71L987.21 808.71L943.9 783.71L943.9 733.71zM1030.51 933.71L1073.81 958.71L1073.81 1008.71L1030.51 1033.71L987.21 1008.71L987.21 958.71zM1030.51 1083.71L1073.81 1108.71L1073.81 1158.71L1030.51 1183.71L987.21 1158.71L987.21 1108.71zM987.21 1158.71L1030.51 1183.71L1030.51 1233.71L987.21 1258.71L943.9 1233.71L943.9 1183.71zM1030.51 1533.71L1073.81 1558.71L1073.81 1608.71L1030.51 1633.71L987.21 1608.71L987.21 1558.71zM1073.81 -41.29L1117.11 -16.29L1117.11 33.71L1073.81 58.71L1030.51 33.71L1030.51 -16.29zM1117.11 33.71L1160.41 58.71L1160.41 108.71L1117.11 133.71L1073.81 108.71L1073.81 58.71zM1073.81 108.71L1117.11 133.71L1117.11 183.71L1073.81 208.71L1030.51 183.71L1030.51 133.71zM1117.11 183.71L1160.41 208.71L1160.41 258.71L1117.11 283.71L1073.81 258.71L1073.81 208.71zM1117.11 333.71L1160.41 358.71L1160.41 408.71L1117.11 433.71L1073.81 408.71L1073.81 358.71zM1117.11 633.71L1160.41 658.71L1160.41 708.71L1117.11 733.71L1073.81 708.71L1073.81 658.71zM1117.11 783.71L1160.41 808.71L1160.41 858.71L1117.11 883.71L1073.81 858.71L1073.81 808.71zM1073.81 858.71L1117.11 883.71L1117.11 933.71L1073.81 958.71L1030.51 933.71L1030.51 883.71zM1073.81 1158.71L1117.11 1183.71L1117.11 1233.71L1073.81 1258.71L1030.51 1233.71L1030.51 1183.71zM1073.81 1308.71L1117.11 1333.71L1117.11 1383.71L1073.81 1408.71L1030.51 1383.71L1030.51 1333.71zM1117.11 1533.71L1160.41 1558.71L1160.41 1608.71L1117.11 1633.71L1073.81 1608.71L1073.81 1558.71zM1160.41 -41.29L1203.72 -16.29L1203.72 33.71L1160.41 58.71L1117.11 33.71L1117.11 -16.29zM1203.72 33.71L1247.02 58.71L1247.02 108.71L1203.72 133.71L1160.41 108.71L1160.41 58.71zM1160.41 108.71L1203.72 133.71L1203.72 183.71L1160.41 208.71L1117.11 183.71L1117.11 133.71zM1203.72 183.71L1247.02 208.71L1247.02 258.71L1203.72 283.71L1160.41 258.71L1160.41 208.71zM1203.72 333.71L1247.02 358.71L1247.02 408.71L1203.72 433.71L1160.41 408.71L1160.41 358.71zM1203.72 483.71L1247.02 508.71L1247.02 558.71L1203.72 583.71L1160.41 558.71L1160.41 508.71zM1203.72 633.71L1247.02 658.71L1247.02 708.71L1203.72 733.71L1160.41 708.71L1160.41 658.71zM1160.41 708.71L1203.72 733.71L1203.72 783.71L1160.41 808.71L1117.11 783.71L1117.11 733.71zM1203.72 933.71L1247.02 958.71L1247.02 1008.71L1203.72 1033.71L1160.41 1008.71L1160.41 958.71zM1160.41 1008.71L1203.72 1033.71L1203.72 1083.71L1160.41 1108.71L1117.11 1083.71L1117.11 1033.71zM1160.41 1158.71L1203.72 1183.71L1203.72 1233.71L1160.41 1258.71L1117.11 1233.71L1117.11 1183.71zM1203.72 1383.71L1247.02 1408.71L1247.02 1458.71L1203.72 1483.71L1160.41 1458.71L1160.41 1408.71zM1203.72 1533.71L1247.02 1558.71L1247.02 1608.71L1203.72 1633.71L1160.41 1608.71L1160.41 1558.71zM1290.32 33.71L1333.63 58.71L1333.63 108.71L1290.32 133.71L1247.02 108.71L1247.02 58.71zM1247.02 108.71L1290.32 133.71L1290.32 183.71L1247.02 208.71L1203.72 183.71L1203.72 133.71zM1290.32 183.71L1333.63 208.71L1333.63 258.71L1290.32 283.71L1247.02 258.71L1247.02 208.71zM1290.32 333.71L1333.63 358.71L1333.63 408.71L1290.32 433.71L1247.02 408.71L1247.02 358.71zM1247.02 408.71L1290.32 433.71L1290.32 483.71L1247.02 508.71L1203.72 483.71L1203.72 433.71zM1247.02 558.71L1290.32 583.71L1290.32 633.71L1247.02 658.71L1203.72 633.71L1203.72 583.71zM1290.32 633.71L1333.63 658.71L1333.63 708.71L1290.32 733.71L1247.02 708.71L1247.02 658.71zM1247.02 708.71L1290.32 733.71L1290.32 783.71L1247.02 808.71L1203.72 783.71L1203.72 733.71zM1290.32 783.71L1333.63 808.71L1333.63 858.71L1290.32 883.71L1247.02 858.71L1247.02 808.71zM1247.02 1008.71L1290.32 1033.71L1290.32 1083.71L1247.02 1108.71L1203.72 1083.71L1203.72 1033.71zM1247.02 1308.71L1290.32 1333.71L1290.32 1383.71L1247.02 1408.71L1203.72 1383.71L1203.72 1333.71zM1290.32 1383.71L1333.63 1408.71L1333.63 1458.71L1290.32 1483.71L1247.02 1458.71L1247.02 1408.71zM1247.02 1458.71L1290.32 1483.71L1290.32 1533.71L1247.02 1558.71L1203.72 1533.71L1203.72 1483.71zM1290.32 1533.71L1333.63 1558.71L1333.63 1608.71L1290.32 1633.71L1247.02 1608.71L1247.02 1558.71zM1376.93 183.71L1420.23 208.71L1420.23 258.71L1376.93 283.71L1333.63 258.71L1333.63 208.71zM1376.93 333.71L1420.23 358.71L1420.23 408.71L1376.93 433.71L1333.63 408.71L1333.63 358.71zM1333.63 408.71L1376.93 433.71L1376.93 483.71L1333.63 508.71L1290.32 483.71L1290.32 433.71zM1376.93 633.71L1420.23 658.71L1420.23 708.71L1376.93 733.71L1333.63 708.71L1333.63 658.71zM1333.63 708.71L1376.93 733.71L1376.93 783.71L1333.63 808.71L1290.32 783.71L1290.32 733.71zM1333.63 858.71L1376.93 883.71L1376.93 933.71L1333.63 958.71L1290.32 933.71L1290.32 883.71zM1463.53 333.71L1506.84 358.71L1506.84 408.71L1463.53 433.71L1420.23 408.71L1420.23 358.71zM1420.23 558.71L1463.53 583.71L1463.53 633.71L1420.23 658.71L1376.93 633.71L1376.93 583.71zM1463.53 633.71L1506.84 658.71L1506.84 708.71L1463.53 733.71L1420.23 708.71L1420.23 658.71zM1420.23 858.71L1463.53 883.71L1463.53 933.71L1420.23 958.71L1376.93 933.71L1376.93 883.71zM1420.23 1308.71L1463.53 1333.71L1463.53 1383.71L1420.23 1408.71L1376.93 1383.71L1376.93 1333.71zM1463.53 1383.71L1506.84 1408.71L1506.84 1458.71L1463.53 1483.71L1420.23 1458.71L1420.23 1408.71zM1420.23 1458.71L1463.53 1483.71L1463.53 1533.71L1420.23 1558.71L1376.93 1533.71L1376.93 1483.71zM1463.53 1533.71L1506.84 1558.71L1506.84 1608.71L1463.53 1633.71L1420.23 1608.71L1420.23 1558.71z" stroke="rgba(0, 199, 179, 0.15)" stroke-width="2"></path></g><defs><mask id="SvgjsMask1024"><rect width="1440" height="1560" fill="#ffffff"></rect></mask></defs></svg>