<svg xmlns="http://www.w3.org/2000/svg" version="1.1" xmlns:xlink="http://www.w3.org/1999/xlink" xmlns:svgjs="http://svgjs.dev/svgjs" width="1540" height="2560" preserveAspectRatio="none" viewBox="0 0 1540 2560"><g mask="url(&quot;#SvgjsMask1003&quot;)" fill="none"><path d="M965 2126L505 1666" stroke-width="6" stroke="url(&quot;#SvgjsLinearGradient1004&quot;)" stroke-linecap="round" class="BottomRight"></path><path d="M1299 391L558 -350" stroke-width="6" stroke="url(&quot;#SvgjsLinearGradient1004&quot;)" stroke-linecap="round" class="BottomRight"></path><path d="M522 1999L1108 2585" stroke-width="6" stroke="url(&quot;#SvgjsLinearGradient1004&quot;)" stroke-linecap="round" class="BottomRight"></path><path d="M289 674L-108 277" stroke-width="6" stroke="url(&quot;#SvgjsLinearGradient1005&quot;)" stroke-linecap="round" class="TopLeft"></path><path d="M1352 936L676 260" stroke-width="8" stroke="url(&quot;#SvgjsLinearGradient1004&quot;)" stroke-linecap="round" class="BottomRight"></path><path d="M1202 1423L2336 2557" stroke-width="10" stroke="url(&quot;#SvgjsLinearGradient1005&quot;)" stroke-linecap="round" class="TopLeft"></path><path d="M855 1840L1314 2299" stroke-width="8" stroke="url(&quot;#SvgjsLinearGradient1004&quot;)" stroke-linecap="round" class="BottomRight"></path><path d="M1306 1774L522 990" stroke-width="10" stroke="url(&quot;#SvgjsLinearGradient1004&quot;)" stroke-linecap="round" class="BottomRight"></path><path d="M64 499L898 1333" stroke-width="8" stroke="url(&quot;#SvgjsLinearGradient1004&quot;)" stroke-linecap="round" class="BottomRight"></path><path d="M81 183L708 810" stroke-width="8" stroke="url(&quot;#SvgjsLinearGradient1004&quot;)" stroke-linecap="round" class="BottomRight"></path><path d="M901 296L260 -345" stroke-width="10" stroke="url(&quot;#SvgjsLinearGradient1005&quot;)" stroke-linecap="round" class="TopLeft"></path><path d="M752 1745L314 1307" stroke-width="10" stroke="url(&quot;#SvgjsLinearGradient1004&quot;)" stroke-linecap="round" class="BottomRight"></path><path d="M1020 1788L1771 2539" stroke-width="10" stroke="url(&quot;#SvgjsLinearGradient1005&quot;)" stroke-linecap="round" class="TopLeft"></path><path d="M245 1069L-497 327" stroke-width="8" stroke="url(&quot;#SvgjsLinearGradient1005&quot;)" stroke-linecap="round" class="TopLeft"></path><path d="M1243 2426L2225 3408" stroke-width="8" stroke="url(&quot;#SvgjsLinearGradient1005&quot;)" stroke-linecap="round" class="TopLeft"></path><path d="M152 787L1129 1764" stroke-width="10" stroke="url(&quot;#SvgjsLinearGradient1004&quot;)" stroke-linecap="round" class="BottomRight"></path><path d="M1292 458L2284 1450" stroke-width="10" stroke="url(&quot;#SvgjsLinearGradient1005&quot;)" stroke-linecap="round" class="TopLeft"></path><path d="M896 1406L2028 2538" stroke-width="6" stroke="url(&quot;#SvgjsLinearGradient1004&quot;)" stroke-linecap="round" class="BottomRight"></path><path d="M287 2040L-216 1537" stroke-width="8" stroke="url(&quot;#SvgjsLinearGradient1004&quot;)" stroke-linecap="round" class="BottomRight"></path><path d="M392 2292L1065 2965" stroke-width="8" stroke="url(&quot;#SvgjsLinearGradient1005&quot;)" stroke-linecap="round" class="TopLeft"></path><path d="M1519 1350L1058 889" stroke-width="8" stroke="url(&quot;#SvgjsLinearGradient1005&quot;)" stroke-linecap="round" class="TopLeft"></path><path d="M912 1109L21 218" stroke-width="10" stroke="url(&quot;#SvgjsLinearGradient1005&quot;)" stroke-linecap="round" class="TopLeft"></path><path d="M635 95L1150 610" stroke-width="8" stroke="url(&quot;#SvgjsLinearGradient1004&quot;)" stroke-linecap="round" class="BottomRight"></path><path d="M1457 2042L1907 2492" stroke-width="10" stroke="url(&quot;#SvgjsLinearGradient1005&quot;)" stroke-linecap="round" class="TopLeft"></path><path d="M254 2456L-309 1893" stroke-width="6" stroke="url(&quot;#SvgjsLinearGradient1004&quot;)" stroke-linecap="round" class="BottomRight"></path><path d="M779 337L268 -174" stroke-width="8" stroke="url(&quot;#SvgjsLinearGradient1005&quot;)" stroke-linecap="round" class="TopLeft"></path><path d="M273 1162L1247 2136" stroke-width="6" stroke="url(&quot;#SvgjsLinearGradient1004&quot;)" stroke-linecap="round" class="BottomRight"></path><path d="M1085 1574L531 1020" stroke-width="6" stroke="url(&quot;#SvgjsLinearGradient1004&quot;)" stroke-linecap="round" class="BottomRight"></path><path d="M1028 1501L256 729" stroke-width="10" stroke="url(&quot;#SvgjsLinearGradient1005&quot;)" stroke-linecap="round" class="TopLeft"></path><path d="M1503 1048L550 95" stroke-width="8" stroke="url(&quot;#SvgjsLinearGradient1005&quot;)" stroke-linecap="round" class="TopLeft"></path><path d="M374 448L1354 1428" stroke-width="6" stroke="url(&quot;#SvgjsLinearGradient1005&quot;)" stroke-linecap="round" class="TopLeft"></path><path d="M744 2555L1254 3065" stroke-width="10" stroke="url(&quot;#SvgjsLinearGradient1004&quot;)" stroke-linecap="round" class="BottomRight"></path><path d="M419 1317L-468 430" stroke-width="6" stroke="url(&quot;#SvgjsLinearGradient1005&quot;)" stroke-linecap="round" class="TopLeft"></path><path d="M972 67L1516 611" stroke-width="6" stroke="url(&quot;#SvgjsLinearGradient1005&quot;)" stroke-linecap="round" class="TopLeft"></path><path d="M452 1386L1419 2353" stroke-width="6" stroke="url(&quot;#SvgjsLinearGradient1005&quot;)" stroke-linecap="round" class="TopLeft"></path><path d="M260 2280L-863 1157" stroke-width="8" stroke="url(&quot;#SvgjsLinearGradient1004&quot;)" stroke-linecap="round" class="BottomRight"></path><path d="M271 1505L755 1989" stroke-width="8" stroke="url(&quot;#SvgjsLinearGradient1004&quot;)" stroke-linecap="round" class="BottomRight"></path><path d="M600 1962L1653 3015" stroke-width="10" stroke="url(&quot;#SvgjsLinearGradient1005&quot;)" stroke-linecap="round" class="TopLeft"></path><path d="M1521 1447L2355 2281" stroke-width="6" stroke="url(&quot;#SvgjsLinearGradient1005&quot;)" stroke-linecap="round" class="TopLeft"></path><path d="M1529 675L2666 1812" stroke-width="6" stroke="url(&quot;#SvgjsLinearGradient1004&quot;)" stroke-linecap="round" class="BottomRight"></path><path d="M1007 2040L517 1550" stroke-width="6" stroke="url(&quot;#SvgjsLinearGradient1005&quot;)" stroke-linecap="round" class="TopLeft"></path><path d="M180 2055L-903 972" stroke-width="8" stroke="url(&quot;#SvgjsLinearGradient1005&quot;)" stroke-linecap="round" class="TopLeft"></path><path d="M1151 269L260 -622" stroke-width="8" stroke="url(&quot;#SvgjsLinearGradient1004&quot;)" stroke-linecap="round" class="BottomRight"></path><path d="M559 1470L1507 2418" stroke-width="6" stroke="url(&quot;#SvgjsLinearGradient1004&quot;)" stroke-linecap="round" class="BottomRight"></path><path d="M1181 460L44 -677" stroke-width="6" stroke="url(&quot;#SvgjsLinearGradient1005&quot;)" stroke-linecap="round" class="TopLeft"></path><path d="M1250 849L639 238" stroke-width="6" stroke="url(&quot;#SvgjsLinearGradient1004&quot;)" stroke-linecap="round" class="BottomRight"></path><path d="M258 992L-333 401" stroke-width="8" stroke="url(&quot;#SvgjsLinearGradient1005&quot;)" stroke-linecap="round" class="TopLeft"></path><path d="M181 521L1333 1673" stroke-width="6" stroke="url(&quot;#SvgjsLinearGradient1004&quot;)" stroke-linecap="round" class="BottomRight"></path><path d="M996 829L1741 1574" stroke-width="8" stroke="url(&quot;#SvgjsLinearGradient1004&quot;)" stroke-linecap="round" class="BottomRight"></path><path d="M1327 966L2481 2120" stroke-width="10" stroke="url(&quot;#SvgjsLinearGradient1004&quot;)" stroke-linecap="round" class="BottomRight"></path><path d="M526 1010L1178 1662" stroke-width="6" stroke="url(&quot;#SvgjsLinearGradient1004&quot;)" stroke-linecap="round" class="BottomRight"></path><path d="M1194 1977L2269 3052" stroke-width="10" stroke="url(&quot;#SvgjsLinearGradient1004&quot;)" stroke-linecap="round" class="BottomRight"></path><path d="M1441 1142L941 642" stroke-width="8" stroke="url(&quot;#SvgjsLinearGradient1004&quot;)" stroke-linecap="round" class="BottomRight"></path><path d="M572 248L1487 1163" stroke-width="8" stroke="url(&quot;#SvgjsLinearGradient1005&quot;)" stroke-linecap="round" class="TopLeft"></path><path d="M974 1950L96 1072" stroke-width="6" stroke="url(&quot;#SvgjsLinearGradient1004&quot;)" stroke-linecap="round" class="BottomRight"></path><path d="M276 124L1308 1156" stroke-width="6" stroke="url(&quot;#SvgjsLinearGradient1004&quot;)" stroke-linecap="round" class="BottomRight"></path><path d="M242 1499L1152 2409" stroke-width="8" stroke="url(&quot;#SvgjsLinearGradient1005&quot;)" stroke-linecap="round" class="TopLeft"></path><path d="M74 2222L-657 1491" stroke-width="10" stroke="url(&quot;#SvgjsLinearGradient1004&quot;)" stroke-linecap="round" class="BottomRight"></path><path d="M341 1472L1090 2221" stroke-width="10" stroke="url(&quot;#SvgjsLinearGradient1004&quot;)" stroke-linecap="round" class="BottomRight"></path><path d="M677 482L1667 1472" stroke-width="10" stroke="url(&quot;#SvgjsLinearGradient1005&quot;)" stroke-linecap="round" class="TopLeft"></path><path d="M660 139L-198 -719" stroke-width="8" stroke="url(&quot;#SvgjsLinearGradient1005&quot;)" stroke-linecap="round" class="TopLeft"></path><path d="M1217 801L1926 1510" stroke-width="8" stroke="url(&quot;#SvgjsLinearGradient1005&quot;)" stroke-linecap="round" class="TopLeft"></path><path d="M1118 1623L-30 475" stroke-width="8" stroke="url(&quot;#SvgjsLinearGradient1005&quot;)" stroke-linecap="round" class="TopLeft"></path><path d="M469 76L-266 -659" stroke-width="6" stroke="url(&quot;#SvgjsLinearGradient1004&quot;)" stroke-linecap="round" class="BottomRight"></path><path d="M490 334L1378 1222" stroke-width="8" stroke="url(&quot;#SvgjsLinearGradient1004&quot;)" stroke-linecap="round" class="BottomRight"></path><path d="M1216 1984L2344 3112" stroke-width="6" stroke="url(&quot;#SvgjsLinearGradient1004&quot;)" stroke-linecap="round" class="BottomRight"></path><path d="M1359 1212L301 154" stroke-width="6" stroke="url(&quot;#SvgjsLinearGradient1005&quot;)" stroke-linecap="round" class="TopLeft"></path><path d="M628 1253L1218 1843" stroke-width="10" stroke="url(&quot;#SvgjsLinearGradient1004&quot;)" stroke-linecap="round" class="BottomRight"></path><path d="M1098 2190L1501 2593" stroke-width="6" stroke="url(&quot;#SvgjsLinearGradient1005&quot;)" stroke-linecap="round" class="TopLeft"></path><path d="M847 1028L1882 2063" stroke-width="8" stroke="url(&quot;#SvgjsLinearGradient1005&quot;)" stroke-linecap="round" class="TopLeft"></path><path d="M1101 255L2232 1386" stroke-width="10" stroke="url(&quot;#SvgjsLinearGradient1004&quot;)" stroke-linecap="round" class="BottomRight"></path><path d="M652 1815L1623 2786" stroke-width="6" stroke="url(&quot;#SvgjsLinearGradient1004&quot;)" stroke-linecap="round" class="BottomRight"></path><path d="M1277 2324L891 1938" stroke-width="10" stroke="url(&quot;#SvgjsLinearGradient1005&quot;)" stroke-linecap="round" class="TopLeft"></path><path d="M614 1654L1453 2493" stroke-width="6" stroke="url(&quot;#SvgjsLinearGradient1005&quot;)" stroke-linecap="round" class="TopLeft"></path><path d="M842 2069L1455 2682" stroke-width="10" stroke="url(&quot;#SvgjsLinearGradient1005&quot;)" stroke-linecap="round" class="TopLeft"></path></g><defs><mask id="SvgjsMask1003"><rect width="1540" height="2560" fill="#ffffff"></rect></mask><linearGradient x1="0%" y1="0%" x2="100%" y2="100%" id="SvgjsLinearGradient1004"><stop stop-color="rgba(0, 199, 179, 0)" offset="0"></stop><stop stop-color="rgba(0, 199, 179, 1)" offset="1"></stop></linearGradient><linearGradient x1="100%" y1="100%" x2="0%" y2="0%" id="SvgjsLinearGradient1005"><stop stop-color="rgba(0, 199, 179, 0)" offset="0"></stop><stop stop-color="rgba(0, 199, 179, 1)" offset="1"></stop></linearGradient></defs></svg>