<svg xmlns="http://www.w3.org/2000/svg" version="1.1" xmlns:xlink="http://www.w3.org/1999/xlink" xmlns:svgjs="http://svgjs.dev/svgjs" viewBox="0 0 800 800" opacity="0.19" width="800" height="800"><g stroke-width="2" stroke="hsl(173, 58%, 33%, 0.211)" fill="none"><line x1="0" y1="0" x2="114.28571428571429" y2="114.28571428571429"></line><line x1="114.28571428571429" y1="0" x2="0" y2="114.28571428571429"></line><line x1="114.28571428571429" y1="0" x2="228.57142857142858" y2="114.28571428571429"></line><line x1="228.57142857142858" y1="0" x2="114.28571428571429" y2="114.28571428571429"></line><line x1="228.57142857142858" y1="0" x2="342.8571428571429" y2="114.28571428571429"></line><line x1="342.8571428571429" y1="0" x2="228.57142857142858" y2="114.28571428571429"></line><line x1="342.8571428571429" y1="0" x2="457.14285714285717" y2="114.28571428571429"></line><line x1="457.14285714285717" y1="0" x2="342.8571428571429" y2="114.28571428571429"></line><line x1="457.14285714285717" y1="0" x2="571.4285714285714" y2="114.28571428571429"></line><line x1="571.4285714285714" y1="0" x2="457.14285714285717" y2="114.28571428571429"></line><line x1="571.4285714285714" y1="0" x2="685.7142857142858" y2="114.28571428571429"></line><line x1="685.7142857142858" y1="0" x2="571.4285714285714" y2="114.28571428571429"></line><line x1="685.7142857142858" y1="0" x2="800.0000000000001" y2="114.28571428571429"></line><line x1="800.0000000000001" y1="0" x2="685.7142857142858" y2="114.28571428571429"></line><line x1="800.0000000000001" y1="0" x2="914.2857142857144" y2="114.28571428571429"></line><line x1="914.2857142857144" y1="0" x2="800.0000000000001" y2="114.28571428571429"></line><line x1="0" y1="200" x2="114.28571428571429" y2="314.2857142857143"></line><line x1="114.28571428571429" y1="200" x2="0" y2="314.2857142857143"></line><line x1="114.28571428571429" y1="200" x2="228.57142857142858" y2="314.2857142857143"></line><line x1="228.57142857142858" y1="200" x2="114.28571428571429" y2="314.2857142857143"></line><line x1="228.57142857142858" y1="200" x2="342.8571428571429" y2="314.2857142857143"></line><line x1="342.8571428571429" y1="200" x2="228.57142857142858" y2="314.2857142857143"></line><line x1="342.8571428571429" y1="200" x2="457.14285714285717" y2="314.2857142857143"></line><line x1="457.14285714285717" y1="200" x2="342.8571428571429" y2="314.2857142857143"></line><line x1="457.14285714285717" y1="200" x2="571.4285714285714" y2="314.2857142857143"></line><line x1="571.4285714285714" y1="200" x2="457.14285714285717" y2="314.2857142857143"></line><line x1="571.4285714285714" y1="200" x2="685.7142857142858" y2="314.2857142857143"></line><line x1="685.7142857142858" y1="200" x2="571.4285714285714" y2="314.2857142857143"></line><line x1="685.7142857142858" y1="200" x2="800.0000000000001" y2="314.2857142857143"></line><line x1="800.0000000000001" y1="200" x2="685.7142857142858" y2="314.2857142857143"></line><line x1="800.0000000000001" y1="200" x2="914.2857142857144" y2="314.2857142857143"></line><line x1="914.2857142857144" y1="200" x2="800.0000000000001" y2="314.2857142857143"></line><line x1="0" y1="400" x2="114.28571428571429" y2="514.2857142857143"></line><line x1="114.28571428571429" y1="400" x2="0" y2="514.2857142857143"></line><line x1="114.28571428571429" y1="400" x2="228.57142857142858" y2="514.2857142857143"></line><line x1="228.57142857142858" y1="400" x2="114.28571428571429" y2="514.2857142857143"></line><line x1="228.57142857142858" y1="400" x2="342.8571428571429" y2="514.2857142857143"></line><line x1="342.8571428571429" y1="400" x2="228.57142857142858" y2="514.2857142857143"></line><line x1="342.8571428571429" y1="400" x2="457.14285714285717" y2="514.2857142857143"></line><line x1="457.14285714285717" y1="400" x2="342.8571428571429" y2="514.2857142857143"></line><line x1="457.14285714285717" y1="400" x2="571.4285714285714" y2="514.2857142857143"></line><line x1="571.4285714285714" y1="400" x2="457.14285714285717" y2="514.2857142857143"></line><line x1="571.4285714285714" y1="400" x2="685.7142857142858" y2="514.2857142857143"></line><line x1="685.7142857142858" y1="400" x2="571.4285714285714" y2="514.2857142857143"></line><line x1="685.7142857142858" y1="400" x2="800.0000000000001" y2="514.2857142857143"></line><line x1="800.0000000000001" y1="400" x2="685.7142857142858" y2="514.2857142857143"></line><line x1="800.0000000000001" y1="400" x2="914.2857142857144" y2="514.2857142857143"></line><line x1="914.2857142857144" y1="400" x2="800.0000000000001" y2="514.2857142857143"></line><line x1="0" y1="600" x2="114.28571428571429" y2="714.2857142857143"></line><line x1="114.28571428571429" y1="600" x2="0" y2="714.2857142857143"></line><line x1="114.28571428571429" y1="600" x2="228.57142857142858" y2="714.2857142857143"></line><line x1="228.57142857142858" y1="600" x2="114.28571428571429" y2="714.2857142857143"></line><line x1="228.57142857142858" y1="600" x2="342.8571428571429" y2="714.2857142857143"></line><line x1="342.8571428571429" y1="600" x2="228.57142857142858" y2="714.2857142857143"></line><line x1="342.8571428571429" y1="600" x2="457.14285714285717" y2="714.2857142857143"></line><line x1="457.14285714285717" y1="600" x2="342.8571428571429" y2="714.2857142857143"></line><line x1="457.14285714285717" y1="600" x2="571.4285714285714" y2="714.2857142857143"></line><line x1="571.4285714285714" y1="600" x2="457.14285714285717" y2="714.2857142857143"></line><line x1="571.4285714285714" y1="600" x2="685.7142857142858" y2="714.2857142857143"></line><line x1="685.7142857142858" y1="600" x2="571.4285714285714" y2="714.2857142857143"></line><line x1="685.7142857142858" y1="600" x2="800.0000000000001" y2="714.2857142857143"></line><line x1="800.0000000000001" y1="600" x2="685.7142857142858" y2="714.2857142857143"></line><line x1="800.0000000000001" y1="600" x2="914.2857142857144" y2="714.2857142857143"></line><line x1="914.2857142857144" y1="600" x2="800.0000000000001" y2="714.2857142857143"></line><line x1="0" y1="800" x2="114.28571428571429" y2="914.2857142857143"></line><line x1="114.28571428571429" y1="800" x2="0" y2="914.2857142857143"></line><line x1="114.28571428571429" y1="800" x2="228.57142857142858" y2="914.2857142857143"></line><line x1="228.57142857142858" y1="800" x2="114.28571428571429" y2="914.2857142857143"></line><line x1="228.57142857142858" y1="800" x2="342.8571428571429" y2="914.2857142857143"></line><line x1="342.8571428571429" y1="800" x2="228.57142857142858" y2="914.2857142857143"></line><line x1="342.8571428571429" y1="800" x2="457.14285714285717" y2="914.2857142857143"></line><line x1="457.14285714285717" y1="800" x2="342.8571428571429" y2="914.2857142857143"></line><line x1="457.14285714285717" y1="800" x2="571.4285714285714" y2="914.2857142857143"></line><line x1="571.4285714285714" y1="800" x2="457.14285714285717" y2="914.2857142857143"></line><line x1="571.4285714285714" y1="800" x2="685.7142857142858" y2="914.2857142857143"></line><line x1="685.7142857142858" y1="800" x2="571.4285714285714" y2="914.2857142857143"></line><line x1="685.7142857142858" y1="800" x2="800.0000000000001" y2="914.2857142857143"></line><line x1="800.0000000000001" y1="800" x2="685.7142857142858" y2="914.2857142857143"></line><line x1="800.0000000000001" y1="800" x2="914.2857142857144" y2="914.2857142857143"></line><line x1="914.2857142857144" y1="800" x2="800.0000000000001" y2="914.2857142857143"></line></g></svg>