<svg xmlns="http://www.w3.org/2000/svg" version="1.1" xmlns:xlink="http://www.w3.org/1999/xlink" xmlns:svgjs="http://svgjs.dev/svgjs" width="2440" height="4560" preserveAspectRatio="none" viewBox="0 0 2440 4560"><g mask="url(&quot;#SvgjsMask1156&quot;)" fill="none"><path d="M 1023,-736.8370720182838 C 1091.4,-508.84 1569.6,-52.84 1365,403.1629279817162 C 1160.4,859.16 -113,1087.16 0,1543.1629279817162 C 113,1999.16 1785.8,2227.16 1930,2683.162927981716 C 2074.2,3139.16 644,3367.16 721,3823.162927981716 C 798,4279.16 2441.6,4815.8 2315,4963.162927981716 C 2188.4,5110.53 533.4,4640.63 88,4560" stroke="rgba(2, 47, 70, 0.15)" stroke-width="2"></path><path d="M 803,-1990.972564262906 C 970.4,-1762.97 1658.8,-1306.97 1640,-850.972564262906 C 1621.2,-394.97 740,-166.97 709,289.02743573709404 C 678,745.03 1562,973.03 1485,1429.027435737094 C 1408,1885.03 362.4,2113.03 324,2569.027435737094 C 285.6,3025.03 1285.2,3310.83 1293,3709.027435737094 C 1300.8,4107.22 549,4389.81 363,4560" stroke="rgba(2, 47, 70, 0.15)" stroke-width="2"></path><path d="M 575,-1015.991235762769 C 806.4,-787.99 1799.2,-331.99 1732,124.00876423723109 C 1664.8,580.01 166.6,808.01 239,1264.0087642372312 C 311.4,1720.01 1902.4,1948.01 2094,2404.008764237231 C 2285.6,2860.01 1221,3088.01 1197,3544.008764237231 C 1173,4000.01 2025.6,4480.81 1974,4684.008764237231 C 1922.4,4887.21 1146,4584.8 939,4560" stroke="rgba(2, 47, 70, 0.15)" stroke-width="2"></path><path d="M 593,-1583.1680850266926 C 929.6,-1355.17 2379,-899.17 2276,-443.16808502669244 C 2173,12.83 115.6,240.83 78,696.8319149733076 C 40.4,1152.83 1974.6,1380.83 2088,1836.8319149733074 C 2201.4,2292.83 766.6,2520.83 645,2976.8319149733074 C 523.4,3432.83 1588.8,3800.2 1480,4116.831914973308 C 1371.2,4433.47 376.8,4471.37 101,4560" stroke="rgba(2, 47, 70, 0.15)" stroke-width="2"></path><path d="M 544,-2099.9386222511525 C 806,-1871.94 1922.6,-1415.94 1854,-959.9386222511525 C 1785.4,-503.94 156.4,-275.94 201,180.06137774884746 C 245.6,636.06 2003.4,864.06 2077,1320.0613777488475 C 2150.6,1776.06 592.2,2004.06 569,2460.0613777488475 C 545.8,2916.06 2060.6,3180.07 1961,3600.0613777488475 C 1861.4,4020.05 449,4368.01 71,4560" stroke="rgba(2, 47, 70, 0.15)" stroke-width="2"></path><path d="M 19,-1342.0789107702292 C 404.6,-1114.08 1904.8,-658.08 1947,-202.07891077022924 C 1989.2,253.92 353,481.92 230,937.9210892297708 C 107,1393.92 1296.2,1621.92 1332,2077.9210892297706 C 1367.8,2533.92 381.4,2761.92 409,3217.9210892297706 C 436.6,3673.92 1531.4,4089.51 1470,4357.921089229771 C 1408.6,4626.34 375.6,4519.58 102,4560" stroke="rgba(2, 47, 70, 0.15)" stroke-width="2"></path><path d="M 1054,-767.8069921579803 C 1319,-539.81 2546.2,-83.81 2379,372.1930078420197 C 2211.8,828.19 364,1056.19 218,1512.1930078420196 C 72,1968.19 1613,2196.19 1649,2652.1930078420196 C 1685,3108.19 383.8,3336.19 398,3792.1930078420196 C 412.2,4248.19 1663.2,4778.63 1720,4932.19300784202 C 1776.8,5085.75 889.6,4634.44 682,4560" stroke="rgba(2, 47, 70, 0.15)" stroke-width="2"></path><path d="M 1630,-1779.9823427638203 C 1501.4,-1551.98 973,-1095.98 987,-639.9823427638202 C 1001,-183.98 1836.6,44.02 1700,500.01765723617984 C 1563.4,956.02 388.4,1184.02 304,1640.0176572361797 C 219.6,2096.02 1209.4,2324.02 1278,2780.0176572361797 C 1346.6,3236.02 539.6,3564.02 647,3920.0176572361797 C 754.4,4276.01 1581.4,4432 1815,4560" stroke="rgba(2, 47, 70, 0.15)" stroke-width="2"></path><path d="M 1871,-386.07280239618353 C 1579.2,-158.07 452.2,297.93 412,753.9271976038165 C 371.8,1209.93 1684.6,1437.93 1670,1893.9271976038165 C 1655.4,2349.93 259.4,2577.93 339,3033.9271976038162 C 418.6,3489.93 1925.8,3717.93 2068,4173.927197603816 C 2210.2,4629.93 1032.2,5236.71 1050,5313.927197603816 C 1067.8,5391.14 1935.6,4710.79 2157,4560" stroke="rgba(2, 47, 70, 0.15)" stroke-width="2"></path><path d="M 695,-2270.657235816584 C 981.6,-2042.66 2066.6,-1586.66 2128,-1130.657235816584 C 2189.4,-674.66 1138.6,-446.66 1002,9.342764183415966 C 865.4,465.34 1587.2,693.34 1445,1149.342764183416 C 1302.8,1605.34 284.6,1833.34 291,2289.342764183416 C 297.4,2745.34 1346.2,2975.21 1477,3429.342764183416 C 1607.8,3883.47 1051.4,4333.87 945,4560" stroke="rgba(2, 47, 70, 0.15)" stroke-width="2"></path></g><defs><mask id="SvgjsMask1156"><rect width="2440" height="4560" fill="#ffffff"></rect></mask></defs></svg>