<svg xmlns="http://www.w3.org/2000/svg" version="1.1" xmlns:xlink="http://www.w3.org/1999/xlink" xmlns:svgjs="http://svgjs.dev/svgjs" width="2440" height="4560" preserveAspectRatio="none" viewBox="0 0 2440 4560"><g mask="url(&quot;#SvgjsMask1155&quot;)" fill="none"><path d="M 1897,-1258.310544705095 C 1756.2,-1030.31 1140.2,-574.31 1193,-118.31054470509493 C 1245.8,337.69 2251.6,565.69 2161,1021.6894552949051 C 2070.4,1477.69 728.8,1705.69 740,2161.689455294905 C 751.2,2617.69 2143.4,2845.69 2217,3301.689455294905 C 2290.6,3757.69 1279.6,4190.03 1108,4441.689455294905 C 936.4,4693.35 1308.8,4536.34 1359,4560" stroke="rgba(2, 47, 70, 0.28)" stroke-width="2"></path><path d="M 1869,-93.63696090238386 C 1650.8,134.36 814.2,590.36 778,1046.3630390976161 C 741.8,1502.36 1651.6,1730.36 1688,2186.363039097616 C 1724.4,2642.36 956.6,2870.36 960,3326.363039097616 C 963.4,3782.36 1761.2,4010.36 1705,4466.363039097616 C 1648.8,4922.36 542.4,5587.64 679,5606.363039097616 C 815.6,5625.09 2046.2,4769.27 2388,4560" stroke="rgba(2, 47, 70, 0.28)" stroke-width="2"></path><path d="M 1965,-2279.314812824495 C 1669.2,-2051.31 606.6,-1595.31 486,-1139.3148128244952 C 365.4,-683.31 1255.6,-455.31 1362,0.6851871755047796 C 1468.4,456.69 806.2,684.69 1018,1140.6851871755048 C 1229.8,1596.69 2469.6,1824.69 2421,2280.685187175505 C 2372.4,2736.69 860.2,2964.82 775,3420.685187175505 C 689.8,3876.55 1751,4332.14 1995,4560" stroke="rgba(2, 47, 70, 0.28)" stroke-width="2"></path><path d="M 2235,-1012.7555170522556 C 2012,-784.76 1175,-328.76 1120,127.24448294774432 C 1065,583.24 2023,811.24 1960,1267.2444829477442 C 1897,1723.24 752.8,1951.24 805,2407.2444829477445 C 857.2,2863.24 2303.4,3091.24 2221,3547.2444829477445 C 2138.6,4003.24 373.6,4484.69 393,4687.2444829477445 C 412.4,4889.8 1933,4585.45 2318,4560" stroke="rgba(2, 47, 70, 0.28)" stroke-width="2"></path><path d="M 802,-534.9868106120119 C 1108,-306.99 2350,149.01 2332,605.0131893879881 C 2314,1061.01 782.4,1289.01 712,1745.013189387988 C 641.6,2201.01 1984.8,2429.01 1980,2885.013189387988 C 1975.2,3341.01 821.2,3569.01 688,4025.013189387988 C 554.8,4481.01 1365.2,5058.02 1314,5165.013189387988 C 1262.8,5272.01 608.4,4681 432,4560" stroke="rgba(2, 47, 70, 0.28)" stroke-width="2"></path><path d="M 1755,-1698.2083999066936 C 1578,-1470.21 948.4,-1014.21 870,-558.2083999066936 C 791.6,-102.21 1440.2,125.79 1363,581.7916000933064 C 1285.8,1037.79 281.2,1265.79 484,1721.7916000933064 C 686.8,2177.79 2231.4,2405.79 2377,2861.7916000933064 C 2522.6,3317.79 1301.8,3662.15 1212,4001.7916000933064 C 1122.2,4341.43 1784.8,4448.36 1928,4560" stroke="rgba(2, 47, 70, 0.28)" stroke-width="2"></path><path d="M 598,-2095.1770809895647 C 944.4,-1867.18 2327.8,-1411.18 2330,-955.1770809895647 C 2332.2,-499.18 675.4,-271.18 609,184.82291901043527 C 542.6,640.82 2092.6,868.82 1998,1324.8229190104353 C 1903.4,1780.82 204.8,2008.82 136,2464.8229190104353 C 67.2,2920.82 1577.6,3185.79 1654,3604.8229190104353 C 1730.4,4023.86 745.2,4368.96 518,4560" stroke="rgba(2, 47, 70, 0.28)" stroke-width="2"></path><path d="M 1021,-1342.807398109754 C 1209,-1114.81 1921.6,-658.81 1961,-202.80739810975405 C 2000.4,253.19 1152.2,481.19 1218,937.1926018902459 C 1283.8,1393.19 2453.2,1621.19 2290,2077.192601890246 C 2126.8,2533.19 603.8,2761.19 402,3217.192601890246 C 200.2,3673.19 1161.2,4088.63 1281,4357.192601890246 C 1400.8,4625.75 1057,4519.44 1001,4560" stroke="rgba(2, 47, 70, 0.28)" stroke-width="2"></path><path d="M 1991,-1882.7132938097207 C 1679.2,-1654.71 451.6,-1198.71 432,-742.7132938097207 C 412.4,-286.71 1943.6,-58.71 1893,397.28670619027935 C 1842.4,853.29 247.4,1081.29 179,1537.2867061902793 C 110.6,1993.29 1415.2,2221.29 1551,2677.2867061902793 C 1686.8,3133.29 814.6,3440.74 858,3817.2867061902793 C 901.4,4193.83 1586,4411.46 1768,4560" stroke="rgba(2, 47, 70, 0.28)" stroke-width="2"></path><path d="M 1089,-830.6535590106253 C 1182.8,-602.65 1657.6,-146.65 1558,309.3464409893747 C 1458.4,765.35 431.2,993.35 591,1449.3464409893747 C 750.8,1905.35 2401.8,2133.35 2357,2589.3464409893745 C 2312.2,3045.35 376.4,3273.35 367,3729.3464409893745 C 357.6,4185.35 2266.4,4703.22 2310,4869.346440989375 C 2353.6,5035.48 930,4621.87 585,4560" stroke="rgba(2, 47, 70, 0.28)" stroke-width="2"></path></g><defs><mask id="SvgjsMask1155"><rect width="2440" height="4560" fill="#ffffff"></rect></mask></defs></svg>