<svg xmlns="http://www.w3.org/2000/svg" version="1.1" xmlns:xlink="http://www.w3.org/1999/xlink" xmlns:svgjs="http://svgjs.dev/svgjs" width="2440" height="4560" preserveAspectRatio="none" viewBox="0 0 2440 4560"><g mask="url(&quot;#SvgjsMask1153&quot;)" fill="none"><path d="M 2213,-2115.7902108811136 C 1882,-1887.79 555,-1431.79 558,-975.7902108811135 C 561,-519.79 2170.8,-291.79 2228,164.20978911888653 C 2285.2,620.21 865,848.21 844,1304.2097891188864 C 823,1760.21 2288.2,1988.21 2123,2444.2097891188864 C 1957.8,2900.21 180.2,3161.05 18,3584.2097891188864 C -144.2,4007.37 1053.2,4364.84 1312,4560" stroke="rgba(0, 199, 179, 0.25)" stroke-width="2"></path><path d="M 341,-1176.935748463844 C 553.8,-948.94 1318.2,-492.94 1405,-36.93574846384409 C 1491.8,419.06 759.8,647.06 775,1103.064251536156 C 790.2,1559.06 1519.8,1787.06 1481,2243.064251536156 C 1442.2,2699.06 465.2,2927.06 581,3383.064251536156 C 696.8,3839.06 2016,4287.68 2060,4523.064251536156 C 2104,4758.45 1052.8,4552.61 801,4560" stroke="rgba(0, 199, 179, 0.25)" stroke-width="2"></path><path d="M 1496,-1555.8135302288933 C 1334.8,-1327.81 675,-871.81 690,-415.8135302288934 C 705,40.19 1524.8,268.19 1571,724.1864697711067 C 1617.2,1180.19 940.8,1408.19 921,1864.1864697711067 C 901.2,2320.19 1428.6,2548.19 1472,3004.1864697711067 C 1515.4,3460.19 1164.8,3833.02 1138,4144.186469771106 C 1111.2,4455.35 1298,4476.84 1338,4560" stroke="rgba(0, 199, 179, 0.25)" stroke-width="2"></path><path d="M 1962,-419.14784574382975 C 1596.2,-191.15 163.6,264.85 133,720.8521542561703 C 102.4,1176.85 1661.6,1404.85 1809,1860.8521542561703 C 1956.4,2316.85 935,2544.85 870,3000.8521542561703 C 805,3456.85 1549.6,3684.85 1484,4140.85215425617 C 1418.4,4596.85 501.8,5197.02 542,5280.85215425617 C 582.2,5364.68 1456.4,4704.17 1685,4560" stroke="rgba(0, 199, 179, 0.25)" stroke-width="2"></path><path d="M 1048,-2171.852170742546 C 1239.2,-1943.85 2181.4,-1487.85 2004,-1031.8521707425464 C 1826.6,-575.85 141.8,-347.85 161,108.14782925745362 C 180.2,564.15 1918.2,792.15 2100,1248.1478292574536 C 2281.8,1704.15 1093.8,1932.15 1070,2388.147829257454 C 1046.2,2844.15 2152.6,3093.78 1981,3528.147829257454 C 1809.4,3962.52 565.8,4353.63 212,4560" stroke="rgba(0, 199, 179, 0.25)" stroke-width="2"></path><path d="M 982,-1945.678154443657 C 1264.8,-1717.68 2570.2,-1261.68 2396,-805.6781544436569 C 2221.8,-349.68 261.2,-121.68 111,334.3218455563431 C -39.2,790.32 1641.8,1018.32 1645,1474.321845556343 C 1648.2,1930.32 85,2158.32 127,2614.321845556343 C 169,3070.32 1765.2,3365.19 1855,3754.321845556343 C 1944.8,4143.46 831.8,4398.86 576,4560" stroke="rgba(0, 199, 179, 0.25)" stroke-width="2"></path><path d="M 1228,-411.3698415701549 C 1053,-183.37 248.4,272.63 353,728.6301584298451 C 457.6,1184.63 1821.6,1412.63 1751,1868.630158429845 C 1680.4,2324.63 57.2,2552.63 0,3008.6301584298453 C -57.2,3464.63 1284.4,3692.63 1465,4148.630158429845 C 1645.6,4604.63 948.6,5206.36 903,5288.630158429845 C 857.4,5370.9 1170.2,4705.73 1237,4560" stroke="rgba(0, 199, 179, 0.25)" stroke-width="2"></path><path d="M 2137,-1902.4285829570758 C 1750.6,-1674.43 285.6,-1218.43 205,-762.428582957076 C 124.4,-306.43 1744.4,-78.43 1734,377.57141704292405 C 1723.6,833.57 145.4,1061.57 153,1517.5714170429242 C 160.6,1973.57 1681.6,2201.57 1772,2657.571417042924 C 1862.4,3113.57 676.6,3417.09 605,3797.571417042924 C 533.4,4178.06 1252.2,4407.51 1414,4560" stroke="rgba(0, 199, 179, 0.25)" stroke-width="2"></path><path d="M 1141,-351.36236028843655 C 1177.2,-123.36 1466.8,332.64 1322,788.6376397115635 C 1177.2,1244.64 298,1472.64 417,1928.6376397115635 C 536,2384.64 1786.2,2612.64 1917,3068.6376397115637 C 2047.8,3524.64 1090.2,3752.64 1071,4208.637639711564 C 1051.8,4664.64 2028,5278.37 1821,5348.637639711564 C 1614,5418.91 393,4717.73 36,4560" stroke="rgba(0, 199, 179, 0.25)" stroke-width="2"></path><path d="M 2038,-781.910289364843 C 1852.4,-553.91 1100.4,-97.91 1110,358.089710635157 C 1119.6,814.09 2142.2,1042.09 2086,1498.089710635157 C 2029.8,1954.09 980.8,2182.09 829,2638.089710635157 C 677.2,3094.09 1397.2,3322.09 1327,3778.089710635157 C 1256.8,4234.09 431.6,4761.71 478,4918.089710635157 C 524.4,5074.47 1342.8,4631.62 1559,4560" stroke="rgba(0, 199, 179, 0.25)" stroke-width="2"></path></g><defs><mask id="SvgjsMask1153"><rect width="2440" height="4560" fill="#ffffff"></rect></mask></defs></svg>