<svg xmlns="http://www.w3.org/2000/svg" version="1.1" xmlns:xlink="http://www.w3.org/1999/xlink" xmlns:svgjs="http://svgjs.dev/svgjs" width="440" height="560" preserveAspectRatio="none" viewBox="0 0 440 560"><g mask="url(&quot;#SvgjsMask1184&quot;)" fill="none"><path d="M -216.94599313480842,256 C -194.95,271 -150.95,333.4 -106.94599313480842,331 C -62.95,328.6 -40.95,253.8 3.0540068651915817,244 C 47.05,234.2 69.05,282.2 113.05400686519158,282 C 157.05,281.8 179.05,239.2 223.05400686519158,243 C 267.05,246.8 289.66,299.2 333.0540068651916,301 C 376.44,302.8 418.61,261.8 440,252" stroke="rgba(0, 199, 179, 0.1)" stroke-width="2"></path><path d="M -195.95797243778196,313 C -173.96,305.4 -129.96,281.2 -85.95797243778195,275 C -41.96,268.8 -19.96,288.6 24.042027562218053,282 C 68.04,275.4 90.04,232.6 134.04202756221804,242 C 178.04,251.4 200.04,327.4 244.04202756221804,329 C 288.04,330.6 314.85,256 354.04202756221804,250 C 393.23,244 422.81,289.2 440,299" stroke="rgba(0, 199, 179, 0.1)" stroke-width="2"></path><path d="M -107.50364344836287,245 C -85.5,260.6 -41.5,323.4 2.496356551637131,323 C 46.5,322.6 68.5,246.2 112.49635655163713,243 C 156.5,239.8 178.5,301.2 222.49635655163712,307 C 266.5,312.8 288.5,267 332.4963565516371,272 C 376.5,277 421,339.2 442.4963565516371,332 C 464,324.8 440.5,255.2 440,236" stroke="rgba(0, 199, 179, 0.1)" stroke-width="2"></path><path d="M -46.447674639586616,273 C -24.45,279 19.55,309 63.552325360413384,303 C 107.55,297 129.55,238.4 173.5523253604134,243 C 217.55,247.6 239.55,319.4 283.55232536041336,326 C 327.55,332.6 349.55,279.8 393.55232536041336,276 C 437.55,272.2 494.26,309.6 503.55232536041336,307 C 512.84,304.4 452.71,271.8 440,263" stroke="rgba(0, 199, 179, 0.1)" stroke-width="2"></path><path d="M -99.17475621270681,332 C -77.17,315.8 -33.17,259.6 10.82524378729319,251 C 54.83,242.4 76.83,291.6 120.82524378729319,289 C 164.83,286.4 186.83,232.2 230.82524378729318,238 C 274.83,243.8 296.83,316.8 340.8252437872932,318 C 384.83,319.2 430.99,248 450.8252437872932,244 C 470.66,240 442.17,287.2 440,298" stroke="rgba(0, 199, 179, 0.1)" stroke-width="2"></path><path d="M -144.10514810288163,304 C -122.11,288.6 -78.11,227.4 -34.10514810288162,227 C 9.89,226.6 31.89,294.2 75.89485189711837,302 C 119.89,309.8 141.89,259.6 185.89485189711837,266 C 229.89,272.4 251.89,338.4 295.8948518971184,334 C 339.89,329.6 377.07,247.8 405.8948518971184,244 C 434.72,240.2 433.18,300.8 440,315" stroke="rgba(0, 199, 179, 0.1)" stroke-width="2"></path><path d="M -19.39472916098312,251 C 2.61,261.2 46.61,300.4 90.60527083901688,302 C 134.61,303.6 156.61,262.2 200.6052708390169,259 C 244.61,255.8 266.61,284.8 310.6052708390169,286 C 354.61,287.2 376.61,261.4 420.6052708390169,265 C 464.61,268.6 526.73,305.8 530.6052708390168,304 C 534.48,302.2 458.12,265.6 440,256" stroke="rgba(0, 199, 179, 0.1)" stroke-width="2"></path><path d="M -208.09664111909473,328 C -186.1,307.4 -142.1,224 -98.09664111909473,225 C -54.1,226 -32.1,329.2 11.903358880905273,333 C 55.9,336.8 77.9,252 121.90335888090527,244 C 165.9,236 187.9,292.4 231.90335888090527,293 C 275.9,293.6 300.28,248.2 341.9033588809053,247 C 383.52,245.8 420.38,279 440,287" stroke="rgba(0, 199, 179, 0.1)" stroke-width="2"></path><path d="M -167.60068878030702,259 C -145.6,272.8 -101.6,327.4 -57.600688780307024,328 C -13.6,328.6 8.4,262.6 52.399311219692976,262 C 96.4,261.4 118.4,323.8 162.39931121969298,325 C 206.4,326.2 228.4,275.4 272.399311219693,268 C 316.4,260.6 348.88,291.6 382.399311219693,288 C 415.92,284.4 428.48,257.6 440,250" stroke="rgba(0, 199, 179, 0.1)" stroke-width="2"></path><path d="M -51.6580764391291,224 C -29.66,246 14.34,324.4 58.3419235608709,334 C 102.34,343.6 124.34,273.6 168.3419235608709,272 C 212.34,270.4 234.34,330.2 278.3419235608709,326 C 322.34,321.8 344.34,254.2 388.3419235608709,251 C 432.34,247.8 488.01,313.6 498.3419235608709,310 C 508.67,306.4 451.67,248.4 440,233" stroke="rgba(0, 199, 179, 0.1)" stroke-width="2"></path></g><defs><mask id="SvgjsMask1184"><rect width="440" height="560" fill="#ffffff"></rect></mask></defs></svg>