<svg xmlns="http://www.w3.org/2000/svg" version="1.1" xmlns:xlink="http://www.w3.org/1999/xlink" xmlns:svgjs="http://svgjs.dev/svgjs" width="2440" height="2560" preserveAspectRatio="none" viewBox="0 0 2440 2560"><g mask="url(&quot;#SvgjsMask1258&quot;)" fill="none"><g mask="url(&quot;#SvgjsMask1259&quot;)"><path d="M57.5 1276.5L80.5 1253.5L103.5 1253.5L126.5 1253.5M655.5 1276.5L678.5 1253.5L701.5 1253.5L724.5 1253.5M586.5 1253.5L609.5 1253.5L632.5 1253.5M701.5 1276.5L724.5 1299.5M402.5 1276.5L425.5 1253.5M494.5 1276.5L517.5 1276.5L540.5 1276.5L563.5 1276.5L586.5 1276.5L609.5 1299.5M747.5 1276.5L770.5 1276.5L793.5 1276.5M287.5 1276.5L310.5 1253.5L333.5 1253.5L356.5 1253.5L379.5 1253.5L402.5 1253.5L425.5 1230.5M195.5 1276.5L218.5 1253.5L241.5 1253.5L264.5 1253.5L287.5 1253.5L310.5 1230.5M448.5 1276.5L471.5 1299.5L494.5 1299.5L517.5 1299.5L540.5 1299.5L563.5 1299.5M-11.5 1276.5L11.5 1276.5L34.5 1276.5L57.5 1276.5L80.5 1276.5L103.5 1276.5L126.5 1276.5L149.5 1276.5L172.5 1276.5L195.5 1276.5L218.5 1276.5L241.5 1276.5L264.5 1276.5L287.5 1276.5L310.5 1276.5L333.5 1276.5L356.5 1276.5L379.5 1276.5L402.5 1276.5L425.5 1276.5L448.5 1276.5L471.5 1276.5L494.5 1276.5L517.5 1253.5L540.5 1253.5L563.5 1253.5L586.5 1253.5L609.5 1276.5L632.5 1276.5L655.5 1276.5L678.5 1276.5L701.5 1276.5L724.5 1276.5L747.5 1276.5L770.5 1299.5L793.5 1299.5L816.5 1299.5L839.5 1299.5L862.5 1299.5L885.5 1299.5L908.5 1299.5" stroke="rgba(0, 199, 179, 0.11)" stroke-width="3.83"></path><path d="M902.75 1299.5 a5.75 5.75 0 1 0 11.5 0 a5.75 5.75 0 1 0 -11.5 0zM120.75 1253.5 a5.75 5.75 0 1 0 11.5 0 a5.75 5.75 0 1 0 -11.5 0zM718.75 1253.5 a5.75 5.75 0 1 0 11.5 0 a5.75 5.75 0 1 0 -11.5 0zM626.75 1253.5 a5.75 5.75 0 1 0 11.5 0 a5.75 5.75 0 1 0 -11.5 0zM718.75 1299.5 a5.75 5.75 0 1 0 11.5 0 a5.75 5.75 0 1 0 -11.5 0zM419.75 1253.5 a5.75 5.75 0 1 0 11.5 0 a5.75 5.75 0 1 0 -11.5 0zM603.75 1299.5 a5.75 5.75 0 1 0 11.5 0 a5.75 5.75 0 1 0 -11.5 0zM787.75 1276.5 a5.75 5.75 0 1 0 11.5 0 a5.75 5.75 0 1 0 -11.5 0zM419.75 1230.5 a5.75 5.75 0 1 0 11.5 0 a5.75 5.75 0 1 0 -11.5 0zM304.75 1230.5 a5.75 5.75 0 1 0 11.5 0 a5.75 5.75 0 1 0 -11.5 0zM557.75 1299.5 a5.75 5.75 0 1 0 11.5 0 a5.75 5.75 0 1 0 -11.5 0z" fill="rgba(0, 199, 179, 0.11)"></path><path d="M586.5 1368.5L609.5 1345.5L632.5 1345.5L655.5 1345.5L678.5 1345.5L701.5 1345.5L724.5 1322.5L747.5 1322.5M218.5 1322.5L241.5 1299.5L264.5 1299.5L287.5 1299.5L310.5 1299.5L333.5 1299.5L356.5 1299.5L379.5 1299.5L402.5 1299.5M770.5 1368.5L793.5 1368.5L816.5 1368.5L839.5 1368.5L862.5 1391.5L885.5 1414.5L908.5 1414.5L931.5 1414.5L954.5 1414.5L977.5 1414.5L1000.5 1414.5L1023.5 1414.5L1046.5 1414.5M540.5 1368.5L563.5 1345.5L586.5 1345.5L609.5 1322.5L632.5 1322.5L655.5 1322.5L678.5 1322.5L701.5 1322.5M931.5 1391.5L954.5 1368.5L977.5 1368.5L1000.5 1368.5L1023.5 1368.5L1046.5 1368.5M287.5 1345.5L310.5 1322.5L333.5 1322.5M333.5 1345.5L356.5 1368.5L379.5 1368.5L402.5 1368.5M356.5 1345.5L379.5 1322.5L402.5 1322.5M747.5 1368.5L770.5 1391.5L793.5 1391.5L816.5 1391.5L839.5 1414.5L862.5 1414.5M724.5 1368.5L747.5 1345.5L770.5 1345.5M-11.5 1299.5L11.5 1299.5L34.5 1299.5L57.5 1299.5L80.5 1299.5L103.5 1299.5L126.5 1299.5L149.5 1299.5L172.5 1299.5L195.5 1299.5L218.5 1322.5L241.5 1322.5L264.5 1322.5L287.5 1345.5L310.5 1345.5L333.5 1345.5L356.5 1345.5L379.5 1345.5L402.5 1345.5L425.5 1345.5L448.5 1345.5L471.5 1345.5L494.5 1368.5L517.5 1368.5L540.5 1368.5L563.5 1368.5L586.5 1368.5L609.5 1368.5L632.5 1368.5L655.5 1368.5L678.5 1368.5L701.5 1368.5L724.5 1368.5L747.5 1368.5L770.5 1368.5L793.5 1345.5L816.5 1345.5L839.5 1345.5L862.5 1368.5L885.5 1391.5L908.5 1391.5L931.5 1391.5L954.5 1391.5" stroke="rgba(0, 199, 179, 0.11)" stroke-width="3.83"></path><path d="M948.75 1391.5 a5.75 5.75 0 1 0 11.5 0 a5.75 5.75 0 1 0 -11.5 0zM741.75 1322.5 a5.75 5.75 0 1 0 11.5 0 a5.75 5.75 0 1 0 -11.5 0zM396.75 1299.5 a5.75 5.75 0 1 0 11.5 0 a5.75 5.75 0 1 0 -11.5 0zM1040.75 1414.5 a5.75 5.75 0 1 0 11.5 0 a5.75 5.75 0 1 0 -11.5 0zM695.75 1322.5 a5.75 5.75 0 1 0 11.5 0 a5.75 5.75 0 1 0 -11.5 0zM1040.75 1368.5 a5.75 5.75 0 1 0 11.5 0 a5.75 5.75 0 1 0 -11.5 0zM327.75 1322.5 a5.75 5.75 0 1 0 11.5 0 a5.75 5.75 0 1 0 -11.5 0zM396.75 1368.5 a5.75 5.75 0 1 0 11.5 0 a5.75 5.75 0 1 0 -11.5 0zM396.75 1322.5 a5.75 5.75 0 1 0 11.5 0 a5.75 5.75 0 1 0 -11.5 0zM856.75 1414.5 a5.75 5.75 0 1 0 11.5 0 a5.75 5.75 0 1 0 -11.5 0zM764.75 1345.5 a5.75 5.75 0 1 0 11.5 0 a5.75 5.75 0 1 0 -11.5 0z" fill="rgba(0, 199, 179, 0.11)"></path><path d="M839.5 1207.5L862.5 1230.5L885.5 1230.5L908.5 1230.5L931.5 1230.5L954.5 1230.5L977.5 1230.5M1046.5 1207.5L1069.5 1184.5L1092.5 1184.5L1115.5 1184.5L1138.5 1161.5L1161.5 1161.5M448.5 1230.5L471.5 1253.5L494.5 1253.5M977.5 1207.5L1000.5 1184.5L1023.5 1184.5L1046.5 1184.5L1069.5 1161.5L1092.5 1161.5L1115.5 1161.5M770.5 1207.5L793.5 1230.5L816.5 1230.5L839.5 1230.5M724.5 1207.5L747.5 1230.5L770.5 1230.5L793.5 1253.5L816.5 1253.5M1069.5 1207.5L1092.5 1230.5L1115.5 1230.5L1138.5 1230.5L1161.5 1230.5M954.5 1207.5L977.5 1184.5L1000.5 1161.5L1023.5 1161.5L1046.5 1161.5L1069.5 1138.5L1092.5 1138.5L1115.5 1138.5L1138.5 1138.5L1161.5 1138.5L1184.5 1138.5L1207.5 1138.5L1230.5 1138.5L1253.5 1138.5L1276.5 1115.5M379.5 1207.5L402.5 1230.5M1000.5 1207.5L1023.5 1230.5L1046.5 1230.5L1069.5 1230.5L1092.5 1253.5L1115.5 1253.5L1138.5 1253.5L1161.5 1253.5L1184.5 1253.5L1207.5 1253.5L1230.5 1253.5L1253.5 1253.5L1276.5 1230.5L1299.5 1230.5L1322.5 1230.5L1345.5 1230.5M149.5 1207.5L172.5 1230.5M195.5 1207.5L218.5 1230.5L241.5 1230.5L264.5 1230.5L287.5 1230.5M-11.5 1253.5L11.5 1253.5L34.5 1230.5L57.5 1230.5L80.5 1230.5L103.5 1207.5L126.5 1207.5L149.5 1207.5L172.5 1207.5L195.5 1207.5L218.5 1207.5L241.5 1207.5L264.5 1207.5L287.5 1207.5L310.5 1207.5L333.5 1207.5L356.5 1207.5L379.5 1207.5L402.5 1207.5L425.5 1207.5L448.5 1230.5L471.5 1230.5L494.5 1230.5L517.5 1207.5L540.5 1184.5L563.5 1184.5L586.5 1184.5L609.5 1207.5L632.5 1207.5L655.5 1207.5L678.5 1207.5L701.5 1207.5L724.5 1207.5L747.5 1207.5L770.5 1207.5L793.5 1207.5L816.5 1207.5L839.5 1207.5L862.5 1207.5L885.5 1207.5L908.5 1207.5L931.5 1207.5L954.5 1207.5L977.5 1207.5L1000.5 1207.5L1023.5 1207.5L1046.5 1207.5L1069.5 1207.5L1092.5 1207.5" stroke="rgba(0, 199, 179, 0.11)" stroke-width="3.83"></path><path d="M1086.75 1207.5 a5.75 5.75 0 1 0 11.5 0 a5.75 5.75 0 1 0 -11.5 0zM971.75 1230.5 a5.75 5.75 0 1 0 11.5 0 a5.75 5.75 0 1 0 -11.5 0zM1155.75 1161.5 a5.75 5.75 0 1 0 11.5 0 a5.75 5.75 0 1 0 -11.5 0zM488.75 1253.5 a5.75 5.75 0 1 0 11.5 0 a5.75 5.75 0 1 0 -11.5 0zM1109.75 1161.5 a5.75 5.75 0 1 0 11.5 0 a5.75 5.75 0 1 0 -11.5 0zM833.75 1230.5 a5.75 5.75 0 1 0 11.5 0 a5.75 5.75 0 1 0 -11.5 0zM810.75 1253.5 a5.75 5.75 0 1 0 11.5 0 a5.75 5.75 0 1 0 -11.5 0zM1155.75 1230.5 a5.75 5.75 0 1 0 11.5 0 a5.75 5.75 0 1 0 -11.5 0zM1270.75 1115.5 a5.75 5.75 0 1 0 11.5 0 a5.75 5.75 0 1 0 -11.5 0zM396.75 1230.5 a5.75 5.75 0 1 0 11.5 0 a5.75 5.75 0 1 0 -11.5 0zM1339.75 1230.5 a5.75 5.75 0 1 0 11.5 0 a5.75 5.75 0 1 0 -11.5 0zM166.75 1230.5 a5.75 5.75 0 1 0 11.5 0 a5.75 5.75 0 1 0 -11.5 0zM281.75 1230.5 a5.75 5.75 0 1 0 11.5 0 a5.75 5.75 0 1 0 -11.5 0z" fill="rgba(0, 199, 179, 0.11)"></path><path d="M264.5 1391.5L287.5 1368.5L310.5 1368.5L333.5 1368.5M402.5 1391.5L425.5 1414.5L448.5 1414.5L471.5 1414.5M149.5 1368.5L172.5 1345.5L195.5 1345.5L218.5 1345.5M793.5 1414.5L816.5 1414.5M724.5 1414.5L747.5 1391.5M80.5 1368.5L103.5 1345.5L126.5 1345.5L149.5 1345.5L172.5 1322.5M448.5 1368.5L471.5 1391.5M11.5 1322.5L34.5 1345.5M425.5 1391.5L448.5 1391.5M701.5 1391.5L724.5 1391.5M-11.5 1322.5L11.5 1322.5L34.5 1322.5L57.5 1345.5L80.5 1368.5L103.5 1368.5L126.5 1368.5L149.5 1368.5L172.5 1368.5L195.5 1368.5L218.5 1391.5L241.5 1391.5L264.5 1391.5L287.5 1391.5L310.5 1391.5L333.5 1391.5L356.5 1391.5L379.5 1391.5L402.5 1391.5L425.5 1391.5L448.5 1368.5L471.5 1368.5L494.5 1391.5L517.5 1391.5L540.5 1391.5L563.5 1391.5L586.5 1391.5L609.5 1391.5L632.5 1391.5L655.5 1391.5L678.5 1391.5L701.5 1391.5L724.5 1414.5L747.5 1414.5L770.5 1414.5L793.5 1414.5L816.5 1437.5L839.5 1437.5L862.5 1437.5L885.5 1437.5L908.5 1437.5L931.5 1437.5" stroke="rgba(0, 199, 179, 0.11)" stroke-width="3.83"></path><path d="M925.75 1437.5 a5.75 5.75 0 1 0 11.5 0 a5.75 5.75 0 1 0 -11.5 0zM327.75 1368.5 a5.75 5.75 0 1 0 11.5 0 a5.75 5.75 0 1 0 -11.5 0zM465.75 1414.5 a5.75 5.75 0 1 0 11.5 0 a5.75 5.75 0 1 0 -11.5 0zM212.75 1345.5 a5.75 5.75 0 1 0 11.5 0 a5.75 5.75 0 1 0 -11.5 0zM810.75 1414.5 a5.75 5.75 0 1 0 11.5 0 a5.75 5.75 0 1 0 -11.5 0zM741.75 1391.5 a5.75 5.75 0 1 0 11.5 0 a5.75 5.75 0 1 0 -11.5 0zM166.75 1322.5 a5.75 5.75 0 1 0 11.5 0 a5.75 5.75 0 1 0 -11.5 0zM465.75 1391.5 a5.75 5.75 0 1 0 11.5 0 a5.75 5.75 0 1 0 -11.5 0zM28.75 1345.5 a5.75 5.75 0 1 0 11.5 0 a5.75 5.75 0 1 0 -11.5 0zM442.75 1391.5 a5.75 5.75 0 1 0 11.5 0 a5.75 5.75 0 1 0 -11.5 0zM718.75 1391.5 a5.75 5.75 0 1 0 11.5 0 a5.75 5.75 0 1 0 -11.5 0z" fill="rgba(0, 199, 179, 0.11)"></path><path d="M264.5 1184.5L287.5 1161.5L310.5 1161.5L333.5 1161.5L356.5 1161.5L379.5 1161.5L402.5 1161.5L425.5 1161.5L448.5 1161.5L471.5 1161.5L494.5 1161.5M632.5 1161.5L655.5 1138.5L678.5 1138.5M747.5 1161.5L770.5 1184.5L793.5 1184.5L816.5 1184.5L839.5 1184.5M586.5 1161.5L609.5 1138.5L632.5 1138.5L655.5 1115.5L678.5 1115.5L701.5 1115.5L724.5 1115.5L747.5 1115.5L770.5 1115.5L793.5 1115.5L816.5 1115.5L839.5 1115.5L862.5 1115.5L885.5 1115.5L908.5 1115.5M793.5 1161.5L816.5 1138.5L839.5 1138.5L862.5 1138.5L885.5 1138.5M471.5 1184.5L494.5 1207.5M678.5 1161.5L701.5 1184.5L724.5 1184.5L747.5 1184.5M908.5 1161.5L931.5 1184.5L954.5 1184.5L977.5 1161.5M609.5 1161.5L632.5 1184.5L655.5 1184.5L678.5 1184.5M954.5 1138.5L977.5 1115.5L1000.5 1115.5L1023.5 1115.5L1046.5 1115.5L1069.5 1115.5L1092.5 1115.5M862.5 1161.5L885.5 1184.5L908.5 1184.5M-11.5 1230.5L11.5 1230.5L34.5 1207.5L57.5 1207.5L80.5 1207.5L103.5 1184.5L126.5 1184.5L149.5 1184.5L172.5 1184.5L195.5 1184.5L218.5 1184.5L241.5 1184.5L264.5 1184.5L287.5 1184.5L310.5 1184.5L333.5 1184.5L356.5 1184.5L379.5 1184.5L402.5 1184.5L425.5 1184.5L448.5 1184.5L471.5 1184.5L494.5 1184.5L517.5 1184.5L540.5 1161.5L563.5 1161.5L586.5 1161.5L609.5 1161.5L632.5 1161.5L655.5 1161.5L678.5 1161.5L701.5 1161.5L724.5 1161.5L747.5 1161.5L770.5 1161.5L793.5 1161.5L816.5 1161.5L839.5 1161.5L862.5 1161.5L885.5 1161.5L908.5 1161.5L931.5 1161.5L954.5 1138.5L977.5 1138.5" stroke="rgba(0, 199, 179, 0.11)" stroke-width="3.83"></path><path d="M971.75 1138.5 a5.75 5.75 0 1 0 11.5 0 a5.75 5.75 0 1 0 -11.5 0zM488.75 1161.5 a5.75 5.75 0 1 0 11.5 0 a5.75 5.75 0 1 0 -11.5 0zM672.75 1138.5 a5.75 5.75 0 1 0 11.5 0 a5.75 5.75 0 1 0 -11.5 0zM833.75 1184.5 a5.75 5.75 0 1 0 11.5 0 a5.75 5.75 0 1 0 -11.5 0zM902.75 1115.5 a5.75 5.75 0 1 0 11.5 0 a5.75 5.75 0 1 0 -11.5 0zM879.75 1138.5 a5.75 5.75 0 1 0 11.5 0 a5.75 5.75 0 1 0 -11.5 0zM488.75 1207.5 a5.75 5.75 0 1 0 11.5 0 a5.75 5.75 0 1 0 -11.5 0zM741.75 1184.5 a5.75 5.75 0 1 0 11.5 0 a5.75 5.75 0 1 0 -11.5 0zM971.75 1161.5 a5.75 5.75 0 1 0 11.5 0 a5.75 5.75 0 1 0 -11.5 0zM672.75 1184.5 a5.75 5.75 0 1 0 11.5 0 a5.75 5.75 0 1 0 -11.5 0zM1086.75 1115.5 a5.75 5.75 0 1 0 11.5 0 a5.75 5.75 0 1 0 -11.5 0zM902.75 1184.5 a5.75 5.75 0 1 0 11.5 0 a5.75 5.75 0 1 0 -11.5 0z" fill="rgba(0, 199, 179, 0.11)"></path><path d="M816.5 1460.5L839.5 1483.5L862.5 1483.5L885.5 1483.5L908.5 1483.5L931.5 1483.5L954.5 1483.5L977.5 1483.5M356.5 1414.5L379.5 1437.5L402.5 1460.5M609.5 1414.5L632.5 1437.5L655.5 1437.5M471.5 1437.5L494.5 1460.5L517.5 1460.5L540.5 1460.5L563.5 1460.5L586.5 1460.5L609.5 1460.5L632.5 1460.5L655.5 1460.5L678.5 1460.5L701.5 1460.5L724.5 1460.5L747.5 1460.5L770.5 1460.5L793.5 1460.5M379.5 1414.5L402.5 1414.5M563.5 1414.5L586.5 1437.5M517.5 1437.5L540.5 1414.5M448.5 1437.5L471.5 1460.5M34.5 1368.5L57.5 1368.5M333.5 1414.5L356.5 1437.5M310.5 1414.5L333.5 1437.5M-11.5 1345.5L11.5 1368.5L34.5 1368.5L57.5 1391.5L80.5 1391.5L103.5 1391.5L126.5 1391.5L149.5 1391.5L172.5 1391.5L195.5 1391.5L218.5 1414.5L241.5 1414.5L264.5 1414.5L287.5 1414.5L310.5 1414.5L333.5 1414.5L356.5 1414.5L379.5 1414.5L402.5 1437.5L425.5 1437.5L448.5 1437.5L471.5 1437.5L494.5 1437.5L517.5 1437.5L540.5 1437.5L563.5 1414.5L586.5 1414.5L609.5 1414.5L632.5 1414.5L655.5 1414.5L678.5 1414.5L701.5 1414.5L724.5 1437.5L747.5 1437.5L770.5 1437.5L793.5 1437.5L816.5 1460.5L839.5 1460.5L862.5 1460.5L885.5 1460.5L908.5 1460.5L931.5 1460.5L954.5 1460.5L977.5 1460.5" stroke="rgba(0, 199, 179, 0.11)" stroke-width="3.83"></path><path d="M971.75 1460.5 a5.75 5.75 0 1 0 11.5 0 a5.75 5.75 0 1 0 -11.5 0zM971.75 1483.5 a5.75 5.75 0 1 0 11.5 0 a5.75 5.75 0 1 0 -11.5 0zM396.75 1460.5 a5.75 5.75 0 1 0 11.5 0 a5.75 5.75 0 1 0 -11.5 0zM649.75 1437.5 a5.75 5.75 0 1 0 11.5 0 a5.75 5.75 0 1 0 -11.5 0zM787.75 1460.5 a5.75 5.75 0 1 0 11.5 0 a5.75 5.75 0 1 0 -11.5 0zM396.75 1414.5 a5.75 5.75 0 1 0 11.5 0 a5.75 5.75 0 1 0 -11.5 0zM580.75 1437.5 a5.75 5.75 0 1 0 11.5 0 a5.75 5.75 0 1 0 -11.5 0zM534.75 1414.5 a5.75 5.75 0 1 0 11.5 0 a5.75 5.75 0 1 0 -11.5 0zM465.75 1460.5 a5.75 5.75 0 1 0 11.5 0 a5.75 5.75 0 1 0 -11.5 0zM51.75 1368.5 a5.75 5.75 0 1 0 11.5 0 a5.75 5.75 0 1 0 -11.5 0zM350.75 1437.5 a5.75 5.75 0 1 0 11.5 0 a5.75 5.75 0 1 0 -11.5 0zM327.75 1437.5 a5.75 5.75 0 1 0 11.5 0 a5.75 5.75 0 1 0 -11.5 0z" fill="rgba(0, 199, 179, 0.11)"></path><path d="M218.5 1138.5L241.5 1161.5L264.5 1161.5M494.5 1138.5L517.5 1138.5L540.5 1138.5L563.5 1138.5M-11.5 1207.5L11.5 1207.5L34.5 1184.5L57.5 1184.5L80.5 1184.5L103.5 1161.5L126.5 1161.5L149.5 1161.5L172.5 1161.5L195.5 1161.5L218.5 1138.5L241.5 1138.5L264.5 1138.5L287.5 1138.5L310.5 1138.5L333.5 1138.5L356.5 1138.5L379.5 1138.5L402.5 1138.5L425.5 1138.5L448.5 1138.5L471.5 1138.5L494.5 1138.5L517.5 1161.5" stroke="rgba(0, 199, 179, 0.11)" stroke-width="3.83"></path><path d="M511.75 1161.5 a5.75 5.75 0 1 0 11.5 0 a5.75 5.75 0 1 0 -11.5 0zM258.75 1161.5 a5.75 5.75 0 1 0 11.5 0 a5.75 5.75 0 1 0 -11.5 0zM557.75 1138.5 a5.75 5.75 0 1 0 11.5 0 a5.75 5.75 0 1 0 -11.5 0z" fill="rgba(0, 199, 179, 0.11)"></path><path d="M-11.5 1368.5L11.5 1391.5L34.5 1391.5L57.5 1414.5L80.5 1414.5L103.5 1414.5L126.5 1414.5L149.5 1414.5L172.5 1414.5" stroke="rgba(0, 199, 179, 0.11)" stroke-width="3.83"></path><path d="M166.75 1414.5 a5.75 5.75 0 1 0 11.5 0 a5.75 5.75 0 1 0 -11.5 0z" fill="rgba(0, 199, 179, 0.11)"></path><path d="M379.5 1115.5L402.5 1092.5L425.5 1092.5M264.5 1115.5L287.5 1092.5L310.5 1092.5L333.5 1092.5L356.5 1092.5L379.5 1092.5M241.5 1115.5L264.5 1092.5M218.5 1115.5L241.5 1092.5M-11.5 1184.5L11.5 1184.5L34.5 1161.5L57.5 1161.5L80.5 1161.5L103.5 1138.5L126.5 1138.5L149.5 1138.5L172.5 1138.5L195.5 1138.5L218.5 1115.5L241.5 1115.5L264.5 1115.5L287.5 1115.5L310.5 1115.5L333.5 1115.5L356.5 1115.5L379.5 1115.5L402.5 1115.5L425.5 1115.5L448.5 1115.5" stroke="rgba(0, 199, 179, 0.11)" stroke-width="3.83"></path><path d="M442.75 1115.5 a5.75 5.75 0 1 0 11.5 0 a5.75 5.75 0 1 0 -11.5 0zM419.75 1092.5 a5.75 5.75 0 1 0 11.5 0 a5.75 5.75 0 1 0 -11.5 0zM373.75 1092.5 a5.75 5.75 0 1 0 11.5 0 a5.75 5.75 0 1 0 -11.5 0zM258.75 1092.5 a5.75 5.75 0 1 0 11.5 0 a5.75 5.75 0 1 0 -11.5 0zM235.75 1092.5 a5.75 5.75 0 1 0 11.5 0 a5.75 5.75 0 1 0 -11.5 0z" fill="rgba(0, 199, 179, 0.11)"></path><path d="M1046.5 1529.5L1069.5 1506.5L1092.5 1506.5L1115.5 1506.5M678.5 1529.5L701.5 1506.5L724.5 1483.5L747.5 1483.5L770.5 1483.5L793.5 1483.5L816.5 1483.5M287.5 1437.5L310.5 1437.5M586.5 1506.5L609.5 1483.5L632.5 1483.5M425.5 1506.5L448.5 1483.5L471.5 1483.5L494.5 1483.5L517.5 1483.5M1023.5 1529.5L1046.5 1506.5L1069.5 1483.5L1092.5 1483.5L1115.5 1483.5M954.5 1506.5L977.5 1506.5L1000.5 1506.5L1023.5 1506.5L1046.5 1483.5L1069.5 1460.5L1092.5 1460.5L1115.5 1460.5L1138.5 1460.5L1161.5 1460.5L1184.5 1437.5M655.5 1529.5L678.5 1506.5L701.5 1483.5M862.5 1506.5L885.5 1529.5L908.5 1529.5M770.5 1529.5L793.5 1506.5L816.5 1506.5M402.5 1506.5L425.5 1483.5L448.5 1460.5M724.5 1529.5L747.5 1506.5L770.5 1506.5M-11.5 1391.5L11.5 1414.5L34.5 1414.5L57.5 1437.5L80.5 1437.5L103.5 1437.5L126.5 1437.5L149.5 1437.5L172.5 1437.5L195.5 1437.5L218.5 1437.5L241.5 1437.5L264.5 1437.5L287.5 1437.5L310.5 1460.5L333.5 1460.5L356.5 1460.5L379.5 1483.5L402.5 1506.5L425.5 1506.5L448.5 1506.5L471.5 1506.5L494.5 1506.5L517.5 1506.5L540.5 1506.5L563.5 1506.5L586.5 1506.5L609.5 1529.5L632.5 1529.5L655.5 1529.5L678.5 1529.5L701.5 1529.5L724.5 1529.5L747.5 1529.5L770.5 1529.5L793.5 1529.5L816.5 1529.5L839.5 1506.5L862.5 1506.5L885.5 1506.5L908.5 1506.5L931.5 1506.5L954.5 1506.5L977.5 1529.5L1000.5 1529.5L1023.5 1529.5L1046.5 1529.5L1069.5 1529.5L1092.5 1552.5L1115.5 1552.5L1138.5 1552.5" stroke="rgba(0, 199, 179, 0.11)" stroke-width="3.83"></path><path d="M1132.75 1552.5 a5.75 5.75 0 1 0 11.5 0 a5.75 5.75 0 1 0 -11.5 0zM1109.75 1506.5 a5.75 5.75 0 1 0 11.5 0 a5.75 5.75 0 1 0 -11.5 0zM810.75 1483.5 a5.75 5.75 0 1 0 11.5 0 a5.75 5.75 0 1 0 -11.5 0zM304.75 1437.5 a5.75 5.75 0 1 0 11.5 0 a5.75 5.75 0 1 0 -11.5 0zM626.75 1483.5 a5.75 5.75 0 1 0 11.5 0 a5.75 5.75 0 1 0 -11.5 0zM511.75 1483.5 a5.75 5.75 0 1 0 11.5 0 a5.75 5.75 0 1 0 -11.5 0zM1109.75 1483.5 a5.75 5.75 0 1 0 11.5 0 a5.75 5.75 0 1 0 -11.5 0zM1178.75 1437.5 a5.75 5.75 0 1 0 11.5 0 a5.75 5.75 0 1 0 -11.5 0zM695.75 1483.5 a5.75 5.75 0 1 0 11.5 0 a5.75 5.75 0 1 0 -11.5 0zM902.75 1529.5 a5.75 5.75 0 1 0 11.5 0 a5.75 5.75 0 1 0 -11.5 0zM810.75 1506.5 a5.75 5.75 0 1 0 11.5 0 a5.75 5.75 0 1 0 -11.5 0zM442.75 1460.5 a5.75 5.75 0 1 0 11.5 0 a5.75 5.75 0 1 0 -11.5 0zM764.75 1506.5 a5.75 5.75 0 1 0 11.5 0 a5.75 5.75 0 1 0 -11.5 0z" fill="rgba(0, 199, 179, 0.11)"></path><path d="M425.5 1069.5L448.5 1069.5M172.5 1115.5L195.5 1115.5M195.5 1092.5L218.5 1092.5M448.5 1092.5L471.5 1092.5L494.5 1092.5L517.5 1092.5M-11.5 1161.5L11.5 1161.5L34.5 1138.5L57.5 1138.5L80.5 1138.5L103.5 1115.5L126.5 1115.5L149.5 1115.5L172.5 1115.5L195.5 1092.5L218.5 1069.5L241.5 1069.5L264.5 1069.5L287.5 1069.5L310.5 1069.5L333.5 1069.5L356.5 1069.5L379.5 1069.5L402.5 1069.5L425.5 1069.5L448.5 1092.5L471.5 1115.5" stroke="rgba(0, 199, 179, 0.11)" stroke-width="3.83"></path><path d="M465.75 1115.5 a5.75 5.75 0 1 0 11.5 0 a5.75 5.75 0 1 0 -11.5 0zM442.75 1069.5 a5.75 5.75 0 1 0 11.5 0 a5.75 5.75 0 1 0 -11.5 0zM189.75 1115.5 a5.75 5.75 0 1 0 11.5 0 a5.75 5.75 0 1 0 -11.5 0zM212.75 1092.5 a5.75 5.75 0 1 0 11.5 0 a5.75 5.75 0 1 0 -11.5 0zM511.75 1092.5 a5.75 5.75 0 1 0 11.5 0 a5.75 5.75 0 1 0 -11.5 0z" fill="rgba(0, 199, 179, 0.11)"></path><path d="M1138.5 1575.5L1161.5 1598.5L1184.5 1598.5M172.5 1460.5L195.5 1483.5L218.5 1483.5M885.5 1575.5L908.5 1598.5L931.5 1598.5M908.5 1575.5L931.5 1575.5L954.5 1575.5L977.5 1575.5M816.5 1552.5L839.5 1575.5L862.5 1575.5L885.5 1598.5L908.5 1621.5L931.5 1621.5M1207.5 1575.5L1230.5 1598.5L1253.5 1621.5L1276.5 1621.5L1299.5 1621.5L1322.5 1621.5L1345.5 1621.5M770.5 1552.5L793.5 1575.5L816.5 1575.5M218.5 1460.5L241.5 1460.5L264.5 1460.5L287.5 1460.5M839.5 1552.5L862.5 1529.5M931.5 1552.5L954.5 1529.5M862.5 1552.5L885.5 1552.5L908.5 1552.5M1000.5 1552.5L1023.5 1575.5L1046.5 1575.5L1069.5 1575.5L1092.5 1598.5L1115.5 1598.5M1184.5 1575.5L1207.5 1552.5M-11.5 1414.5L11.5 1437.5L34.5 1437.5L57.5 1460.5L80.5 1460.5L103.5 1460.5L126.5 1460.5L149.5 1460.5L172.5 1460.5L195.5 1460.5L218.5 1460.5L241.5 1483.5L264.5 1483.5L287.5 1483.5L310.5 1483.5L333.5 1483.5L356.5 1483.5L379.5 1506.5L402.5 1529.5L425.5 1529.5L448.5 1529.5L471.5 1529.5L494.5 1529.5L517.5 1529.5L540.5 1529.5L563.5 1529.5L586.5 1529.5L609.5 1552.5L632.5 1552.5L655.5 1552.5L678.5 1552.5L701.5 1552.5L724.5 1552.5L747.5 1552.5L770.5 1552.5L793.5 1552.5L816.5 1552.5L839.5 1552.5L862.5 1552.5L885.5 1575.5L908.5 1575.5L931.5 1552.5L954.5 1552.5L977.5 1552.5L1000.5 1552.5L1023.5 1552.5L1046.5 1552.5L1069.5 1552.5L1092.5 1575.5L1115.5 1575.5L1138.5 1575.5L1161.5 1575.5L1184.5 1575.5L1207.5 1575.5L1230.5 1575.5" stroke="rgba(0, 199, 179, 0.11)" stroke-width="3.83"></path><path d="M1224.75 1575.5 a5.75 5.75 0 1 0 11.5 0 a5.75 5.75 0 1 0 -11.5 0zM1178.75 1598.5 a5.75 5.75 0 1 0 11.5 0 a5.75 5.75 0 1 0 -11.5 0zM212.75 1483.5 a5.75 5.75 0 1 0 11.5 0 a5.75 5.75 0 1 0 -11.5 0zM925.75 1598.5 a5.75 5.75 0 1 0 11.5 0 a5.75 5.75 0 1 0 -11.5 0zM971.75 1575.5 a5.75 5.75 0 1 0 11.5 0 a5.75 5.75 0 1 0 -11.5 0zM925.75 1621.5 a5.75 5.75 0 1 0 11.5 0 a5.75 5.75 0 1 0 -11.5 0zM1339.75 1621.5 a5.75 5.75 0 1 0 11.5 0 a5.75 5.75 0 1 0 -11.5 0zM810.75 1575.5 a5.75 5.75 0 1 0 11.5 0 a5.75 5.75 0 1 0 -11.5 0zM281.75 1460.5 a5.75 5.75 0 1 0 11.5 0 a5.75 5.75 0 1 0 -11.5 0zM856.75 1529.5 a5.75 5.75 0 1 0 11.5 0 a5.75 5.75 0 1 0 -11.5 0zM948.75 1529.5 a5.75 5.75 0 1 0 11.5 0 a5.75 5.75 0 1 0 -11.5 0zM902.75 1552.5 a5.75 5.75 0 1 0 11.5 0 a5.75 5.75 0 1 0 -11.5 0zM1109.75 1598.5 a5.75 5.75 0 1 0 11.5 0 a5.75 5.75 0 1 0 -11.5 0zM1201.75 1552.5 a5.75 5.75 0 1 0 11.5 0 a5.75 5.75 0 1 0 -11.5 0z" fill="rgba(0, 199, 179, 0.11)"></path><path d="M287.5 1046.5L310.5 1023.5L333.5 1023.5L356.5 1023.5L379.5 1023.5M448.5 1023.5L471.5 1046.5L494.5 1046.5L517.5 1046.5L540.5 1046.5L563.5 1046.5L586.5 1046.5L609.5 1046.5L632.5 1046.5M425.5 1046.5L448.5 1046.5M264.5 1046.5L287.5 1023.5L310.5 1000.5L333.5 1000.5M402.5 1046.5L425.5 1023.5L448.5 1000.5M-11.5 1138.5L11.5 1138.5L34.5 1115.5L57.5 1115.5L80.5 1115.5L103.5 1092.5L126.5 1092.5L149.5 1092.5L172.5 1092.5L195.5 1069.5L218.5 1046.5L241.5 1046.5L264.5 1046.5L287.5 1046.5L310.5 1046.5L333.5 1046.5L356.5 1046.5L379.5 1046.5L402.5 1046.5L425.5 1046.5L448.5 1023.5L471.5 1023.5" stroke="rgba(0, 199, 179, 0.11)" stroke-width="3.83"></path><path d="M465.75 1023.5 a5.75 5.75 0 1 0 11.5 0 a5.75 5.75 0 1 0 -11.5 0zM373.75 1023.5 a5.75 5.75 0 1 0 11.5 0 a5.75 5.75 0 1 0 -11.5 0zM626.75 1046.5 a5.75 5.75 0 1 0 11.5 0 a5.75 5.75 0 1 0 -11.5 0zM442.75 1046.5 a5.75 5.75 0 1 0 11.5 0 a5.75 5.75 0 1 0 -11.5 0zM327.75 1000.5 a5.75 5.75 0 1 0 11.5 0 a5.75 5.75 0 1 0 -11.5 0zM442.75 1000.5 a5.75 5.75 0 1 0 11.5 0 a5.75 5.75 0 1 0 -11.5 0z" fill="rgba(0, 199, 179, 0.11)"></path><path d="M632.5 1575.5L655.5 1598.5L678.5 1598.5L701.5 1598.5M540.5 1552.5L563.5 1575.5M747.5 1598.5L770.5 1621.5L793.5 1621.5M149.5 1483.5L172.5 1483.5M724.5 1575.5L747.5 1575.5L770.5 1575.5M-11.5 1437.5L11.5 1460.5L34.5 1460.5L57.5 1483.5L80.5 1483.5L103.5 1483.5L126.5 1483.5L149.5 1483.5L172.5 1506.5L195.5 1506.5L218.5 1506.5L241.5 1506.5L264.5 1506.5L287.5 1506.5L310.5 1506.5L333.5 1506.5L356.5 1506.5L379.5 1529.5L402.5 1552.5L425.5 1552.5L448.5 1552.5L471.5 1552.5L494.5 1552.5L517.5 1552.5L540.5 1552.5L563.5 1552.5L586.5 1552.5L609.5 1575.5L632.5 1575.5L655.5 1575.5L678.5 1575.5L701.5 1575.5L724.5 1575.5L747.5 1598.5L770.5 1598.5" stroke="rgba(0, 199, 179, 0.11)" stroke-width="3.83"></path><path d="M764.75 1598.5 a5.75 5.75 0 1 0 11.5 0 a5.75 5.75 0 1 0 -11.5 0zM695.75 1598.5 a5.75 5.75 0 1 0 11.5 0 a5.75 5.75 0 1 0 -11.5 0zM557.75 1575.5 a5.75 5.75 0 1 0 11.5 0 a5.75 5.75 0 1 0 -11.5 0zM787.75 1621.5 a5.75 5.75 0 1 0 11.5 0 a5.75 5.75 0 1 0 -11.5 0zM166.75 1483.5 a5.75 5.75 0 1 0 11.5 0 a5.75 5.75 0 1 0 -11.5 0zM764.75 1575.5 a5.75 5.75 0 1 0 11.5 0 a5.75 5.75 0 1 0 -11.5 0z" fill="rgba(0, 199, 179, 0.11)"></path><path d="M770.5 954.5L793.5 977.5L816.5 977.5L839.5 977.5L862.5 977.5M747.5 954.5L770.5 977.5L793.5 1000.5L816.5 1000.5L839.5 1000.5L862.5 1000.5L885.5 1000.5L908.5 1000.5L931.5 1000.5L954.5 977.5M632.5 954.5L655.5 977.5L678.5 1000.5L701.5 1000.5L724.5 1000.5L747.5 1000.5L770.5 1000.5L793.5 1023.5M586.5 954.5L609.5 977.5L632.5 977.5L655.5 1000.5L678.5 1023.5L701.5 1023.5L724.5 1046.5L747.5 1046.5L770.5 1046.5L793.5 1046.5M379.5 977.5L402.5 1000.5L425.5 1000.5M218.5 1023.5L241.5 1023.5L264.5 1023.5L287.5 1000.5M356.5 977.5L379.5 1000.5M517.5 977.5L540.5 977.5M241.5 1000.5L264.5 1000.5M448.5 977.5L471.5 977.5L494.5 977.5M-11.5 1115.5L11.5 1115.5L34.5 1092.5L57.5 1092.5L80.5 1092.5L103.5 1069.5L126.5 1069.5L149.5 1069.5L172.5 1069.5L195.5 1046.5L218.5 1023.5L241.5 1000.5L264.5 977.5L287.5 977.5L310.5 977.5L333.5 977.5L356.5 977.5L379.5 977.5L402.5 977.5L425.5 977.5L448.5 977.5L471.5 1000.5L494.5 1000.5L517.5 977.5L540.5 954.5L563.5 954.5L586.5 954.5L609.5 954.5L632.5 954.5L655.5 954.5L678.5 954.5L701.5 954.5L724.5 954.5L747.5 954.5L770.5 954.5L793.5 954.5L816.5 954.5L839.5 954.5L862.5 954.5L885.5 931.5" stroke="rgba(0, 199, 179, 0.11)" stroke-width="3.83"></path><path d="M879.75 931.5 a5.75 5.75 0 1 0 11.5 0 a5.75 5.75 0 1 0 -11.5 0zM856.75 977.5 a5.75 5.75 0 1 0 11.5 0 a5.75 5.75 0 1 0 -11.5 0zM948.75 977.5 a5.75 5.75 0 1 0 11.5 0 a5.75 5.75 0 1 0 -11.5 0zM787.75 1023.5 a5.75 5.75 0 1 0 11.5 0 a5.75 5.75 0 1 0 -11.5 0zM787.75 1046.5 a5.75 5.75 0 1 0 11.5 0 a5.75 5.75 0 1 0 -11.5 0zM419.75 1000.5 a5.75 5.75 0 1 0 11.5 0 a5.75 5.75 0 1 0 -11.5 0zM281.75 1000.5 a5.75 5.75 0 1 0 11.5 0 a5.75 5.75 0 1 0 -11.5 0zM373.75 1000.5 a5.75 5.75 0 1 0 11.5 0 a5.75 5.75 0 1 0 -11.5 0zM534.75 977.5 a5.75 5.75 0 1 0 11.5 0 a5.75 5.75 0 1 0 -11.5 0zM258.75 1000.5 a5.75 5.75 0 1 0 11.5 0 a5.75 5.75 0 1 0 -11.5 0zM488.75 977.5 a5.75 5.75 0 1 0 11.5 0 a5.75 5.75 0 1 0 -11.5 0z" fill="rgba(0, 199, 179, 0.11)"></path><path d="M402.5 1575.5L425.5 1598.5L448.5 1598.5L471.5 1598.5M333.5 1529.5L356.5 1552.5M494.5 1575.5L517.5 1598.5L540.5 1598.5L563.5 1598.5M310.5 1529.5L333.5 1552.5M-11.5 1460.5L11.5 1483.5L34.5 1483.5L57.5 1506.5L80.5 1506.5L103.5 1506.5L126.5 1506.5L149.5 1506.5L172.5 1529.5L195.5 1529.5L218.5 1529.5L241.5 1529.5L264.5 1529.5L287.5 1529.5L310.5 1529.5L333.5 1529.5L356.5 1529.5L379.5 1552.5L402.5 1575.5L425.5 1575.5L448.5 1575.5L471.5 1575.5L494.5 1575.5L517.5 1575.5" stroke="rgba(0, 199, 179, 0.11)" stroke-width="3.83"></path><path d="M511.75 1575.5 a5.75 5.75 0 1 0 11.5 0 a5.75 5.75 0 1 0 -11.5 0zM465.75 1598.5 a5.75 5.75 0 1 0 11.5 0 a5.75 5.75 0 1 0 -11.5 0zM350.75 1552.5 a5.75 5.75 0 1 0 11.5 0 a5.75 5.75 0 1 0 -11.5 0zM557.75 1598.5 a5.75 5.75 0 1 0 11.5 0 a5.75 5.75 0 1 0 -11.5 0zM327.75 1552.5 a5.75 5.75 0 1 0 11.5 0 a5.75 5.75 0 1 0 -11.5 0z" fill="rgba(0, 199, 179, 0.11)"></path><path d="M-11.5 1092.5L11.5 1092.5L34.5 1069.5L57.5 1069.5L80.5 1069.5L103.5 1046.5L126.5 1046.5L149.5 1046.5" stroke="rgba(0, 199, 179, 0.11)" stroke-width="3.83"></path><path d="M143.75 1046.5 a5.75 5.75 0 1 0 11.5 0 a5.75 5.75 0 1 0 -11.5 0z" fill="rgba(0, 199, 179, 0.11)"></path><path d="M287.5 1552.5L310.5 1552.5M333.5 1575.5L356.5 1598.5M-11.5 1483.5L11.5 1506.5L34.5 1506.5L57.5 1529.5L80.5 1529.5L103.5 1529.5L126.5 1529.5L149.5 1529.5L172.5 1552.5L195.5 1552.5L218.5 1552.5L241.5 1552.5L264.5 1552.5L287.5 1552.5L310.5 1575.5L333.5 1575.5L356.5 1575.5" stroke="rgba(0, 199, 179, 0.11)" stroke-width="3.83"></path><path d="M350.75 1575.5 a5.75 5.75 0 1 0 11.5 0 a5.75 5.75 0 1 0 -11.5 0zM304.75 1552.5 a5.75 5.75 0 1 0 11.5 0 a5.75 5.75 0 1 0 -11.5 0zM350.75 1598.5 a5.75 5.75 0 1 0 11.5 0 a5.75 5.75 0 1 0 -11.5 0z" fill="rgba(0, 199, 179, 0.11)"></path><path d="M448.5 954.5L471.5 931.5L494.5 931.5L517.5 931.5M425.5 954.5L448.5 931.5M379.5 954.5L402.5 931.5L425.5 931.5M57.5 1046.5L80.5 1023.5M-11.5 1069.5L11.5 1069.5L34.5 1046.5L57.5 1046.5L80.5 1046.5L103.5 1023.5L126.5 1023.5L149.5 1023.5L172.5 1023.5L195.5 1023.5L218.5 1000.5L241.5 977.5L264.5 954.5L287.5 954.5L310.5 954.5L333.5 954.5L356.5 954.5L379.5 954.5L402.5 954.5L425.5 954.5L448.5 954.5L471.5 954.5L494.5 954.5L517.5 954.5L540.5 931.5L563.5 931.5L586.5 931.5L609.5 931.5L632.5 931.5L655.5 931.5L678.5 931.5L701.5 931.5L724.5 931.5L747.5 931.5L770.5 931.5L793.5 931.5" stroke="rgba(0, 199, 179, 0.11)" stroke-width="3.83"></path><path d="M787.75 931.5 a5.75 5.75 0 1 0 11.5 0 a5.75 5.75 0 1 0 -11.5 0zM511.75 931.5 a5.75 5.75 0 1 0 11.5 0 a5.75 5.75 0 1 0 -11.5 0zM442.75 931.5 a5.75 5.75 0 1 0 11.5 0 a5.75 5.75 0 1 0 -11.5 0zM419.75 931.5 a5.75 5.75 0 1 0 11.5 0 a5.75 5.75 0 1 0 -11.5 0zM74.75 1023.5 a5.75 5.75 0 1 0 11.5 0 a5.75 5.75 0 1 0 -11.5 0z" fill="rgba(0, 199, 179, 0.11)"></path><path d="M379.5 1621.5L402.5 1598.5M310.5 1598.5L333.5 1598.5M-11.5 1506.5L11.5 1529.5L34.5 1529.5L57.5 1552.5L80.5 1552.5L103.5 1552.5L126.5 1552.5L149.5 1552.5L172.5 1575.5L195.5 1575.5L218.5 1575.5L241.5 1575.5L264.5 1575.5L287.5 1575.5L310.5 1598.5L333.5 1621.5L356.5 1621.5L379.5 1621.5L402.5 1621.5L425.5 1621.5L448.5 1621.5L471.5 1621.5" stroke="rgba(0, 199, 179, 0.11)" stroke-width="3.83"></path><path d="M465.75 1621.5 a5.75 5.75 0 1 0 11.5 0 a5.75 5.75 0 1 0 -11.5 0zM396.75 1598.5 a5.75 5.75 0 1 0 11.5 0 a5.75 5.75 0 1 0 -11.5 0zM327.75 1598.5 a5.75 5.75 0 1 0 11.5 0 a5.75 5.75 0 1 0 -11.5 0z" fill="rgba(0, 199, 179, 0.11)"></path><path d="M816.5 908.5L839.5 908.5L862.5 908.5L885.5 885.5M1092.5 931.5L1115.5 908.5L1138.5 908.5L1161.5 908.5L1184.5 908.5L1207.5 885.5L1230.5 885.5L1253.5 862.5L1276.5 862.5M149.5 1000.5L172.5 977.5M954.5 908.5L977.5 931.5L1000.5 954.5L1023.5 977.5L1046.5 1000.5L1069.5 1000.5L1092.5 1000.5L1115.5 1000.5L1138.5 1000.5M1023.5 908.5L1046.5 931.5L1069.5 931.5L1092.5 954.5L1115.5 954.5L1138.5 954.5L1161.5 954.5L1184.5 954.5L1207.5 954.5L1230.5 931.5L1253.5 931.5M1069.5 908.5L1092.5 908.5L1115.5 885.5L1138.5 885.5L1161.5 885.5L1184.5 885.5L1207.5 862.5L1230.5 862.5L1253.5 839.5L1276.5 839.5L1299.5 839.5L1322.5 839.5L1345.5 862.5L1368.5 862.5L1391.5 862.5L1414.5 862.5M931.5 908.5L954.5 885.5L977.5 885.5L1000.5 885.5L1023.5 885.5L1046.5 885.5L1069.5 885.5L1092.5 885.5M908.5 908.5L931.5 885.5M34.5 1023.5L57.5 1023.5M126.5 1000.5L149.5 977.5M1184.5 931.5L1207.5 931.5M793.5 908.5L816.5 885.5L839.5 885.5L862.5 885.5M356.5 931.5L379.5 931.5M-11.5 1046.5L11.5 1046.5L34.5 1023.5L57.5 1000.5L80.5 1000.5L103.5 1000.5L126.5 1000.5L149.5 1000.5L172.5 1000.5L195.5 1000.5L218.5 977.5L241.5 954.5L264.5 931.5L287.5 931.5L310.5 931.5L333.5 931.5L356.5 931.5L379.5 908.5L402.5 908.5L425.5 908.5L448.5 908.5L471.5 908.5L494.5 908.5L517.5 908.5L540.5 908.5L563.5 908.5L586.5 908.5L609.5 908.5L632.5 908.5L655.5 908.5L678.5 908.5L701.5 908.5L724.5 908.5L747.5 908.5L770.5 908.5L793.5 908.5L816.5 908.5L839.5 931.5L862.5 931.5L885.5 908.5L908.5 908.5L931.5 908.5L954.5 908.5L977.5 908.5L1000.5 908.5L1023.5 908.5L1046.5 908.5L1069.5 908.5L1092.5 931.5L1115.5 931.5L1138.5 931.5L1161.5 931.5L1184.5 931.5L1207.5 908.5L1230.5 908.5" stroke="rgba(0, 199, 179, 0.11)" stroke-width="3.83"></path><path d="M1224.75 908.5 a5.75 5.75 0 1 0 11.5 0 a5.75 5.75 0 1 0 -11.5 0zM879.75 885.5 a5.75 5.75 0 1 0 11.5 0 a5.75 5.75 0 1 0 -11.5 0zM1270.75 862.5 a5.75 5.75 0 1 0 11.5 0 a5.75 5.75 0 1 0 -11.5 0zM166.75 977.5 a5.75 5.75 0 1 0 11.5 0 a5.75 5.75 0 1 0 -11.5 0zM1132.75 1000.5 a5.75 5.75 0 1 0 11.5 0 a5.75 5.75 0 1 0 -11.5 0zM1247.75 931.5 a5.75 5.75 0 1 0 11.5 0 a5.75 5.75 0 1 0 -11.5 0zM1408.75 862.5 a5.75 5.75 0 1 0 11.5 0 a5.75 5.75 0 1 0 -11.5 0zM1086.75 885.5 a5.75 5.75 0 1 0 11.5 0 a5.75 5.75 0 1 0 -11.5 0zM925.75 885.5 a5.75 5.75 0 1 0 11.5 0 a5.75 5.75 0 1 0 -11.5 0zM51.75 1023.5 a5.75 5.75 0 1 0 11.5 0 a5.75 5.75 0 1 0 -11.5 0zM143.75 977.5 a5.75 5.75 0 1 0 11.5 0 a5.75 5.75 0 1 0 -11.5 0zM1201.75 931.5 a5.75 5.75 0 1 0 11.5 0 a5.75 5.75 0 1 0 -11.5 0zM856.75 885.5 a5.75 5.75 0 1 0 11.5 0 a5.75 5.75 0 1 0 -11.5 0zM373.75 931.5 a5.75 5.75 0 1 0 11.5 0 a5.75 5.75 0 1 0 -11.5 0z" fill="rgba(0, 199, 179, 0.11)"></path><path d="M793.5 1667.5L816.5 1644.5L839.5 1644.5L862.5 1644.5L885.5 1644.5L908.5 1644.5M632.5 1667.5L655.5 1644.5L678.5 1644.5L701.5 1644.5L724.5 1644.5L747.5 1644.5L770.5 1644.5L793.5 1644.5M494.5 1644.5L517.5 1621.5L540.5 1621.5L563.5 1621.5L586.5 1621.5L609.5 1621.5L632.5 1621.5M954.5 1667.5L977.5 1690.5L1000.5 1690.5L1023.5 1690.5M724.5 1667.5L747.5 1690.5L770.5 1690.5L793.5 1690.5L816.5 1690.5L839.5 1690.5L862.5 1690.5L885.5 1690.5L908.5 1690.5M1161.5 1690.5L1184.5 1667.5L1207.5 1667.5L1230.5 1667.5L1253.5 1667.5L1276.5 1667.5L1299.5 1667.5L1322.5 1667.5L1345.5 1667.5L1368.5 1667.5L1391.5 1667.5L1414.5 1644.5M931.5 1667.5L954.5 1644.5L977.5 1644.5L1000.5 1644.5L1023.5 1644.5L1046.5 1667.5L1069.5 1667.5L1092.5 1667.5L1115.5 1667.5L1138.5 1667.5L1161.5 1667.5L1184.5 1644.5L1207.5 1644.5L1230.5 1644.5M471.5 1644.5L494.5 1667.5L517.5 1667.5L540.5 1667.5L563.5 1667.5L586.5 1667.5L609.5 1667.5L632.5 1690.5L655.5 1690.5M678.5 1667.5L701.5 1690.5L724.5 1690.5L747.5 1713.5L770.5 1713.5L793.5 1713.5L816.5 1713.5M609.5 1644.5L632.5 1644.5M1322.5 1690.5L1345.5 1713.5L1368.5 1713.5L1391.5 1736.5M1253.5 1690.5L1276.5 1713.5M1299.5 1690.5L1322.5 1713.5L1345.5 1736.5L1368.5 1736.5L1391.5 1759.5L1414.5 1759.5M-11.5 1529.5L11.5 1552.5L34.5 1552.5L57.5 1575.5L80.5 1575.5L103.5 1575.5L126.5 1575.5L149.5 1575.5L172.5 1598.5L195.5 1598.5L218.5 1598.5L241.5 1598.5L264.5 1598.5L287.5 1598.5L310.5 1621.5L333.5 1644.5L356.5 1644.5L379.5 1644.5L402.5 1644.5L425.5 1644.5L448.5 1644.5L471.5 1644.5L494.5 1644.5L517.5 1644.5L540.5 1644.5L563.5 1644.5L586.5 1644.5L609.5 1644.5L632.5 1667.5L655.5 1667.5L678.5 1667.5L701.5 1667.5L724.5 1667.5L747.5 1667.5L770.5 1667.5L793.5 1667.5L816.5 1667.5L839.5 1667.5L862.5 1667.5L885.5 1667.5L908.5 1667.5L931.5 1667.5L954.5 1667.5L977.5 1667.5L1000.5 1667.5L1023.5 1667.5L1046.5 1690.5L1069.5 1690.5L1092.5 1690.5L1115.5 1690.5L1138.5 1690.5L1161.5 1690.5L1184.5 1690.5L1207.5 1690.5L1230.5 1690.5L1253.5 1690.5L1276.5 1690.5L1299.5 1690.5L1322.5 1690.5L1345.5 1690.5" stroke="rgba(0, 199, 179, 0.11)" stroke-width="3.83"></path><path d="M1339.75 1690.5 a5.75 5.75 0 1 0 11.5 0 a5.75 5.75 0 1 0 -11.5 0zM902.75 1644.5 a5.75 5.75 0 1 0 11.5 0 a5.75 5.75 0 1 0 -11.5 0zM787.75 1644.5 a5.75 5.75 0 1 0 11.5 0 a5.75 5.75 0 1 0 -11.5 0zM626.75 1621.5 a5.75 5.75 0 1 0 11.5 0 a5.75 5.75 0 1 0 -11.5 0zM1017.75 1690.5 a5.75 5.75 0 1 0 11.5 0 a5.75 5.75 0 1 0 -11.5 0zM902.75 1690.5 a5.75 5.75 0 1 0 11.5 0 a5.75 5.75 0 1 0 -11.5 0zM1408.75 1644.5 a5.75 5.75 0 1 0 11.5 0 a5.75 5.75 0 1 0 -11.5 0zM1224.75 1644.5 a5.75 5.75 0 1 0 11.5 0 a5.75 5.75 0 1 0 -11.5 0zM649.75 1690.5 a5.75 5.75 0 1 0 11.5 0 a5.75 5.75 0 1 0 -11.5 0zM810.75 1713.5 a5.75 5.75 0 1 0 11.5 0 a5.75 5.75 0 1 0 -11.5 0zM626.75 1644.5 a5.75 5.75 0 1 0 11.5 0 a5.75 5.75 0 1 0 -11.5 0zM1385.75 1736.5 a5.75 5.75 0 1 0 11.5 0 a5.75 5.75 0 1 0 -11.5 0zM1270.75 1713.5 a5.75 5.75 0 1 0 11.5 0 a5.75 5.75 0 1 0 -11.5 0zM1408.75 1759.5 a5.75 5.75 0 1 0 11.5 0 a5.75 5.75 0 1 0 -11.5 0z" fill="rgba(0, 199, 179, 0.11)"></path><path d="M747.5 862.5L770.5 885.5L793.5 885.5M908.5 862.5L931.5 839.5L954.5 839.5L977.5 839.5L1000.5 839.5L1023.5 839.5L1046.5 839.5L1069.5 839.5M701.5 885.5L724.5 885.5L747.5 885.5M839.5 862.5L862.5 839.5L885.5 839.5L908.5 839.5M816.5 862.5L839.5 839.5M793.5 862.5L816.5 839.5L839.5 816.5M103.5 977.5L126.5 977.5M-11.5 1023.5L11.5 1023.5L34.5 1000.5L57.5 977.5L80.5 977.5L103.5 977.5L126.5 954.5L149.5 954.5L172.5 954.5L195.5 954.5L218.5 954.5L241.5 931.5L264.5 908.5L287.5 908.5L310.5 908.5L333.5 908.5L356.5 908.5L379.5 885.5L402.5 885.5L425.5 885.5L448.5 885.5L471.5 885.5L494.5 885.5L517.5 885.5L540.5 885.5L563.5 885.5L586.5 885.5L609.5 885.5L632.5 885.5L655.5 885.5L678.5 885.5L701.5 885.5L724.5 862.5L747.5 862.5L770.5 862.5L793.5 862.5L816.5 862.5L839.5 862.5L862.5 862.5L885.5 862.5L908.5 862.5L931.5 862.5L954.5 862.5L977.5 862.5" stroke="rgba(0, 199, 179, 0.11)" stroke-width="3.83"></path><path d="M971.75 862.5 a5.75 5.75 0 1 0 11.5 0 a5.75 5.75 0 1 0 -11.5 0zM787.75 885.5 a5.75 5.75 0 1 0 11.5 0 a5.75 5.75 0 1 0 -11.5 0zM1063.75 839.5 a5.75 5.75 0 1 0 11.5 0 a5.75 5.75 0 1 0 -11.5 0zM741.75 885.5 a5.75 5.75 0 1 0 11.5 0 a5.75 5.75 0 1 0 -11.5 0zM902.75 839.5 a5.75 5.75 0 1 0 11.5 0 a5.75 5.75 0 1 0 -11.5 0zM833.75 839.5 a5.75 5.75 0 1 0 11.5 0 a5.75 5.75 0 1 0 -11.5 0zM833.75 816.5 a5.75 5.75 0 1 0 11.5 0 a5.75 5.75 0 1 0 -11.5 0zM120.75 977.5 a5.75 5.75 0 1 0 11.5 0 a5.75 5.75 0 1 0 -11.5 0z" fill="rgba(0, 199, 179, 0.11)"></path><path d="M540.5 1713.5L563.5 1690.5L586.5 1690.5L609.5 1690.5M126.5 1598.5L149.5 1621.5M448.5 1667.5L471.5 1667.5M517.5 1713.5L540.5 1690.5M494.5 1690.5L517.5 1690.5M103.5 1598.5L126.5 1621.5M-11.5 1552.5L11.5 1575.5L34.5 1575.5L57.5 1598.5L80.5 1598.5L103.5 1598.5L126.5 1598.5L149.5 1598.5L172.5 1621.5L195.5 1621.5L218.5 1621.5L241.5 1621.5L264.5 1621.5L287.5 1621.5L310.5 1644.5L333.5 1667.5L356.5 1667.5L379.5 1667.5L402.5 1667.5L425.5 1667.5L448.5 1667.5L471.5 1690.5L494.5 1690.5L517.5 1713.5L540.5 1713.5L563.5 1713.5L586.5 1713.5L609.5 1713.5L632.5 1713.5L655.5 1713.5L678.5 1713.5L701.5 1713.5" stroke="rgba(0, 199, 179, 0.11)" stroke-width="3.83"></path><path d="M695.75 1713.5 a5.75 5.75 0 1 0 11.5 0 a5.75 5.75 0 1 0 -11.5 0zM603.75 1690.5 a5.75 5.75 0 1 0 11.5 0 a5.75 5.75 0 1 0 -11.5 0zM143.75 1621.5 a5.75 5.75 0 1 0 11.5 0 a5.75 5.75 0 1 0 -11.5 0zM465.75 1667.5 a5.75 5.75 0 1 0 11.5 0 a5.75 5.75 0 1 0 -11.5 0zM534.75 1690.5 a5.75 5.75 0 1 0 11.5 0 a5.75 5.75 0 1 0 -11.5 0zM511.75 1690.5 a5.75 5.75 0 1 0 11.5 0 a5.75 5.75 0 1 0 -11.5 0zM120.75 1621.5 a5.75 5.75 0 1 0 11.5 0 a5.75 5.75 0 1 0 -11.5 0z" fill="rgba(0, 199, 179, 0.11)"></path><path d="M678.5 862.5L701.5 839.5M655.5 862.5L678.5 839.5M632.5 862.5L655.5 839.5M-11.5 1000.5L11.5 1000.5L34.5 977.5L57.5 954.5L80.5 954.5L103.5 954.5L126.5 931.5L149.5 931.5L172.5 931.5L195.5 931.5L218.5 931.5L241.5 908.5L264.5 885.5L287.5 885.5L310.5 885.5L333.5 885.5L356.5 885.5L379.5 862.5L402.5 862.5L425.5 862.5L448.5 862.5L471.5 862.5L494.5 862.5L517.5 862.5L540.5 862.5L563.5 862.5L586.5 862.5L609.5 862.5L632.5 862.5L655.5 862.5L678.5 862.5L701.5 862.5L724.5 839.5L747.5 839.5L770.5 839.5" stroke="rgba(0, 199, 179, 0.11)" stroke-width="3.83"></path><path d="M764.75 839.5 a5.75 5.75 0 1 0 11.5 0 a5.75 5.75 0 1 0 -11.5 0zM695.75 839.5 a5.75 5.75 0 1 0 11.5 0 a5.75 5.75 0 1 0 -11.5 0zM672.75 839.5 a5.75 5.75 0 1 0 11.5 0 a5.75 5.75 0 1 0 -11.5 0zM649.75 839.5 a5.75 5.75 0 1 0 11.5 0 a5.75 5.75 0 1 0 -11.5 0z" fill="rgba(0, 199, 179, 0.11)"></path><path d="M-11.5 1575.5L11.5 1598.5L34.5 1598.5L57.5 1621.5L80.5 1621.5" stroke="rgba(0, 199, 179, 0.11)" stroke-width="3.83"></path><path d="M74.75 1621.5 a5.75 5.75 0 1 0 11.5 0 a5.75 5.75 0 1 0 -11.5 0z" fill="rgba(0, 199, 179, 0.11)"></path><path d="M1138.5 816.5L1161.5 839.5L1184.5 839.5L1207.5 839.5L1230.5 839.5L1253.5 816.5L1276.5 816.5L1299.5 816.5L1322.5 816.5L1345.5 816.5L1368.5 816.5L1391.5 816.5M655.5 816.5L678.5 793.5L701.5 793.5L724.5 793.5L747.5 793.5M977.5 816.5L1000.5 793.5L1023.5 793.5M586.5 839.5L609.5 816.5L632.5 793.5L655.5 793.5M954.5 816.5L977.5 793.5L1000.5 770.5L1023.5 770.5L1046.5 770.5L1069.5 770.5L1092.5 770.5L1115.5 770.5L1138.5 770.5L1161.5 770.5L1184.5 770.5L1207.5 770.5L1230.5 770.5L1253.5 770.5L1276.5 770.5M862.5 816.5L885.5 793.5L908.5 793.5L931.5 793.5M609.5 839.5L632.5 839.5M563.5 839.5L586.5 816.5L609.5 793.5M1115.5 816.5L1138.5 793.5L1161.5 793.5L1184.5 793.5L1207.5 793.5L1230.5 793.5L1253.5 793.5M770.5 816.5L793.5 793.5M839.5 793.5L862.5 793.5M793.5 816.5L816.5 816.5M1069.5 816.5L1092.5 793.5L1115.5 793.5M-11.5 977.5L11.5 977.5L34.5 954.5L57.5 931.5L80.5 931.5L103.5 931.5L126.5 908.5L149.5 908.5L172.5 908.5L195.5 908.5L218.5 908.5L241.5 885.5L264.5 862.5L287.5 862.5L310.5 862.5L333.5 862.5L356.5 862.5L379.5 839.5L402.5 839.5L425.5 839.5L448.5 839.5L471.5 839.5L494.5 839.5L517.5 839.5L540.5 839.5L563.5 839.5L586.5 839.5L609.5 839.5L632.5 816.5L655.5 816.5L678.5 816.5L701.5 816.5L724.5 816.5L747.5 816.5L770.5 816.5L793.5 816.5L816.5 793.5L839.5 793.5L862.5 816.5L885.5 816.5L908.5 816.5L931.5 816.5L954.5 816.5L977.5 816.5L1000.5 816.5L1023.5 816.5L1046.5 816.5L1069.5 816.5L1092.5 816.5L1115.5 816.5L1138.5 816.5L1161.5 816.5" stroke="rgba(0, 199, 179, 0.11)" stroke-width="3.83"></path><path d="M1155.75 816.5 a5.75 5.75 0 1 0 11.5 0 a5.75 5.75 0 1 0 -11.5 0zM1385.75 816.5 a5.75 5.75 0 1 0 11.5 0 a5.75 5.75 0 1 0 -11.5 0zM741.75 793.5 a5.75 5.75 0 1 0 11.5 0 a5.75 5.75 0 1 0 -11.5 0zM1017.75 793.5 a5.75 5.75 0 1 0 11.5 0 a5.75 5.75 0 1 0 -11.5 0zM649.75 793.5 a5.75 5.75 0 1 0 11.5 0 a5.75 5.75 0 1 0 -11.5 0zM1270.75 770.5 a5.75 5.75 0 1 0 11.5 0 a5.75 5.75 0 1 0 -11.5 0zM925.75 793.5 a5.75 5.75 0 1 0 11.5 0 a5.75 5.75 0 1 0 -11.5 0zM626.75 839.5 a5.75 5.75 0 1 0 11.5 0 a5.75 5.75 0 1 0 -11.5 0zM603.75 793.5 a5.75 5.75 0 1 0 11.5 0 a5.75 5.75 0 1 0 -11.5 0zM1247.75 793.5 a5.75 5.75 0 1 0 11.5 0 a5.75 5.75 0 1 0 -11.5 0zM787.75 793.5 a5.75 5.75 0 1 0 11.5 0 a5.75 5.75 0 1 0 -11.5 0zM856.75 793.5 a5.75 5.75 0 1 0 11.5 0 a5.75 5.75 0 1 0 -11.5 0zM810.75 816.5 a5.75 5.75 0 1 0 11.5 0 a5.75 5.75 0 1 0 -11.5 0zM1109.75 793.5 a5.75 5.75 0 1 0 11.5 0 a5.75 5.75 0 1 0 -11.5 0z" fill="rgba(0, 199, 179, 0.11)"></path><path d="M931.5 1713.5L954.5 1736.5L977.5 1736.5M586.5 1736.5L609.5 1759.5L632.5 1759.5M1046.5 1713.5L1069.5 1736.5L1092.5 1736.5L1115.5 1736.5L1138.5 1736.5L1161.5 1736.5L1184.5 1736.5L1207.5 1736.5L1230.5 1736.5L1253.5 1736.5L1276.5 1736.5L1299.5 1713.5M793.5 1736.5L816.5 1759.5L839.5 1759.5L862.5 1759.5L885.5 1782.5L908.5 1782.5L931.5 1805.5L954.5 1805.5L977.5 1805.5L1000.5 1805.5L1023.5 1805.5L1046.5 1805.5M655.5 1736.5L678.5 1759.5L701.5 1759.5L724.5 1759.5L747.5 1759.5L770.5 1759.5L793.5 1759.5L816.5 1782.5L839.5 1782.5L862.5 1782.5M908.5 1713.5L931.5 1736.5L954.5 1759.5L977.5 1759.5L1000.5 1759.5L1023.5 1759.5L1046.5 1759.5L1069.5 1759.5L1092.5 1759.5L1115.5 1759.5L1138.5 1759.5L1161.5 1759.5L1184.5 1759.5L1207.5 1759.5L1230.5 1759.5L1253.5 1759.5L1276.5 1759.5M862.5 1713.5L885.5 1736.5L908.5 1736.5M1023.5 1713.5L1046.5 1736.5M1000.5 1713.5L1023.5 1736.5M839.5 1713.5L862.5 1736.5M816.5 1736.5L839.5 1736.5M-11.5 1598.5L11.5 1621.5L34.5 1621.5L57.5 1644.5L80.5 1644.5L103.5 1644.5L126.5 1644.5L149.5 1644.5L172.5 1644.5L195.5 1644.5L218.5 1644.5L241.5 1644.5L264.5 1644.5L287.5 1644.5L310.5 1667.5L333.5 1690.5L356.5 1690.5L379.5 1690.5L402.5 1690.5L425.5 1690.5L448.5 1690.5L471.5 1713.5L494.5 1713.5L517.5 1736.5L540.5 1736.5L563.5 1736.5L586.5 1736.5L609.5 1736.5L632.5 1736.5L655.5 1736.5L678.5 1736.5L701.5 1736.5L724.5 1736.5L747.5 1736.5L770.5 1736.5L793.5 1736.5L816.5 1736.5L839.5 1713.5L862.5 1713.5L885.5 1713.5L908.5 1713.5L931.5 1713.5L954.5 1713.5L977.5 1713.5L1000.5 1713.5L1023.5 1713.5L1046.5 1713.5L1069.5 1713.5L1092.5 1713.5L1115.5 1713.5L1138.5 1713.5L1161.5 1713.5L1184.5 1713.5L1207.5 1713.5L1230.5 1713.5" stroke="rgba(0, 199, 179, 0.11)" stroke-width="3.83"></path><path d="M1224.75 1713.5 a5.75 5.75 0 1 0 11.5 0 a5.75 5.75 0 1 0 -11.5 0zM971.75 1736.5 a5.75 5.75 0 1 0 11.5 0 a5.75 5.75 0 1 0 -11.5 0zM626.75 1759.5 a5.75 5.75 0 1 0 11.5 0 a5.75 5.75 0 1 0 -11.5 0zM1293.75 1713.5 a5.75 5.75 0 1 0 11.5 0 a5.75 5.75 0 1 0 -11.5 0zM1040.75 1805.5 a5.75 5.75 0 1 0 11.5 0 a5.75 5.75 0 1 0 -11.5 0zM856.75 1782.5 a5.75 5.75 0 1 0 11.5 0 a5.75 5.75 0 1 0 -11.5 0zM1270.75 1759.5 a5.75 5.75 0 1 0 11.5 0 a5.75 5.75 0 1 0 -11.5 0zM902.75 1736.5 a5.75 5.75 0 1 0 11.5 0 a5.75 5.75 0 1 0 -11.5 0zM1040.75 1736.5 a5.75 5.75 0 1 0 11.5 0 a5.75 5.75 0 1 0 -11.5 0zM1017.75 1736.5 a5.75 5.75 0 1 0 11.5 0 a5.75 5.75 0 1 0 -11.5 0zM856.75 1736.5 a5.75 5.75 0 1 0 11.5 0 a5.75 5.75 0 1 0 -11.5 0zM833.75 1736.5 a5.75 5.75 0 1 0 11.5 0 a5.75 5.75 0 1 0 -11.5 0z" fill="rgba(0, 199, 179, 0.11)"></path><path d="M563.5 770.5L586.5 793.5M448.5 816.5L471.5 793.5L494.5 793.5L517.5 793.5M793.5 770.5L816.5 747.5L839.5 747.5L862.5 747.5L885.5 747.5L908.5 747.5L931.5 747.5M1000.5 747.5L1023.5 724.5M977.5 747.5L1000.5 724.5M540.5 793.5L563.5 793.5M195.5 885.5L218.5 862.5M517.5 816.5L540.5 816.5L563.5 816.5M-11.5 954.5L11.5 954.5L34.5 931.5L57.5 908.5L80.5 908.5L103.5 908.5L126.5 885.5L149.5 885.5L172.5 885.5L195.5 885.5L218.5 885.5L241.5 862.5L264.5 839.5L287.5 839.5L310.5 839.5L333.5 839.5L356.5 839.5L379.5 816.5L402.5 816.5L425.5 816.5L448.5 816.5L471.5 816.5L494.5 816.5L517.5 816.5L540.5 793.5L563.5 770.5L586.5 770.5L609.5 770.5L632.5 770.5L655.5 770.5L678.5 770.5L701.5 770.5L724.5 770.5L747.5 770.5L770.5 770.5L793.5 770.5L816.5 770.5L839.5 770.5L862.5 770.5L885.5 770.5L908.5 770.5L931.5 770.5L954.5 770.5L977.5 747.5L1000.5 747.5L1023.5 747.5L1046.5 747.5" stroke="rgba(0, 199, 179, 0.11)" stroke-width="3.83"></path><path d="M1040.75 747.5 a5.75 5.75 0 1 0 11.5 0 a5.75 5.75 0 1 0 -11.5 0zM580.75 793.5 a5.75 5.75 0 1 0 11.5 0 a5.75 5.75 0 1 0 -11.5 0zM511.75 793.5 a5.75 5.75 0 1 0 11.5 0 a5.75 5.75 0 1 0 -11.5 0zM925.75 747.5 a5.75 5.75 0 1 0 11.5 0 a5.75 5.75 0 1 0 -11.5 0zM1017.75 724.5 a5.75 5.75 0 1 0 11.5 0 a5.75 5.75 0 1 0 -11.5 0zM994.75 724.5 a5.75 5.75 0 1 0 11.5 0 a5.75 5.75 0 1 0 -11.5 0zM557.75 793.5 a5.75 5.75 0 1 0 11.5 0 a5.75 5.75 0 1 0 -11.5 0zM212.75 862.5 a5.75 5.75 0 1 0 11.5 0 a5.75 5.75 0 1 0 -11.5 0zM557.75 816.5 a5.75 5.75 0 1 0 11.5 0 a5.75 5.75 0 1 0 -11.5 0z" fill="rgba(0, 199, 179, 0.11)"></path><path d="M195.5 1667.5L218.5 1690.5L241.5 1690.5L264.5 1690.5L287.5 1690.5L310.5 1713.5M356.5 1713.5L379.5 1736.5L402.5 1736.5L425.5 1736.5L448.5 1736.5M563.5 1759.5L586.5 1759.5M172.5 1667.5L195.5 1690.5L218.5 1713.5M-11.5 1621.5L11.5 1644.5L34.5 1644.5L57.5 1667.5L80.5 1667.5L103.5 1667.5L126.5 1667.5L149.5 1667.5L172.5 1667.5L195.5 1667.5L218.5 1667.5L241.5 1667.5L264.5 1667.5L287.5 1667.5L310.5 1690.5L333.5 1713.5L356.5 1713.5L379.5 1713.5L402.5 1713.5L425.5 1713.5L448.5 1713.5L471.5 1736.5L494.5 1736.5L517.5 1759.5L540.5 1759.5L563.5 1759.5L586.5 1782.5L609.5 1782.5L632.5 1782.5L655.5 1782.5" stroke="rgba(0, 199, 179, 0.11)" stroke-width="3.83"></path><path d="M649.75 1782.5 a5.75 5.75 0 1 0 11.5 0 a5.75 5.75 0 1 0 -11.5 0zM304.75 1713.5 a5.75 5.75 0 1 0 11.5 0 a5.75 5.75 0 1 0 -11.5 0zM442.75 1736.5 a5.75 5.75 0 1 0 11.5 0 a5.75 5.75 0 1 0 -11.5 0zM580.75 1759.5 a5.75 5.75 0 1 0 11.5 0 a5.75 5.75 0 1 0 -11.5 0zM212.75 1713.5 a5.75 5.75 0 1 0 11.5 0 a5.75 5.75 0 1 0 -11.5 0z" fill="rgba(0, 199, 179, 0.11)"></path><path d="M-11.5 931.5L11.5 931.5L34.5 908.5L57.5 885.5L80.5 885.5L103.5 885.5L126.5 862.5L149.5 862.5L172.5 862.5" stroke="rgba(0, 199, 179, 0.11)" stroke-width="3.83"></path><path d="M166.75 862.5 a5.75 5.75 0 1 0 11.5 0 a5.75 5.75 0 1 0 -11.5 0z" fill="rgba(0, 199, 179, 0.11)"></path><path d="M-11.5 1644.5L11.5 1667.5L34.5 1667.5L57.5 1690.5L80.5 1690.5L103.5 1690.5L126.5 1690.5L149.5 1690.5" stroke="rgba(0, 199, 179, 0.11)" stroke-width="3.83"></path><path d="M143.75 1690.5 a5.75 5.75 0 1 0 11.5 0 a5.75 5.75 0 1 0 -11.5 0z" fill="rgba(0, 199, 179, 0.11)"></path><path d="M609.5 747.5L632.5 724.5L655.5 724.5L678.5 724.5L701.5 724.5L724.5 724.5L747.5 724.5L770.5 724.5L793.5 724.5L816.5 724.5L839.5 724.5L862.5 724.5L885.5 724.5M402.5 793.5L425.5 770.5M586.5 747.5L609.5 724.5M494.5 770.5L517.5 747.5L540.5 747.5M425.5 793.5L448.5 793.5M471.5 770.5L494.5 747.5M-11.5 908.5L11.5 908.5L34.5 885.5L57.5 862.5L80.5 862.5L103.5 862.5L126.5 839.5L149.5 839.5L172.5 839.5L195.5 839.5L218.5 839.5L241.5 839.5L264.5 816.5L287.5 816.5L310.5 816.5L333.5 816.5L356.5 816.5L379.5 793.5L402.5 793.5L425.5 793.5L448.5 770.5L471.5 770.5L494.5 770.5L517.5 770.5L540.5 770.5L563.5 747.5L586.5 747.5L609.5 747.5L632.5 747.5L655.5 747.5L678.5 747.5L701.5 747.5L724.5 747.5L747.5 747.5" stroke="rgba(0, 199, 179, 0.11)" stroke-width="3.83"></path><path d="M741.75 747.5 a5.75 5.75 0 1 0 11.5 0 a5.75 5.75 0 1 0 -11.5 0zM879.75 724.5 a5.75 5.75 0 1 0 11.5 0 a5.75 5.75 0 1 0 -11.5 0zM419.75 770.5 a5.75 5.75 0 1 0 11.5 0 a5.75 5.75 0 1 0 -11.5 0zM603.75 724.5 a5.75 5.75 0 1 0 11.5 0 a5.75 5.75 0 1 0 -11.5 0zM534.75 747.5 a5.75 5.75 0 1 0 11.5 0 a5.75 5.75 0 1 0 -11.5 0zM442.75 793.5 a5.75 5.75 0 1 0 11.5 0 a5.75 5.75 0 1 0 -11.5 0zM488.75 747.5 a5.75 5.75 0 1 0 11.5 0 a5.75 5.75 0 1 0 -11.5 0z" fill="rgba(0, 199, 179, 0.11)"></path><path d="M448.5 1759.5L471.5 1782.5L494.5 1782.5M149.5 1713.5L172.5 1713.5M517.5 1782.5L540.5 1782.5L563.5 1782.5M195.5 1736.5L218.5 1759.5M655.5 1805.5L678.5 1828.5L701.5 1828.5L724.5 1828.5L747.5 1828.5L770.5 1828.5M379.5 1759.5L402.5 1782.5L425.5 1782.5L448.5 1782.5M770.5 1805.5L793.5 1782.5M264.5 1736.5L287.5 1713.5M747.5 1805.5L770.5 1782.5M-11.5 1667.5L11.5 1690.5L34.5 1690.5L57.5 1713.5L80.5 1713.5L103.5 1713.5L126.5 1713.5L149.5 1713.5L172.5 1736.5L195.5 1736.5L218.5 1736.5L241.5 1736.5L264.5 1736.5L287.5 1736.5L310.5 1736.5L333.5 1736.5L356.5 1759.5L379.5 1759.5L402.5 1759.5L425.5 1759.5L448.5 1759.5L471.5 1759.5L494.5 1759.5L517.5 1782.5L540.5 1805.5L563.5 1805.5L586.5 1805.5L609.5 1805.5L632.5 1805.5L655.5 1805.5L678.5 1805.5L701.5 1805.5L724.5 1805.5L747.5 1805.5L770.5 1805.5L793.5 1805.5L816.5 1805.5L839.5 1805.5L862.5 1805.5" stroke="rgba(0, 199, 179, 0.11)" stroke-width="3.83"></path><path d="M856.75 1805.5 a5.75 5.75 0 1 0 11.5 0 a5.75 5.75 0 1 0 -11.5 0zM488.75 1782.5 a5.75 5.75 0 1 0 11.5 0 a5.75 5.75 0 1 0 -11.5 0zM166.75 1713.5 a5.75 5.75 0 1 0 11.5 0 a5.75 5.75 0 1 0 -11.5 0zM557.75 1782.5 a5.75 5.75 0 1 0 11.5 0 a5.75 5.75 0 1 0 -11.5 0zM212.75 1759.5 a5.75 5.75 0 1 0 11.5 0 a5.75 5.75 0 1 0 -11.5 0zM764.75 1828.5 a5.75 5.75 0 1 0 11.5 0 a5.75 5.75 0 1 0 -11.5 0zM442.75 1782.5 a5.75 5.75 0 1 0 11.5 0 a5.75 5.75 0 1 0 -11.5 0zM787.75 1782.5 a5.75 5.75 0 1 0 11.5 0 a5.75 5.75 0 1 0 -11.5 0zM281.75 1713.5 a5.75 5.75 0 1 0 11.5 0 a5.75 5.75 0 1 0 -11.5 0zM764.75 1782.5 a5.75 5.75 0 1 0 11.5 0 a5.75 5.75 0 1 0 -11.5 0z" fill="rgba(0, 199, 179, 0.11)"></path><path d="M379.5 770.5L402.5 770.5M977.5 678.5L1000.5 655.5L1023.5 655.5L1046.5 655.5L1069.5 655.5L1092.5 655.5L1115.5 655.5L1138.5 655.5L1161.5 655.5L1184.5 655.5L1207.5 655.5M954.5 678.5L977.5 701.5M793.5 655.5L816.5 678.5L839.5 678.5L862.5 678.5L885.5 678.5L908.5 678.5L931.5 701.5M1000.5 701.5L1023.5 678.5L1046.5 678.5M908.5 655.5L931.5 655.5L954.5 655.5L977.5 655.5M701.5 678.5L724.5 701.5L747.5 701.5L770.5 701.5L793.5 701.5L816.5 701.5L839.5 701.5L862.5 701.5L885.5 701.5L908.5 701.5L931.5 724.5L954.5 724.5L977.5 724.5M724.5 678.5L747.5 678.5L770.5 678.5M448.5 747.5L471.5 747.5M563.5 724.5L586.5 724.5M678.5 701.5L701.5 701.5M-11.5 885.5L11.5 885.5L34.5 862.5L57.5 839.5L80.5 839.5L103.5 839.5L126.5 816.5L149.5 816.5L172.5 816.5L195.5 816.5L218.5 816.5L241.5 816.5L264.5 793.5L287.5 793.5L310.5 793.5L333.5 793.5L356.5 793.5L379.5 770.5L402.5 747.5L425.5 747.5L448.5 747.5L471.5 724.5L494.5 724.5L517.5 724.5L540.5 724.5L563.5 724.5L586.5 701.5L609.5 701.5L632.5 701.5L655.5 701.5L678.5 701.5L701.5 678.5L724.5 678.5L747.5 655.5L770.5 655.5L793.5 655.5L816.5 655.5L839.5 655.5L862.5 655.5L885.5 655.5L908.5 655.5L931.5 678.5L954.5 678.5L977.5 678.5L1000.5 701.5L1023.5 701.5" stroke="rgba(0, 199, 179, 0.11)" stroke-width="3.83"></path><path d="M1017.75 701.5 a5.75 5.75 0 1 0 11.5 0 a5.75 5.75 0 1 0 -11.5 0zM396.75 770.5 a5.75 5.75 0 1 0 11.5 0 a5.75 5.75 0 1 0 -11.5 0zM1201.75 655.5 a5.75 5.75 0 1 0 11.5 0 a5.75 5.75 0 1 0 -11.5 0zM971.75 701.5 a5.75 5.75 0 1 0 11.5 0 a5.75 5.75 0 1 0 -11.5 0zM925.75 701.5 a5.75 5.75 0 1 0 11.5 0 a5.75 5.75 0 1 0 -11.5 0zM1040.75 678.5 a5.75 5.75 0 1 0 11.5 0 a5.75 5.75 0 1 0 -11.5 0zM971.75 655.5 a5.75 5.75 0 1 0 11.5 0 a5.75 5.75 0 1 0 -11.5 0zM971.75 724.5 a5.75 5.75 0 1 0 11.5 0 a5.75 5.75 0 1 0 -11.5 0zM764.75 678.5 a5.75 5.75 0 1 0 11.5 0 a5.75 5.75 0 1 0 -11.5 0zM465.75 747.5 a5.75 5.75 0 1 0 11.5 0 a5.75 5.75 0 1 0 -11.5 0zM580.75 724.5 a5.75 5.75 0 1 0 11.5 0 a5.75 5.75 0 1 0 -11.5 0zM695.75 701.5 a5.75 5.75 0 1 0 11.5 0 a5.75 5.75 0 1 0 -11.5 0z" fill="rgba(0, 199, 179, 0.11)"></path><path d="M356.5 1782.5L379.5 1782.5M540.5 1828.5L563.5 1851.5M172.5 1759.5L195.5 1759.5M310.5 1782.5L333.5 1759.5M586.5 1828.5L609.5 1828.5M126.5 1736.5L149.5 1736.5M609.5 1851.5L632.5 1874.5M-11.5 1690.5L11.5 1713.5L34.5 1713.5L57.5 1736.5L80.5 1736.5L103.5 1736.5L126.5 1736.5L149.5 1759.5L172.5 1759.5L195.5 1782.5L218.5 1782.5L241.5 1782.5L264.5 1782.5L287.5 1782.5L310.5 1782.5L333.5 1782.5L356.5 1782.5L379.5 1805.5L402.5 1805.5L425.5 1805.5L448.5 1805.5L471.5 1805.5L494.5 1805.5L517.5 1805.5L540.5 1828.5L563.5 1828.5L586.5 1828.5L609.5 1851.5L632.5 1851.5" stroke="rgba(0, 199, 179, 0.11)" stroke-width="3.83"></path><path d="M626.75 1851.5 a5.75 5.75 0 1 0 11.5 0 a5.75 5.75 0 1 0 -11.5 0zM373.75 1782.5 a5.75 5.75 0 1 0 11.5 0 a5.75 5.75 0 1 0 -11.5 0zM557.75 1851.5 a5.75 5.75 0 1 0 11.5 0 a5.75 5.75 0 1 0 -11.5 0zM189.75 1759.5 a5.75 5.75 0 1 0 11.5 0 a5.75 5.75 0 1 0 -11.5 0zM327.75 1759.5 a5.75 5.75 0 1 0 11.5 0 a5.75 5.75 0 1 0 -11.5 0zM603.75 1828.5 a5.75 5.75 0 1 0 11.5 0 a5.75 5.75 0 1 0 -11.5 0zM143.75 1736.5 a5.75 5.75 0 1 0 11.5 0 a5.75 5.75 0 1 0 -11.5 0zM626.75 1874.5 a5.75 5.75 0 1 0 11.5 0 a5.75 5.75 0 1 0 -11.5 0z" fill="rgba(0, 199, 179, 0.11)"></path><path d="M172.5 793.5L195.5 770.5L218.5 770.5M264.5 770.5L287.5 747.5L310.5 747.5L333.5 747.5L356.5 747.5L379.5 724.5M-11.5 862.5L11.5 862.5L34.5 839.5L57.5 816.5L80.5 816.5L103.5 816.5L126.5 793.5L149.5 793.5L172.5 793.5L195.5 793.5L218.5 793.5L241.5 793.5L264.5 770.5L287.5 770.5L310.5 770.5L333.5 770.5L356.5 770.5L379.5 747.5L402.5 724.5L425.5 724.5L448.5 724.5L471.5 701.5L494.5 701.5L517.5 701.5L540.5 701.5L563.5 701.5L586.5 678.5L609.5 678.5L632.5 678.5L655.5 678.5L678.5 678.5L701.5 655.5L724.5 655.5L747.5 632.5L770.5 632.5L793.5 632.5L816.5 632.5L839.5 632.5L862.5 632.5L885.5 632.5" stroke="rgba(0, 199, 179, 0.11)" stroke-width="3.83"></path><path d="M879.75 632.5 a5.75 5.75 0 1 0 11.5 0 a5.75 5.75 0 1 0 -11.5 0zM212.75 770.5 a5.75 5.75 0 1 0 11.5 0 a5.75 5.75 0 1 0 -11.5 0zM373.75 724.5 a5.75 5.75 0 1 0 11.5 0 a5.75 5.75 0 1 0 -11.5 0z" fill="rgba(0, 199, 179, 0.11)"></path><path d="M287.5 1805.5L310.5 1828.5M11.5 1736.5L34.5 1736.5M264.5 1805.5L287.5 1828.5M-11.5 1713.5L11.5 1736.5L34.5 1759.5L57.5 1759.5L80.5 1759.5L103.5 1759.5L126.5 1759.5L149.5 1782.5L172.5 1782.5L195.5 1805.5L218.5 1805.5L241.5 1805.5L264.5 1805.5L287.5 1805.5L310.5 1805.5L333.5 1805.5L356.5 1805.5L379.5 1828.5L402.5 1828.5L425.5 1828.5L448.5 1828.5L471.5 1828.5" stroke="rgba(0, 199, 179, 0.11)" stroke-width="3.83"></path><path d="M465.75 1828.5 a5.75 5.75 0 1 0 11.5 0 a5.75 5.75 0 1 0 -11.5 0zM304.75 1828.5 a5.75 5.75 0 1 0 11.5 0 a5.75 5.75 0 1 0 -11.5 0zM28.75 1736.5 a5.75 5.75 0 1 0 11.5 0 a5.75 5.75 0 1 0 -11.5 0zM281.75 1828.5 a5.75 5.75 0 1 0 11.5 0 a5.75 5.75 0 1 0 -11.5 0z" fill="rgba(0, 199, 179, 0.11)"></path><path d="M287.5 701.5L310.5 724.5L333.5 724.5L356.5 724.5M264.5 724.5L287.5 724.5M241.5 747.5L264.5 747.5M126.5 770.5L149.5 770.5L172.5 770.5M908.5 609.5L931.5 632.5L954.5 632.5L977.5 632.5M655.5 655.5L678.5 632.5M-11.5 839.5L11.5 839.5L34.5 816.5L57.5 793.5L80.5 793.5L103.5 793.5L126.5 770.5L149.5 747.5L172.5 747.5L195.5 747.5L218.5 747.5L241.5 747.5L264.5 724.5L287.5 701.5L310.5 701.5L333.5 701.5L356.5 701.5L379.5 701.5L402.5 701.5L425.5 701.5L448.5 701.5L471.5 678.5L494.5 678.5L517.5 678.5L540.5 678.5L563.5 678.5L586.5 655.5L609.5 655.5L632.5 655.5L655.5 655.5L678.5 655.5L701.5 632.5L724.5 632.5L747.5 609.5L770.5 609.5L793.5 609.5L816.5 609.5L839.5 609.5L862.5 609.5L885.5 609.5L908.5 609.5L931.5 609.5" stroke="rgba(0, 199, 179, 0.11)" stroke-width="3.83"></path><path d="M925.75 609.5 a5.75 5.75 0 1 0 11.5 0 a5.75 5.75 0 1 0 -11.5 0zM350.75 724.5 a5.75 5.75 0 1 0 11.5 0 a5.75 5.75 0 1 0 -11.5 0zM281.75 724.5 a5.75 5.75 0 1 0 11.5 0 a5.75 5.75 0 1 0 -11.5 0zM258.75 747.5 a5.75 5.75 0 1 0 11.5 0 a5.75 5.75 0 1 0 -11.5 0zM166.75 770.5 a5.75 5.75 0 1 0 11.5 0 a5.75 5.75 0 1 0 -11.5 0zM971.75 632.5 a5.75 5.75 0 1 0 11.5 0 a5.75 5.75 0 1 0 -11.5 0zM672.75 632.5 a5.75 5.75 0 1 0 11.5 0 a5.75 5.75 0 1 0 -11.5 0z" fill="rgba(0, 199, 179, 0.11)"></path><path d="M494.5 1851.5L517.5 1828.5M586.5 1897.5L609.5 1874.5M333.5 1828.5L356.5 1851.5M310.5 1851.5L333.5 1851.5M103.5 1782.5L126.5 1805.5M80.5 1782.5L103.5 1805.5M241.5 1828.5L264.5 1828.5M-11.5 1736.5L11.5 1759.5L34.5 1782.5L57.5 1782.5L80.5 1782.5L103.5 1782.5L126.5 1782.5L149.5 1805.5L172.5 1805.5L195.5 1828.5L218.5 1828.5L241.5 1828.5L264.5 1851.5L287.5 1851.5L310.5 1851.5L333.5 1828.5L356.5 1828.5L379.5 1851.5L402.5 1851.5L425.5 1851.5L448.5 1851.5L471.5 1851.5L494.5 1851.5L517.5 1851.5L540.5 1874.5L563.5 1874.5L586.5 1897.5L609.5 1897.5L632.5 1897.5" stroke="rgba(0, 199, 179, 0.11)" stroke-width="3.83"></path><path d="M626.75 1897.5 a5.75 5.75 0 1 0 11.5 0 a5.75 5.75 0 1 0 -11.5 0zM511.75 1828.5 a5.75 5.75 0 1 0 11.5 0 a5.75 5.75 0 1 0 -11.5 0zM603.75 1874.5 a5.75 5.75 0 1 0 11.5 0 a5.75 5.75 0 1 0 -11.5 0zM350.75 1851.5 a5.75 5.75 0 1 0 11.5 0 a5.75 5.75 0 1 0 -11.5 0zM327.75 1851.5 a5.75 5.75 0 1 0 11.5 0 a5.75 5.75 0 1 0 -11.5 0zM120.75 1805.5 a5.75 5.75 0 1 0 11.5 0 a5.75 5.75 0 1 0 -11.5 0zM97.75 1805.5 a5.75 5.75 0 1 0 11.5 0 a5.75 5.75 0 1 0 -11.5 0zM258.75 1828.5 a5.75 5.75 0 1 0 11.5 0 a5.75 5.75 0 1 0 -11.5 0z" fill="rgba(0, 199, 179, 0.11)"></path><path d="M1092.5 517.5L1115.5 540.5L1138.5 563.5L1161.5 563.5L1184.5 563.5L1207.5 563.5L1230.5 563.5L1253.5 563.5L1276.5 563.5L1299.5 563.5L1322.5 563.5L1345.5 563.5L1368.5 563.5L1391.5 563.5L1414.5 563.5M1161.5 517.5L1184.5 517.5L1207.5 517.5L1230.5 517.5L1253.5 540.5L1276.5 540.5L1299.5 540.5L1322.5 540.5L1345.5 540.5L1368.5 540.5L1391.5 540.5L1414.5 540.5M977.5 586.5L1000.5 609.5L1023.5 609.5L1046.5 609.5L1069.5 609.5L1092.5 609.5L1115.5 609.5L1138.5 609.5L1161.5 609.5L1184.5 609.5L1207.5 609.5L1230.5 609.5L1253.5 632.5L1276.5 632.5L1299.5 632.5L1322.5 632.5L1345.5 632.5M1000.5 586.5L1023.5 586.5L1046.5 586.5M954.5 586.5L977.5 609.5M80.5 770.5L103.5 747.5M1207.5 471.5L1230.5 494.5L1253.5 494.5L1276.5 494.5M632.5 632.5L655.5 632.5M1184.5 494.5L1207.5 494.5M1230.5 471.5L1253.5 448.5L1276.5 448.5M218.5 724.5L241.5 701.5L264.5 678.5M1046.5 563.5L1069.5 563.5L1092.5 563.5L1115.5 563.5L1138.5 586.5L1161.5 586.5L1184.5 586.5L1207.5 586.5M-11.5 816.5L11.5 816.5L34.5 793.5L57.5 770.5L80.5 770.5L103.5 770.5L126.5 747.5L149.5 724.5L172.5 724.5L195.5 724.5L218.5 724.5L241.5 724.5L264.5 701.5L287.5 678.5L310.5 678.5L333.5 678.5L356.5 678.5L379.5 678.5L402.5 678.5L425.5 678.5L448.5 678.5L471.5 655.5L494.5 655.5L517.5 655.5L540.5 655.5L563.5 655.5L586.5 632.5L609.5 632.5L632.5 632.5L655.5 609.5L678.5 609.5L701.5 609.5L724.5 609.5L747.5 586.5L770.5 586.5L793.5 586.5L816.5 586.5L839.5 586.5L862.5 586.5L885.5 586.5L908.5 586.5L931.5 586.5L954.5 586.5L977.5 586.5L1000.5 586.5L1023.5 563.5L1046.5 563.5L1069.5 540.5L1092.5 517.5L1115.5 517.5L1138.5 517.5L1161.5 517.5L1184.5 494.5L1207.5 471.5L1230.5 471.5L1253.5 471.5L1276.5 471.5" stroke="rgba(0, 199, 179, 0.11)" stroke-width="3.83"></path><path d="M1270.75 471.5 a5.75 5.75 0 1 0 11.5 0 a5.75 5.75 0 1 0 -11.5 0zM1408.75 563.5 a5.75 5.75 0 1 0 11.5 0 a5.75 5.75 0 1 0 -11.5 0zM1408.75 540.5 a5.75 5.75 0 1 0 11.5 0 a5.75 5.75 0 1 0 -11.5 0zM1339.75 632.5 a5.75 5.75 0 1 0 11.5 0 a5.75 5.75 0 1 0 -11.5 0zM1040.75 586.5 a5.75 5.75 0 1 0 11.5 0 a5.75 5.75 0 1 0 -11.5 0zM971.75 609.5 a5.75 5.75 0 1 0 11.5 0 a5.75 5.75 0 1 0 -11.5 0zM97.75 747.5 a5.75 5.75 0 1 0 11.5 0 a5.75 5.75 0 1 0 -11.5 0zM1270.75 494.5 a5.75 5.75 0 1 0 11.5 0 a5.75 5.75 0 1 0 -11.5 0zM649.75 632.5 a5.75 5.75 0 1 0 11.5 0 a5.75 5.75 0 1 0 -11.5 0zM1201.75 494.5 a5.75 5.75 0 1 0 11.5 0 a5.75 5.75 0 1 0 -11.5 0zM1270.75 448.5 a5.75 5.75 0 1 0 11.5 0 a5.75 5.75 0 1 0 -11.5 0zM258.75 678.5 a5.75 5.75 0 1 0 11.5 0 a5.75 5.75 0 1 0 -11.5 0zM1201.75 586.5 a5.75 5.75 0 1 0 11.5 0 a5.75 5.75 0 1 0 -11.5 0z" fill="rgba(0, 199, 179, 0.11)"></path><path d="M839.5 1897.5L862.5 1920.5L885.5 1920.5L908.5 1920.5L931.5 1920.5M494.5 1874.5L517.5 1897.5M379.5 1874.5L402.5 1897.5L425.5 1897.5L448.5 1897.5L471.5 1897.5L494.5 1897.5L517.5 1920.5M770.5 1920.5L793.5 1897.5L816.5 1897.5L839.5 1874.5M793.5 1920.5L816.5 1943.5L839.5 1943.5M34.5 1805.5L57.5 1805.5L80.5 1805.5M862.5 1897.5L885.5 1874.5L908.5 1874.5L931.5 1874.5L954.5 1874.5L977.5 1874.5L1000.5 1874.5L1023.5 1874.5L1046.5 1874.5L1069.5 1874.5L1092.5 1874.5M816.5 1920.5L839.5 1920.5M356.5 1874.5L379.5 1897.5L402.5 1920.5L425.5 1920.5L448.5 1920.5L471.5 1920.5L494.5 1920.5M678.5 1920.5L701.5 1897.5L724.5 1897.5L747.5 1897.5L770.5 1897.5L793.5 1874.5L816.5 1874.5L839.5 1851.5L862.5 1851.5L885.5 1851.5L908.5 1851.5M-11.5 1759.5L11.5 1782.5L34.5 1805.5L57.5 1828.5L80.5 1828.5L103.5 1828.5L126.5 1828.5L149.5 1828.5L172.5 1828.5L195.5 1851.5L218.5 1851.5L241.5 1851.5L264.5 1874.5L287.5 1874.5L310.5 1874.5L333.5 1874.5L356.5 1874.5L379.5 1874.5L402.5 1874.5L425.5 1874.5L448.5 1874.5L471.5 1874.5L494.5 1874.5L517.5 1874.5L540.5 1897.5L563.5 1897.5L586.5 1920.5L609.5 1920.5L632.5 1920.5L655.5 1920.5L678.5 1920.5L701.5 1920.5L724.5 1920.5L747.5 1920.5L770.5 1920.5L793.5 1920.5L816.5 1920.5L839.5 1897.5L862.5 1897.5L885.5 1897.5L908.5 1897.5L931.5 1897.5" stroke="rgba(0, 199, 179, 0.11)" stroke-width="3.83"></path><path d="M925.75 1897.5 a5.75 5.75 0 1 0 11.5 0 a5.75 5.75 0 1 0 -11.5 0zM925.75 1920.5 a5.75 5.75 0 1 0 11.5 0 a5.75 5.75 0 1 0 -11.5 0zM511.75 1897.5 a5.75 5.75 0 1 0 11.5 0 a5.75 5.75 0 1 0 -11.5 0zM511.75 1920.5 a5.75 5.75 0 1 0 11.5 0 a5.75 5.75 0 1 0 -11.5 0zM833.75 1874.5 a5.75 5.75 0 1 0 11.5 0 a5.75 5.75 0 1 0 -11.5 0zM833.75 1943.5 a5.75 5.75 0 1 0 11.5 0 a5.75 5.75 0 1 0 -11.5 0zM74.75 1805.5 a5.75 5.75 0 1 0 11.5 0 a5.75 5.75 0 1 0 -11.5 0zM1086.75 1874.5 a5.75 5.75 0 1 0 11.5 0 a5.75 5.75 0 1 0 -11.5 0zM833.75 1920.5 a5.75 5.75 0 1 0 11.5 0 a5.75 5.75 0 1 0 -11.5 0zM488.75 1920.5 a5.75 5.75 0 1 0 11.5 0 a5.75 5.75 0 1 0 -11.5 0zM902.75 1851.5 a5.75 5.75 0 1 0 11.5 0 a5.75 5.75 0 1 0 -11.5 0z" fill="rgba(0, 199, 179, 0.11)"></path><path d="M57.5 747.5L80.5 747.5M-11.5 793.5L11.5 770.5L34.5 770.5L57.5 747.5L80.5 724.5L103.5 724.5" stroke="rgba(0, 199, 179, 0.11)" stroke-width="3.83"></path><path d="M97.75 724.5 a5.75 5.75 0 1 0 11.5 0 a5.75 5.75 0 1 0 -11.5 0zM74.75 747.5 a5.75 5.75 0 1 0 11.5 0 a5.75 5.75 0 1 0 -11.5 0z" fill="rgba(0, 199, 179, 0.11)"></path><path d="M310.5 1920.5L333.5 1897.5M287.5 1920.5L310.5 1897.5M540.5 1920.5L563.5 1943.5M356.5 1920.5L379.5 1920.5M264.5 1897.5L287.5 1897.5M517.5 1943.5L540.5 1943.5M-11.5 1782.5L11.5 1805.5L34.5 1828.5L57.5 1851.5L80.5 1851.5L103.5 1851.5L126.5 1851.5L149.5 1851.5L172.5 1851.5L195.5 1874.5L218.5 1874.5L241.5 1874.5L264.5 1897.5L287.5 1920.5L310.5 1920.5L333.5 1920.5L356.5 1920.5L379.5 1943.5L402.5 1943.5L425.5 1943.5L448.5 1943.5L471.5 1943.5L494.5 1943.5L517.5 1943.5L540.5 1920.5L563.5 1920.5L586.5 1943.5L609.5 1943.5L632.5 1943.5L655.5 1943.5" stroke="rgba(0, 199, 179, 0.11)" stroke-width="3.83"></path><path d="M649.75 1943.5 a5.75 5.75 0 1 0 11.5 0 a5.75 5.75 0 1 0 -11.5 0zM327.75 1897.5 a5.75 5.75 0 1 0 11.5 0 a5.75 5.75 0 1 0 -11.5 0zM304.75 1897.5 a5.75 5.75 0 1 0 11.5 0 a5.75 5.75 0 1 0 -11.5 0zM557.75 1943.5 a5.75 5.75 0 1 0 11.5 0 a5.75 5.75 0 1 0 -11.5 0zM373.75 1920.5 a5.75 5.75 0 1 0 11.5 0 a5.75 5.75 0 1 0 -11.5 0zM281.75 1897.5 a5.75 5.75 0 1 0 11.5 0 a5.75 5.75 0 1 0 -11.5 0zM534.75 1943.5 a5.75 5.75 0 1 0 11.5 0 a5.75 5.75 0 1 0 -11.5 0z" fill="rgba(0, 199, 179, 0.11)"></path><path d="M172.5 701.5L195.5 678.5L218.5 678.5M103.5 701.5L126.5 678.5M149.5 701.5L172.5 678.5M-11.5 770.5L11.5 747.5L34.5 747.5L57.5 724.5L80.5 701.5L103.5 701.5L126.5 701.5L149.5 701.5L172.5 701.5L195.5 701.5" stroke="rgba(0, 199, 179, 0.11)" stroke-width="3.83"></path><path d="M189.75 701.5 a5.75 5.75 0 1 0 11.5 0 a5.75 5.75 0 1 0 -11.5 0zM212.75 678.5 a5.75 5.75 0 1 0 11.5 0 a5.75 5.75 0 1 0 -11.5 0zM120.75 678.5 a5.75 5.75 0 1 0 11.5 0 a5.75 5.75 0 1 0 -11.5 0zM166.75 678.5 a5.75 5.75 0 1 0 11.5 0 a5.75 5.75 0 1 0 -11.5 0z" fill="rgba(0, 199, 179, 0.11)"></path><path d="M471.5 1966.5L494.5 1989.5L517.5 2012.5L540.5 2012.5L563.5 2012.5L586.5 2012.5L609.5 2012.5L632.5 2012.5L655.5 2012.5L678.5 2012.5L701.5 2012.5L724.5 2012.5M425.5 1966.5L448.5 1989.5M540.5 1966.5L563.5 1989.5L586.5 1989.5L609.5 1989.5L632.5 1989.5L655.5 1989.5L678.5 1989.5L701.5 1989.5L724.5 1989.5L747.5 1989.5L770.5 1989.5L793.5 1966.5M517.5 1966.5L540.5 1989.5M402.5 1966.5L425.5 1989.5M379.5 1966.5L402.5 1989.5L425.5 2012.5L448.5 2012.5L471.5 2012.5L494.5 2012.5L517.5 2035.5M-11.5 1805.5L11.5 1828.5L34.5 1851.5L57.5 1874.5L80.5 1874.5L103.5 1874.5L126.5 1874.5L149.5 1874.5L172.5 1874.5L195.5 1897.5L218.5 1897.5L241.5 1897.5L264.5 1920.5L287.5 1943.5L310.5 1943.5L333.5 1943.5L356.5 1943.5L379.5 1966.5L402.5 1966.5L425.5 1966.5L448.5 1966.5L471.5 1966.5L494.5 1966.5L517.5 1966.5L540.5 1966.5L563.5 1966.5L586.5 1966.5L609.5 1966.5L632.5 1966.5L655.5 1966.5" stroke="rgba(0, 199, 179, 0.11)" stroke-width="3.83"></path><path d="M649.75 1966.5 a5.75 5.75 0 1 0 11.5 0 a5.75 5.75 0 1 0 -11.5 0zM718.75 2012.5 a5.75 5.75 0 1 0 11.5 0 a5.75 5.75 0 1 0 -11.5 0zM442.75 1989.5 a5.75 5.75 0 1 0 11.5 0 a5.75 5.75 0 1 0 -11.5 0zM787.75 1966.5 a5.75 5.75 0 1 0 11.5 0 a5.75 5.75 0 1 0 -11.5 0zM534.75 1989.5 a5.75 5.75 0 1 0 11.5 0 a5.75 5.75 0 1 0 -11.5 0zM419.75 1989.5 a5.75 5.75 0 1 0 11.5 0 a5.75 5.75 0 1 0 -11.5 0zM511.75 2035.5 a5.75 5.75 0 1 0 11.5 0 a5.75 5.75 0 1 0 -11.5 0z" fill="rgba(0, 199, 179, 0.11)"></path><path d="M149.5 655.5L172.5 632.5L195.5 632.5M425.5 655.5L448.5 632.5L471.5 609.5M379.5 655.5L402.5 632.5L425.5 632.5L448.5 609.5M517.5 632.5L540.5 609.5L563.5 609.5M494.5 632.5L517.5 609.5M80.5 678.5L103.5 678.5M-11.5 747.5L11.5 724.5L34.5 724.5L57.5 701.5L80.5 678.5L103.5 655.5L126.5 655.5L149.5 655.5L172.5 655.5L195.5 655.5L218.5 655.5L241.5 655.5L264.5 655.5L287.5 655.5L310.5 655.5L333.5 655.5L356.5 655.5L379.5 655.5L402.5 655.5L425.5 655.5L448.5 655.5L471.5 632.5L494.5 632.5L517.5 632.5L540.5 632.5L563.5 632.5L586.5 609.5L609.5 609.5L632.5 609.5L655.5 586.5L678.5 586.5L701.5 586.5L724.5 586.5L747.5 563.5L770.5 563.5L793.5 563.5L816.5 563.5L839.5 563.5L862.5 563.5L885.5 563.5L908.5 563.5L931.5 563.5L954.5 563.5L977.5 563.5L1000.5 563.5" stroke="rgba(0, 199, 179, 0.11)" stroke-width="3.83"></path><path d="M994.75 563.5 a5.75 5.75 0 1 0 11.5 0 a5.75 5.75 0 1 0 -11.5 0zM189.75 632.5 a5.75 5.75 0 1 0 11.5 0 a5.75 5.75 0 1 0 -11.5 0zM465.75 609.5 a5.75 5.75 0 1 0 11.5 0 a5.75 5.75 0 1 0 -11.5 0zM442.75 609.5 a5.75 5.75 0 1 0 11.5 0 a5.75 5.75 0 1 0 -11.5 0zM557.75 609.5 a5.75 5.75 0 1 0 11.5 0 a5.75 5.75 0 1 0 -11.5 0zM511.75 609.5 a5.75 5.75 0 1 0 11.5 0 a5.75 5.75 0 1 0 -11.5 0zM97.75 678.5 a5.75 5.75 0 1 0 11.5 0 a5.75 5.75 0 1 0 -11.5 0z" fill="rgba(0, 199, 179, 0.11)"></path><path d="M126.5 632.5L149.5 632.5M287.5 632.5L310.5 609.5L333.5 609.5M218.5 632.5L241.5 609.5M264.5 632.5L287.5 609.5M-11.5 724.5L11.5 701.5L34.5 701.5L57.5 678.5L80.5 655.5L103.5 632.5L126.5 632.5L149.5 609.5L172.5 609.5L195.5 609.5L218.5 632.5L241.5 632.5L264.5 632.5L287.5 632.5L310.5 632.5L333.5 632.5L356.5 632.5" stroke="rgba(0, 199, 179, 0.11)" stroke-width="3.83"></path><path d="M350.75 632.5 a5.75 5.75 0 1 0 11.5 0 a5.75 5.75 0 1 0 -11.5 0zM143.75 632.5 a5.75 5.75 0 1 0 11.5 0 a5.75 5.75 0 1 0 -11.5 0zM327.75 609.5 a5.75 5.75 0 1 0 11.5 0 a5.75 5.75 0 1 0 -11.5 0zM235.75 609.5 a5.75 5.75 0 1 0 11.5 0 a5.75 5.75 0 1 0 -11.5 0zM281.75 609.5 a5.75 5.75 0 1 0 11.5 0 a5.75 5.75 0 1 0 -11.5 0z" fill="rgba(0, 199, 179, 0.11)"></path><path d="M954.5 540.5L977.5 517.5L1000.5 494.5L1023.5 494.5M402.5 586.5L425.5 609.5M379.5 586.5L402.5 609.5M931.5 540.5L954.5 517.5M1115.5 494.5L1138.5 494.5L1161.5 494.5M494.5 563.5L517.5 586.5M448.5 586.5L471.5 586.5L494.5 586.5M885.5 540.5L908.5 517.5L931.5 517.5L954.5 494.5L977.5 471.5L1000.5 471.5L1023.5 471.5L1046.5 471.5M356.5 586.5L379.5 609.5M1000.5 540.5L1023.5 517.5L1046.5 517.5L1069.5 494.5L1092.5 471.5L1115.5 471.5L1138.5 448.5L1161.5 448.5L1184.5 448.5L1207.5 448.5L1230.5 448.5L1253.5 425.5L1276.5 425.5L1299.5 425.5L1322.5 425.5L1345.5 425.5L1368.5 425.5L1391.5 425.5L1414.5 425.5M103.5 609.5L126.5 609.5M-11.5 701.5L11.5 678.5L34.5 678.5L57.5 655.5L80.5 632.5L103.5 609.5L126.5 586.5L149.5 586.5L172.5 586.5L195.5 586.5L218.5 586.5L241.5 586.5L264.5 586.5L287.5 586.5L310.5 586.5L333.5 586.5L356.5 586.5L379.5 586.5L402.5 586.5L425.5 586.5L448.5 586.5L471.5 563.5L494.5 563.5L517.5 563.5L540.5 586.5L563.5 586.5L586.5 586.5L609.5 586.5L632.5 586.5L655.5 563.5L678.5 563.5L701.5 563.5L724.5 563.5L747.5 540.5L770.5 540.5L793.5 540.5L816.5 540.5L839.5 540.5L862.5 540.5L885.5 540.5L908.5 540.5L931.5 540.5L954.5 540.5L977.5 540.5L1000.5 540.5L1023.5 540.5L1046.5 540.5L1069.5 517.5L1092.5 494.5L1115.5 494.5L1138.5 471.5L1161.5 471.5" stroke="rgba(0, 199, 179, 0.11)" stroke-width="3.83"></path><path d="M1155.75 471.5 a5.75 5.75 0 1 0 11.5 0 a5.75 5.75 0 1 0 -11.5 0zM1017.75 494.5 a5.75 5.75 0 1 0 11.5 0 a5.75 5.75 0 1 0 -11.5 0zM419.75 609.5 a5.75 5.75 0 1 0 11.5 0 a5.75 5.75 0 1 0 -11.5 0zM396.75 609.5 a5.75 5.75 0 1 0 11.5 0 a5.75 5.75 0 1 0 -11.5 0zM948.75 517.5 a5.75 5.75 0 1 0 11.5 0 a5.75 5.75 0 1 0 -11.5 0zM1155.75 494.5 a5.75 5.75 0 1 0 11.5 0 a5.75 5.75 0 1 0 -11.5 0zM511.75 586.5 a5.75 5.75 0 1 0 11.5 0 a5.75 5.75 0 1 0 -11.5 0zM488.75 586.5 a5.75 5.75 0 1 0 11.5 0 a5.75 5.75 0 1 0 -11.5 0zM1040.75 471.5 a5.75 5.75 0 1 0 11.5 0 a5.75 5.75 0 1 0 -11.5 0zM373.75 609.5 a5.75 5.75 0 1 0 11.5 0 a5.75 5.75 0 1 0 -11.5 0zM1408.75 425.5 a5.75 5.75 0 1 0 11.5 0 a5.75 5.75 0 1 0 -11.5 0zM120.75 609.5 a5.75 5.75 0 1 0 11.5 0 a5.75 5.75 0 1 0 -11.5 0z" fill="rgba(0, 199, 179, 0.11)"></path><path d="M-11.5 1874.5L11.5 1874.5L34.5 1874.5L57.5 1897.5L80.5 1897.5L103.5 1897.5L126.5 1897.5L149.5 1897.5L172.5 1897.5L195.5 1920.5L218.5 1920.5L241.5 1920.5L264.5 1943.5" stroke="rgba(0, 199, 179, 0.11)" stroke-width="3.83"></path><path d="M258.75 1943.5 a5.75 5.75 0 1 0 11.5 0 a5.75 5.75 0 1 0 -11.5 0z" fill="rgba(0, 199, 179, 0.11)"></path><path d="M-11.5 678.5L11.5 655.5L34.5 655.5" stroke="rgba(0, 199, 179, 0.11)" stroke-width="3.83"></path><path d="M28.75 655.5 a5.75 5.75 0 1 0 11.5 0 a5.75 5.75 0 1 0 -11.5 0z" fill="rgba(0, 199, 179, 0.11)"></path><path d="M57.5 1920.5L80.5 1943.5L103.5 1943.5L126.5 1943.5M218.5 1943.5L241.5 1966.5L264.5 1989.5L287.5 1989.5L310.5 1989.5M195.5 1943.5L218.5 1966.5L241.5 1989.5M11.5 1897.5L34.5 1920.5M-11.5 1897.5L11.5 1897.5L34.5 1897.5L57.5 1920.5L80.5 1920.5L103.5 1920.5L126.5 1920.5L149.5 1920.5L172.5 1920.5L195.5 1943.5L218.5 1943.5L241.5 1943.5L264.5 1966.5L287.5 1966.5L310.5 1966.5L333.5 1966.5" stroke="rgba(0, 199, 179, 0.11)" stroke-width="3.83"></path><path d="M327.75 1966.5 a5.75 5.75 0 1 0 11.5 0 a5.75 5.75 0 1 0 -11.5 0zM120.75 1943.5 a5.75 5.75 0 1 0 11.5 0 a5.75 5.75 0 1 0 -11.5 0zM304.75 1989.5 a5.75 5.75 0 1 0 11.5 0 a5.75 5.75 0 1 0 -11.5 0zM235.75 1989.5 a5.75 5.75 0 1 0 11.5 0 a5.75 5.75 0 1 0 -11.5 0zM28.75 1920.5 a5.75 5.75 0 1 0 11.5 0 a5.75 5.75 0 1 0 -11.5 0z" fill="rgba(0, 199, 179, 0.11)"></path><path d="M816.5 517.5L839.5 494.5M655.5 540.5L678.5 517.5L701.5 517.5L724.5 517.5L747.5 494.5M11.5 632.5L34.5 609.5L57.5 609.5M149.5 563.5L172.5 540.5L195.5 540.5L218.5 540.5L241.5 540.5M356.5 563.5L379.5 540.5L402.5 540.5M770.5 517.5L793.5 494.5M586.5 563.5L609.5 540.5L632.5 540.5L655.5 517.5L678.5 494.5M425.5 563.5L448.5 540.5L471.5 517.5L494.5 517.5L517.5 517.5M517.5 540.5L540.5 540.5L563.5 540.5L586.5 540.5L609.5 517.5L632.5 517.5L655.5 494.5L678.5 471.5L701.5 471.5L724.5 471.5M-11.5 655.5L11.5 632.5L34.5 632.5L57.5 632.5L80.5 609.5L103.5 586.5L126.5 563.5L149.5 563.5L172.5 563.5L195.5 563.5L218.5 563.5L241.5 563.5L264.5 563.5L287.5 563.5L310.5 563.5L333.5 563.5L356.5 563.5L379.5 563.5L402.5 563.5L425.5 563.5L448.5 563.5L471.5 540.5L494.5 540.5L517.5 540.5L540.5 563.5L563.5 563.5L586.5 563.5L609.5 563.5L632.5 563.5L655.5 540.5L678.5 540.5L701.5 540.5L724.5 540.5L747.5 517.5L770.5 517.5L793.5 517.5L816.5 517.5L839.5 517.5L862.5 517.5" stroke="rgba(0, 199, 179, 0.11)" stroke-width="3.83"></path><path d="M856.75 517.5 a5.75 5.75 0 1 0 11.5 0 a5.75 5.75 0 1 0 -11.5 0zM833.75 494.5 a5.75 5.75 0 1 0 11.5 0 a5.75 5.75 0 1 0 -11.5 0zM741.75 494.5 a5.75 5.75 0 1 0 11.5 0 a5.75 5.75 0 1 0 -11.5 0zM51.75 609.5 a5.75 5.75 0 1 0 11.5 0 a5.75 5.75 0 1 0 -11.5 0zM235.75 540.5 a5.75 5.75 0 1 0 11.5 0 a5.75 5.75 0 1 0 -11.5 0zM396.75 540.5 a5.75 5.75 0 1 0 11.5 0 a5.75 5.75 0 1 0 -11.5 0zM787.75 494.5 a5.75 5.75 0 1 0 11.5 0 a5.75 5.75 0 1 0 -11.5 0zM672.75 494.5 a5.75 5.75 0 1 0 11.5 0 a5.75 5.75 0 1 0 -11.5 0zM511.75 517.5 a5.75 5.75 0 1 0 11.5 0 a5.75 5.75 0 1 0 -11.5 0zM718.75 471.5 a5.75 5.75 0 1 0 11.5 0 a5.75 5.75 0 1 0 -11.5 0z" fill="rgba(0, 199, 179, 0.11)"></path></g></g><defs><mask id="SvgjsMask1258"><rect width="2440" height="2560" fill="#ffffff"></rect></mask><mask id="SvgjsMask1259"><rect width="2440" height="2560" fill="white"></rect><path d="M905.62 1299.5 a2.88 2.88 0 1 0 5.76 0 a2.88 2.88 0 1 0 -5.76 0zM123.62 1253.5 a2.88 2.88 0 1 0 5.76 0 a2.88 2.88 0 1 0 -5.76 0zM721.62 1253.5 a2.88 2.88 0 1 0 5.76 0 a2.88 2.88 0 1 0 -5.76 0zM629.62 1253.5 a2.88 2.88 0 1 0 5.76 0 a2.88 2.88 0 1 0 -5.76 0zM721.62 1299.5 a2.88 2.88 0 1 0 5.76 0 a2.88 2.88 0 1 0 -5.76 0zM422.62 1253.5 a2.88 2.88 0 1 0 5.76 0 a2.88 2.88 0 1 0 -5.76 0zM606.62 1299.5 a2.88 2.88 0 1 0 5.76 0 a2.88 2.88 0 1 0 -5.76 0zM790.62 1276.5 a2.88 2.88 0 1 0 5.76 0 a2.88 2.88 0 1 0 -5.76 0zM422.62 1230.5 a2.88 2.88 0 1 0 5.76 0 a2.88 2.88 0 1 0 -5.76 0zM307.62 1230.5 a2.88 2.88 0 1 0 5.76 0 a2.88 2.88 0 1 0 -5.76 0zM560.62 1299.5 a2.88 2.88 0 1 0 5.76 0 a2.88 2.88 0 1 0 -5.76 0z" fill="black"></path><path d="M951.62 1391.5 a2.88 2.88 0 1 0 5.76 0 a2.88 2.88 0 1 0 -5.76 0zM744.62 1322.5 a2.88 2.88 0 1 0 5.76 0 a2.88 2.88 0 1 0 -5.76 0zM399.62 1299.5 a2.88 2.88 0 1 0 5.76 0 a2.88 2.88 0 1 0 -5.76 0zM1043.62 1414.5 a2.88 2.88 0 1 0 5.76 0 a2.88 2.88 0 1 0 -5.76 0zM698.62 1322.5 a2.88 2.88 0 1 0 5.76 0 a2.88 2.88 0 1 0 -5.76 0zM1043.62 1368.5 a2.88 2.88 0 1 0 5.76 0 a2.88 2.88 0 1 0 -5.76 0zM330.62 1322.5 a2.88 2.88 0 1 0 5.76 0 a2.88 2.88 0 1 0 -5.76 0zM399.62 1368.5 a2.88 2.88 0 1 0 5.76 0 a2.88 2.88 0 1 0 -5.76 0zM399.62 1322.5 a2.88 2.88 0 1 0 5.76 0 a2.88 2.88 0 1 0 -5.76 0zM859.62 1414.5 a2.88 2.88 0 1 0 5.76 0 a2.88 2.88 0 1 0 -5.76 0zM767.62 1345.5 a2.88 2.88 0 1 0 5.76 0 a2.88 2.88 0 1 0 -5.76 0z" fill="black"></path><path d="M1089.62 1207.5 a2.88 2.88 0 1 0 5.76 0 a2.88 2.88 0 1 0 -5.76 0zM974.62 1230.5 a2.88 2.88 0 1 0 5.76 0 a2.88 2.88 0 1 0 -5.76 0zM1158.62 1161.5 a2.88 2.88 0 1 0 5.76 0 a2.88 2.88 0 1 0 -5.76 0zM491.62 1253.5 a2.88 2.88 0 1 0 5.76 0 a2.88 2.88 0 1 0 -5.76 0zM1112.62 1161.5 a2.88 2.88 0 1 0 5.76 0 a2.88 2.88 0 1 0 -5.76 0zM836.62 1230.5 a2.88 2.88 0 1 0 5.76 0 a2.88 2.88 0 1 0 -5.76 0zM813.62 1253.5 a2.88 2.88 0 1 0 5.76 0 a2.88 2.88 0 1 0 -5.76 0zM1158.62 1230.5 a2.88 2.88 0 1 0 5.76 0 a2.88 2.88 0 1 0 -5.76 0zM1273.62 1115.5 a2.88 2.88 0 1 0 5.76 0 a2.88 2.88 0 1 0 -5.76 0zM399.62 1230.5 a2.88 2.88 0 1 0 5.76 0 a2.88 2.88 0 1 0 -5.76 0zM1342.62 1230.5 a2.88 2.88 0 1 0 5.76 0 a2.88 2.88 0 1 0 -5.76 0zM169.62 1230.5 a2.88 2.88 0 1 0 5.76 0 a2.88 2.88 0 1 0 -5.76 0zM284.62 1230.5 a2.88 2.88 0 1 0 5.76 0 a2.88 2.88 0 1 0 -5.76 0z" fill="black"></path><path d="M928.62 1437.5 a2.88 2.88 0 1 0 5.76 0 a2.88 2.88 0 1 0 -5.76 0zM330.62 1368.5 a2.88 2.88 0 1 0 5.76 0 a2.88 2.88 0 1 0 -5.76 0zM468.62 1414.5 a2.88 2.88 0 1 0 5.76 0 a2.88 2.88 0 1 0 -5.76 0zM215.62 1345.5 a2.88 2.88 0 1 0 5.76 0 a2.88 2.88 0 1 0 -5.76 0zM813.62 1414.5 a2.88 2.88 0 1 0 5.76 0 a2.88 2.88 0 1 0 -5.76 0zM744.62 1391.5 a2.88 2.88 0 1 0 5.76 0 a2.88 2.88 0 1 0 -5.76 0zM169.62 1322.5 a2.88 2.88 0 1 0 5.76 0 a2.88 2.88 0 1 0 -5.76 0zM468.62 1391.5 a2.88 2.88 0 1 0 5.76 0 a2.88 2.88 0 1 0 -5.76 0zM31.62 1345.5 a2.88 2.88 0 1 0 5.76 0 a2.88 2.88 0 1 0 -5.76 0zM445.62 1391.5 a2.88 2.88 0 1 0 5.76 0 a2.88 2.88 0 1 0 -5.76 0zM721.62 1391.5 a2.88 2.88 0 1 0 5.76 0 a2.88 2.88 0 1 0 -5.76 0z" fill="black"></path><path d="M974.62 1138.5 a2.88 2.88 0 1 0 5.76 0 a2.88 2.88 0 1 0 -5.76 0zM491.62 1161.5 a2.88 2.88 0 1 0 5.76 0 a2.88 2.88 0 1 0 -5.76 0zM675.62 1138.5 a2.88 2.88 0 1 0 5.76 0 a2.88 2.88 0 1 0 -5.76 0zM836.62 1184.5 a2.88 2.88 0 1 0 5.76 0 a2.88 2.88 0 1 0 -5.76 0zM905.62 1115.5 a2.88 2.88 0 1 0 5.76 0 a2.88 2.88 0 1 0 -5.76 0zM882.62 1138.5 a2.88 2.88 0 1 0 5.76 0 a2.88 2.88 0 1 0 -5.76 0zM491.62 1207.5 a2.88 2.88 0 1 0 5.76 0 a2.88 2.88 0 1 0 -5.76 0zM744.62 1184.5 a2.88 2.88 0 1 0 5.76 0 a2.88 2.88 0 1 0 -5.76 0zM974.62 1161.5 a2.88 2.88 0 1 0 5.76 0 a2.88 2.88 0 1 0 -5.76 0zM675.62 1184.5 a2.88 2.88 0 1 0 5.76 0 a2.88 2.88 0 1 0 -5.76 0zM1089.62 1115.5 a2.88 2.88 0 1 0 5.76 0 a2.88 2.88 0 1 0 -5.76 0zM905.62 1184.5 a2.88 2.88 0 1 0 5.76 0 a2.88 2.88 0 1 0 -5.76 0z" fill="black"></path><path d="M974.62 1460.5 a2.88 2.88 0 1 0 5.76 0 a2.88 2.88 0 1 0 -5.76 0zM974.62 1483.5 a2.88 2.88 0 1 0 5.76 0 a2.88 2.88 0 1 0 -5.76 0zM399.62 1460.5 a2.88 2.88 0 1 0 5.76 0 a2.88 2.88 0 1 0 -5.76 0zM652.62 1437.5 a2.88 2.88 0 1 0 5.76 0 a2.88 2.88 0 1 0 -5.76 0zM790.62 1460.5 a2.88 2.88 0 1 0 5.76 0 a2.88 2.88 0 1 0 -5.76 0zM399.62 1414.5 a2.88 2.88 0 1 0 5.76 0 a2.88 2.88 0 1 0 -5.76 0zM583.62 1437.5 a2.88 2.88 0 1 0 5.76 0 a2.88 2.88 0 1 0 -5.76 0zM537.62 1414.5 a2.88 2.88 0 1 0 5.76 0 a2.88 2.88 0 1 0 -5.76 0zM468.62 1460.5 a2.88 2.88 0 1 0 5.76 0 a2.88 2.88 0 1 0 -5.76 0zM54.62 1368.5 a2.88 2.88 0 1 0 5.76 0 a2.88 2.88 0 1 0 -5.76 0zM353.62 1437.5 a2.88 2.88 0 1 0 5.76 0 a2.88 2.88 0 1 0 -5.76 0zM330.62 1437.5 a2.88 2.88 0 1 0 5.76 0 a2.88 2.88 0 1 0 -5.76 0z" fill="black"></path><path d="M514.62 1161.5 a2.88 2.88 0 1 0 5.76 0 a2.88 2.88 0 1 0 -5.76 0zM261.62 1161.5 a2.88 2.88 0 1 0 5.76 0 a2.88 2.88 0 1 0 -5.76 0zM560.62 1138.5 a2.88 2.88 0 1 0 5.76 0 a2.88 2.88 0 1 0 -5.76 0z" fill="black"></path><path d="M169.62 1414.5 a2.88 2.88 0 1 0 5.76 0 a2.88 2.88 0 1 0 -5.76 0z" fill="black"></path><path d="M445.62 1115.5 a2.88 2.88 0 1 0 5.76 0 a2.88 2.88 0 1 0 -5.76 0zM422.62 1092.5 a2.88 2.88 0 1 0 5.76 0 a2.88 2.88 0 1 0 -5.76 0zM376.62 1092.5 a2.88 2.88 0 1 0 5.76 0 a2.88 2.88 0 1 0 -5.76 0zM261.62 1092.5 a2.88 2.88 0 1 0 5.76 0 a2.88 2.88 0 1 0 -5.76 0zM238.62 1092.5 a2.88 2.88 0 1 0 5.76 0 a2.88 2.88 0 1 0 -5.76 0z" fill="black"></path><path d="M1135.62 1552.5 a2.88 2.88 0 1 0 5.76 0 a2.88 2.88 0 1 0 -5.76 0zM1112.62 1506.5 a2.88 2.88 0 1 0 5.76 0 a2.88 2.88 0 1 0 -5.76 0zM813.62 1483.5 a2.88 2.88 0 1 0 5.76 0 a2.88 2.88 0 1 0 -5.76 0zM307.62 1437.5 a2.88 2.88 0 1 0 5.76 0 a2.88 2.88 0 1 0 -5.76 0zM629.62 1483.5 a2.88 2.88 0 1 0 5.76 0 a2.88 2.88 0 1 0 -5.76 0zM514.62 1483.5 a2.88 2.88 0 1 0 5.76 0 a2.88 2.88 0 1 0 -5.76 0zM1112.62 1483.5 a2.88 2.88 0 1 0 5.76 0 a2.88 2.88 0 1 0 -5.76 0zM1181.62 1437.5 a2.88 2.88 0 1 0 5.76 0 a2.88 2.88 0 1 0 -5.76 0zM698.62 1483.5 a2.88 2.88 0 1 0 5.76 0 a2.88 2.88 0 1 0 -5.76 0zM905.62 1529.5 a2.88 2.88 0 1 0 5.76 0 a2.88 2.88 0 1 0 -5.76 0zM813.62 1506.5 a2.88 2.88 0 1 0 5.76 0 a2.88 2.88 0 1 0 -5.76 0zM445.62 1460.5 a2.88 2.88 0 1 0 5.76 0 a2.88 2.88 0 1 0 -5.76 0zM767.62 1506.5 a2.88 2.88 0 1 0 5.76 0 a2.88 2.88 0 1 0 -5.76 0z" fill="black"></path><path d="M468.62 1115.5 a2.88 2.88 0 1 0 5.76 0 a2.88 2.88 0 1 0 -5.76 0zM445.62 1069.5 a2.88 2.88 0 1 0 5.76 0 a2.88 2.88 0 1 0 -5.76 0zM192.62 1115.5 a2.88 2.88 0 1 0 5.76 0 a2.88 2.88 0 1 0 -5.76 0zM215.62 1092.5 a2.88 2.88 0 1 0 5.76 0 a2.88 2.88 0 1 0 -5.76 0zM514.62 1092.5 a2.88 2.88 0 1 0 5.76 0 a2.88 2.88 0 1 0 -5.76 0z" fill="black"></path><path d="M1227.62 1575.5 a2.88 2.88 0 1 0 5.76 0 a2.88 2.88 0 1 0 -5.76 0zM1181.62 1598.5 a2.88 2.88 0 1 0 5.76 0 a2.88 2.88 0 1 0 -5.76 0zM215.62 1483.5 a2.88 2.88 0 1 0 5.76 0 a2.88 2.88 0 1 0 -5.76 0zM928.62 1598.5 a2.88 2.88 0 1 0 5.76 0 a2.88 2.88 0 1 0 -5.76 0zM974.62 1575.5 a2.88 2.88 0 1 0 5.76 0 a2.88 2.88 0 1 0 -5.76 0zM928.62 1621.5 a2.88 2.88 0 1 0 5.76 0 a2.88 2.88 0 1 0 -5.76 0zM1342.62 1621.5 a2.88 2.88 0 1 0 5.76 0 a2.88 2.88 0 1 0 -5.76 0zM813.62 1575.5 a2.88 2.88 0 1 0 5.76 0 a2.88 2.88 0 1 0 -5.76 0zM284.62 1460.5 a2.88 2.88 0 1 0 5.76 0 a2.88 2.88 0 1 0 -5.76 0zM859.62 1529.5 a2.88 2.88 0 1 0 5.76 0 a2.88 2.88 0 1 0 -5.76 0zM951.62 1529.5 a2.88 2.88 0 1 0 5.76 0 a2.88 2.88 0 1 0 -5.76 0zM905.62 1552.5 a2.88 2.88 0 1 0 5.76 0 a2.88 2.88 0 1 0 -5.76 0zM1112.62 1598.5 a2.88 2.88 0 1 0 5.76 0 a2.88 2.88 0 1 0 -5.76 0zM1204.62 1552.5 a2.88 2.88 0 1 0 5.76 0 a2.88 2.88 0 1 0 -5.76 0z" fill="black"></path><path d="M468.62 1023.5 a2.88 2.88 0 1 0 5.76 0 a2.88 2.88 0 1 0 -5.76 0zM376.62 1023.5 a2.88 2.88 0 1 0 5.76 0 a2.88 2.88 0 1 0 -5.76 0zM629.62 1046.5 a2.88 2.88 0 1 0 5.76 0 a2.88 2.88 0 1 0 -5.76 0zM445.62 1046.5 a2.88 2.88 0 1 0 5.76 0 a2.88 2.88 0 1 0 -5.76 0zM330.62 1000.5 a2.88 2.88 0 1 0 5.76 0 a2.88 2.88 0 1 0 -5.76 0zM445.62 1000.5 a2.88 2.88 0 1 0 5.76 0 a2.88 2.88 0 1 0 -5.76 0z" fill="black"></path><path d="M767.62 1598.5 a2.88 2.88 0 1 0 5.76 0 a2.88 2.88 0 1 0 -5.76 0zM698.62 1598.5 a2.88 2.88 0 1 0 5.76 0 a2.88 2.88 0 1 0 -5.76 0zM560.62 1575.5 a2.88 2.88 0 1 0 5.76 0 a2.88 2.88 0 1 0 -5.76 0zM790.62 1621.5 a2.88 2.88 0 1 0 5.76 0 a2.88 2.88 0 1 0 -5.76 0zM169.62 1483.5 a2.88 2.88 0 1 0 5.76 0 a2.88 2.88 0 1 0 -5.76 0zM767.62 1575.5 a2.88 2.88 0 1 0 5.76 0 a2.88 2.88 0 1 0 -5.76 0z" fill="black"></path><path d="M882.62 931.5 a2.88 2.88 0 1 0 5.76 0 a2.88 2.88 0 1 0 -5.76 0zM859.62 977.5 a2.88 2.88 0 1 0 5.76 0 a2.88 2.88 0 1 0 -5.76 0zM951.62 977.5 a2.88 2.88 0 1 0 5.76 0 a2.88 2.88 0 1 0 -5.76 0zM790.62 1023.5 a2.88 2.88 0 1 0 5.76 0 a2.88 2.88 0 1 0 -5.76 0zM790.62 1046.5 a2.88 2.88 0 1 0 5.76 0 a2.88 2.88 0 1 0 -5.76 0zM422.62 1000.5 a2.88 2.88 0 1 0 5.76 0 a2.88 2.88 0 1 0 -5.76 0zM284.62 1000.5 a2.88 2.88 0 1 0 5.76 0 a2.88 2.88 0 1 0 -5.76 0zM376.62 1000.5 a2.88 2.88 0 1 0 5.76 0 a2.88 2.88 0 1 0 -5.76 0zM537.62 977.5 a2.88 2.88 0 1 0 5.76 0 a2.88 2.88 0 1 0 -5.76 0zM261.62 1000.5 a2.88 2.88 0 1 0 5.76 0 a2.88 2.88 0 1 0 -5.76 0zM491.62 977.5 a2.88 2.88 0 1 0 5.76 0 a2.88 2.88 0 1 0 -5.76 0z" fill="black"></path><path d="M514.62 1575.5 a2.88 2.88 0 1 0 5.76 0 a2.88 2.88 0 1 0 -5.76 0zM468.62 1598.5 a2.88 2.88 0 1 0 5.76 0 a2.88 2.88 0 1 0 -5.76 0zM353.62 1552.5 a2.88 2.88 0 1 0 5.76 0 a2.88 2.88 0 1 0 -5.76 0zM560.62 1598.5 a2.88 2.88 0 1 0 5.76 0 a2.88 2.88 0 1 0 -5.76 0zM330.62 1552.5 a2.88 2.88 0 1 0 5.76 0 a2.88 2.88 0 1 0 -5.76 0z" fill="black"></path><path d="M146.62 1046.5 a2.88 2.88 0 1 0 5.76 0 a2.88 2.88 0 1 0 -5.76 0z" fill="black"></path><path d="M353.62 1575.5 a2.88 2.88 0 1 0 5.76 0 a2.88 2.88 0 1 0 -5.76 0zM307.62 1552.5 a2.88 2.88 0 1 0 5.76 0 a2.88 2.88 0 1 0 -5.76 0zM353.62 1598.5 a2.88 2.88 0 1 0 5.76 0 a2.88 2.88 0 1 0 -5.76 0z" fill="black"></path><path d="M790.62 931.5 a2.88 2.88 0 1 0 5.76 0 a2.88 2.88 0 1 0 -5.76 0zM514.62 931.5 a2.88 2.88 0 1 0 5.76 0 a2.88 2.88 0 1 0 -5.76 0zM445.62 931.5 a2.88 2.88 0 1 0 5.76 0 a2.88 2.88 0 1 0 -5.76 0zM422.62 931.5 a2.88 2.88 0 1 0 5.76 0 a2.88 2.88 0 1 0 -5.76 0zM77.62 1023.5 a2.88 2.88 0 1 0 5.76 0 a2.88 2.88 0 1 0 -5.76 0z" fill="black"></path><path d="M468.62 1621.5 a2.88 2.88 0 1 0 5.76 0 a2.88 2.88 0 1 0 -5.76 0zM399.62 1598.5 a2.88 2.88 0 1 0 5.76 0 a2.88 2.88 0 1 0 -5.76 0zM330.62 1598.5 a2.88 2.88 0 1 0 5.76 0 a2.88 2.88 0 1 0 -5.76 0z" fill="black"></path><path d="M1227.62 908.5 a2.88 2.88 0 1 0 5.76 0 a2.88 2.88 0 1 0 -5.76 0zM882.62 885.5 a2.88 2.88 0 1 0 5.76 0 a2.88 2.88 0 1 0 -5.76 0zM1273.62 862.5 a2.88 2.88 0 1 0 5.76 0 a2.88 2.88 0 1 0 -5.76 0zM169.62 977.5 a2.88 2.88 0 1 0 5.76 0 a2.88 2.88 0 1 0 -5.76 0zM1135.62 1000.5 a2.88 2.88 0 1 0 5.76 0 a2.88 2.88 0 1 0 -5.76 0zM1250.62 931.5 a2.88 2.88 0 1 0 5.76 0 a2.88 2.88 0 1 0 -5.76 0zM1411.62 862.5 a2.88 2.88 0 1 0 5.76 0 a2.88 2.88 0 1 0 -5.76 0zM1089.62 885.5 a2.88 2.88 0 1 0 5.76 0 a2.88 2.88 0 1 0 -5.76 0zM928.62 885.5 a2.88 2.88 0 1 0 5.76 0 a2.88 2.88 0 1 0 -5.76 0zM54.62 1023.5 a2.88 2.88 0 1 0 5.76 0 a2.88 2.88 0 1 0 -5.76 0zM146.62 977.5 a2.88 2.88 0 1 0 5.76 0 a2.88 2.88 0 1 0 -5.76 0zM1204.62 931.5 a2.88 2.88 0 1 0 5.76 0 a2.88 2.88 0 1 0 -5.76 0zM859.62 885.5 a2.88 2.88 0 1 0 5.76 0 a2.88 2.88 0 1 0 -5.76 0zM376.62 931.5 a2.88 2.88 0 1 0 5.76 0 a2.88 2.88 0 1 0 -5.76 0z" fill="black"></path><path d="M1342.62 1690.5 a2.88 2.88 0 1 0 5.76 0 a2.88 2.88 0 1 0 -5.76 0zM905.62 1644.5 a2.88 2.88 0 1 0 5.76 0 a2.88 2.88 0 1 0 -5.76 0zM790.62 1644.5 a2.88 2.88 0 1 0 5.76 0 a2.88 2.88 0 1 0 -5.76 0zM629.62 1621.5 a2.88 2.88 0 1 0 5.76 0 a2.88 2.88 0 1 0 -5.76 0zM1020.62 1690.5 a2.88 2.88 0 1 0 5.76 0 a2.88 2.88 0 1 0 -5.76 0zM905.62 1690.5 a2.88 2.88 0 1 0 5.76 0 a2.88 2.88 0 1 0 -5.76 0zM1411.62 1644.5 a2.88 2.88 0 1 0 5.76 0 a2.88 2.88 0 1 0 -5.76 0zM1227.62 1644.5 a2.88 2.88 0 1 0 5.76 0 a2.88 2.88 0 1 0 -5.76 0zM652.62 1690.5 a2.88 2.88 0 1 0 5.76 0 a2.88 2.88 0 1 0 -5.76 0zM813.62 1713.5 a2.88 2.88 0 1 0 5.76 0 a2.88 2.88 0 1 0 -5.76 0zM629.62 1644.5 a2.88 2.88 0 1 0 5.76 0 a2.88 2.88 0 1 0 -5.76 0zM1388.62 1736.5 a2.88 2.88 0 1 0 5.76 0 a2.88 2.88 0 1 0 -5.76 0zM1273.62 1713.5 a2.88 2.88 0 1 0 5.76 0 a2.88 2.88 0 1 0 -5.76 0zM1411.62 1759.5 a2.88 2.88 0 1 0 5.76 0 a2.88 2.88 0 1 0 -5.76 0z" fill="black"></path><path d="M974.62 862.5 a2.88 2.88 0 1 0 5.76 0 a2.88 2.88 0 1 0 -5.76 0zM790.62 885.5 a2.88 2.88 0 1 0 5.76 0 a2.88 2.88 0 1 0 -5.76 0zM1066.62 839.5 a2.88 2.88 0 1 0 5.76 0 a2.88 2.88 0 1 0 -5.76 0zM744.62 885.5 a2.88 2.88 0 1 0 5.76 0 a2.88 2.88 0 1 0 -5.76 0zM905.62 839.5 a2.88 2.88 0 1 0 5.76 0 a2.88 2.88 0 1 0 -5.76 0zM836.62 839.5 a2.88 2.88 0 1 0 5.76 0 a2.88 2.88 0 1 0 -5.76 0zM836.62 816.5 a2.88 2.88 0 1 0 5.76 0 a2.88 2.88 0 1 0 -5.76 0zM123.62 977.5 a2.88 2.88 0 1 0 5.76 0 a2.88 2.88 0 1 0 -5.76 0z" fill="black"></path><path d="M698.62 1713.5 a2.88 2.88 0 1 0 5.76 0 a2.88 2.88 0 1 0 -5.76 0zM606.62 1690.5 a2.88 2.88 0 1 0 5.76 0 a2.88 2.88 0 1 0 -5.76 0zM146.62 1621.5 a2.88 2.88 0 1 0 5.76 0 a2.88 2.88 0 1 0 -5.76 0zM468.62 1667.5 a2.88 2.88 0 1 0 5.76 0 a2.88 2.88 0 1 0 -5.76 0zM537.62 1690.5 a2.88 2.88 0 1 0 5.76 0 a2.88 2.88 0 1 0 -5.76 0zM514.62 1690.5 a2.88 2.88 0 1 0 5.76 0 a2.88 2.88 0 1 0 -5.76 0zM123.62 1621.5 a2.88 2.88 0 1 0 5.76 0 a2.88 2.88 0 1 0 -5.76 0z" fill="black"></path><path d="M767.62 839.5 a2.88 2.88 0 1 0 5.76 0 a2.88 2.88 0 1 0 -5.76 0zM698.62 839.5 a2.88 2.88 0 1 0 5.76 0 a2.88 2.88 0 1 0 -5.76 0zM675.62 839.5 a2.88 2.88 0 1 0 5.76 0 a2.88 2.88 0 1 0 -5.76 0zM652.62 839.5 a2.88 2.88 0 1 0 5.76 0 a2.88 2.88 0 1 0 -5.76 0z" fill="black"></path><path d="M77.62 1621.5 a2.88 2.88 0 1 0 5.76 0 a2.88 2.88 0 1 0 -5.76 0z" fill="black"></path><path d="M1158.62 816.5 a2.88 2.88 0 1 0 5.76 0 a2.88 2.88 0 1 0 -5.76 0zM1388.62 816.5 a2.88 2.88 0 1 0 5.76 0 a2.88 2.88 0 1 0 -5.76 0zM744.62 793.5 a2.88 2.88 0 1 0 5.76 0 a2.88 2.88 0 1 0 -5.76 0zM1020.62 793.5 a2.88 2.88 0 1 0 5.76 0 a2.88 2.88 0 1 0 -5.76 0zM652.62 793.5 a2.88 2.88 0 1 0 5.76 0 a2.88 2.88 0 1 0 -5.76 0zM1273.62 770.5 a2.88 2.88 0 1 0 5.76 0 a2.88 2.88 0 1 0 -5.76 0zM928.62 793.5 a2.88 2.88 0 1 0 5.76 0 a2.88 2.88 0 1 0 -5.76 0zM629.62 839.5 a2.88 2.88 0 1 0 5.76 0 a2.88 2.88 0 1 0 -5.76 0zM606.62 793.5 a2.88 2.88 0 1 0 5.76 0 a2.88 2.88 0 1 0 -5.76 0zM1250.62 793.5 a2.88 2.88 0 1 0 5.76 0 a2.88 2.88 0 1 0 -5.76 0zM790.62 793.5 a2.88 2.88 0 1 0 5.76 0 a2.88 2.88 0 1 0 -5.76 0zM859.62 793.5 a2.88 2.88 0 1 0 5.76 0 a2.88 2.88 0 1 0 -5.76 0zM813.62 816.5 a2.88 2.88 0 1 0 5.76 0 a2.88 2.88 0 1 0 -5.76 0zM1112.62 793.5 a2.88 2.88 0 1 0 5.76 0 a2.88 2.88 0 1 0 -5.76 0z" fill="black"></path><path d="M1227.62 1713.5 a2.88 2.88 0 1 0 5.76 0 a2.88 2.88 0 1 0 -5.76 0zM974.62 1736.5 a2.88 2.88 0 1 0 5.76 0 a2.88 2.88 0 1 0 -5.76 0zM629.62 1759.5 a2.88 2.88 0 1 0 5.76 0 a2.88 2.88 0 1 0 -5.76 0zM1296.62 1713.5 a2.88 2.88 0 1 0 5.76 0 a2.88 2.88 0 1 0 -5.76 0zM1043.62 1805.5 a2.88 2.88 0 1 0 5.76 0 a2.88 2.88 0 1 0 -5.76 0zM859.62 1782.5 a2.88 2.88 0 1 0 5.76 0 a2.88 2.88 0 1 0 -5.76 0zM1273.62 1759.5 a2.88 2.88 0 1 0 5.76 0 a2.88 2.88 0 1 0 -5.76 0zM905.62 1736.5 a2.88 2.88 0 1 0 5.76 0 a2.88 2.88 0 1 0 -5.76 0zM1043.62 1736.5 a2.88 2.88 0 1 0 5.76 0 a2.88 2.88 0 1 0 -5.76 0zM1020.62 1736.5 a2.88 2.88 0 1 0 5.76 0 a2.88 2.88 0 1 0 -5.76 0zM859.62 1736.5 a2.88 2.88 0 1 0 5.76 0 a2.88 2.88 0 1 0 -5.76 0zM836.62 1736.5 a2.88 2.88 0 1 0 5.76 0 a2.88 2.88 0 1 0 -5.76 0z" fill="black"></path><path d="M1043.62 747.5 a2.88 2.88 0 1 0 5.76 0 a2.88 2.88 0 1 0 -5.76 0zM583.62 793.5 a2.88 2.88 0 1 0 5.76 0 a2.88 2.88 0 1 0 -5.76 0zM514.62 793.5 a2.88 2.88 0 1 0 5.76 0 a2.88 2.88 0 1 0 -5.76 0zM928.62 747.5 a2.88 2.88 0 1 0 5.76 0 a2.88 2.88 0 1 0 -5.76 0zM1020.62 724.5 a2.88 2.88 0 1 0 5.76 0 a2.88 2.88 0 1 0 -5.76 0zM997.62 724.5 a2.88 2.88 0 1 0 5.76 0 a2.88 2.88 0 1 0 -5.76 0zM560.62 793.5 a2.88 2.88 0 1 0 5.76 0 a2.88 2.88 0 1 0 -5.76 0zM215.62 862.5 a2.88 2.88 0 1 0 5.76 0 a2.88 2.88 0 1 0 -5.76 0zM560.62 816.5 a2.88 2.88 0 1 0 5.76 0 a2.88 2.88 0 1 0 -5.76 0z" fill="black"></path><path d="M652.62 1782.5 a2.88 2.88 0 1 0 5.76 0 a2.88 2.88 0 1 0 -5.76 0zM307.62 1713.5 a2.88 2.88 0 1 0 5.76 0 a2.88 2.88 0 1 0 -5.76 0zM445.62 1736.5 a2.88 2.88 0 1 0 5.76 0 a2.88 2.88 0 1 0 -5.76 0zM583.62 1759.5 a2.88 2.88 0 1 0 5.76 0 a2.88 2.88 0 1 0 -5.76 0zM215.62 1713.5 a2.88 2.88 0 1 0 5.76 0 a2.88 2.88 0 1 0 -5.76 0z" fill="black"></path><path d="M169.62 862.5 a2.88 2.88 0 1 0 5.76 0 a2.88 2.88 0 1 0 -5.76 0z" fill="black"></path><path d="M146.62 1690.5 a2.88 2.88 0 1 0 5.76 0 a2.88 2.88 0 1 0 -5.76 0z" fill="black"></path><path d="M744.62 747.5 a2.88 2.88 0 1 0 5.76 0 a2.88 2.88 0 1 0 -5.76 0zM882.62 724.5 a2.88 2.88 0 1 0 5.76 0 a2.88 2.88 0 1 0 -5.76 0zM422.62 770.5 a2.88 2.88 0 1 0 5.76 0 a2.88 2.88 0 1 0 -5.76 0zM606.62 724.5 a2.88 2.88 0 1 0 5.76 0 a2.88 2.88 0 1 0 -5.76 0zM537.62 747.5 a2.88 2.88 0 1 0 5.76 0 a2.88 2.88 0 1 0 -5.76 0zM445.62 793.5 a2.88 2.88 0 1 0 5.76 0 a2.88 2.88 0 1 0 -5.76 0zM491.62 747.5 a2.88 2.88 0 1 0 5.76 0 a2.88 2.88 0 1 0 -5.76 0z" fill="black"></path><path d="M859.62 1805.5 a2.88 2.88 0 1 0 5.76 0 a2.88 2.88 0 1 0 -5.76 0zM491.62 1782.5 a2.88 2.88 0 1 0 5.76 0 a2.88 2.88 0 1 0 -5.76 0zM169.62 1713.5 a2.88 2.88 0 1 0 5.76 0 a2.88 2.88 0 1 0 -5.76 0zM560.62 1782.5 a2.88 2.88 0 1 0 5.76 0 a2.88 2.88 0 1 0 -5.76 0zM215.62 1759.5 a2.88 2.88 0 1 0 5.76 0 a2.88 2.88 0 1 0 -5.76 0zM767.62 1828.5 a2.88 2.88 0 1 0 5.76 0 a2.88 2.88 0 1 0 -5.76 0zM445.62 1782.5 a2.88 2.88 0 1 0 5.76 0 a2.88 2.88 0 1 0 -5.76 0zM790.62 1782.5 a2.88 2.88 0 1 0 5.76 0 a2.88 2.88 0 1 0 -5.76 0zM284.62 1713.5 a2.88 2.88 0 1 0 5.76 0 a2.88 2.88 0 1 0 -5.76 0zM767.62 1782.5 a2.88 2.88 0 1 0 5.76 0 a2.88 2.88 0 1 0 -5.76 0z" fill="black"></path><path d="M1020.62 701.5 a2.88 2.88 0 1 0 5.76 0 a2.88 2.88 0 1 0 -5.76 0zM399.62 770.5 a2.88 2.88 0 1 0 5.76 0 a2.88 2.88 0 1 0 -5.76 0zM1204.62 655.5 a2.88 2.88 0 1 0 5.76 0 a2.88 2.88 0 1 0 -5.76 0zM974.62 701.5 a2.88 2.88 0 1 0 5.76 0 a2.88 2.88 0 1 0 -5.76 0zM928.62 701.5 a2.88 2.88 0 1 0 5.76 0 a2.88 2.88 0 1 0 -5.76 0zM1043.62 678.5 a2.88 2.88 0 1 0 5.76 0 a2.88 2.88 0 1 0 -5.76 0zM974.62 655.5 a2.88 2.88 0 1 0 5.76 0 a2.88 2.88 0 1 0 -5.76 0zM974.62 724.5 a2.88 2.88 0 1 0 5.76 0 a2.88 2.88 0 1 0 -5.76 0zM767.62 678.5 a2.88 2.88 0 1 0 5.76 0 a2.88 2.88 0 1 0 -5.76 0zM468.62 747.5 a2.88 2.88 0 1 0 5.76 0 a2.88 2.88 0 1 0 -5.76 0zM583.62 724.5 a2.88 2.88 0 1 0 5.76 0 a2.88 2.88 0 1 0 -5.76 0zM698.62 701.5 a2.88 2.88 0 1 0 5.76 0 a2.88 2.88 0 1 0 -5.76 0z" fill="black"></path><path d="M629.62 1851.5 a2.88 2.88 0 1 0 5.76 0 a2.88 2.88 0 1 0 -5.76 0zM376.62 1782.5 a2.88 2.88 0 1 0 5.76 0 a2.88 2.88 0 1 0 -5.76 0zM560.62 1851.5 a2.88 2.88 0 1 0 5.76 0 a2.88 2.88 0 1 0 -5.76 0zM192.62 1759.5 a2.88 2.88 0 1 0 5.76 0 a2.88 2.88 0 1 0 -5.76 0zM330.62 1759.5 a2.88 2.88 0 1 0 5.76 0 a2.88 2.88 0 1 0 -5.76 0zM606.62 1828.5 a2.88 2.88 0 1 0 5.76 0 a2.88 2.88 0 1 0 -5.76 0zM146.62 1736.5 a2.88 2.88 0 1 0 5.76 0 a2.88 2.88 0 1 0 -5.76 0zM629.62 1874.5 a2.88 2.88 0 1 0 5.76 0 a2.88 2.88 0 1 0 -5.76 0z" fill="black"></path><path d="M882.62 632.5 a2.88 2.88 0 1 0 5.76 0 a2.88 2.88 0 1 0 -5.76 0zM215.62 770.5 a2.88 2.88 0 1 0 5.76 0 a2.88 2.88 0 1 0 -5.76 0zM376.62 724.5 a2.88 2.88 0 1 0 5.76 0 a2.88 2.88 0 1 0 -5.76 0z" fill="black"></path><path d="M468.62 1828.5 a2.88 2.88 0 1 0 5.76 0 a2.88 2.88 0 1 0 -5.76 0zM307.62 1828.5 a2.88 2.88 0 1 0 5.76 0 a2.88 2.88 0 1 0 -5.76 0zM31.62 1736.5 a2.88 2.88 0 1 0 5.76 0 a2.88 2.88 0 1 0 -5.76 0zM284.62 1828.5 a2.88 2.88 0 1 0 5.76 0 a2.88 2.88 0 1 0 -5.76 0z" fill="black"></path><path d="M928.62 609.5 a2.88 2.88 0 1 0 5.76 0 a2.88 2.88 0 1 0 -5.76 0zM353.62 724.5 a2.88 2.88 0 1 0 5.76 0 a2.88 2.88 0 1 0 -5.76 0zM284.62 724.5 a2.88 2.88 0 1 0 5.76 0 a2.88 2.88 0 1 0 -5.76 0zM261.62 747.5 a2.88 2.88 0 1 0 5.76 0 a2.88 2.88 0 1 0 -5.76 0zM169.62 770.5 a2.88 2.88 0 1 0 5.76 0 a2.88 2.88 0 1 0 -5.76 0zM974.62 632.5 a2.88 2.88 0 1 0 5.76 0 a2.88 2.88 0 1 0 -5.76 0zM675.62 632.5 a2.88 2.88 0 1 0 5.76 0 a2.88 2.88 0 1 0 -5.76 0z" fill="black"></path><path d="M629.62 1897.5 a2.88 2.88 0 1 0 5.76 0 a2.88 2.88 0 1 0 -5.76 0zM514.62 1828.5 a2.88 2.88 0 1 0 5.76 0 a2.88 2.88 0 1 0 -5.76 0zM606.62 1874.5 a2.88 2.88 0 1 0 5.76 0 a2.88 2.88 0 1 0 -5.76 0zM353.62 1851.5 a2.88 2.88 0 1 0 5.76 0 a2.88 2.88 0 1 0 -5.76 0zM330.62 1851.5 a2.88 2.88 0 1 0 5.76 0 a2.88 2.88 0 1 0 -5.76 0zM123.62 1805.5 a2.88 2.88 0 1 0 5.76 0 a2.88 2.88 0 1 0 -5.76 0zM100.62 1805.5 a2.88 2.88 0 1 0 5.76 0 a2.88 2.88 0 1 0 -5.76 0zM261.62 1828.5 a2.88 2.88 0 1 0 5.76 0 a2.88 2.88 0 1 0 -5.76 0z" fill="black"></path><path d="M1273.62 471.5 a2.88 2.88 0 1 0 5.76 0 a2.88 2.88 0 1 0 -5.76 0zM1411.62 563.5 a2.88 2.88 0 1 0 5.76 0 a2.88 2.88 0 1 0 -5.76 0zM1411.62 540.5 a2.88 2.88 0 1 0 5.76 0 a2.88 2.88 0 1 0 -5.76 0zM1342.62 632.5 a2.88 2.88 0 1 0 5.76 0 a2.88 2.88 0 1 0 -5.76 0zM1043.62 586.5 a2.88 2.88 0 1 0 5.76 0 a2.88 2.88 0 1 0 -5.76 0zM974.62 609.5 a2.88 2.88 0 1 0 5.76 0 a2.88 2.88 0 1 0 -5.76 0zM100.62 747.5 a2.88 2.88 0 1 0 5.76 0 a2.88 2.88 0 1 0 -5.76 0zM1273.62 494.5 a2.88 2.88 0 1 0 5.76 0 a2.88 2.88 0 1 0 -5.76 0zM652.62 632.5 a2.88 2.88 0 1 0 5.76 0 a2.88 2.88 0 1 0 -5.76 0zM1204.62 494.5 a2.88 2.88 0 1 0 5.76 0 a2.88 2.88 0 1 0 -5.76 0zM1273.62 448.5 a2.88 2.88 0 1 0 5.76 0 a2.88 2.88 0 1 0 -5.76 0zM261.62 678.5 a2.88 2.88 0 1 0 5.76 0 a2.88 2.88 0 1 0 -5.76 0zM1204.62 586.5 a2.88 2.88 0 1 0 5.76 0 a2.88 2.88 0 1 0 -5.76 0z" fill="black"></path><path d="M928.62 1897.5 a2.88 2.88 0 1 0 5.76 0 a2.88 2.88 0 1 0 -5.76 0zM928.62 1920.5 a2.88 2.88 0 1 0 5.76 0 a2.88 2.88 0 1 0 -5.76 0zM514.62 1897.5 a2.88 2.88 0 1 0 5.76 0 a2.88 2.88 0 1 0 -5.76 0zM514.62 1920.5 a2.88 2.88 0 1 0 5.76 0 a2.88 2.88 0 1 0 -5.76 0zM836.62 1874.5 a2.88 2.88 0 1 0 5.76 0 a2.88 2.88 0 1 0 -5.76 0zM836.62 1943.5 a2.88 2.88 0 1 0 5.76 0 a2.88 2.88 0 1 0 -5.76 0zM77.62 1805.5 a2.88 2.88 0 1 0 5.76 0 a2.88 2.88 0 1 0 -5.76 0zM1089.62 1874.5 a2.88 2.88 0 1 0 5.76 0 a2.88 2.88 0 1 0 -5.76 0zM836.62 1920.5 a2.88 2.88 0 1 0 5.76 0 a2.88 2.88 0 1 0 -5.76 0zM491.62 1920.5 a2.88 2.88 0 1 0 5.76 0 a2.88 2.88 0 1 0 -5.76 0zM905.62 1851.5 a2.88 2.88 0 1 0 5.76 0 a2.88 2.88 0 1 0 -5.76 0z" fill="black"></path><path d="M100.62 724.5 a2.88 2.88 0 1 0 5.76 0 a2.88 2.88 0 1 0 -5.76 0zM77.62 747.5 a2.88 2.88 0 1 0 5.76 0 a2.88 2.88 0 1 0 -5.76 0z" fill="black"></path><path d="M652.62 1943.5 a2.88 2.88 0 1 0 5.76 0 a2.88 2.88 0 1 0 -5.76 0zM330.62 1897.5 a2.88 2.88 0 1 0 5.76 0 a2.88 2.88 0 1 0 -5.76 0zM307.62 1897.5 a2.88 2.88 0 1 0 5.76 0 a2.88 2.88 0 1 0 -5.76 0zM560.62 1943.5 a2.88 2.88 0 1 0 5.76 0 a2.88 2.88 0 1 0 -5.76 0zM376.62 1920.5 a2.88 2.88 0 1 0 5.76 0 a2.88 2.88 0 1 0 -5.76 0zM284.62 1897.5 a2.88 2.88 0 1 0 5.76 0 a2.88 2.88 0 1 0 -5.76 0zM537.62 1943.5 a2.88 2.88 0 1 0 5.76 0 a2.88 2.88 0 1 0 -5.76 0z" fill="black"></path><path d="M192.62 701.5 a2.88 2.88 0 1 0 5.76 0 a2.88 2.88 0 1 0 -5.76 0zM215.62 678.5 a2.88 2.88 0 1 0 5.76 0 a2.88 2.88 0 1 0 -5.76 0zM123.62 678.5 a2.88 2.88 0 1 0 5.76 0 a2.88 2.88 0 1 0 -5.76 0zM169.62 678.5 a2.88 2.88 0 1 0 5.76 0 a2.88 2.88 0 1 0 -5.76 0z" fill="black"></path><path d="M652.62 1966.5 a2.88 2.88 0 1 0 5.76 0 a2.88 2.88 0 1 0 -5.76 0zM721.62 2012.5 a2.88 2.88 0 1 0 5.76 0 a2.88 2.88 0 1 0 -5.76 0zM445.62 1989.5 a2.88 2.88 0 1 0 5.76 0 a2.88 2.88 0 1 0 -5.76 0zM790.62 1966.5 a2.88 2.88 0 1 0 5.76 0 a2.88 2.88 0 1 0 -5.76 0zM537.62 1989.5 a2.88 2.88 0 1 0 5.76 0 a2.88 2.88 0 1 0 -5.76 0zM422.62 1989.5 a2.88 2.88 0 1 0 5.76 0 a2.88 2.88 0 1 0 -5.76 0zM514.62 2035.5 a2.88 2.88 0 1 0 5.76 0 a2.88 2.88 0 1 0 -5.76 0z" fill="black"></path><path d="M997.62 563.5 a2.88 2.88 0 1 0 5.76 0 a2.88 2.88 0 1 0 -5.76 0zM192.62 632.5 a2.88 2.88 0 1 0 5.76 0 a2.88 2.88 0 1 0 -5.76 0zM468.62 609.5 a2.88 2.88 0 1 0 5.76 0 a2.88 2.88 0 1 0 -5.76 0zM445.62 609.5 a2.88 2.88 0 1 0 5.76 0 a2.88 2.88 0 1 0 -5.76 0zM560.62 609.5 a2.88 2.88 0 1 0 5.76 0 a2.88 2.88 0 1 0 -5.76 0zM514.62 609.5 a2.88 2.88 0 1 0 5.76 0 a2.88 2.88 0 1 0 -5.76 0zM100.62 678.5 a2.88 2.88 0 1 0 5.76 0 a2.88 2.88 0 1 0 -5.76 0z" fill="black"></path><path d="M353.62 632.5 a2.88 2.88 0 1 0 5.76 0 a2.88 2.88 0 1 0 -5.76 0zM146.62 632.5 a2.88 2.88 0 1 0 5.76 0 a2.88 2.88 0 1 0 -5.76 0zM330.62 609.5 a2.88 2.88 0 1 0 5.76 0 a2.88 2.88 0 1 0 -5.76 0zM238.62 609.5 a2.88 2.88 0 1 0 5.76 0 a2.88 2.88 0 1 0 -5.76 0zM284.62 609.5 a2.88 2.88 0 1 0 5.76 0 a2.88 2.88 0 1 0 -5.76 0z" fill="black"></path><path d="M1158.62 471.5 a2.88 2.88 0 1 0 5.76 0 a2.88 2.88 0 1 0 -5.76 0zM1020.62 494.5 a2.88 2.88 0 1 0 5.76 0 a2.88 2.88 0 1 0 -5.76 0zM422.62 609.5 a2.88 2.88 0 1 0 5.76 0 a2.88 2.88 0 1 0 -5.76 0zM399.62 609.5 a2.88 2.88 0 1 0 5.76 0 a2.88 2.88 0 1 0 -5.76 0zM951.62 517.5 a2.88 2.88 0 1 0 5.76 0 a2.88 2.88 0 1 0 -5.76 0zM1158.62 494.5 a2.88 2.88 0 1 0 5.76 0 a2.88 2.88 0 1 0 -5.76 0zM514.62 586.5 a2.88 2.88 0 1 0 5.76 0 a2.88 2.88 0 1 0 -5.76 0zM491.62 586.5 a2.88 2.88 0 1 0 5.76 0 a2.88 2.88 0 1 0 -5.76 0zM1043.62 471.5 a2.88 2.88 0 1 0 5.76 0 a2.88 2.88 0 1 0 -5.76 0zM376.62 609.5 a2.88 2.88 0 1 0 5.76 0 a2.88 2.88 0 1 0 -5.76 0zM1411.62 425.5 a2.88 2.88 0 1 0 5.76 0 a2.88 2.88 0 1 0 -5.76 0zM123.62 609.5 a2.88 2.88 0 1 0 5.76 0 a2.88 2.88 0 1 0 -5.76 0z" fill="black"></path><path d="M261.62 1943.5 a2.88 2.88 0 1 0 5.76 0 a2.88 2.88 0 1 0 -5.76 0z" fill="black"></path><path d="M31.62 655.5 a2.88 2.88 0 1 0 5.76 0 a2.88 2.88 0 1 0 -5.76 0z" fill="black"></path><path d="M330.62 1966.5 a2.88 2.88 0 1 0 5.76 0 a2.88 2.88 0 1 0 -5.76 0zM123.62 1943.5 a2.88 2.88 0 1 0 5.76 0 a2.88 2.88 0 1 0 -5.76 0zM307.62 1989.5 a2.88 2.88 0 1 0 5.76 0 a2.88 2.88 0 1 0 -5.76 0zM238.62 1989.5 a2.88 2.88 0 1 0 5.76 0 a2.88 2.88 0 1 0 -5.76 0zM31.62 1920.5 a2.88 2.88 0 1 0 5.76 0 a2.88 2.88 0 1 0 -5.76 0z" fill="black"></path><path d="M859.62 517.5 a2.88 2.88 0 1 0 5.76 0 a2.88 2.88 0 1 0 -5.76 0zM836.62 494.5 a2.88 2.88 0 1 0 5.76 0 a2.88 2.88 0 1 0 -5.76 0zM744.62 494.5 a2.88 2.88 0 1 0 5.76 0 a2.88 2.88 0 1 0 -5.76 0zM54.62 609.5 a2.88 2.88 0 1 0 5.76 0 a2.88 2.88 0 1 0 -5.76 0zM238.62 540.5 a2.88 2.88 0 1 0 5.76 0 a2.88 2.88 0 1 0 -5.76 0zM399.62 540.5 a2.88 2.88 0 1 0 5.76 0 a2.88 2.88 0 1 0 -5.76 0zM790.62 494.5 a2.88 2.88 0 1 0 5.76 0 a2.88 2.88 0 1 0 -5.76 0zM675.62 494.5 a2.88 2.88 0 1 0 5.76 0 a2.88 2.88 0 1 0 -5.76 0zM514.62 517.5 a2.88 2.88 0 1 0 5.76 0 a2.88 2.88 0 1 0 -5.76 0zM721.62 471.5 a2.88 2.88 0 1 0 5.76 0 a2.88 2.88 0 1 0 -5.76 0z" fill="black"></path></mask></defs></svg>