<svg xmlns="http://www.w3.org/2000/svg" version="1.1" xmlns:xlink="http://www.w3.org/1999/xlink" xmlns:svgjs="http://svgjs.dev/svgjs" width="3440" height="2560" preserveAspectRatio="none" viewBox="0 0 3440 2560"><g mask="url(&quot;#SvgjsMask1408&quot;)" fill="none"><g mask="url(&quot;#SvgjsMask1409&quot;)"><path d="M1749 649L1727 671L1727 693M1727 605L1727 627L1727 649L1705 671L1705 693L1705 715L1705 737L1705 759L1705 781L1727 803L1727 825L1727 847M1727 473L1749 495L1749 517M1727 319L1749 341L1749 363L1749 385M1727 429L1749 451L1749 473M1749 715L1749 737M1749 209L1771 231L1771 253M1727 561L1749 583L1749 605L1771 627L1771 649M1727 165L1727 187L1727 209L1727 231L1727 253M1727 -11L1727 11L1727 33L1727 55L1727 77L1727 99L1727 121L1727 143L1727 165L1749 187L1749 209L1749 231L1749 253L1749 275L1749 297L1727 319L1727 341L1727 363L1727 385L1727 407L1727 429L1727 451L1727 473L1727 495L1727 517L1727 539L1727 561L1727 583L1727 605L1749 627L1749 649L1749 671L1749 693L1749 715L1771 737L1771 759L1771 781L1793 803L1793 825" stroke="rgba(0, 199, 179, 0.11)" stroke-width="3.67"></path><path d="M1787.5 825 a5.5 5.5 0 1 0 11 0 a5.5 5.5 0 1 0 -11 0zM1721.5 693 a5.5 5.5 0 1 0 11 0 a5.5 5.5 0 1 0 -11 0zM1721.5 847 a5.5 5.5 0 1 0 11 0 a5.5 5.5 0 1 0 -11 0zM1743.5 517 a5.5 5.5 0 1 0 11 0 a5.5 5.5 0 1 0 -11 0zM1743.5 385 a5.5 5.5 0 1 0 11 0 a5.5 5.5 0 1 0 -11 0zM1743.5 473 a5.5 5.5 0 1 0 11 0 a5.5 5.5 0 1 0 -11 0zM1743.5 737 a5.5 5.5 0 1 0 11 0 a5.5 5.5 0 1 0 -11 0zM1765.5 253 a5.5 5.5 0 1 0 11 0 a5.5 5.5 0 1 0 -11 0zM1765.5 649 a5.5 5.5 0 1 0 11 0 a5.5 5.5 0 1 0 -11 0zM1721.5 253 a5.5 5.5 0 1 0 11 0 a5.5 5.5 0 1 0 -11 0z" fill="rgba(0, 199, 179, 0.11)"></path><path d="M1705 319L1683 341L1661 363L1661 385L1661 407L1661 429L1661 451L1661 473M1705 77L1683 99L1683 121M1705 253L1683 275L1683 297L1683 319L1661 341L1639 363L1639 385L1639 407M1705 143L1683 165M1705 209L1683 231L1683 253L1661 275L1661 297L1661 319L1639 341L1617 363L1617 385M1705 473L1683 495M1705 -11L1705 11L1705 33L1705 55L1705 77L1705 99L1705 121L1705 143L1705 165L1705 187L1705 209L1705 231L1705 253L1705 275L1705 297L1705 319L1705 341L1705 363L1705 385L1705 407L1705 429L1705 451L1705 473L1705 495L1705 517" stroke="rgba(0, 199, 179, 0.11)" stroke-width="3.67"></path><path d="M1699.5 517 a5.5 5.5 0 1 0 11 0 a5.5 5.5 0 1 0 -11 0zM1655.5 473 a5.5 5.5 0 1 0 11 0 a5.5 5.5 0 1 0 -11 0zM1677.5 121 a5.5 5.5 0 1 0 11 0 a5.5 5.5 0 1 0 -11 0zM1633.5 407 a5.5 5.5 0 1 0 11 0 a5.5 5.5 0 1 0 -11 0zM1677.5 165 a5.5 5.5 0 1 0 11 0 a5.5 5.5 0 1 0 -11 0zM1611.5 385 a5.5 5.5 0 1 0 11 0 a5.5 5.5 0 1 0 -11 0zM1677.5 495 a5.5 5.5 0 1 0 11 0 a5.5 5.5 0 1 0 -11 0z" fill="rgba(0, 199, 179, 0.11)"></path><path d="M1749 77L1771 99M1749 55L1771 77M1749 121L1771 143L1771 165L1771 187M1749 -11L1749 11L1749 33L1749 55L1749 77L1749 99L1749 121L1749 143" stroke="rgba(0, 199, 179, 0.11)" stroke-width="3.67"></path><path d="M1743.5 143 a5.5 5.5 0 1 0 11 0 a5.5 5.5 0 1 0 -11 0zM1765.5 99 a5.5 5.5 0 1 0 11 0 a5.5 5.5 0 1 0 -11 0zM1765.5 77 a5.5 5.5 0 1 0 11 0 a5.5 5.5 0 1 0 -11 0zM1765.5 187 a5.5 5.5 0 1 0 11 0 a5.5 5.5 0 1 0 -11 0z" fill="rgba(0, 199, 179, 0.11)"></path><path d="M1617 209L1639 231L1639 253L1639 275L1639 297M1683 11L1683 33L1683 55L1683 77M1617 187L1639 209L1661 231L1661 253M1683 -11L1683 11L1661 33L1661 55L1661 77L1661 99L1661 121L1639 143L1617 165L1617 187L1617 209L1617 231" stroke="rgba(0, 199, 179, 0.11)" stroke-width="3.67"></path><path d="M1611.5 231 a5.5 5.5 0 1 0 11 0 a5.5 5.5 0 1 0 -11 0zM1633.5 297 a5.5 5.5 0 1 0 11 0 a5.5 5.5 0 1 0 -11 0zM1677.5 77 a5.5 5.5 0 1 0 11 0 a5.5 5.5 0 1 0 -11 0zM1655.5 253 a5.5 5.5 0 1 0 11 0 a5.5 5.5 0 1 0 -11 0z" fill="rgba(0, 199, 179, 0.11)"></path><path d="M1793 165L1815 187L1815 209M1793 33L1771 55M1793 231L1815 253L1815 275L1815 297M1793 297L1771 319M1771 -11L1771 11L1793 33L1793 55L1793 77L1793 99L1793 121L1793 143L1793 165L1793 187L1793 209L1793 231L1793 253L1793 275L1793 297L1793 319L1793 341" stroke="rgba(0, 199, 179, 0.11)" stroke-width="3.67"></path><path d="M1787.5 341 a5.5 5.5 0 1 0 11 0 a5.5 5.5 0 1 0 -11 0zM1809.5 209 a5.5 5.5 0 1 0 11 0 a5.5 5.5 0 1 0 -11 0zM1765.5 55 a5.5 5.5 0 1 0 11 0 a5.5 5.5 0 1 0 -11 0zM1809.5 297 a5.5 5.5 0 1 0 11 0 a5.5 5.5 0 1 0 -11 0zM1765.5 319 a5.5 5.5 0 1 0 11 0 a5.5 5.5 0 1 0 -11 0z" fill="rgba(0, 199, 179, 0.11)"></path><path d="M1661 -11L1661 11L1639 33L1639 55L1639 77L1639 99" stroke="rgba(0, 199, 179, 0.11)" stroke-width="3.67"></path><path d="M1633.5 99 a5.5 5.5 0 1 0 11 0 a5.5 5.5 0 1 0 -11 0z" fill="rgba(0, 199, 179, 0.11)"></path><path d="M1859 297L1837 319L1837 341L1837 363L1837 385L1837 407L1837 429M1815 583L1793 605L1793 627L1793 649L1793 671M1837 275L1837 297M1837 869L1837 891L1837 913L1837 935L1837 957L1837 979L1837 1001M1837 495L1815 517L1815 539L1793 561L1793 583L1771 605M1859 957L1881 979L1903 1001M1815 737L1815 759M1837 825L1859 847L1859 869L1881 891L1881 913L1881 935L1881 957L1903 979L1925 1001M1837 847L1815 869M1815 143L1815 165M1837 803L1815 825L1815 847L1793 869L1793 891L1793 913L1793 935L1793 957L1793 979M1793 -11L1815 11L1815 33L1815 55L1815 77L1815 99L1815 121L1815 143L1837 165L1837 187L1837 209L1837 231L1837 253L1837 275L1859 297L1859 319L1859 341L1859 363L1859 385L1859 407L1859 429L1859 451L1837 473L1837 495L1837 517L1837 539L1815 561L1815 583L1815 605L1815 627L1815 649L1815 671L1815 693L1815 715L1815 737L1837 759L1837 781L1837 803L1837 825L1837 847L1837 869L1859 891L1859 913L1859 935L1859 957L1859 979L1881 1001" stroke="rgba(0, 199, 179, 0.11)" stroke-width="3.67"></path><path d="M1875.5 1001 a5.5 5.5 0 1 0 11 0 a5.5 5.5 0 1 0 -11 0zM1831.5 429 a5.5 5.5 0 1 0 11 0 a5.5 5.5 0 1 0 -11 0zM1787.5 671 a5.5 5.5 0 1 0 11 0 a5.5 5.5 0 1 0 -11 0zM1831.5 297 a5.5 5.5 0 1 0 11 0 a5.5 5.5 0 1 0 -11 0zM1831.5 1001 a5.5 5.5 0 1 0 11 0 a5.5 5.5 0 1 0 -11 0zM1765.5 605 a5.5 5.5 0 1 0 11 0 a5.5 5.5 0 1 0 -11 0zM1897.5 1001 a5.5 5.5 0 1 0 11 0 a5.5 5.5 0 1 0 -11 0zM1809.5 759 a5.5 5.5 0 1 0 11 0 a5.5 5.5 0 1 0 -11 0zM1919.5 1001 a5.5 5.5 0 1 0 11 0 a5.5 5.5 0 1 0 -11 0zM1809.5 869 a5.5 5.5 0 1 0 11 0 a5.5 5.5 0 1 0 -11 0zM1809.5 165 a5.5 5.5 0 1 0 11 0 a5.5 5.5 0 1 0 -11 0zM1787.5 979 a5.5 5.5 0 1 0 11 0 a5.5 5.5 0 1 0 -11 0z" fill="rgba(0, 199, 179, 0.11)"></path><path d="M1639 -11L1639 11L1617 33L1617 55L1617 77L1617 99L1617 121L1617 143L1595 165L1595 187L1595 209L1595 231L1595 253" stroke="rgba(0, 199, 179, 0.11)" stroke-width="3.67"></path><path d="M1589.5 253 a5.5 5.5 0 1 0 11 0 a5.5 5.5 0 1 0 -11 0z" fill="rgba(0, 199, 179, 0.11)"></path><path d="M1837 627L1859 649L1859 671L1859 693M1837 55L1859 77L1859 99L1859 121M1881 429L1903 451M1859 253L1881 275M1881 385L1903 407M1837 583L1859 605L1859 627L1881 649M1837 33L1859 55M1837 561L1859 583L1881 605L1881 627L1903 649L1903 671L1903 693M1815 -11L1837 11L1837 33L1837 55L1837 77L1837 99L1837 121L1837 143L1859 165L1859 187L1859 209L1859 231L1859 253L1859 275L1881 297L1881 319L1881 341L1881 363L1881 385L1881 407L1881 429L1881 451L1881 473L1881 495L1881 517L1859 539L1837 561L1837 583L1837 605L1837 627L1837 649L1837 671L1837 693L1837 715L1837 737" stroke="rgba(0, 199, 179, 0.11)" stroke-width="3.67"></path><path d="M1831.5 737 a5.5 5.5 0 1 0 11 0 a5.5 5.5 0 1 0 -11 0zM1853.5 693 a5.5 5.5 0 1 0 11 0 a5.5 5.5 0 1 0 -11 0zM1853.5 121 a5.5 5.5 0 1 0 11 0 a5.5 5.5 0 1 0 -11 0zM1897.5 451 a5.5 5.5 0 1 0 11 0 a5.5 5.5 0 1 0 -11 0zM1875.5 275 a5.5 5.5 0 1 0 11 0 a5.5 5.5 0 1 0 -11 0zM1897.5 407 a5.5 5.5 0 1 0 11 0 a5.5 5.5 0 1 0 -11 0zM1875.5 649 a5.5 5.5 0 1 0 11 0 a5.5 5.5 0 1 0 -11 0zM1853.5 55 a5.5 5.5 0 1 0 11 0 a5.5 5.5 0 1 0 -11 0zM1897.5 693 a5.5 5.5 0 1 0 11 0 a5.5 5.5 0 1 0 -11 0z" fill="rgba(0, 199, 179, 0.11)"></path><path d="M1573 429L1595 451L1617 473L1617 495L1617 517L1617 539L1617 561L1617 583L1617 605M1573 253L1551 275L1551 297L1551 319L1551 341L1551 363L1551 385L1551 407L1551 429L1551 451L1551 473M1551 715L1529 737L1529 759L1529 781L1529 803L1529 825L1507 847L1507 869L1507 891M1595 517L1573 539L1573 561L1551 583L1551 605L1551 627L1551 649L1551 671L1529 693L1529 715L1507 737L1507 759L1507 781L1507 803L1507 825L1485 847L1485 869L1485 891M1573 275L1595 297L1595 319L1595 341L1595 363L1595 385L1595 407L1595 429L1617 451L1639 473M1595 77L1573 99M1551 781L1573 803L1573 825L1595 847L1595 869L1595 891L1595 913L1595 935L1595 957M1595 495L1573 517L1551 539L1551 561L1529 583L1529 605L1507 627M1573 671L1573 693L1573 715L1573 737L1595 759M1595 561L1595 583L1595 605L1595 627L1595 649L1595 671L1595 693L1595 715L1595 737L1617 759L1617 781M1617 -11L1617 11L1595 33L1595 55L1595 77L1595 99L1595 121L1595 143L1573 165L1573 187L1573 209L1573 231L1573 253L1573 275L1573 297L1573 319L1573 341L1573 363L1573 385L1573 407L1573 429L1573 451L1595 473L1595 495L1595 517L1595 539L1595 561L1573 583L1573 605L1573 627L1573 649L1573 671L1551 693L1551 715L1551 737L1551 759L1551 781L1551 803L1551 825L1551 847" stroke="rgba(0, 199, 179, 0.11)" stroke-width="3.67"></path><path d="M1545.5 847 a5.5 5.5 0 1 0 11 0 a5.5 5.5 0 1 0 -11 0zM1611.5 605 a5.5 5.5 0 1 0 11 0 a5.5 5.5 0 1 0 -11 0zM1545.5 473 a5.5 5.5 0 1 0 11 0 a5.5 5.5 0 1 0 -11 0zM1501.5 891 a5.5 5.5 0 1 0 11 0 a5.5 5.5 0 1 0 -11 0zM1479.5 891 a5.5 5.5 0 1 0 11 0 a5.5 5.5 0 1 0 -11 0zM1633.5 473 a5.5 5.5 0 1 0 11 0 a5.5 5.5 0 1 0 -11 0zM1567.5 99 a5.5 5.5 0 1 0 11 0 a5.5 5.5 0 1 0 -11 0zM1589.5 957 a5.5 5.5 0 1 0 11 0 a5.5 5.5 0 1 0 -11 0zM1501.5 627 a5.5 5.5 0 1 0 11 0 a5.5 5.5 0 1 0 -11 0zM1589.5 759 a5.5 5.5 0 1 0 11 0 a5.5 5.5 0 1 0 -11 0zM1611.5 781 a5.5 5.5 0 1 0 11 0 a5.5 5.5 0 1 0 -11 0z" fill="rgba(0, 199, 179, 0.11)"></path><path d="M1881 231L1881 253M1881 165L1903 187L1903 209L1903 231M1925 341L1903 363L1903 385M1925 561L1903 583L1903 605L1903 627L1925 649M1925 495L1903 517L1903 539M1859 11L1859 33M1925 319L1903 341M1837 -11L1859 11L1881 33L1881 55L1881 77L1881 99L1881 121L1881 143L1881 165L1881 187L1881 209L1881 231L1903 253L1903 275L1925 297L1925 319L1925 341L1925 363L1925 385L1925 407L1925 429L1925 451L1925 473L1925 495L1925 517L1925 539L1925 561L1925 583" stroke="rgba(0, 199, 179, 0.11)" stroke-width="3.67"></path><path d="M1919.5 583 a5.5 5.5 0 1 0 11 0 a5.5 5.5 0 1 0 -11 0zM1875.5 253 a5.5 5.5 0 1 0 11 0 a5.5 5.5 0 1 0 -11 0zM1897.5 231 a5.5 5.5 0 1 0 11 0 a5.5 5.5 0 1 0 -11 0zM1897.5 385 a5.5 5.5 0 1 0 11 0 a5.5 5.5 0 1 0 -11 0zM1919.5 649 a5.5 5.5 0 1 0 11 0 a5.5 5.5 0 1 0 -11 0zM1897.5 539 a5.5 5.5 0 1 0 11 0 a5.5 5.5 0 1 0 -11 0zM1853.5 33 a5.5 5.5 0 1 0 11 0 a5.5 5.5 0 1 0 -11 0zM1897.5 341 a5.5 5.5 0 1 0 11 0 a5.5 5.5 0 1 0 -11 0z" fill="rgba(0, 199, 179, 0.11)"></path><path d="M1595 -11L1595 11L1573 33" stroke="rgba(0, 199, 179, 0.11)" stroke-width="3.67"></path><path d="M1567.5 33 a5.5 5.5 0 1 0 11 0 a5.5 5.5 0 1 0 -11 0z" fill="rgba(0, 199, 179, 0.11)"></path><path d="M1859 -11L1881 11L1903 33L1903 55L1903 77L1903 99L1903 121" stroke="rgba(0, 199, 179, 0.11)" stroke-width="3.67"></path><path d="M1897.5 121 a5.5 5.5 0 1 0 11 0 a5.5 5.5 0 1 0 -11 0z" fill="rgba(0, 199, 179, 0.11)"></path><path d="M1551 99L1529 121L1529 143L1529 165M1551 33L1529 55L1529 77L1529 99M1551 121L1573 143M1573 -11L1551 11L1551 33L1551 55L1551 77L1551 99L1551 121L1551 143L1551 165L1551 187L1551 209" stroke="rgba(0, 199, 179, 0.11)" stroke-width="3.67"></path><path d="M1545.5 209 a5.5 5.5 0 1 0 11 0 a5.5 5.5 0 1 0 -11 0zM1523.5 165 a5.5 5.5 0 1 0 11 0 a5.5 5.5 0 1 0 -11 0zM1523.5 99 a5.5 5.5 0 1 0 11 0 a5.5 5.5 0 1 0 -11 0zM1567.5 143 a5.5 5.5 0 1 0 11 0 a5.5 5.5 0 1 0 -11 0z" fill="rgba(0, 199, 179, 0.11)"></path><path d="M1925 121L1947 143L1947 165M1947 451L1969 473L1969 495L1969 517L1969 539L1969 561L1969 583M1947 671L1969 693L1991 715L1991 737M1947 429L1969 451M1947 737L1925 759L1925 781L1925 803L1925 825L1925 847L1925 869L1925 891L1925 913M1947 627L1969 649L1969 671L1991 693L2013 715L2013 737L2013 759L2013 781L2013 803L2013 825L2013 847L2013 869M1947 825L1969 847L1969 869M1947 803L1969 825L1991 847L1991 869L1991 891M1947 759L1969 781L1969 803L1991 825M1947 715L1969 737M1881 -11L1903 11L1925 33L1925 55L1925 77L1925 99L1925 121L1925 143L1925 165L1925 187L1925 209L1925 231L1925 253L1925 275L1947 297L1947 319L1947 341L1947 363L1947 385L1947 407L1947 429L1947 451L1947 473L1947 495L1947 517L1947 539L1947 561L1947 583L1947 605L1947 627L1947 649L1947 671L1947 693L1947 715L1947 737L1947 759L1947 781L1947 803L1947 825L1947 847L1947 869L1947 891" stroke="rgba(0, 199, 179, 0.11)" stroke-width="3.67"></path><path d="M1941.5 891 a5.5 5.5 0 1 0 11 0 a5.5 5.5 0 1 0 -11 0zM1941.5 165 a5.5 5.5 0 1 0 11 0 a5.5 5.5 0 1 0 -11 0zM1963.5 583 a5.5 5.5 0 1 0 11 0 a5.5 5.5 0 1 0 -11 0zM1985.5 737 a5.5 5.5 0 1 0 11 0 a5.5 5.5 0 1 0 -11 0zM1963.5 451 a5.5 5.5 0 1 0 11 0 a5.5 5.5 0 1 0 -11 0zM1919.5 913 a5.5 5.5 0 1 0 11 0 a5.5 5.5 0 1 0 -11 0zM2007.5 869 a5.5 5.5 0 1 0 11 0 a5.5 5.5 0 1 0 -11 0zM1963.5 869 a5.5 5.5 0 1 0 11 0 a5.5 5.5 0 1 0 -11 0zM1985.5 891 a5.5 5.5 0 1 0 11 0 a5.5 5.5 0 1 0 -11 0zM1985.5 825 a5.5 5.5 0 1 0 11 0 a5.5 5.5 0 1 0 -11 0zM1963.5 737 a5.5 5.5 0 1 0 11 0 a5.5 5.5 0 1 0 -11 0z" fill="rgba(0, 199, 179, 0.11)"></path><path d="M1507 561L1485 583L1463 605M1507 209L1485 231L1485 253L1485 275L1485 297L1485 319L1485 341L1485 363M1485 517L1507 539L1529 561M1485 495L1507 517L1529 539M1485 671L1463 693L1463 715L1463 737M1485 649L1463 671M1507 363L1529 385L1529 407L1529 429L1529 451L1529 473L1529 495L1529 517M1507 231L1529 253L1529 275L1529 297L1529 319L1529 341L1529 363M1551 -11L1529 11L1507 33L1507 55L1507 77L1507 99L1507 121L1507 143L1507 165L1507 187L1507 209L1507 231L1507 253L1507 275L1507 297L1507 319L1507 341L1507 363L1507 385L1507 407L1507 429L1507 451L1507 473L1485 495L1485 517L1485 539L1507 561L1507 583L1485 605L1485 627L1485 649L1485 671L1485 693" stroke="rgba(0, 199, 179, 0.11)" stroke-width="3.67"></path><path d="M1479.5 693 a5.5 5.5 0 1 0 11 0 a5.5 5.5 0 1 0 -11 0zM1457.5 605 a5.5 5.5 0 1 0 11 0 a5.5 5.5 0 1 0 -11 0zM1479.5 363 a5.5 5.5 0 1 0 11 0 a5.5 5.5 0 1 0 -11 0zM1523.5 561 a5.5 5.5 0 1 0 11 0 a5.5 5.5 0 1 0 -11 0zM1523.5 539 a5.5 5.5 0 1 0 11 0 a5.5 5.5 0 1 0 -11 0zM1457.5 737 a5.5 5.5 0 1 0 11 0 a5.5 5.5 0 1 0 -11 0zM1457.5 671 a5.5 5.5 0 1 0 11 0 a5.5 5.5 0 1 0 -11 0zM1523.5 517 a5.5 5.5 0 1 0 11 0 a5.5 5.5 0 1 0 -11 0zM1523.5 363 a5.5 5.5 0 1 0 11 0 a5.5 5.5 0 1 0 -11 0z" fill="rgba(0, 199, 179, 0.11)"></path><path d="M1969 319L1991 341L1991 363L1991 385M1991 429L2013 451L2013 473L2035 495L2035 517L2035 539L2035 561M1969 407L1969 429M1947 253L1969 275M1969 297L1991 319L2013 341L2013 363L2013 385L2013 407M1969 99L1947 121M1903 -11L1925 11L1947 33L1947 55L1969 77L1969 99L1969 121L1969 143L1969 165L1969 187L1969 209L1947 231L1947 253L1947 275L1969 297L1969 319L1969 341L1969 363L1969 385L1969 407L1991 429L1991 451L1991 473L1991 495" stroke="rgba(0, 199, 179, 0.11)" stroke-width="3.67"></path><path d="M1985.5 495 a5.5 5.5 0 1 0 11 0 a5.5 5.5 0 1 0 -11 0zM1985.5 385 a5.5 5.5 0 1 0 11 0 a5.5 5.5 0 1 0 -11 0zM2029.5 561 a5.5 5.5 0 1 0 11 0 a5.5 5.5 0 1 0 -11 0zM1963.5 429 a5.5 5.5 0 1 0 11 0 a5.5 5.5 0 1 0 -11 0zM1963.5 275 a5.5 5.5 0 1 0 11 0 a5.5 5.5 0 1 0 -11 0zM2007.5 407 a5.5 5.5 0 1 0 11 0 a5.5 5.5 0 1 0 -11 0zM1941.5 121 a5.5 5.5 0 1 0 11 0 a5.5 5.5 0 1 0 -11 0z" fill="rgba(0, 199, 179, 0.11)"></path><path d="M1463 385L1441 407L1441 429L1441 451L1441 473L1441 495L1441 517M1485 165L1463 187M1463 319L1441 341M1463 297L1441 319M1463 275L1441 297M1529 -11L1507 11L1485 33L1485 55L1485 77L1485 99L1485 121L1485 143L1485 165L1485 187L1463 209L1463 231L1463 253L1463 275L1463 297L1463 319L1463 341L1463 363L1463 385L1463 407" stroke="rgba(0, 199, 179, 0.11)" stroke-width="3.67"></path><path d="M1457.5 407 a5.5 5.5 0 1 0 11 0 a5.5 5.5 0 1 0 -11 0zM1435.5 517 a5.5 5.5 0 1 0 11 0 a5.5 5.5 0 1 0 -11 0zM1457.5 187 a5.5 5.5 0 1 0 11 0 a5.5 5.5 0 1 0 -11 0zM1435.5 341 a5.5 5.5 0 1 0 11 0 a5.5 5.5 0 1 0 -11 0zM1435.5 319 a5.5 5.5 0 1 0 11 0 a5.5 5.5 0 1 0 -11 0zM1435.5 297 a5.5 5.5 0 1 0 11 0 a5.5 5.5 0 1 0 -11 0z" fill="rgba(0, 199, 179, 0.11)"></path><path d="M2013 297L2013 319M2035 341L2057 363M1991 209L1991 231L1969 253M2035 319L2057 341M2035 385L2057 407L2057 429M1925 -11L1947 11L1969 33L1969 55L1991 77L1991 99L1991 121L1991 143L1991 165L1991 187L1991 209L2013 231L2013 253L2013 275L2013 297L2035 319L2035 341L2035 363L2035 385L2035 407" stroke="rgba(0, 199, 179, 0.11)" stroke-width="3.67"></path><path d="M2029.5 407 a5.5 5.5 0 1 0 11 0 a5.5 5.5 0 1 0 -11 0zM2007.5 319 a5.5 5.5 0 1 0 11 0 a5.5 5.5 0 1 0 -11 0zM2051.5 363 a5.5 5.5 0 1 0 11 0 a5.5 5.5 0 1 0 -11 0zM1963.5 253 a5.5 5.5 0 1 0 11 0 a5.5 5.5 0 1 0 -11 0zM2051.5 341 a5.5 5.5 0 1 0 11 0 a5.5 5.5 0 1 0 -11 0zM2051.5 429 a5.5 5.5 0 1 0 11 0 a5.5 5.5 0 1 0 -11 0z" fill="rgba(0, 199, 179, 0.11)"></path><path d="M1463 99L1441 121M1507 -11L1485 11L1463 33L1463 55L1463 77L1463 99L1463 121L1463 143" stroke="rgba(0, 199, 179, 0.11)" stroke-width="3.67"></path><path d="M1457.5 143 a5.5 5.5 0 1 0 11 0 a5.5 5.5 0 1 0 -11 0zM1435.5 121 a5.5 5.5 0 1 0 11 0 a5.5 5.5 0 1 0 -11 0z" fill="rgba(0, 199, 179, 0.11)"></path><path d="M1947 -11L1969 11L1991 33L1991 55L2013 77L2013 99L2013 121L2013 143L2013 165L2013 187L2013 209L2035 231L2035 253L2035 275" stroke="rgba(0, 199, 179, 0.11)" stroke-width="3.67"></path><path d="M2029.5 275 a5.5 5.5 0 1 0 11 0 a5.5 5.5 0 1 0 -11 0z" fill="rgba(0, 199, 179, 0.11)"></path><path d="M1419 429L1397 451L1397 473L1375 495L1375 517L1375 539M1397 693L1397 715L1397 737L1397 759L1397 781L1397 803L1397 825L1397 847L1397 869M1441 209L1419 231L1419 253L1397 275M1397 913L1375 935L1375 957M1397 935L1419 957L1419 979L1419 1001M1375 825L1353 847L1353 869L1353 891L1331 913L1331 935L1331 957L1331 979L1331 1001M1397 671L1375 693L1353 715L1353 737L1353 759L1353 781L1353 803L1353 825M1441 253L1441 275M1397 539L1419 561L1419 583L1419 605L1419 627L1397 649M1397 495L1419 517L1419 539L1441 561L1441 583L1441 605M1419 297L1397 319L1397 341L1397 363L1397 385L1397 407L1397 429L1375 451L1375 473M1485 -11L1463 11L1441 33L1441 55L1419 77L1419 99L1419 121L1441 143L1441 165L1441 187L1441 209L1441 231L1441 253L1419 275L1419 297L1419 319L1419 341L1419 363L1419 385L1419 407L1419 429L1419 451L1419 473L1397 495L1397 517L1397 539L1397 561L1375 583L1375 605L1375 627L1375 649L1397 671L1397 693L1375 715L1375 737L1375 759L1375 781L1375 803L1375 825L1375 847L1375 869L1375 891L1397 913L1397 935L1397 957" stroke="rgba(0, 199, 179, 0.11)" stroke-width="3.67"></path><path d="M1391.5 957 a5.5 5.5 0 1 0 11 0 a5.5 5.5 0 1 0 -11 0zM1369.5 539 a5.5 5.5 0 1 0 11 0 a5.5 5.5 0 1 0 -11 0zM1391.5 869 a5.5 5.5 0 1 0 11 0 a5.5 5.5 0 1 0 -11 0zM1391.5 275 a5.5 5.5 0 1 0 11 0 a5.5 5.5 0 1 0 -11 0zM1369.5 957 a5.5 5.5 0 1 0 11 0 a5.5 5.5 0 1 0 -11 0zM1413.5 1001 a5.5 5.5 0 1 0 11 0 a5.5 5.5 0 1 0 -11 0zM1325.5 1001 a5.5 5.5 0 1 0 11 0 a5.5 5.5 0 1 0 -11 0zM1347.5 825 a5.5 5.5 0 1 0 11 0 a5.5 5.5 0 1 0 -11 0zM1435.5 275 a5.5 5.5 0 1 0 11 0 a5.5 5.5 0 1 0 -11 0zM1391.5 649 a5.5 5.5 0 1 0 11 0 a5.5 5.5 0 1 0 -11 0zM1435.5 605 a5.5 5.5 0 1 0 11 0 a5.5 5.5 0 1 0 -11 0zM1369.5 473 a5.5 5.5 0 1 0 11 0 a5.5 5.5 0 1 0 -11 0z" fill="rgba(0, 199, 179, 0.11)"></path><path d="M1969 -11L1991 11L2013 33L2013 55L2035 77L2035 99L2035 121L2035 143L2035 165L2035 187L2035 209L2057 231L2057 253L2057 275L2057 297" stroke="rgba(0, 199, 179, 0.11)" stroke-width="3.67"></path><path d="M2051.5 297 a5.5 5.5 0 1 0 11 0 a5.5 5.5 0 1 0 -11 0z" fill="rgba(0, 199, 179, 0.11)"></path><path d="M1419 143L1397 165L1397 187L1397 209L1397 231M1397 121L1397 143M1463 -11L1441 11L1419 33L1419 55L1397 77L1397 99L1397 121L1419 143L1419 165L1419 187" stroke="rgba(0, 199, 179, 0.11)" stroke-width="3.67"></path><path d="M1413.5 187 a5.5 5.5 0 1 0 11 0 a5.5 5.5 0 1 0 -11 0zM1391.5 231 a5.5 5.5 0 1 0 11 0 a5.5 5.5 0 1 0 -11 0zM1391.5 143 a5.5 5.5 0 1 0 11 0 a5.5 5.5 0 1 0 -11 0z" fill="rgba(0, 199, 179, 0.11)"></path><path d="M2079 495L2057 517M2057 561L2079 583L2079 605L2079 627L2079 649L2079 671L2079 693L2079 715M2057 583L2035 605L2035 627L2035 649L2035 671L2035 693L2035 715L2035 737M2057 759L2035 781M2057 187L2079 209M2079 451L2057 473L2057 495M2057 165L2079 187M2079 517L2079 539L2079 561M2101 363L2079 385M1991 -11L2013 11L2035 33L2035 55L2057 77L2057 99L2057 121L2057 143L2057 165L2057 187L2057 209L2079 231L2079 253L2079 275L2079 297L2079 319L2079 341L2101 363L2101 385L2079 407L2079 429L2079 451L2079 473L2079 495L2079 517L2057 539L2057 561L2057 583L2057 605L2057 627L2057 649L2057 671L2057 693L2057 715L2057 737L2057 759L2057 781" stroke="rgba(0, 199, 179, 0.11)" stroke-width="3.67"></path><path d="M2051.5 781 a5.5 5.5 0 1 0 11 0 a5.5 5.5 0 1 0 -11 0zM2051.5 517 a5.5 5.5 0 1 0 11 0 a5.5 5.5 0 1 0 -11 0zM2073.5 715 a5.5 5.5 0 1 0 11 0 a5.5 5.5 0 1 0 -11 0zM2029.5 737 a5.5 5.5 0 1 0 11 0 a5.5 5.5 0 1 0 -11 0zM2029.5 781 a5.5 5.5 0 1 0 11 0 a5.5 5.5 0 1 0 -11 0zM2073.5 209 a5.5 5.5 0 1 0 11 0 a5.5 5.5 0 1 0 -11 0zM2051.5 495 a5.5 5.5 0 1 0 11 0 a5.5 5.5 0 1 0 -11 0zM2073.5 187 a5.5 5.5 0 1 0 11 0 a5.5 5.5 0 1 0 -11 0zM2073.5 561 a5.5 5.5 0 1 0 11 0 a5.5 5.5 0 1 0 -11 0zM2073.5 385 a5.5 5.5 0 1 0 11 0 a5.5 5.5 0 1 0 -11 0z" fill="rgba(0, 199, 179, 0.11)"></path><path d="M1353 385L1375 407M1353 363L1375 385M1375 275L1375 297L1375 319L1375 341L1375 363M1353 539L1353 561L1353 583L1353 605L1353 627M1441 -11L1419 11L1397 33L1397 55L1375 77L1375 99L1375 121L1375 143L1375 165L1375 187L1375 209L1375 231L1375 253L1375 275L1353 297L1353 319L1353 341L1353 363L1353 385L1353 407L1353 429L1353 451L1353 473L1353 495L1353 517L1353 539L1375 561" stroke="rgba(0, 199, 179, 0.11)" stroke-width="3.67"></path><path d="M1369.5 561 a5.5 5.5 0 1 0 11 0 a5.5 5.5 0 1 0 -11 0zM1369.5 407 a5.5 5.5 0 1 0 11 0 a5.5 5.5 0 1 0 -11 0zM1369.5 385 a5.5 5.5 0 1 0 11 0 a5.5 5.5 0 1 0 -11 0zM1369.5 363 a5.5 5.5 0 1 0 11 0 a5.5 5.5 0 1 0 -11 0zM1347.5 627 a5.5 5.5 0 1 0 11 0 a5.5 5.5 0 1 0 -11 0z" fill="rgba(0, 199, 179, 0.11)"></path><path d="M2145 627L2167 649L2167 671M2145 649L2123 671L2123 693L2101 715L2101 737L2101 759L2079 781L2079 803L2057 825M2079 847L2057 869L2057 891L2079 913L2079 935L2079 957L2079 979L2079 1001M2101 517L2123 539L2123 561L2145 583L2167 605M2101 429L2123 451M2101 561L2101 583L2101 605L2101 627L2101 649L2101 671L2101 693M2101 495L2123 517L2145 539L2145 561L2167 583L2189 605L2189 627L2189 649L2189 671L2189 693L2167 715M2079 825L2101 847L2123 869L2123 891L2101 913L2101 935L2101 957L2101 979L2101 1001M2123 759L2123 781L2123 803L2123 825L2123 847L2145 869L2145 891M2101 803L2101 825M2013 -11L2035 11L2057 33L2057 55L2079 77L2079 99L2079 121L2079 143L2101 165L2101 187L2101 209L2101 231L2101 253L2101 275L2101 297L2101 319L2101 341L2123 363L2123 385L2101 407L2101 429L2101 451L2101 473L2101 495L2101 517L2101 539L2101 561L2123 583L2145 605L2145 627L2145 649L2145 671L2145 693L2123 715L2123 737L2123 759L2101 781L2101 803L2079 825L2079 847L2079 869" stroke="rgba(0, 199, 179, 0.11)" stroke-width="3.67"></path><path d="M2073.5 869 a5.5 5.5 0 1 0 11 0 a5.5 5.5 0 1 0 -11 0zM2161.5 671 a5.5 5.5 0 1 0 11 0 a5.5 5.5 0 1 0 -11 0zM2051.5 825 a5.5 5.5 0 1 0 11 0 a5.5 5.5 0 1 0 -11 0zM2073.5 1001 a5.5 5.5 0 1 0 11 0 a5.5 5.5 0 1 0 -11 0zM2161.5 605 a5.5 5.5 0 1 0 11 0 a5.5 5.5 0 1 0 -11 0zM2117.5 451 a5.5 5.5 0 1 0 11 0 a5.5 5.5 0 1 0 -11 0zM2095.5 693 a5.5 5.5 0 1 0 11 0 a5.5 5.5 0 1 0 -11 0zM2161.5 715 a5.5 5.5 0 1 0 11 0 a5.5 5.5 0 1 0 -11 0zM2095.5 1001 a5.5 5.5 0 1 0 11 0 a5.5 5.5 0 1 0 -11 0zM2139.5 891 a5.5 5.5 0 1 0 11 0 a5.5 5.5 0 1 0 -11 0zM2095.5 825 a5.5 5.5 0 1 0 11 0 a5.5 5.5 0 1 0 -11 0z" fill="rgba(0, 199, 179, 0.11)"></path><path d="M1309 561L1331 583L1331 605L1331 627M1331 495L1309 517L1309 539L1287 561L1287 583M1309 627L1309 649L1309 671L1309 693M1331 781L1309 803L1309 825L1309 847L1309 869M1331 715L1309 737M1309 605L1287 627L1287 649L1287 671L1287 693L1287 715L1287 737L1287 759L1287 781L1287 803L1287 825L1287 847M1331 539L1331 561M1331 451L1309 473L1309 495M1331 649L1353 671L1353 693M1419 -11L1397 11L1375 33L1375 55L1353 77L1353 99L1353 121L1353 143L1353 165L1353 187L1353 209L1353 231L1353 253L1353 275L1331 297L1331 319L1331 341L1331 363L1331 385L1331 407L1331 429L1331 451L1331 473L1331 495L1331 517L1331 539L1309 561L1309 583L1309 605L1309 627L1331 649L1331 671L1331 693L1331 715L1331 737L1331 759L1331 781L1331 803L1331 825L1331 847L1331 869" stroke="rgba(0, 199, 179, 0.11)" stroke-width="3.67"></path><path d="M1325.5 869 a5.5 5.5 0 1 0 11 0 a5.5 5.5 0 1 0 -11 0zM1325.5 627 a5.5 5.5 0 1 0 11 0 a5.5 5.5 0 1 0 -11 0zM1281.5 583 a5.5 5.5 0 1 0 11 0 a5.5 5.5 0 1 0 -11 0zM1303.5 693 a5.5 5.5 0 1 0 11 0 a5.5 5.5 0 1 0 -11 0zM1303.5 869 a5.5 5.5 0 1 0 11 0 a5.5 5.5 0 1 0 -11 0zM1303.5 737 a5.5 5.5 0 1 0 11 0 a5.5 5.5 0 1 0 -11 0zM1281.5 847 a5.5 5.5 0 1 0 11 0 a5.5 5.5 0 1 0 -11 0zM1325.5 561 a5.5 5.5 0 1 0 11 0 a5.5 5.5 0 1 0 -11 0zM1303.5 495 a5.5 5.5 0 1 0 11 0 a5.5 5.5 0 1 0 -11 0zM1347.5 693 a5.5 5.5 0 1 0 11 0 a5.5 5.5 0 1 0 -11 0z" fill="rgba(0, 199, 179, 0.11)"></path><path d="M2035 -11L2057 11L2079 33" stroke="rgba(0, 199, 179, 0.11)" stroke-width="3.67"></path><path d="M2073.5 33 a5.5 5.5 0 1 0 11 0 a5.5 5.5 0 1 0 -11 0z" fill="rgba(0, 199, 179, 0.11)"></path><path d="M1309 407L1287 429L1287 451L1287 473M1331 231L1309 253M1309 297L1287 319L1287 341L1287 363L1287 385M1397 -11L1375 11L1353 33L1353 55L1331 77L1331 99L1331 121L1331 143L1331 165L1331 187L1331 209L1331 231L1331 253L1331 275L1309 297L1309 319L1309 341L1309 363L1309 385L1309 407L1309 429" stroke="rgba(0, 199, 179, 0.11)" stroke-width="3.67"></path><path d="M1303.5 429 a5.5 5.5 0 1 0 11 0 a5.5 5.5 0 1 0 -11 0zM1281.5 473 a5.5 5.5 0 1 0 11 0 a5.5 5.5 0 1 0 -11 0zM1303.5 253 a5.5 5.5 0 1 0 11 0 a5.5 5.5 0 1 0 -11 0zM1281.5 385 a5.5 5.5 0 1 0 11 0 a5.5 5.5 0 1 0 -11 0z" fill="rgba(0, 199, 179, 0.11)"></path><path d="M2057 -11L2079 11L2101 33L2101 55L2101 77L2101 99L2101 121L2101 143L2123 165L2123 187L2123 209L2123 231L2123 253L2123 275" stroke="rgba(0, 199, 179, 0.11)" stroke-width="3.67"></path><path d="M2117.5 275 a5.5 5.5 0 1 0 11 0 a5.5 5.5 0 1 0 -11 0z" fill="rgba(0, 199, 179, 0.11)"></path><path d="M1375 -11L1353 11L1331 33L1331 55L1309 77L1309 99L1309 121L1309 143L1309 165L1309 187" stroke="rgba(0, 199, 179, 0.11)" stroke-width="3.67"></path><path d="M1303.5 187 a5.5 5.5 0 1 0 11 0 a5.5 5.5 0 1 0 -11 0z" fill="rgba(0, 199, 179, 0.11)"></path><path d="M2189 429L2167 451L2167 473L2145 495L2145 517M2189 451L2211 473L2211 495L2211 517L2189 539M2167 297L2145 319L2145 341L2145 363L2145 385L2145 407L2145 429L2145 451M2167 319L2167 341L2167 363L2167 385L2167 407L2167 429M2123 121L2123 143M2079 -11L2101 11L2123 33L2123 55L2123 77L2123 99L2123 121L2145 143L2145 165L2145 187L2145 209L2145 231L2145 253L2167 275L2167 297L2167 319L2189 341L2189 363L2189 385L2189 407L2189 429L2189 451L2189 473" stroke="rgba(0, 199, 179, 0.11)" stroke-width="3.67"></path><path d="M2183.5 473 a5.5 5.5 0 1 0 11 0 a5.5 5.5 0 1 0 -11 0zM2139.5 517 a5.5 5.5 0 1 0 11 0 a5.5 5.5 0 1 0 -11 0zM2183.5 539 a5.5 5.5 0 1 0 11 0 a5.5 5.5 0 1 0 -11 0zM2139.5 451 a5.5 5.5 0 1 0 11 0 a5.5 5.5 0 1 0 -11 0zM2161.5 429 a5.5 5.5 0 1 0 11 0 a5.5 5.5 0 1 0 -11 0zM2117.5 143 a5.5 5.5 0 1 0 11 0 a5.5 5.5 0 1 0 -11 0z" fill="rgba(0, 199, 179, 0.11)"></path><path d="M1265 737L1243 759L1243 781M1265 517L1265 539L1265 561L1265 583L1265 605L1265 627L1265 649L1265 671M1265 693L1243 715L1243 737M1265 341L1243 363M1265 319L1243 341M1265 275L1243 297L1243 319M1265 495L1287 517L1287 539M1243 671L1243 693M1265 803L1243 825L1243 847L1243 869L1243 891M1353 -11L1331 11L1309 33L1309 55L1287 77L1287 99L1287 121L1287 143L1287 165L1287 187L1287 209L1265 231L1265 253L1265 275L1265 297L1265 319L1265 341L1265 363L1265 385L1265 407L1265 429L1265 451L1265 473L1265 495L1265 517L1243 539L1243 561L1243 583L1243 605L1243 627L1243 649L1243 671L1265 693L1265 715L1265 737L1265 759L1265 781L1265 803L1265 825" stroke="rgba(0, 199, 179, 0.11)" stroke-width="3.67"></path><path d="M1259.5 825 a5.5 5.5 0 1 0 11 0 a5.5 5.5 0 1 0 -11 0zM1237.5 781 a5.5 5.5 0 1 0 11 0 a5.5 5.5 0 1 0 -11 0zM1259.5 671 a5.5 5.5 0 1 0 11 0 a5.5 5.5 0 1 0 -11 0zM1237.5 737 a5.5 5.5 0 1 0 11 0 a5.5 5.5 0 1 0 -11 0zM1237.5 363 a5.5 5.5 0 1 0 11 0 a5.5 5.5 0 1 0 -11 0zM1237.5 341 a5.5 5.5 0 1 0 11 0 a5.5 5.5 0 1 0 -11 0zM1237.5 319 a5.5 5.5 0 1 0 11 0 a5.5 5.5 0 1 0 -11 0zM1281.5 539 a5.5 5.5 0 1 0 11 0 a5.5 5.5 0 1 0 -11 0zM1237.5 693 a5.5 5.5 0 1 0 11 0 a5.5 5.5 0 1 0 -11 0zM1237.5 891 a5.5 5.5 0 1 0 11 0 a5.5 5.5 0 1 0 -11 0z" fill="rgba(0, 199, 179, 0.11)"></path><path d="M2167 231L2189 253M2233 539L2233 561L2233 583L2233 605L2233 627L2233 649M2211 429L2211 451M2255 583L2255 605L2255 627L2255 649L2255 671L2255 693L2255 715L2255 737L2255 759L2255 781M2101 -11L2123 11L2145 33L2145 55L2145 77L2145 99L2167 121L2167 143L2167 165L2167 187L2167 209L2167 231L2167 253L2189 275L2189 297L2189 319L2211 341L2211 363L2211 385L2211 407L2211 429L2233 451L2233 473L2233 495L2233 517L2233 539L2255 561L2255 583L2277 605" stroke="rgba(0, 199, 179, 0.11)" stroke-width="3.67"></path><path d="M2271.5 605 a5.5 5.5 0 1 0 11 0 a5.5 5.5 0 1 0 -11 0zM2183.5 253 a5.5 5.5 0 1 0 11 0 a5.5 5.5 0 1 0 -11 0zM2227.5 649 a5.5 5.5 0 1 0 11 0 a5.5 5.5 0 1 0 -11 0zM2205.5 451 a5.5 5.5 0 1 0 11 0 a5.5 5.5 0 1 0 -11 0zM2249.5 781 a5.5 5.5 0 1 0 11 0 a5.5 5.5 0 1 0 -11 0z" fill="rgba(0, 199, 179, 0.11)"></path><path d="M1243 231L1221 253L1221 275M1265 187L1243 209M1331 -11L1309 11L1287 33L1287 55L1265 77L1265 99L1265 121L1265 143L1265 165L1265 187L1265 209L1243 231L1243 253" stroke="rgba(0, 199, 179, 0.11)" stroke-width="3.67"></path><path d="M1237.5 253 a5.5 5.5 0 1 0 11 0 a5.5 5.5 0 1 0 -11 0zM1215.5 275 a5.5 5.5 0 1 0 11 0 a5.5 5.5 0 1 0 -11 0zM1237.5 209 a5.5 5.5 0 1 0 11 0 a5.5 5.5 0 1 0 -11 0z" fill="rgba(0, 199, 179, 0.11)"></path><path d="M2299 671L2277 693L2277 715L2277 737L2277 759L2277 781L2277 803M2211 253L2233 275L2233 297L2233 319M2299 649L2277 671M2189 209L2189 231M2189 187L2211 209L2233 231L2233 253M2299 627L2277 649M2123 -11L2145 11L2167 33L2167 55L2167 77L2167 99L2189 121L2189 143L2189 165L2189 187L2189 209L2211 231L2211 253L2211 275L2211 297L2211 319L2233 341L2233 363L2233 385L2233 407L2233 429L2255 451L2255 473L2255 495L2255 517L2255 539L2277 561L2277 583L2299 605L2299 627L2299 649L2299 671L2299 693L2299 715L2299 737L2299 759" stroke="rgba(0, 199, 179, 0.11)" stroke-width="3.67"></path><path d="M2293.5 759 a5.5 5.5 0 1 0 11 0 a5.5 5.5 0 1 0 -11 0zM2271.5 803 a5.5 5.5 0 1 0 11 0 a5.5 5.5 0 1 0 -11 0zM2227.5 319 a5.5 5.5 0 1 0 11 0 a5.5 5.5 0 1 0 -11 0zM2271.5 671 a5.5 5.5 0 1 0 11 0 a5.5 5.5 0 1 0 -11 0zM2183.5 231 a5.5 5.5 0 1 0 11 0 a5.5 5.5 0 1 0 -11 0zM2227.5 253 a5.5 5.5 0 1 0 11 0 a5.5 5.5 0 1 0 -11 0zM2271.5 649 a5.5 5.5 0 1 0 11 0 a5.5 5.5 0 1 0 -11 0z" fill="rgba(0, 199, 179, 0.11)"></path><path d="M1309 -11L1287 11L1265 33L1265 55L1243 77L1243 99L1243 121L1243 143" stroke="rgba(0, 199, 179, 0.11)" stroke-width="3.67"></path><path d="M1237.5 143 a5.5 5.5 0 1 0 11 0 a5.5 5.5 0 1 0 -11 0z" fill="rgba(0, 199, 179, 0.11)"></path><path d="M2211 143L2233 165L2233 187M2145 -11L2167 11L2189 33L2189 55L2189 77L2189 99L2211 121L2211 143L2211 165" stroke="rgba(0, 199, 179, 0.11)" stroke-width="3.67"></path><path d="M2205.5 165 a5.5 5.5 0 1 0 11 0 a5.5 5.5 0 1 0 -11 0zM2227.5 187 a5.5 5.5 0 1 0 11 0 a5.5 5.5 0 1 0 -11 0z" fill="rgba(0, 199, 179, 0.11)"></path><path d="M1221 319L1199 341L1199 363M1221 627L1199 649L1199 671L1199 693M1221 297L1199 319M1243 407L1221 429L1221 451M1221 715L1199 737L1199 759L1199 781L1199 803L1199 825L1199 847M1221 561L1199 583M1243 385L1221 407L1199 429M1221 539L1199 561L1177 583L1177 605L1177 627M1221 605L1199 627M1287 -11L1265 11L1243 33L1243 55L1221 77L1221 99L1221 121L1199 143L1199 165L1199 187L1199 209L1199 231L1199 253L1199 275L1221 297L1221 319L1221 341L1221 363L1243 385L1243 407L1243 429L1243 451L1243 473L1243 495L1243 517L1221 539L1221 561L1221 583L1221 605L1221 627L1221 649L1221 671L1221 693L1221 715L1221 737L1221 759L1221 781" stroke="rgba(0, 199, 179, 0.11)" stroke-width="3.67"></path><path d="M1215.5 781 a5.5 5.5 0 1 0 11 0 a5.5 5.5 0 1 0 -11 0zM1193.5 363 a5.5 5.5 0 1 0 11 0 a5.5 5.5 0 1 0 -11 0zM1193.5 693 a5.5 5.5 0 1 0 11 0 a5.5 5.5 0 1 0 -11 0zM1193.5 319 a5.5 5.5 0 1 0 11 0 a5.5 5.5 0 1 0 -11 0zM1215.5 451 a5.5 5.5 0 1 0 11 0 a5.5 5.5 0 1 0 -11 0zM1193.5 847 a5.5 5.5 0 1 0 11 0 a5.5 5.5 0 1 0 -11 0zM1193.5 583 a5.5 5.5 0 1 0 11 0 a5.5 5.5 0 1 0 -11 0zM1193.5 429 a5.5 5.5 0 1 0 11 0 a5.5 5.5 0 1 0 -11 0zM1171.5 627 a5.5 5.5 0 1 0 11 0 a5.5 5.5 0 1 0 -11 0zM1193.5 627 a5.5 5.5 0 1 0 11 0 a5.5 5.5 0 1 0 -11 0z" fill="rgba(0, 199, 179, 0.11)"></path><path d="M2321 759L2343 781L2343 803L2343 825L2343 847M2255 935L2277 957L2277 979L2277 1001M2277 913L2277 935L2299 957L2299 979L2299 1001M2321 781L2299 803L2299 825M2211 77L2233 99M2321 737L2343 759M2299 891L2299 913L2299 935M2299 847L2277 869L2277 891M2299 869L2321 891L2321 913L2321 935L2321 957L2321 979L2321 1001M2321 825L2321 847L2321 869L2343 891L2343 913M2233 121L2233 143M2167 -11L2189 11L2211 33L2211 55L2211 77L2211 99L2233 121L2255 143L2255 165L2255 187L2255 209L2255 231L2255 253L2255 275L2255 297L2255 319L2255 341L2255 363L2255 385L2255 407L2255 429L2277 451L2277 473L2277 495L2277 517L2277 539L2299 561L2299 583L2321 605L2321 627L2321 649L2321 671L2321 693L2321 715L2321 737L2321 759L2321 781L2321 803L2321 825L2299 847L2299 869L2299 891L2277 913L2255 935L2255 957" stroke="rgba(0, 199, 179, 0.11)" stroke-width="3.67"></path><path d="M2249.5 957 a5.5 5.5 0 1 0 11 0 a5.5 5.5 0 1 0 -11 0zM2337.5 847 a5.5 5.5 0 1 0 11 0 a5.5 5.5 0 1 0 -11 0zM2271.5 1001 a5.5 5.5 0 1 0 11 0 a5.5 5.5 0 1 0 -11 0zM2293.5 1001 a5.5 5.5 0 1 0 11 0 a5.5 5.5 0 1 0 -11 0zM2293.5 825 a5.5 5.5 0 1 0 11 0 a5.5 5.5 0 1 0 -11 0zM2227.5 99 a5.5 5.5 0 1 0 11 0 a5.5 5.5 0 1 0 -11 0zM2337.5 759 a5.5 5.5 0 1 0 11 0 a5.5 5.5 0 1 0 -11 0zM2293.5 935 a5.5 5.5 0 1 0 11 0 a5.5 5.5 0 1 0 -11 0zM2271.5 891 a5.5 5.5 0 1 0 11 0 a5.5 5.5 0 1 0 -11 0zM2315.5 1001 a5.5 5.5 0 1 0 11 0 a5.5 5.5 0 1 0 -11 0zM2337.5 913 a5.5 5.5 0 1 0 11 0 a5.5 5.5 0 1 0 -11 0zM2227.5 143 a5.5 5.5 0 1 0 11 0 a5.5 5.5 0 1 0 -11 0z" fill="rgba(0, 199, 179, 0.11)"></path><path d="M1199 495L1199 517M1177 429L1177 451L1177 473M1199 473L1221 495M1265 -11L1243 11L1221 33L1221 55L1199 77L1199 99L1199 121L1177 143L1177 165L1177 187L1177 209L1177 231L1177 253L1177 275L1177 297L1177 319L1177 341L1177 363L1177 385L1177 407L1177 429L1199 451L1199 473L1199 495L1221 517" stroke="rgba(0, 199, 179, 0.11)" stroke-width="3.67"></path><path d="M1215.5 517 a5.5 5.5 0 1 0 11 0 a5.5 5.5 0 1 0 -11 0zM1193.5 517 a5.5 5.5 0 1 0 11 0 a5.5 5.5 0 1 0 -11 0zM1171.5 473 a5.5 5.5 0 1 0 11 0 a5.5 5.5 0 1 0 -11 0zM1215.5 495 a5.5 5.5 0 1 0 11 0 a5.5 5.5 0 1 0 -11 0z" fill="rgba(0, 199, 179, 0.11)"></path><path d="M2277 407L2299 429M2277 385L2299 407M2233 55L2233 77M2189 -11L2211 11L2233 33L2233 55L2255 77L2255 99L2255 121L2277 143L2277 165L2277 187L2277 209L2277 231L2277 253L2277 275L2277 297L2277 319L2277 341L2277 363L2277 385L2277 407L2277 429L2299 451L2299 473L2299 495" stroke="rgba(0, 199, 179, 0.11)" stroke-width="3.67"></path><path d="M2293.5 495 a5.5 5.5 0 1 0 11 0 a5.5 5.5 0 1 0 -11 0zM2293.5 429 a5.5 5.5 0 1 0 11 0 a5.5 5.5 0 1 0 -11 0zM2293.5 407 a5.5 5.5 0 1 0 11 0 a5.5 5.5 0 1 0 -11 0zM2227.5 77 a5.5 5.5 0 1 0 11 0 a5.5 5.5 0 1 0 -11 0z" fill="rgba(0, 199, 179, 0.11)"></path><path d="M1155 209L1133 231M1243 -11L1221 11L1199 33L1199 55L1177 77L1177 99L1177 121L1155 143L1155 165L1155 187L1155 209L1155 231L1155 253L1155 275L1155 297L1155 319L1155 341L1155 363L1155 385L1155 407L1155 429" stroke="rgba(0, 199, 179, 0.11)" stroke-width="3.67"></path><path d="M1149.5 429 a5.5 5.5 0 1 0 11 0 a5.5 5.5 0 1 0 -11 0zM1127.5 231 a5.5 5.5 0 1 0 11 0 a5.5 5.5 0 1 0 -11 0z" fill="rgba(0, 199, 179, 0.11)"></path><path d="M2343 649L2365 671M2343 715L2343 737M2277 99L2277 121M2321 429L2343 451L2343 473M2299 363L2299 385M2299 517L2321 539L2343 561M2321 495L2321 517L2343 539M2343 605L2365 627L2365 649M2343 693L2365 715M2211 -11L2233 11L2255 33L2255 55L2277 77L2277 99L2299 121L2299 143L2299 165L2299 187L2299 209L2299 231L2299 253L2299 275L2299 297L2299 319L2299 341L2299 363L2321 385L2321 407L2321 429L2321 451L2321 473L2321 495L2299 517L2299 539L2321 561L2321 583L2343 605L2343 627L2343 649L2343 671L2343 693L2343 715L2365 737L2365 759L2365 781L2365 803L2365 825L2365 847L2365 869" stroke="rgba(0, 199, 179, 0.11)" stroke-width="3.67"></path><path d="M2359.5 869 a5.5 5.5 0 1 0 11 0 a5.5 5.5 0 1 0 -11 0zM2359.5 671 a5.5 5.5 0 1 0 11 0 a5.5 5.5 0 1 0 -11 0zM2337.5 737 a5.5 5.5 0 1 0 11 0 a5.5 5.5 0 1 0 -11 0zM2271.5 121 a5.5 5.5 0 1 0 11 0 a5.5 5.5 0 1 0 -11 0zM2337.5 473 a5.5 5.5 0 1 0 11 0 a5.5 5.5 0 1 0 -11 0zM2293.5 385 a5.5 5.5 0 1 0 11 0 a5.5 5.5 0 1 0 -11 0zM2337.5 561 a5.5 5.5 0 1 0 11 0 a5.5 5.5 0 1 0 -11 0zM2337.5 539 a5.5 5.5 0 1 0 11 0 a5.5 5.5 0 1 0 -11 0zM2359.5 649 a5.5 5.5 0 1 0 11 0 a5.5 5.5 0 1 0 -11 0zM2359.5 715 a5.5 5.5 0 1 0 11 0 a5.5 5.5 0 1 0 -11 0z" fill="rgba(0, 199, 179, 0.11)"></path><path d="M1133 275L1111 297M1133 253L1111 275M1111 231L1111 253M1133 187L1133 209M1133 429L1133 451M1089 473L1111 495L1111 517L1111 539L1111 561L1111 583L1111 605L1111 627L1133 649M1221 -11L1199 11L1177 33L1177 55L1155 77L1155 99L1155 121L1133 143L1133 165L1133 187L1111 209L1111 231L1133 253L1133 275L1133 297L1133 319L1133 341L1133 363L1133 385L1133 407L1133 429L1111 451L1089 473L1089 495L1089 517L1089 539L1089 561" stroke="rgba(0, 199, 179, 0.11)" stroke-width="3.67"></path><path d="M1083.5 561 a5.5 5.5 0 1 0 11 0 a5.5 5.5 0 1 0 -11 0zM1105.5 297 a5.5 5.5 0 1 0 11 0 a5.5 5.5 0 1 0 -11 0zM1105.5 275 a5.5 5.5 0 1 0 11 0 a5.5 5.5 0 1 0 -11 0zM1105.5 253 a5.5 5.5 0 1 0 11 0 a5.5 5.5 0 1 0 -11 0zM1127.5 209 a5.5 5.5 0 1 0 11 0 a5.5 5.5 0 1 0 -11 0zM1127.5 451 a5.5 5.5 0 1 0 11 0 a5.5 5.5 0 1 0 -11 0zM1127.5 649 a5.5 5.5 0 1 0 11 0 a5.5 5.5 0 1 0 -11 0z" fill="rgba(0, 199, 179, 0.11)"></path><path d="M2343 407L2343 429M2365 561L2365 583L2365 605M2365 495L2343 517M2233 -11L2255 11L2277 33L2277 55L2299 77L2299 99L2321 121L2321 143L2321 165L2321 187L2321 209L2321 231L2321 253L2321 275L2321 297L2321 319L2321 341L2321 363L2343 385L2343 407L2365 429L2365 451L2365 473L2365 495L2365 517L2365 539L2365 561L2343 583" stroke="rgba(0, 199, 179, 0.11)" stroke-width="3.67"></path><path d="M2337.5 583 a5.5 5.5 0 1 0 11 0 a5.5 5.5 0 1 0 -11 0zM2337.5 429 a5.5 5.5 0 1 0 11 0 a5.5 5.5 0 1 0 -11 0zM2359.5 605 a5.5 5.5 0 1 0 11 0 a5.5 5.5 0 1 0 -11 0zM2337.5 517 a5.5 5.5 0 1 0 11 0 a5.5 5.5 0 1 0 -11 0z" fill="rgba(0, 199, 179, 0.11)"></path><path d="M1089 319L1089 341M1111 407L1089 429M1111 385L1089 407M1199 -11L1177 11L1155 33L1155 55L1133 77L1133 99L1133 121L1111 143L1111 165L1111 187L1089 209L1089 231L1089 253L1089 275L1089 297L1089 319L1111 341L1111 363L1111 385L1111 407L1111 429L1089 451L1067 473L1067 495" stroke="rgba(0, 199, 179, 0.11)" stroke-width="3.67"></path><path d="M1061.5 495 a5.5 5.5 0 1 0 11 0 a5.5 5.5 0 1 0 -11 0zM1083.5 341 a5.5 5.5 0 1 0 11 0 a5.5 5.5 0 1 0 -11 0zM1083.5 429 a5.5 5.5 0 1 0 11 0 a5.5 5.5 0 1 0 -11 0zM1083.5 407 a5.5 5.5 0 1 0 11 0 a5.5 5.5 0 1 0 -11 0z" fill="rgba(0, 199, 179, 0.11)"></path><path d="M2387 869L2409 891L2409 913L2409 935L2409 957L2409 979L2409 1001M2387 891L2365 913L2365 935L2365 957L2365 979L2365 1001M2387 825L2409 847L2409 869M2387 759L2409 781L2409 803L2409 825L2431 847L2431 869L2431 891L2431 913L2431 935L2453 957M2255 -11L2277 11L2299 33L2299 55L2321 77L2321 99L2343 121L2343 143L2343 165L2343 187L2343 209L2343 231L2343 253L2343 275L2343 297L2343 319L2343 341L2343 363L2365 385L2365 407L2387 429L2387 451L2387 473L2387 495L2387 517L2387 539L2387 561L2387 583L2387 605L2387 627L2387 649L2387 671L2387 693L2387 715L2387 737L2387 759L2387 781L2387 803L2387 825L2387 847L2387 869L2387 891L2387 913L2387 935L2387 957" stroke="rgba(0, 199, 179, 0.11)" stroke-width="3.67"></path><path d="M2381.5 957 a5.5 5.5 0 1 0 11 0 a5.5 5.5 0 1 0 -11 0zM2403.5 1001 a5.5 5.5 0 1 0 11 0 a5.5 5.5 0 1 0 -11 0zM2359.5 1001 a5.5 5.5 0 1 0 11 0 a5.5 5.5 0 1 0 -11 0zM2403.5 869 a5.5 5.5 0 1 0 11 0 a5.5 5.5 0 1 0 -11 0zM2447.5 957 a5.5 5.5 0 1 0 11 0 a5.5 5.5 0 1 0 -11 0z" fill="rgba(0, 199, 179, 0.11)"></path><path d="M1067 363L1089 385M1177 -11L1155 11L1133 33L1133 55L1111 77L1111 99L1111 121L1089 143L1089 165L1089 187L1067 209L1067 231L1067 253L1067 275L1067 297L1067 319L1067 341L1067 363L1067 385L1067 407L1067 429L1067 451L1045 473L1045 495L1045 517" stroke="rgba(0, 199, 179, 0.11)" stroke-width="3.67"></path><path d="M1039.5 517 a5.5 5.5 0 1 0 11 0 a5.5 5.5 0 1 0 -11 0zM1083.5 385 a5.5 5.5 0 1 0 11 0 a5.5 5.5 0 1 0 -11 0z" fill="rgba(0, 199, 179, 0.11)"></path><path d="M2409 627L2431 649L2431 671L2453 693L2453 715M2409 583L2431 605L2431 627L2453 649L2453 671L2475 693L2475 715L2475 737L2475 759M2343 77L2343 99M2409 693L2431 715L2431 737L2431 759M2409 561L2431 583L2453 605L2453 627M2409 517L2431 539L2431 561M2409 495L2431 517L2453 539L2453 561L2453 583M2277 -11L2299 11L2321 33L2321 55L2343 77L2365 99L2365 121L2365 143L2365 165L2365 187L2365 209L2365 231L2365 253L2365 275L2365 297L2365 319L2365 341L2365 363L2387 385L2387 407L2409 429L2409 451L2409 473L2409 495L2409 517L2409 539L2409 561L2409 583L2409 605L2409 627L2409 649L2409 671L2409 693L2409 715L2409 737" stroke="rgba(0, 199, 179, 0.11)" stroke-width="3.67"></path><path d="M2403.5 737 a5.5 5.5 0 1 0 11 0 a5.5 5.5 0 1 0 -11 0zM2447.5 715 a5.5 5.5 0 1 0 11 0 a5.5 5.5 0 1 0 -11 0zM2469.5 759 a5.5 5.5 0 1 0 11 0 a5.5 5.5 0 1 0 -11 0zM2337.5 99 a5.5 5.5 0 1 0 11 0 a5.5 5.5 0 1 0 -11 0zM2425.5 759 a5.5 5.5 0 1 0 11 0 a5.5 5.5 0 1 0 -11 0zM2447.5 627 a5.5 5.5 0 1 0 11 0 a5.5 5.5 0 1 0 -11 0zM2425.5 561 a5.5 5.5 0 1 0 11 0 a5.5 5.5 0 1 0 -11 0zM2447.5 583 a5.5 5.5 0 1 0 11 0 a5.5 5.5 0 1 0 -11 0z" fill="rgba(0, 199, 179, 0.11)"></path><path d="M1023 803L1045 825L1045 847L1045 869L1045 891L1045 913L1067 935L1067 957M1023 517L1001 539L1001 561L1001 583L1001 605L1001 627L1001 649L1001 671L1001 693L979 715L979 737L979 759L979 781L979 803L979 825L1001 847L1001 869M1023 605L1045 627L1045 649L1045 671L1045 693L1045 715M1045 979L1067 1001M1023 781L1045 803L1067 825L1067 847L1067 869L1067 891L1067 913L1089 935L1089 957M1023 715L1001 737M1045 957L1023 979L1023 1001M1023 759L1001 781L1001 803L1001 825M1023 583L1045 605L1067 627L1067 649L1067 671L1067 693L1067 715L1067 737L1045 759L1045 781L1067 803L1089 825L1111 847L1111 869L1111 891L1111 913L1111 935L1111 957L1111 979M1045 429L1045 451M1023 495L1001 517M1155 -11L1133 11L1111 33L1111 55L1089 77L1089 99L1089 121L1067 143L1067 165L1067 187L1045 209L1045 231L1045 253L1045 275L1045 297L1045 319L1045 341L1045 363L1045 385L1045 407L1045 429L1023 451L1023 473L1023 495L1023 517L1023 539L1023 561L1023 583L1023 605L1023 627L1023 649L1023 671L1023 693L1023 715L1023 737L1023 759L1023 781L1023 803L1023 825L1023 847L1023 869L1023 891L1023 913L1045 935L1045 957L1045 979L1045 1001" stroke="rgba(0, 199, 179, 0.11)" stroke-width="3.67"></path><path d="M1039.5 1001 a5.5 5.5 0 1 0 11 0 a5.5 5.5 0 1 0 -11 0zM1061.5 957 a5.5 5.5 0 1 0 11 0 a5.5 5.5 0 1 0 -11 0zM995.5 869 a5.5 5.5 0 1 0 11 0 a5.5 5.5 0 1 0 -11 0zM1039.5 715 a5.5 5.5 0 1 0 11 0 a5.5 5.5 0 1 0 -11 0zM1061.5 1001 a5.5 5.5 0 1 0 11 0 a5.5 5.5 0 1 0 -11 0zM1083.5 957 a5.5 5.5 0 1 0 11 0 a5.5 5.5 0 1 0 -11 0zM995.5 737 a5.5 5.5 0 1 0 11 0 a5.5 5.5 0 1 0 -11 0zM1017.5 1001 a5.5 5.5 0 1 0 11 0 a5.5 5.5 0 1 0 -11 0zM995.5 825 a5.5 5.5 0 1 0 11 0 a5.5 5.5 0 1 0 -11 0zM1105.5 979 a5.5 5.5 0 1 0 11 0 a5.5 5.5 0 1 0 -11 0zM1039.5 451 a5.5 5.5 0 1 0 11 0 a5.5 5.5 0 1 0 -11 0zM995.5 517 a5.5 5.5 0 1 0 11 0 a5.5 5.5 0 1 0 -11 0z" fill="rgba(0, 199, 179, 0.11)"></path><path d="M2387 275L2409 297L2409 319L2409 341M2431 473L2431 495M2387 231L2409 253L2409 275M2387 143L2409 165L2409 187L2409 209L2409 231M2497 649L2475 671M2519 737L2497 759M2519 715L2497 737M2475 627L2475 649M2453 495L2453 517M2299 -11L2321 11L2343 33L2343 55L2365 77L2387 99L2387 121L2387 143L2387 165L2387 187L2387 209L2387 231L2387 253L2387 275L2387 297L2387 319L2387 341L2387 363L2409 385L2409 407L2431 429L2431 451L2431 473L2453 495L2475 517L2475 539L2475 561L2475 583L2475 605L2475 627L2497 649L2497 671L2519 693L2519 715L2519 737L2519 759L2519 781L2519 803L2497 825" stroke="rgba(0, 199, 179, 0.11)" stroke-width="3.67"></path><path d="M2491.5 825 a5.5 5.5 0 1 0 11 0 a5.5 5.5 0 1 0 -11 0zM2403.5 341 a5.5 5.5 0 1 0 11 0 a5.5 5.5 0 1 0 -11 0zM2425.5 495 a5.5 5.5 0 1 0 11 0 a5.5 5.5 0 1 0 -11 0zM2403.5 275 a5.5 5.5 0 1 0 11 0 a5.5 5.5 0 1 0 -11 0zM2403.5 231 a5.5 5.5 0 1 0 11 0 a5.5 5.5 0 1 0 -11 0zM2469.5 671 a5.5 5.5 0 1 0 11 0 a5.5 5.5 0 1 0 -11 0zM2491.5 759 a5.5 5.5 0 1 0 11 0 a5.5 5.5 0 1 0 -11 0zM2491.5 737 a5.5 5.5 0 1 0 11 0 a5.5 5.5 0 1 0 -11 0zM2469.5 649 a5.5 5.5 0 1 0 11 0 a5.5 5.5 0 1 0 -11 0zM2447.5 517 a5.5 5.5 0 1 0 11 0 a5.5 5.5 0 1 0 -11 0z" fill="rgba(0, 199, 179, 0.11)"></path><path d="M957 979L979 1001M957 935L979 957L979 979L1001 1001M957 605L979 627L979 649L979 671L979 693M957 847L979 869L979 891L979 913L979 935L1001 957L1001 979M979 473L1001 495M957 583L979 605M1001 451L1001 473M979 539L979 561L979 583M1133 -11L1111 11L1089 33L1089 55L1067 77L1067 99L1067 121L1045 143L1045 165L1045 187L1023 209L1023 231L1023 253L1023 275L1023 297L1023 319L1023 341L1023 363L1023 385L1023 407L1023 429L1001 451L979 473L979 495L979 517L979 539L957 561L957 583L957 605L957 627L957 649L957 671L957 693L957 715L957 737L957 759L957 781L957 803L957 825L957 847L957 869L957 891L957 913L957 935L957 957L957 979L957 1001" stroke="rgba(0, 199, 179, 0.11)" stroke-width="3.67"></path><path d="M951.5 1001 a5.5 5.5 0 1 0 11 0 a5.5 5.5 0 1 0 -11 0zM973.5 1001 a5.5 5.5 0 1 0 11 0 a5.5 5.5 0 1 0 -11 0zM995.5 1001 a5.5 5.5 0 1 0 11 0 a5.5 5.5 0 1 0 -11 0zM973.5 693 a5.5 5.5 0 1 0 11 0 a5.5 5.5 0 1 0 -11 0zM995.5 979 a5.5 5.5 0 1 0 11 0 a5.5 5.5 0 1 0 -11 0zM995.5 495 a5.5 5.5 0 1 0 11 0 a5.5 5.5 0 1 0 -11 0zM973.5 605 a5.5 5.5 0 1 0 11 0 a5.5 5.5 0 1 0 -11 0zM995.5 473 a5.5 5.5 0 1 0 11 0 a5.5 5.5 0 1 0 -11 0zM973.5 583 a5.5 5.5 0 1 0 11 0 a5.5 5.5 0 1 0 -11 0z" fill="rgba(0, 199, 179, 0.11)"></path><path d="M2321 -11L2343 11L2365 33L2365 55L2387 77" stroke="rgba(0, 199, 179, 0.11)" stroke-width="3.67"></path><path d="M2381.5 77 a5.5 5.5 0 1 0 11 0 a5.5 5.5 0 1 0 -11 0z" fill="rgba(0, 199, 179, 0.11)"></path><path d="M1045 77L1045 99L1045 121M1001 275L979 297L979 319L979 341L979 363L979 385L979 407L957 429L957 451M1001 253L979 275M935 935L913 957M1001 231L979 253M1111 -11L1089 11L1067 33L1067 55L1045 77L1023 99L1023 121L1023 143L1023 165L1023 187L1001 209L1001 231L1001 253L1001 275L1001 297L1001 319L1001 341L1001 363L1001 385L1001 407L1001 429L979 451L957 473L957 495L957 517L957 539L935 561L935 583L935 605L935 627L935 649L935 671L935 693L935 715L935 737L935 759L935 781L935 803L935 825L935 847L935 869L935 891L935 913L935 935L935 957" stroke="rgba(0, 199, 179, 0.11)" stroke-width="3.67"></path><path d="M929.5 957 a5.5 5.5 0 1 0 11 0 a5.5 5.5 0 1 0 -11 0zM1039.5 121 a5.5 5.5 0 1 0 11 0 a5.5 5.5 0 1 0 -11 0zM951.5 451 a5.5 5.5 0 1 0 11 0 a5.5 5.5 0 1 0 -11 0zM973.5 275 a5.5 5.5 0 1 0 11 0 a5.5 5.5 0 1 0 -11 0zM907.5 957 a5.5 5.5 0 1 0 11 0 a5.5 5.5 0 1 0 -11 0zM973.5 253 a5.5 5.5 0 1 0 11 0 a5.5 5.5 0 1 0 -11 0z" fill="rgba(0, 199, 179, 0.11)"></path><path d="M2409 121L2409 143M2343 -11L2365 11L2387 33L2387 55L2409 77L2409 99L2409 121L2431 143L2431 165L2431 187L2431 209L2431 231L2431 253L2431 275" stroke="rgba(0, 199, 179, 0.11)" stroke-width="3.67"></path><path d="M2425.5 275 a5.5 5.5 0 1 0 11 0 a5.5 5.5 0 1 0 -11 0zM2403.5 143 a5.5 5.5 0 1 0 11 0 a5.5 5.5 0 1 0 -11 0z" fill="rgba(0, 199, 179, 0.11)"></path><path d="M1089 -11L1067 11L1045 33L1045 55L1023 77L1001 99L1001 121L1001 143L1001 165" stroke="rgba(0, 199, 179, 0.11)" stroke-width="3.67"></path><path d="M995.5 165 a5.5 5.5 0 1 0 11 0 a5.5 5.5 0 1 0 -11 0z" fill="rgba(0, 199, 179, 0.11)"></path><path d="M2453 451L2475 473M2453 209L2475 231L2475 253L2475 275L2475 297L2475 319L2475 341L2475 363L2475 385L2453 407M2453 165L2475 187M2453 429L2475 451M2453 341L2453 363L2453 385M2453 297L2431 319L2431 341M2365 -11L2387 11L2409 33L2409 55L2431 77L2431 99L2431 121L2453 143L2453 165L2453 187L2453 209L2453 231L2453 253L2453 275L2453 297L2453 319L2453 341L2431 363L2431 385L2431 407L2453 429L2453 451L2453 473L2475 495L2497 517L2497 539L2497 561L2497 583L2497 605L2497 627" stroke="rgba(0, 199, 179, 0.11)" stroke-width="3.67"></path><path d="M2491.5 627 a5.5 5.5 0 1 0 11 0 a5.5 5.5 0 1 0 -11 0zM2469.5 473 a5.5 5.5 0 1 0 11 0 a5.5 5.5 0 1 0 -11 0zM2447.5 407 a5.5 5.5 0 1 0 11 0 a5.5 5.5 0 1 0 -11 0zM2469.5 187 a5.5 5.5 0 1 0 11 0 a5.5 5.5 0 1 0 -11 0zM2469.5 451 a5.5 5.5 0 1 0 11 0 a5.5 5.5 0 1 0 -11 0zM2447.5 385 a5.5 5.5 0 1 0 11 0 a5.5 5.5 0 1 0 -11 0zM2425.5 341 a5.5 5.5 0 1 0 11 0 a5.5 5.5 0 1 0 -11 0z" fill="rgba(0, 199, 179, 0.11)"></path><path d="M935 517L913 539M913 825L891 847M935 451L913 473L913 495L913 517M913 803L891 825L869 847L869 869L869 891L869 913M913 869L891 891L891 913L891 935L891 957L891 979L891 1001M913 781L891 803L869 825L847 847M913 715L891 737L891 759M957 363L957 385L957 407M979 209L979 231M913 671L891 693L891 715M1067 -11L1045 11L1023 33L1023 55L1001 77L979 99L979 121L979 143L979 165L979 187L979 209L957 231L957 253L957 275L957 297L957 319L957 341L957 363L935 385L935 407L935 429L935 451L935 473L935 495L935 517L935 539L913 561L913 583L913 605L913 627L913 649L913 671L913 693L913 715L913 737L913 759L913 781L913 803L913 825L913 847L913 869L913 891L913 913" stroke="rgba(0, 199, 179, 0.11)" stroke-width="3.67"></path><path d="M907.5 913 a5.5 5.5 0 1 0 11 0 a5.5 5.5 0 1 0 -11 0zM907.5 539 a5.5 5.5 0 1 0 11 0 a5.5 5.5 0 1 0 -11 0zM885.5 847 a5.5 5.5 0 1 0 11 0 a5.5 5.5 0 1 0 -11 0zM907.5 517 a5.5 5.5 0 1 0 11 0 a5.5 5.5 0 1 0 -11 0zM863.5 913 a5.5 5.5 0 1 0 11 0 a5.5 5.5 0 1 0 -11 0zM885.5 1001 a5.5 5.5 0 1 0 11 0 a5.5 5.5 0 1 0 -11 0zM841.5 847 a5.5 5.5 0 1 0 11 0 a5.5 5.5 0 1 0 -11 0zM885.5 759 a5.5 5.5 0 1 0 11 0 a5.5 5.5 0 1 0 -11 0zM951.5 407 a5.5 5.5 0 1 0 11 0 a5.5 5.5 0 1 0 -11 0zM973.5 231 a5.5 5.5 0 1 0 11 0 a5.5 5.5 0 1 0 -11 0zM885.5 715 a5.5 5.5 0 1 0 11 0 a5.5 5.5 0 1 0 -11 0z" fill="rgba(0, 199, 179, 0.11)"></path><path d="M2453 99L2475 121L2497 143L2497 165L2497 187M2387 -11L2409 11L2431 33L2431 55L2453 77L2453 99L2453 121L2475 143" stroke="rgba(0, 199, 179, 0.11)" stroke-width="3.67"></path><path d="M2469.5 143 a5.5 5.5 0 1 0 11 0 a5.5 5.5 0 1 0 -11 0zM2491.5 187 a5.5 5.5 0 1 0 11 0 a5.5 5.5 0 1 0 -11 0z" fill="rgba(0, 199, 179, 0.11)"></path><path d="M1045 -11L1023 11L1001 33L1001 55L979 77L957 99L957 121L957 143L957 165L957 187L957 209L935 231L935 253L935 275L935 297L935 319L935 341L935 363" stroke="rgba(0, 199, 179, 0.11)" stroke-width="3.67"></path><path d="M929.5 363 a5.5 5.5 0 1 0 11 0 a5.5 5.5 0 1 0 -11 0z" fill="rgba(0, 199, 179, 0.11)"></path><path d="M2497 407L2519 429L2541 451L2541 473L2541 495L2541 517L2541 539L2541 561L2541 583L2541 605L2541 627L2563 649L2563 671L2563 693L2563 715L2563 737L2563 759M2519 319L2541 341L2541 363M2497 473L2519 495M2497 451L2519 473M2541 803L2563 825L2563 847L2563 869L2563 891M2497 99L2497 121M2519 253L2497 275L2497 297L2497 319L2497 341M2519 363L2497 385M2519 385L2519 407L2541 429M2541 781L2563 803M2409 -11L2431 11L2453 33L2453 55L2475 77L2497 99L2519 121L2519 143L2519 165L2519 187L2519 209L2519 231L2519 253L2519 275L2519 297L2519 319L2519 341L2519 363L2519 385L2497 407L2497 429L2497 451L2497 473L2497 495L2519 517L2519 539L2519 561L2519 583L2519 605L2519 627L2519 649L2519 671L2541 693L2541 715L2541 737L2541 759L2541 781L2541 803L2541 825L2541 847L2541 869L2541 891L2541 913" stroke="rgba(0, 199, 179, 0.11)" stroke-width="3.67"></path><path d="M2535.5 913 a5.5 5.5 0 1 0 11 0 a5.5 5.5 0 1 0 -11 0zM2557.5 759 a5.5 5.5 0 1 0 11 0 a5.5 5.5 0 1 0 -11 0zM2535.5 363 a5.5 5.5 0 1 0 11 0 a5.5 5.5 0 1 0 -11 0zM2513.5 495 a5.5 5.5 0 1 0 11 0 a5.5 5.5 0 1 0 -11 0zM2513.5 473 a5.5 5.5 0 1 0 11 0 a5.5 5.5 0 1 0 -11 0zM2557.5 891 a5.5 5.5 0 1 0 11 0 a5.5 5.5 0 1 0 -11 0zM2491.5 121 a5.5 5.5 0 1 0 11 0 a5.5 5.5 0 1 0 -11 0zM2491.5 341 a5.5 5.5 0 1 0 11 0 a5.5 5.5 0 1 0 -11 0zM2491.5 385 a5.5 5.5 0 1 0 11 0 a5.5 5.5 0 1 0 -11 0zM2535.5 429 a5.5 5.5 0 1 0 11 0 a5.5 5.5 0 1 0 -11 0zM2557.5 803 a5.5 5.5 0 1 0 11 0 a5.5 5.5 0 1 0 -11 0z" fill="rgba(0, 199, 179, 0.11)"></path><path d="M891 473L869 495L869 517M913 231L891 253M891 605L869 627L869 649L869 671L869 693M935 165L913 187M891 451L869 473M891 583L869 605M913 385L891 407L891 429L869 451M1023 -11L1001 11L979 33L979 55L957 77L935 99L935 121L935 143L935 165L935 187L935 209L913 231L913 253L913 275L913 297L913 319L913 341L913 363L913 385L913 407L913 429L891 451L891 473L891 495L891 517L891 539L891 561L891 583L891 605L891 627L891 649" stroke="rgba(0, 199, 179, 0.11)" stroke-width="3.67"></path><path d="M885.5 649 a5.5 5.5 0 1 0 11 0 a5.5 5.5 0 1 0 -11 0zM863.5 517 a5.5 5.5 0 1 0 11 0 a5.5 5.5 0 1 0 -11 0zM885.5 253 a5.5 5.5 0 1 0 11 0 a5.5 5.5 0 1 0 -11 0zM863.5 693 a5.5 5.5 0 1 0 11 0 a5.5 5.5 0 1 0 -11 0zM907.5 187 a5.5 5.5 0 1 0 11 0 a5.5 5.5 0 1 0 -11 0zM863.5 473 a5.5 5.5 0 1 0 11 0 a5.5 5.5 0 1 0 -11 0zM863.5 605 a5.5 5.5 0 1 0 11 0 a5.5 5.5 0 1 0 -11 0zM863.5 451 a5.5 5.5 0 1 0 11 0 a5.5 5.5 0 1 0 -11 0z" fill="rgba(0, 199, 179, 0.11)"></path><path d="M2541 121L2541 143L2541 165L2541 187M2563 231L2541 253L2541 275L2541 297M2431 -11L2453 11L2475 33L2475 55L2497 77L2519 99L2541 121L2563 143L2563 165L2563 187L2563 209L2563 231L2563 253L2563 275L2563 297" stroke="rgba(0, 199, 179, 0.11)" stroke-width="3.67"></path><path d="M2557.5 297 a5.5 5.5 0 1 0 11 0 a5.5 5.5 0 1 0 -11 0zM2535.5 187 a5.5 5.5 0 1 0 11 0 a5.5 5.5 0 1 0 -11 0zM2535.5 297 a5.5 5.5 0 1 0 11 0 a5.5 5.5 0 1 0 -11 0z" fill="rgba(0, 199, 179, 0.11)"></path><path d="M913 121L913 143L913 165M1001 -11L979 11L957 33L957 55L935 77L913 99L913 121L891 143L891 165L891 187L913 209" stroke="rgba(0, 199, 179, 0.11)" stroke-width="3.67"></path><path d="M907.5 209 a5.5 5.5 0 1 0 11 0 a5.5 5.5 0 1 0 -11 0zM907.5 165 a5.5 5.5 0 1 0 11 0 a5.5 5.5 0 1 0 -11 0z" fill="rgba(0, 199, 179, 0.11)"></path><path d="M2585 781L2607 803L2607 825L2607 847L2607 869M2585 671L2607 693L2607 715L2607 737M2585 759L2607 781L2629 803L2651 825L2651 847L2651 869L2651 891L2651 913L2651 935L2651 957L2651 979L2651 1001M2585 517L2607 539L2607 561L2607 583M2585 913L2563 935L2563 957L2563 979L2563 1001M2585 539L2563 561L2563 583L2563 605L2563 627M2585 605L2607 627L2629 649L2629 671M2585 363L2563 385L2563 407L2563 429M2585 407L2607 429L2607 451L2607 473L2607 495L2607 517M2585 649L2607 671M2585 935L2607 957L2607 979L2607 1001M2453 -11L2475 11L2497 33L2497 55L2519 77L2541 99L2563 121L2585 143L2585 165L2585 187L2585 209L2585 231L2585 253L2585 275L2585 297L2585 319L2585 341L2585 363L2585 385L2585 407L2585 429L2585 451L2585 473L2585 495L2585 517L2585 539L2585 561L2585 583L2585 605L2585 627L2585 649L2585 671L2585 693L2585 715L2585 737L2585 759L2585 781L2585 803L2585 825L2585 847L2585 869L2585 891L2585 913L2585 935L2585 957" stroke="rgba(0, 199, 179, 0.11)" stroke-width="3.67"></path><path d="M2579.5 957 a5.5 5.5 0 1 0 11 0 a5.5 5.5 0 1 0 -11 0zM2601.5 869 a5.5 5.5 0 1 0 11 0 a5.5 5.5 0 1 0 -11 0zM2601.5 737 a5.5 5.5 0 1 0 11 0 a5.5 5.5 0 1 0 -11 0zM2645.5 1001 a5.5 5.5 0 1 0 11 0 a5.5 5.5 0 1 0 -11 0zM2601.5 583 a5.5 5.5 0 1 0 11 0 a5.5 5.5 0 1 0 -11 0zM2557.5 1001 a5.5 5.5 0 1 0 11 0 a5.5 5.5 0 1 0 -11 0zM2557.5 627 a5.5 5.5 0 1 0 11 0 a5.5 5.5 0 1 0 -11 0zM2623.5 671 a5.5 5.5 0 1 0 11 0 a5.5 5.5 0 1 0 -11 0zM2557.5 429 a5.5 5.5 0 1 0 11 0 a5.5 5.5 0 1 0 -11 0zM2601.5 517 a5.5 5.5 0 1 0 11 0 a5.5 5.5 0 1 0 -11 0zM2601.5 671 a5.5 5.5 0 1 0 11 0 a5.5 5.5 0 1 0 -11 0zM2601.5 1001 a5.5 5.5 0 1 0 11 0 a5.5 5.5 0 1 0 -11 0z" fill="rgba(0, 199, 179, 0.11)"></path><path d="M825 583L847 605L847 627L847 649L847 671L847 693L847 715L847 737M847 363L869 385M847 253L869 275L869 297L869 319L869 341L869 363M847 495L847 517M825 561L847 583M847 407L869 429M847 231L869 253M825 539L847 561M979 -11L957 11L935 33L935 55L913 77L891 99L891 121L869 143L869 165L869 187L869 209L847 231L847 253L847 275L847 297L847 319L847 341L847 363L847 385L847 407L847 429L847 451L847 473L847 495L825 517L825 539L825 561L825 583L825 605L825 627L825 649L825 671" stroke="rgba(0, 199, 179, 0.11)" stroke-width="3.67"></path><path d="M819.5 671 a5.5 5.5 0 1 0 11 0 a5.5 5.5 0 1 0 -11 0zM841.5 737 a5.5 5.5 0 1 0 11 0 a5.5 5.5 0 1 0 -11 0zM863.5 385 a5.5 5.5 0 1 0 11 0 a5.5 5.5 0 1 0 -11 0zM863.5 363 a5.5 5.5 0 1 0 11 0 a5.5 5.5 0 1 0 -11 0zM841.5 517 a5.5 5.5 0 1 0 11 0 a5.5 5.5 0 1 0 -11 0zM841.5 583 a5.5 5.5 0 1 0 11 0 a5.5 5.5 0 1 0 -11 0zM863.5 429 a5.5 5.5 0 1 0 11 0 a5.5 5.5 0 1 0 -11 0zM863.5 253 a5.5 5.5 0 1 0 11 0 a5.5 5.5 0 1 0 -11 0zM841.5 561 a5.5 5.5 0 1 0 11 0 a5.5 5.5 0 1 0 -11 0z" fill="rgba(0, 199, 179, 0.11)"></path><path d="M803 847L781 869L781 891L781 913M825 429L803 451L781 473L781 495L781 517M803 671L781 693L781 715L781 737L781 759M803 715L825 737L825 759L825 781M825 385L803 407M803 869L825 891L825 913L825 935L825 957L825 979L803 1001M825 451L825 473M803 539L781 561L781 583L781 605L781 627M803 693L825 715M803 803L781 825L781 847L759 869L759 891M957 -11L935 11L913 33L913 55L891 77L869 99L869 121L847 143L847 165L847 187L847 209L825 231L825 253L825 275L825 297L825 319L825 341L825 363L825 385L825 407L825 429L825 451L803 473L803 495L803 517L803 539L803 561L803 583L803 605L803 627L803 649L803 671L803 693L803 715L803 737L803 759L803 781L803 803L803 825L803 847L803 869L803 891L803 913" stroke="rgba(0, 199, 179, 0.11)" stroke-width="3.67"></path><path d="M797.5 913 a5.5 5.5 0 1 0 11 0 a5.5 5.5 0 1 0 -11 0zM775.5 913 a5.5 5.5 0 1 0 11 0 a5.5 5.5 0 1 0 -11 0zM775.5 517 a5.5 5.5 0 1 0 11 0 a5.5 5.5 0 1 0 -11 0zM775.5 759 a5.5 5.5 0 1 0 11 0 a5.5 5.5 0 1 0 -11 0zM819.5 781 a5.5 5.5 0 1 0 11 0 a5.5 5.5 0 1 0 -11 0zM797.5 407 a5.5 5.5 0 1 0 11 0 a5.5 5.5 0 1 0 -11 0zM797.5 1001 a5.5 5.5 0 1 0 11 0 a5.5 5.5 0 1 0 -11 0zM819.5 473 a5.5 5.5 0 1 0 11 0 a5.5 5.5 0 1 0 -11 0zM775.5 627 a5.5 5.5 0 1 0 11 0 a5.5 5.5 0 1 0 -11 0zM819.5 715 a5.5 5.5 0 1 0 11 0 a5.5 5.5 0 1 0 -11 0zM753.5 891 a5.5 5.5 0 1 0 11 0 a5.5 5.5 0 1 0 -11 0z" fill="rgba(0, 199, 179, 0.11)"></path><path d="M2497 -11L2497 11L2519 33L2519 55L2541 77" stroke="rgba(0, 199, 179, 0.11)" stroke-width="3.67"></path><path d="M2535.5 77 a5.5 5.5 0 1 0 11 0 a5.5 5.5 0 1 0 -11 0z" fill="rgba(0, 199, 179, 0.11)"></path><path d="M935 -11L913 11L891 33L891 55L869 77" stroke="rgba(0, 199, 179, 0.11)" stroke-width="3.67"></path><path d="M863.5 77 a5.5 5.5 0 1 0 11 0 a5.5 5.5 0 1 0 -11 0z" fill="rgba(0, 199, 179, 0.11)"></path><path d="M2629 341L2607 363L2607 385L2607 407M2607 297L2607 319L2607 341M2519 -11L2519 11L2541 33L2541 55L2563 77L2563 99L2585 121L2607 143L2607 165L2607 187L2607 209L2607 231L2607 253L2607 275L2607 297L2629 319L2629 341L2629 363L2629 385L2629 407L2629 429L2629 451L2629 473L2629 495" stroke="rgba(0, 199, 179, 0.11)" stroke-width="3.67"></path><path d="M2623.5 495 a5.5 5.5 0 1 0 11 0 a5.5 5.5 0 1 0 -11 0zM2601.5 407 a5.5 5.5 0 1 0 11 0 a5.5 5.5 0 1 0 -11 0zM2601.5 341 a5.5 5.5 0 1 0 11 0 a5.5 5.5 0 1 0 -11 0z" fill="rgba(0, 199, 179, 0.11)"></path><path d="M759 407L781 429M913 -11L891 11L869 33L869 55L847 77L847 99L847 121L825 143L825 165L825 187L825 209L803 231L803 253L803 275L803 297L803 319L803 341L781 363L781 385L759 407L759 429L759 451L759 473L759 495L759 517L759 539L759 561L759 583L759 605L759 627L759 649" stroke="rgba(0, 199, 179, 0.11)" stroke-width="3.67"></path><path d="M753.5 649 a5.5 5.5 0 1 0 11 0 a5.5 5.5 0 1 0 -11 0zM775.5 429 a5.5 5.5 0 1 0 11 0 a5.5 5.5 0 1 0 -11 0z" fill="rgba(0, 199, 179, 0.11)"></path><path d="M2739 957L2717 979L2717 1001M2739 759L2717 781L2717 803L2717 825L2717 847L2717 869L2717 891L2717 913M2739 803L2761 825L2761 847L2761 869L2761 891L2761 913L2761 935L2783 957M2739 781L2761 803M2717 693L2717 715L2717 737M2695 627L2673 649L2673 671L2673 693M2739 935L2717 957L2695 979L2695 1001M2673 517L2651 539L2629 561M2651 451L2673 473L2673 495M2651 495L2651 517M2629 275L2651 297M2541 -11L2541 11L2563 33L2563 55L2585 77L2585 99L2607 121L2629 143L2629 165L2629 187L2629 209L2629 231L2629 253L2629 275L2629 297L2651 319L2651 341L2651 363L2651 385L2651 407L2651 429L2651 451L2651 473L2651 495L2673 517L2673 539L2673 561L2673 583L2673 605L2695 627L2695 649L2695 671L2717 693L2739 715L2739 737L2739 759L2739 781L2739 803L2739 825L2739 847L2739 869L2739 891L2739 913L2739 935L2739 957L2739 979" stroke="rgba(0, 199, 179, 0.11)" stroke-width="3.67"></path><path d="M2733.5 979 a5.5 5.5 0 1 0 11 0 a5.5 5.5 0 1 0 -11 0zM2711.5 1001 a5.5 5.5 0 1 0 11 0 a5.5 5.5 0 1 0 -11 0zM2711.5 913 a5.5 5.5 0 1 0 11 0 a5.5 5.5 0 1 0 -11 0zM2777.5 957 a5.5 5.5 0 1 0 11 0 a5.5 5.5 0 1 0 -11 0zM2755.5 803 a5.5 5.5 0 1 0 11 0 a5.5 5.5 0 1 0 -11 0zM2711.5 737 a5.5 5.5 0 1 0 11 0 a5.5 5.5 0 1 0 -11 0zM2667.5 693 a5.5 5.5 0 1 0 11 0 a5.5 5.5 0 1 0 -11 0zM2689.5 1001 a5.5 5.5 0 1 0 11 0 a5.5 5.5 0 1 0 -11 0zM2623.5 561 a5.5 5.5 0 1 0 11 0 a5.5 5.5 0 1 0 -11 0zM2667.5 495 a5.5 5.5 0 1 0 11 0 a5.5 5.5 0 1 0 -11 0zM2645.5 517 a5.5 5.5 0 1 0 11 0 a5.5 5.5 0 1 0 -11 0zM2645.5 297 a5.5 5.5 0 1 0 11 0 a5.5 5.5 0 1 0 -11 0z" fill="rgba(0, 199, 179, 0.11)"></path><path d="M737 407L715 429M781 275L759 297L759 319L759 341M759 363L737 385L715 407L693 429L693 451L693 473L693 495L693 517M737 561L715 583L715 605L715 627L715 649L715 671L715 693M803 187L781 209L759 231L759 253L759 275L737 297L737 319L737 341L737 363L715 385L693 407M825 77L803 99M737 495L715 517L693 539L693 561L693 583L693 605L693 627L693 649M803 143L781 165M891 -11L869 11L847 33L847 55L825 77L825 99L825 121L803 143L803 165L803 187L803 209L781 231L781 253L781 275L781 297L781 319L781 341L759 363L759 385L737 407L737 429L737 451L737 473L737 495L737 517L737 539L737 561L737 583L737 605L737 627L737 649L737 671" stroke="rgba(0, 199, 179, 0.11)" stroke-width="3.67"></path><path d="M731.5 671 a5.5 5.5 0 1 0 11 0 a5.5 5.5 0 1 0 -11 0zM709.5 429 a5.5 5.5 0 1 0 11 0 a5.5 5.5 0 1 0 -11 0zM753.5 341 a5.5 5.5 0 1 0 11 0 a5.5 5.5 0 1 0 -11 0zM687.5 517 a5.5 5.5 0 1 0 11 0 a5.5 5.5 0 1 0 -11 0zM709.5 693 a5.5 5.5 0 1 0 11 0 a5.5 5.5 0 1 0 -11 0zM687.5 407 a5.5 5.5 0 1 0 11 0 a5.5 5.5 0 1 0 -11 0zM797.5 99 a5.5 5.5 0 1 0 11 0 a5.5 5.5 0 1 0 -11 0zM687.5 649 a5.5 5.5 0 1 0 11 0 a5.5 5.5 0 1 0 -11 0zM775.5 165 a5.5 5.5 0 1 0 11 0 a5.5 5.5 0 1 0 -11 0z" fill="rgba(0, 199, 179, 0.11)"></path><path d="M2827 979L2849 1001M2673 341L2695 363L2695 385L2695 407L2695 429L2717 451L2717 473L2717 495L2717 517L2717 539L2717 561L2717 583L2717 605M2673 297L2695 319M2805 913L2827 935L2827 957L2849 979M2673 429L2673 451M2673 275L2695 297M2717 627L2739 649L2739 671L2761 693M2651 187L2673 209M2805 957L2805 979L2805 1001M2651 253L2651 275M2761 715L2783 737L2783 759L2805 781L2805 803L2805 825L2805 847L2805 869M2563 -11L2563 11L2585 33L2585 55L2607 77L2607 99L2629 121L2651 143L2651 165L2651 187L2651 209L2651 231L2651 253L2673 275L2673 297L2673 319L2673 341L2673 363L2673 385L2673 407L2673 429L2695 451L2695 473L2695 495L2695 517L2695 539L2695 561L2695 583L2695 605L2717 627L2717 649L2717 671L2739 693L2761 715L2761 737L2761 759L2783 781L2783 803L2783 825L2783 847L2783 869L2805 891L2805 913L2805 935L2805 957L2827 979L2827 1001" stroke="rgba(0, 199, 179, 0.11)" stroke-width="3.67"></path><path d="M2821.5 1001 a5.5 5.5 0 1 0 11 0 a5.5 5.5 0 1 0 -11 0zM2843.5 1001 a5.5 5.5 0 1 0 11 0 a5.5 5.5 0 1 0 -11 0zM2711.5 605 a5.5 5.5 0 1 0 11 0 a5.5 5.5 0 1 0 -11 0zM2689.5 319 a5.5 5.5 0 1 0 11 0 a5.5 5.5 0 1 0 -11 0zM2843.5 979 a5.5 5.5 0 1 0 11 0 a5.5 5.5 0 1 0 -11 0zM2667.5 451 a5.5 5.5 0 1 0 11 0 a5.5 5.5 0 1 0 -11 0zM2689.5 297 a5.5 5.5 0 1 0 11 0 a5.5 5.5 0 1 0 -11 0zM2755.5 693 a5.5 5.5 0 1 0 11 0 a5.5 5.5 0 1 0 -11 0zM2667.5 209 a5.5 5.5 0 1 0 11 0 a5.5 5.5 0 1 0 -11 0zM2799.5 1001 a5.5 5.5 0 1 0 11 0 a5.5 5.5 0 1 0 -11 0zM2645.5 275 a5.5 5.5 0 1 0 11 0 a5.5 5.5 0 1 0 -11 0zM2799.5 869 a5.5 5.5 0 1 0 11 0 a5.5 5.5 0 1 0 -11 0z" fill="rgba(0, 199, 179, 0.11)"></path><path d="M825 33L803 55L803 77M869 -11L847 11L825 33L825 55" stroke="rgba(0, 199, 179, 0.11)" stroke-width="3.67"></path><path d="M819.5 55 a5.5 5.5 0 1 0 11 0 a5.5 5.5 0 1 0 -11 0zM797.5 77 a5.5 5.5 0 1 0 11 0 a5.5 5.5 0 1 0 -11 0z" fill="rgba(0, 199, 179, 0.11)"></path></g></g><defs><mask id="SvgjsMask1408"><rect width="3440" height="2560" fill="#ffffff"></rect></mask><mask id="SvgjsMask1409"><rect width="3440" height="2560" fill="white"></rect><path d="M1790.25 825 a2.75 2.75 0 1 0 5.5 0 a2.75 2.75 0 1 0 -5.5 0zM1724.25 693 a2.75 2.75 0 1 0 5.5 0 a2.75 2.75 0 1 0 -5.5 0zM1724.25 847 a2.75 2.75 0 1 0 5.5 0 a2.75 2.75 0 1 0 -5.5 0zM1746.25 517 a2.75 2.75 0 1 0 5.5 0 a2.75 2.75 0 1 0 -5.5 0zM1746.25 385 a2.75 2.75 0 1 0 5.5 0 a2.75 2.75 0 1 0 -5.5 0zM1746.25 473 a2.75 2.75 0 1 0 5.5 0 a2.75 2.75 0 1 0 -5.5 0zM1746.25 737 a2.75 2.75 0 1 0 5.5 0 a2.75 2.75 0 1 0 -5.5 0zM1768.25 253 a2.75 2.75 0 1 0 5.5 0 a2.75 2.75 0 1 0 -5.5 0zM1768.25 649 a2.75 2.75 0 1 0 5.5 0 a2.75 2.75 0 1 0 -5.5 0zM1724.25 253 a2.75 2.75 0 1 0 5.5 0 a2.75 2.75 0 1 0 -5.5 0z" fill="black"></path><path d="M1702.25 517 a2.75 2.75 0 1 0 5.5 0 a2.75 2.75 0 1 0 -5.5 0zM1658.25 473 a2.75 2.75 0 1 0 5.5 0 a2.75 2.75 0 1 0 -5.5 0zM1680.25 121 a2.75 2.75 0 1 0 5.5 0 a2.75 2.75 0 1 0 -5.5 0zM1636.25 407 a2.75 2.75 0 1 0 5.5 0 a2.75 2.75 0 1 0 -5.5 0zM1680.25 165 a2.75 2.75 0 1 0 5.5 0 a2.75 2.75 0 1 0 -5.5 0zM1614.25 385 a2.75 2.75 0 1 0 5.5 0 a2.75 2.75 0 1 0 -5.5 0zM1680.25 495 a2.75 2.75 0 1 0 5.5 0 a2.75 2.75 0 1 0 -5.5 0z" fill="black"></path><path d="M1746.25 143 a2.75 2.75 0 1 0 5.5 0 a2.75 2.75 0 1 0 -5.5 0zM1768.25 99 a2.75 2.75 0 1 0 5.5 0 a2.75 2.75 0 1 0 -5.5 0zM1768.25 77 a2.75 2.75 0 1 0 5.5 0 a2.75 2.75 0 1 0 -5.5 0zM1768.25 187 a2.75 2.75 0 1 0 5.5 0 a2.75 2.75 0 1 0 -5.5 0z" fill="black"></path><path d="M1614.25 231 a2.75 2.75 0 1 0 5.5 0 a2.75 2.75 0 1 0 -5.5 0zM1636.25 297 a2.75 2.75 0 1 0 5.5 0 a2.75 2.75 0 1 0 -5.5 0zM1680.25 77 a2.75 2.75 0 1 0 5.5 0 a2.75 2.75 0 1 0 -5.5 0zM1658.25 253 a2.75 2.75 0 1 0 5.5 0 a2.75 2.75 0 1 0 -5.5 0z" fill="black"></path><path d="M1790.25 341 a2.75 2.75 0 1 0 5.5 0 a2.75 2.75 0 1 0 -5.5 0zM1812.25 209 a2.75 2.75 0 1 0 5.5 0 a2.75 2.75 0 1 0 -5.5 0zM1768.25 55 a2.75 2.75 0 1 0 5.5 0 a2.75 2.75 0 1 0 -5.5 0zM1812.25 297 a2.75 2.75 0 1 0 5.5 0 a2.75 2.75 0 1 0 -5.5 0zM1768.25 319 a2.75 2.75 0 1 0 5.5 0 a2.75 2.75 0 1 0 -5.5 0z" fill="black"></path><path d="M1636.25 99 a2.75 2.75 0 1 0 5.5 0 a2.75 2.75 0 1 0 -5.5 0z" fill="black"></path><path d="M1878.25 1001 a2.75 2.75 0 1 0 5.5 0 a2.75 2.75 0 1 0 -5.5 0zM1834.25 429 a2.75 2.75 0 1 0 5.5 0 a2.75 2.75 0 1 0 -5.5 0zM1790.25 671 a2.75 2.75 0 1 0 5.5 0 a2.75 2.75 0 1 0 -5.5 0zM1834.25 297 a2.75 2.75 0 1 0 5.5 0 a2.75 2.75 0 1 0 -5.5 0zM1834.25 1001 a2.75 2.75 0 1 0 5.5 0 a2.75 2.75 0 1 0 -5.5 0zM1768.25 605 a2.75 2.75 0 1 0 5.5 0 a2.75 2.75 0 1 0 -5.5 0zM1900.25 1001 a2.75 2.75 0 1 0 5.5 0 a2.75 2.75 0 1 0 -5.5 0zM1812.25 759 a2.75 2.75 0 1 0 5.5 0 a2.75 2.75 0 1 0 -5.5 0zM1922.25 1001 a2.75 2.75 0 1 0 5.5 0 a2.75 2.75 0 1 0 -5.5 0zM1812.25 869 a2.75 2.75 0 1 0 5.5 0 a2.75 2.75 0 1 0 -5.5 0zM1812.25 165 a2.75 2.75 0 1 0 5.5 0 a2.75 2.75 0 1 0 -5.5 0zM1790.25 979 a2.75 2.75 0 1 0 5.5 0 a2.75 2.75 0 1 0 -5.5 0z" fill="black"></path><path d="M1592.25 253 a2.75 2.75 0 1 0 5.5 0 a2.75 2.75 0 1 0 -5.5 0z" fill="black"></path><path d="M1834.25 737 a2.75 2.75 0 1 0 5.5 0 a2.75 2.75 0 1 0 -5.5 0zM1856.25 693 a2.75 2.75 0 1 0 5.5 0 a2.75 2.75 0 1 0 -5.5 0zM1856.25 121 a2.75 2.75 0 1 0 5.5 0 a2.75 2.75 0 1 0 -5.5 0zM1900.25 451 a2.75 2.75 0 1 0 5.5 0 a2.75 2.75 0 1 0 -5.5 0zM1878.25 275 a2.75 2.75 0 1 0 5.5 0 a2.75 2.75 0 1 0 -5.5 0zM1900.25 407 a2.75 2.75 0 1 0 5.5 0 a2.75 2.75 0 1 0 -5.5 0zM1878.25 649 a2.75 2.75 0 1 0 5.5 0 a2.75 2.75 0 1 0 -5.5 0zM1856.25 55 a2.75 2.75 0 1 0 5.5 0 a2.75 2.75 0 1 0 -5.5 0zM1900.25 693 a2.75 2.75 0 1 0 5.5 0 a2.75 2.75 0 1 0 -5.5 0z" fill="black"></path><path d="M1548.25 847 a2.75 2.75 0 1 0 5.5 0 a2.75 2.75 0 1 0 -5.5 0zM1614.25 605 a2.75 2.75 0 1 0 5.5 0 a2.75 2.75 0 1 0 -5.5 0zM1548.25 473 a2.75 2.75 0 1 0 5.5 0 a2.75 2.75 0 1 0 -5.5 0zM1504.25 891 a2.75 2.75 0 1 0 5.5 0 a2.75 2.75 0 1 0 -5.5 0zM1482.25 891 a2.75 2.75 0 1 0 5.5 0 a2.75 2.75 0 1 0 -5.5 0zM1636.25 473 a2.75 2.75 0 1 0 5.5 0 a2.75 2.75 0 1 0 -5.5 0zM1570.25 99 a2.75 2.75 0 1 0 5.5 0 a2.75 2.75 0 1 0 -5.5 0zM1592.25 957 a2.75 2.75 0 1 0 5.5 0 a2.75 2.75 0 1 0 -5.5 0zM1504.25 627 a2.75 2.75 0 1 0 5.5 0 a2.75 2.75 0 1 0 -5.5 0zM1592.25 759 a2.75 2.75 0 1 0 5.5 0 a2.75 2.75 0 1 0 -5.5 0zM1614.25 781 a2.75 2.75 0 1 0 5.5 0 a2.75 2.75 0 1 0 -5.5 0z" fill="black"></path><path d="M1922.25 583 a2.75 2.75 0 1 0 5.5 0 a2.75 2.75 0 1 0 -5.5 0zM1878.25 253 a2.75 2.75 0 1 0 5.5 0 a2.75 2.75 0 1 0 -5.5 0zM1900.25 231 a2.75 2.75 0 1 0 5.5 0 a2.75 2.75 0 1 0 -5.5 0zM1900.25 385 a2.75 2.75 0 1 0 5.5 0 a2.75 2.75 0 1 0 -5.5 0zM1922.25 649 a2.75 2.75 0 1 0 5.5 0 a2.75 2.75 0 1 0 -5.5 0zM1900.25 539 a2.75 2.75 0 1 0 5.5 0 a2.75 2.75 0 1 0 -5.5 0zM1856.25 33 a2.75 2.75 0 1 0 5.5 0 a2.75 2.75 0 1 0 -5.5 0zM1900.25 341 a2.75 2.75 0 1 0 5.5 0 a2.75 2.75 0 1 0 -5.5 0z" fill="black"></path><path d="M1570.25 33 a2.75 2.75 0 1 0 5.5 0 a2.75 2.75 0 1 0 -5.5 0z" fill="black"></path><path d="M1900.25 121 a2.75 2.75 0 1 0 5.5 0 a2.75 2.75 0 1 0 -5.5 0z" fill="black"></path><path d="M1548.25 209 a2.75 2.75 0 1 0 5.5 0 a2.75 2.75 0 1 0 -5.5 0zM1526.25 165 a2.75 2.75 0 1 0 5.5 0 a2.75 2.75 0 1 0 -5.5 0zM1526.25 99 a2.75 2.75 0 1 0 5.5 0 a2.75 2.75 0 1 0 -5.5 0zM1570.25 143 a2.75 2.75 0 1 0 5.5 0 a2.75 2.75 0 1 0 -5.5 0z" fill="black"></path><path d="M1944.25 891 a2.75 2.75 0 1 0 5.5 0 a2.75 2.75 0 1 0 -5.5 0zM1944.25 165 a2.75 2.75 0 1 0 5.5 0 a2.75 2.75 0 1 0 -5.5 0zM1966.25 583 a2.75 2.75 0 1 0 5.5 0 a2.75 2.75 0 1 0 -5.5 0zM1988.25 737 a2.75 2.75 0 1 0 5.5 0 a2.75 2.75 0 1 0 -5.5 0zM1966.25 451 a2.75 2.75 0 1 0 5.5 0 a2.75 2.75 0 1 0 -5.5 0zM1922.25 913 a2.75 2.75 0 1 0 5.5 0 a2.75 2.75 0 1 0 -5.5 0zM2010.25 869 a2.75 2.75 0 1 0 5.5 0 a2.75 2.75 0 1 0 -5.5 0zM1966.25 869 a2.75 2.75 0 1 0 5.5 0 a2.75 2.75 0 1 0 -5.5 0zM1988.25 891 a2.75 2.75 0 1 0 5.5 0 a2.75 2.75 0 1 0 -5.5 0zM1988.25 825 a2.75 2.75 0 1 0 5.5 0 a2.75 2.75 0 1 0 -5.5 0zM1966.25 737 a2.75 2.75 0 1 0 5.5 0 a2.75 2.75 0 1 0 -5.5 0z" fill="black"></path><path d="M1482.25 693 a2.75 2.75 0 1 0 5.5 0 a2.75 2.75 0 1 0 -5.5 0zM1460.25 605 a2.75 2.75 0 1 0 5.5 0 a2.75 2.75 0 1 0 -5.5 0zM1482.25 363 a2.75 2.75 0 1 0 5.5 0 a2.75 2.75 0 1 0 -5.5 0zM1526.25 561 a2.75 2.75 0 1 0 5.5 0 a2.75 2.75 0 1 0 -5.5 0zM1526.25 539 a2.75 2.75 0 1 0 5.5 0 a2.75 2.75 0 1 0 -5.5 0zM1460.25 737 a2.75 2.75 0 1 0 5.5 0 a2.75 2.75 0 1 0 -5.5 0zM1460.25 671 a2.75 2.75 0 1 0 5.5 0 a2.75 2.75 0 1 0 -5.5 0zM1526.25 517 a2.75 2.75 0 1 0 5.5 0 a2.75 2.75 0 1 0 -5.5 0zM1526.25 363 a2.75 2.75 0 1 0 5.5 0 a2.75 2.75 0 1 0 -5.5 0z" fill="black"></path><path d="M1988.25 495 a2.75 2.75 0 1 0 5.5 0 a2.75 2.75 0 1 0 -5.5 0zM1988.25 385 a2.75 2.75 0 1 0 5.5 0 a2.75 2.75 0 1 0 -5.5 0zM2032.25 561 a2.75 2.75 0 1 0 5.5 0 a2.75 2.75 0 1 0 -5.5 0zM1966.25 429 a2.75 2.75 0 1 0 5.5 0 a2.75 2.75 0 1 0 -5.5 0zM1966.25 275 a2.75 2.75 0 1 0 5.5 0 a2.75 2.75 0 1 0 -5.5 0zM2010.25 407 a2.75 2.75 0 1 0 5.5 0 a2.75 2.75 0 1 0 -5.5 0zM1944.25 121 a2.75 2.75 0 1 0 5.5 0 a2.75 2.75 0 1 0 -5.5 0z" fill="black"></path><path d="M1460.25 407 a2.75 2.75 0 1 0 5.5 0 a2.75 2.75 0 1 0 -5.5 0zM1438.25 517 a2.75 2.75 0 1 0 5.5 0 a2.75 2.75 0 1 0 -5.5 0zM1460.25 187 a2.75 2.75 0 1 0 5.5 0 a2.75 2.75 0 1 0 -5.5 0zM1438.25 341 a2.75 2.75 0 1 0 5.5 0 a2.75 2.75 0 1 0 -5.5 0zM1438.25 319 a2.75 2.75 0 1 0 5.5 0 a2.75 2.75 0 1 0 -5.5 0zM1438.25 297 a2.75 2.75 0 1 0 5.5 0 a2.75 2.75 0 1 0 -5.5 0z" fill="black"></path><path d="M2032.25 407 a2.75 2.75 0 1 0 5.5 0 a2.75 2.75 0 1 0 -5.5 0zM2010.25 319 a2.75 2.75 0 1 0 5.5 0 a2.75 2.75 0 1 0 -5.5 0zM2054.25 363 a2.75 2.75 0 1 0 5.5 0 a2.75 2.75 0 1 0 -5.5 0zM1966.25 253 a2.75 2.75 0 1 0 5.5 0 a2.75 2.75 0 1 0 -5.5 0zM2054.25 341 a2.75 2.75 0 1 0 5.5 0 a2.75 2.75 0 1 0 -5.5 0zM2054.25 429 a2.75 2.75 0 1 0 5.5 0 a2.75 2.75 0 1 0 -5.5 0z" fill="black"></path><path d="M1460.25 143 a2.75 2.75 0 1 0 5.5 0 a2.75 2.75 0 1 0 -5.5 0zM1438.25 121 a2.75 2.75 0 1 0 5.5 0 a2.75 2.75 0 1 0 -5.5 0z" fill="black"></path><path d="M2032.25 275 a2.75 2.75 0 1 0 5.5 0 a2.75 2.75 0 1 0 -5.5 0z" fill="black"></path><path d="M1394.25 957 a2.75 2.75 0 1 0 5.5 0 a2.75 2.75 0 1 0 -5.5 0zM1372.25 539 a2.75 2.75 0 1 0 5.5 0 a2.75 2.75 0 1 0 -5.5 0zM1394.25 869 a2.75 2.75 0 1 0 5.5 0 a2.75 2.75 0 1 0 -5.5 0zM1394.25 275 a2.75 2.75 0 1 0 5.5 0 a2.75 2.75 0 1 0 -5.5 0zM1372.25 957 a2.75 2.75 0 1 0 5.5 0 a2.75 2.75 0 1 0 -5.5 0zM1416.25 1001 a2.75 2.75 0 1 0 5.5 0 a2.75 2.75 0 1 0 -5.5 0zM1328.25 1001 a2.75 2.75 0 1 0 5.5 0 a2.75 2.75 0 1 0 -5.5 0zM1350.25 825 a2.75 2.75 0 1 0 5.5 0 a2.75 2.75 0 1 0 -5.5 0zM1438.25 275 a2.75 2.75 0 1 0 5.5 0 a2.75 2.75 0 1 0 -5.5 0zM1394.25 649 a2.75 2.75 0 1 0 5.5 0 a2.75 2.75 0 1 0 -5.5 0zM1438.25 605 a2.75 2.75 0 1 0 5.5 0 a2.75 2.75 0 1 0 -5.5 0zM1372.25 473 a2.75 2.75 0 1 0 5.5 0 a2.75 2.75 0 1 0 -5.5 0z" fill="black"></path><path d="M2054.25 297 a2.75 2.75 0 1 0 5.5 0 a2.75 2.75 0 1 0 -5.5 0z" fill="black"></path><path d="M1416.25 187 a2.75 2.75 0 1 0 5.5 0 a2.75 2.75 0 1 0 -5.5 0zM1394.25 231 a2.75 2.75 0 1 0 5.5 0 a2.75 2.75 0 1 0 -5.5 0zM1394.25 143 a2.75 2.75 0 1 0 5.5 0 a2.75 2.75 0 1 0 -5.5 0z" fill="black"></path><path d="M2054.25 781 a2.75 2.75 0 1 0 5.5 0 a2.75 2.75 0 1 0 -5.5 0zM2054.25 517 a2.75 2.75 0 1 0 5.5 0 a2.75 2.75 0 1 0 -5.5 0zM2076.25 715 a2.75 2.75 0 1 0 5.5 0 a2.75 2.75 0 1 0 -5.5 0zM2032.25 737 a2.75 2.75 0 1 0 5.5 0 a2.75 2.75 0 1 0 -5.5 0zM2032.25 781 a2.75 2.75 0 1 0 5.5 0 a2.75 2.75 0 1 0 -5.5 0zM2076.25 209 a2.75 2.75 0 1 0 5.5 0 a2.75 2.75 0 1 0 -5.5 0zM2054.25 495 a2.75 2.75 0 1 0 5.5 0 a2.75 2.75 0 1 0 -5.5 0zM2076.25 187 a2.75 2.75 0 1 0 5.5 0 a2.75 2.75 0 1 0 -5.5 0zM2076.25 561 a2.75 2.75 0 1 0 5.5 0 a2.75 2.75 0 1 0 -5.5 0zM2076.25 385 a2.75 2.75 0 1 0 5.5 0 a2.75 2.75 0 1 0 -5.5 0z" fill="black"></path><path d="M1372.25 561 a2.75 2.75 0 1 0 5.5 0 a2.75 2.75 0 1 0 -5.5 0zM1372.25 407 a2.75 2.75 0 1 0 5.5 0 a2.75 2.75 0 1 0 -5.5 0zM1372.25 385 a2.75 2.75 0 1 0 5.5 0 a2.75 2.75 0 1 0 -5.5 0zM1372.25 363 a2.75 2.75 0 1 0 5.5 0 a2.75 2.75 0 1 0 -5.5 0zM1350.25 627 a2.75 2.75 0 1 0 5.5 0 a2.75 2.75 0 1 0 -5.5 0z" fill="black"></path><path d="M2076.25 869 a2.75 2.75 0 1 0 5.5 0 a2.75 2.75 0 1 0 -5.5 0zM2164.25 671 a2.75 2.75 0 1 0 5.5 0 a2.75 2.75 0 1 0 -5.5 0zM2054.25 825 a2.75 2.75 0 1 0 5.5 0 a2.75 2.75 0 1 0 -5.5 0zM2076.25 1001 a2.75 2.75 0 1 0 5.5 0 a2.75 2.75 0 1 0 -5.5 0zM2164.25 605 a2.75 2.75 0 1 0 5.5 0 a2.75 2.75 0 1 0 -5.5 0zM2120.25 451 a2.75 2.75 0 1 0 5.5 0 a2.75 2.75 0 1 0 -5.5 0zM2098.25 693 a2.75 2.75 0 1 0 5.5 0 a2.75 2.75 0 1 0 -5.5 0zM2164.25 715 a2.75 2.75 0 1 0 5.5 0 a2.75 2.75 0 1 0 -5.5 0zM2098.25 1001 a2.75 2.75 0 1 0 5.5 0 a2.75 2.75 0 1 0 -5.5 0zM2142.25 891 a2.75 2.75 0 1 0 5.5 0 a2.75 2.75 0 1 0 -5.5 0zM2098.25 825 a2.75 2.75 0 1 0 5.5 0 a2.75 2.75 0 1 0 -5.5 0z" fill="black"></path><path d="M1328.25 869 a2.75 2.75 0 1 0 5.5 0 a2.75 2.75 0 1 0 -5.5 0zM1328.25 627 a2.75 2.75 0 1 0 5.5 0 a2.75 2.75 0 1 0 -5.5 0zM1284.25 583 a2.75 2.75 0 1 0 5.5 0 a2.75 2.75 0 1 0 -5.5 0zM1306.25 693 a2.75 2.75 0 1 0 5.5 0 a2.75 2.75 0 1 0 -5.5 0zM1306.25 869 a2.75 2.75 0 1 0 5.5 0 a2.75 2.75 0 1 0 -5.5 0zM1306.25 737 a2.75 2.75 0 1 0 5.5 0 a2.75 2.75 0 1 0 -5.5 0zM1284.25 847 a2.75 2.75 0 1 0 5.5 0 a2.75 2.75 0 1 0 -5.5 0zM1328.25 561 a2.75 2.75 0 1 0 5.5 0 a2.75 2.75 0 1 0 -5.5 0zM1306.25 495 a2.75 2.75 0 1 0 5.5 0 a2.75 2.75 0 1 0 -5.5 0zM1350.25 693 a2.75 2.75 0 1 0 5.5 0 a2.75 2.75 0 1 0 -5.5 0z" fill="black"></path><path d="M2076.25 33 a2.75 2.75 0 1 0 5.5 0 a2.75 2.75 0 1 0 -5.5 0z" fill="black"></path><path d="M1306.25 429 a2.75 2.75 0 1 0 5.5 0 a2.75 2.75 0 1 0 -5.5 0zM1284.25 473 a2.75 2.75 0 1 0 5.5 0 a2.75 2.75 0 1 0 -5.5 0zM1306.25 253 a2.75 2.75 0 1 0 5.5 0 a2.75 2.75 0 1 0 -5.5 0zM1284.25 385 a2.75 2.75 0 1 0 5.5 0 a2.75 2.75 0 1 0 -5.5 0z" fill="black"></path><path d="M2120.25 275 a2.75 2.75 0 1 0 5.5 0 a2.75 2.75 0 1 0 -5.5 0z" fill="black"></path><path d="M1306.25 187 a2.75 2.75 0 1 0 5.5 0 a2.75 2.75 0 1 0 -5.5 0z" fill="black"></path><path d="M2186.25 473 a2.75 2.75 0 1 0 5.5 0 a2.75 2.75 0 1 0 -5.5 0zM2142.25 517 a2.75 2.75 0 1 0 5.5 0 a2.75 2.75 0 1 0 -5.5 0zM2186.25 539 a2.75 2.75 0 1 0 5.5 0 a2.75 2.75 0 1 0 -5.5 0zM2142.25 451 a2.75 2.75 0 1 0 5.5 0 a2.75 2.75 0 1 0 -5.5 0zM2164.25 429 a2.75 2.75 0 1 0 5.5 0 a2.75 2.75 0 1 0 -5.5 0zM2120.25 143 a2.75 2.75 0 1 0 5.5 0 a2.75 2.75 0 1 0 -5.5 0z" fill="black"></path><path d="M1262.25 825 a2.75 2.75 0 1 0 5.5 0 a2.75 2.75 0 1 0 -5.5 0zM1240.25 781 a2.75 2.75 0 1 0 5.5 0 a2.75 2.75 0 1 0 -5.5 0zM1262.25 671 a2.75 2.75 0 1 0 5.5 0 a2.75 2.75 0 1 0 -5.5 0zM1240.25 737 a2.75 2.75 0 1 0 5.5 0 a2.75 2.75 0 1 0 -5.5 0zM1240.25 363 a2.75 2.75 0 1 0 5.5 0 a2.75 2.75 0 1 0 -5.5 0zM1240.25 341 a2.75 2.75 0 1 0 5.5 0 a2.75 2.75 0 1 0 -5.5 0zM1240.25 319 a2.75 2.75 0 1 0 5.5 0 a2.75 2.75 0 1 0 -5.5 0zM1284.25 539 a2.75 2.75 0 1 0 5.5 0 a2.75 2.75 0 1 0 -5.5 0zM1240.25 693 a2.75 2.75 0 1 0 5.5 0 a2.75 2.75 0 1 0 -5.5 0zM1240.25 891 a2.75 2.75 0 1 0 5.5 0 a2.75 2.75 0 1 0 -5.5 0z" fill="black"></path><path d="M2274.25 605 a2.75 2.75 0 1 0 5.5 0 a2.75 2.75 0 1 0 -5.5 0zM2186.25 253 a2.75 2.75 0 1 0 5.5 0 a2.75 2.75 0 1 0 -5.5 0zM2230.25 649 a2.75 2.75 0 1 0 5.5 0 a2.75 2.75 0 1 0 -5.5 0zM2208.25 451 a2.75 2.75 0 1 0 5.5 0 a2.75 2.75 0 1 0 -5.5 0zM2252.25 781 a2.75 2.75 0 1 0 5.5 0 a2.75 2.75 0 1 0 -5.5 0z" fill="black"></path><path d="M1240.25 253 a2.75 2.75 0 1 0 5.5 0 a2.75 2.75 0 1 0 -5.5 0zM1218.25 275 a2.75 2.75 0 1 0 5.5 0 a2.75 2.75 0 1 0 -5.5 0zM1240.25 209 a2.75 2.75 0 1 0 5.5 0 a2.75 2.75 0 1 0 -5.5 0z" fill="black"></path><path d="M2296.25 759 a2.75 2.75 0 1 0 5.5 0 a2.75 2.75 0 1 0 -5.5 0zM2274.25 803 a2.75 2.75 0 1 0 5.5 0 a2.75 2.75 0 1 0 -5.5 0zM2230.25 319 a2.75 2.75 0 1 0 5.5 0 a2.75 2.75 0 1 0 -5.5 0zM2274.25 671 a2.75 2.75 0 1 0 5.5 0 a2.75 2.75 0 1 0 -5.5 0zM2186.25 231 a2.75 2.75 0 1 0 5.5 0 a2.75 2.75 0 1 0 -5.5 0zM2230.25 253 a2.75 2.75 0 1 0 5.5 0 a2.75 2.75 0 1 0 -5.5 0zM2274.25 649 a2.75 2.75 0 1 0 5.5 0 a2.75 2.75 0 1 0 -5.5 0z" fill="black"></path><path d="M1240.25 143 a2.75 2.75 0 1 0 5.5 0 a2.75 2.75 0 1 0 -5.5 0z" fill="black"></path><path d="M2208.25 165 a2.75 2.75 0 1 0 5.5 0 a2.75 2.75 0 1 0 -5.5 0zM2230.25 187 a2.75 2.75 0 1 0 5.5 0 a2.75 2.75 0 1 0 -5.5 0z" fill="black"></path><path d="M1218.25 781 a2.75 2.75 0 1 0 5.5 0 a2.75 2.75 0 1 0 -5.5 0zM1196.25 363 a2.75 2.75 0 1 0 5.5 0 a2.75 2.75 0 1 0 -5.5 0zM1196.25 693 a2.75 2.75 0 1 0 5.5 0 a2.75 2.75 0 1 0 -5.5 0zM1196.25 319 a2.75 2.75 0 1 0 5.5 0 a2.75 2.75 0 1 0 -5.5 0zM1218.25 451 a2.75 2.75 0 1 0 5.5 0 a2.75 2.75 0 1 0 -5.5 0zM1196.25 847 a2.75 2.75 0 1 0 5.5 0 a2.75 2.75 0 1 0 -5.5 0zM1196.25 583 a2.75 2.75 0 1 0 5.5 0 a2.75 2.75 0 1 0 -5.5 0zM1196.25 429 a2.75 2.75 0 1 0 5.5 0 a2.75 2.75 0 1 0 -5.5 0zM1174.25 627 a2.75 2.75 0 1 0 5.5 0 a2.75 2.75 0 1 0 -5.5 0zM1196.25 627 a2.75 2.75 0 1 0 5.5 0 a2.75 2.75 0 1 0 -5.5 0z" fill="black"></path><path d="M2252.25 957 a2.75 2.75 0 1 0 5.5 0 a2.75 2.75 0 1 0 -5.5 0zM2340.25 847 a2.75 2.75 0 1 0 5.5 0 a2.75 2.75 0 1 0 -5.5 0zM2274.25 1001 a2.75 2.75 0 1 0 5.5 0 a2.75 2.75 0 1 0 -5.5 0zM2296.25 1001 a2.75 2.75 0 1 0 5.5 0 a2.75 2.75 0 1 0 -5.5 0zM2296.25 825 a2.75 2.75 0 1 0 5.5 0 a2.75 2.75 0 1 0 -5.5 0zM2230.25 99 a2.75 2.75 0 1 0 5.5 0 a2.75 2.75 0 1 0 -5.5 0zM2340.25 759 a2.75 2.75 0 1 0 5.5 0 a2.75 2.75 0 1 0 -5.5 0zM2296.25 935 a2.75 2.75 0 1 0 5.5 0 a2.75 2.75 0 1 0 -5.5 0zM2274.25 891 a2.75 2.75 0 1 0 5.5 0 a2.75 2.75 0 1 0 -5.5 0zM2318.25 1001 a2.75 2.75 0 1 0 5.5 0 a2.75 2.75 0 1 0 -5.5 0zM2340.25 913 a2.75 2.75 0 1 0 5.5 0 a2.75 2.75 0 1 0 -5.5 0zM2230.25 143 a2.75 2.75 0 1 0 5.5 0 a2.75 2.75 0 1 0 -5.5 0z" fill="black"></path><path d="M1218.25 517 a2.75 2.75 0 1 0 5.5 0 a2.75 2.75 0 1 0 -5.5 0zM1196.25 517 a2.75 2.75 0 1 0 5.5 0 a2.75 2.75 0 1 0 -5.5 0zM1174.25 473 a2.75 2.75 0 1 0 5.5 0 a2.75 2.75 0 1 0 -5.5 0zM1218.25 495 a2.75 2.75 0 1 0 5.5 0 a2.75 2.75 0 1 0 -5.5 0z" fill="black"></path><path d="M2296.25 495 a2.75 2.75 0 1 0 5.5 0 a2.75 2.75 0 1 0 -5.5 0zM2296.25 429 a2.75 2.75 0 1 0 5.5 0 a2.75 2.75 0 1 0 -5.5 0zM2296.25 407 a2.75 2.75 0 1 0 5.5 0 a2.75 2.75 0 1 0 -5.5 0zM2230.25 77 a2.75 2.75 0 1 0 5.5 0 a2.75 2.75 0 1 0 -5.5 0z" fill="black"></path><path d="M1152.25 429 a2.75 2.75 0 1 0 5.5 0 a2.75 2.75 0 1 0 -5.5 0zM1130.25 231 a2.75 2.75 0 1 0 5.5 0 a2.75 2.75 0 1 0 -5.5 0z" fill="black"></path><path d="M2362.25 869 a2.75 2.75 0 1 0 5.5 0 a2.75 2.75 0 1 0 -5.5 0zM2362.25 671 a2.75 2.75 0 1 0 5.5 0 a2.75 2.75 0 1 0 -5.5 0zM2340.25 737 a2.75 2.75 0 1 0 5.5 0 a2.75 2.75 0 1 0 -5.5 0zM2274.25 121 a2.75 2.75 0 1 0 5.5 0 a2.75 2.75 0 1 0 -5.5 0zM2340.25 473 a2.75 2.75 0 1 0 5.5 0 a2.75 2.75 0 1 0 -5.5 0zM2296.25 385 a2.75 2.75 0 1 0 5.5 0 a2.75 2.75 0 1 0 -5.5 0zM2340.25 561 a2.75 2.75 0 1 0 5.5 0 a2.75 2.75 0 1 0 -5.5 0zM2340.25 539 a2.75 2.75 0 1 0 5.5 0 a2.75 2.75 0 1 0 -5.5 0zM2362.25 649 a2.75 2.75 0 1 0 5.5 0 a2.75 2.75 0 1 0 -5.5 0zM2362.25 715 a2.75 2.75 0 1 0 5.5 0 a2.75 2.75 0 1 0 -5.5 0z" fill="black"></path><path d="M1086.25 561 a2.75 2.75 0 1 0 5.5 0 a2.75 2.75 0 1 0 -5.5 0zM1108.25 297 a2.75 2.75 0 1 0 5.5 0 a2.75 2.75 0 1 0 -5.5 0zM1108.25 275 a2.75 2.75 0 1 0 5.5 0 a2.75 2.75 0 1 0 -5.5 0zM1108.25 253 a2.75 2.75 0 1 0 5.5 0 a2.75 2.75 0 1 0 -5.5 0zM1130.25 209 a2.75 2.75 0 1 0 5.5 0 a2.75 2.75 0 1 0 -5.5 0zM1130.25 451 a2.75 2.75 0 1 0 5.5 0 a2.75 2.75 0 1 0 -5.5 0zM1130.25 649 a2.75 2.75 0 1 0 5.5 0 a2.75 2.75 0 1 0 -5.5 0z" fill="black"></path><path d="M2340.25 583 a2.75 2.75 0 1 0 5.5 0 a2.75 2.75 0 1 0 -5.5 0zM2340.25 429 a2.75 2.75 0 1 0 5.5 0 a2.75 2.75 0 1 0 -5.5 0zM2362.25 605 a2.75 2.75 0 1 0 5.5 0 a2.75 2.75 0 1 0 -5.5 0zM2340.25 517 a2.75 2.75 0 1 0 5.5 0 a2.75 2.75 0 1 0 -5.5 0z" fill="black"></path><path d="M1064.25 495 a2.75 2.75 0 1 0 5.5 0 a2.75 2.75 0 1 0 -5.5 0zM1086.25 341 a2.75 2.75 0 1 0 5.5 0 a2.75 2.75 0 1 0 -5.5 0zM1086.25 429 a2.75 2.75 0 1 0 5.5 0 a2.75 2.75 0 1 0 -5.5 0zM1086.25 407 a2.75 2.75 0 1 0 5.5 0 a2.75 2.75 0 1 0 -5.5 0z" fill="black"></path><path d="M2384.25 957 a2.75 2.75 0 1 0 5.5 0 a2.75 2.75 0 1 0 -5.5 0zM2406.25 1001 a2.75 2.75 0 1 0 5.5 0 a2.75 2.75 0 1 0 -5.5 0zM2362.25 1001 a2.75 2.75 0 1 0 5.5 0 a2.75 2.75 0 1 0 -5.5 0zM2406.25 869 a2.75 2.75 0 1 0 5.5 0 a2.75 2.75 0 1 0 -5.5 0zM2450.25 957 a2.75 2.75 0 1 0 5.5 0 a2.75 2.75 0 1 0 -5.5 0z" fill="black"></path><path d="M1042.25 517 a2.75 2.75 0 1 0 5.5 0 a2.75 2.75 0 1 0 -5.5 0zM1086.25 385 a2.75 2.75 0 1 0 5.5 0 a2.75 2.75 0 1 0 -5.5 0z" fill="black"></path><path d="M2406.25 737 a2.75 2.75 0 1 0 5.5 0 a2.75 2.75 0 1 0 -5.5 0zM2450.25 715 a2.75 2.75 0 1 0 5.5 0 a2.75 2.75 0 1 0 -5.5 0zM2472.25 759 a2.75 2.75 0 1 0 5.5 0 a2.75 2.75 0 1 0 -5.5 0zM2340.25 99 a2.75 2.75 0 1 0 5.5 0 a2.75 2.75 0 1 0 -5.5 0zM2428.25 759 a2.75 2.75 0 1 0 5.5 0 a2.75 2.75 0 1 0 -5.5 0zM2450.25 627 a2.75 2.75 0 1 0 5.5 0 a2.75 2.75 0 1 0 -5.5 0zM2428.25 561 a2.75 2.75 0 1 0 5.5 0 a2.75 2.75 0 1 0 -5.5 0zM2450.25 583 a2.75 2.75 0 1 0 5.5 0 a2.75 2.75 0 1 0 -5.5 0z" fill="black"></path><path d="M1042.25 1001 a2.75 2.75 0 1 0 5.5 0 a2.75 2.75 0 1 0 -5.5 0zM1064.25 957 a2.75 2.75 0 1 0 5.5 0 a2.75 2.75 0 1 0 -5.5 0zM998.25 869 a2.75 2.75 0 1 0 5.5 0 a2.75 2.75 0 1 0 -5.5 0zM1042.25 715 a2.75 2.75 0 1 0 5.5 0 a2.75 2.75 0 1 0 -5.5 0zM1064.25 1001 a2.75 2.75 0 1 0 5.5 0 a2.75 2.75 0 1 0 -5.5 0zM1086.25 957 a2.75 2.75 0 1 0 5.5 0 a2.75 2.75 0 1 0 -5.5 0zM998.25 737 a2.75 2.75 0 1 0 5.5 0 a2.75 2.75 0 1 0 -5.5 0zM1020.25 1001 a2.75 2.75 0 1 0 5.5 0 a2.75 2.75 0 1 0 -5.5 0zM998.25 825 a2.75 2.75 0 1 0 5.5 0 a2.75 2.75 0 1 0 -5.5 0zM1108.25 979 a2.75 2.75 0 1 0 5.5 0 a2.75 2.75 0 1 0 -5.5 0zM1042.25 451 a2.75 2.75 0 1 0 5.5 0 a2.75 2.75 0 1 0 -5.5 0zM998.25 517 a2.75 2.75 0 1 0 5.5 0 a2.75 2.75 0 1 0 -5.5 0z" fill="black"></path><path d="M2494.25 825 a2.75 2.75 0 1 0 5.5 0 a2.75 2.75 0 1 0 -5.5 0zM2406.25 341 a2.75 2.75 0 1 0 5.5 0 a2.75 2.75 0 1 0 -5.5 0zM2428.25 495 a2.75 2.75 0 1 0 5.5 0 a2.75 2.75 0 1 0 -5.5 0zM2406.25 275 a2.75 2.75 0 1 0 5.5 0 a2.75 2.75 0 1 0 -5.5 0zM2406.25 231 a2.75 2.75 0 1 0 5.5 0 a2.75 2.75 0 1 0 -5.5 0zM2472.25 671 a2.75 2.75 0 1 0 5.5 0 a2.75 2.75 0 1 0 -5.5 0zM2494.25 759 a2.75 2.75 0 1 0 5.5 0 a2.75 2.75 0 1 0 -5.5 0zM2494.25 737 a2.75 2.75 0 1 0 5.5 0 a2.75 2.75 0 1 0 -5.5 0zM2472.25 649 a2.75 2.75 0 1 0 5.5 0 a2.75 2.75 0 1 0 -5.5 0zM2450.25 517 a2.75 2.75 0 1 0 5.5 0 a2.75 2.75 0 1 0 -5.5 0z" fill="black"></path><path d="M954.25 1001 a2.75 2.75 0 1 0 5.5 0 a2.75 2.75 0 1 0 -5.5 0zM976.25 1001 a2.75 2.75 0 1 0 5.5 0 a2.75 2.75 0 1 0 -5.5 0zM998.25 1001 a2.75 2.75 0 1 0 5.5 0 a2.75 2.75 0 1 0 -5.5 0zM976.25 693 a2.75 2.75 0 1 0 5.5 0 a2.75 2.75 0 1 0 -5.5 0zM998.25 979 a2.75 2.75 0 1 0 5.5 0 a2.75 2.75 0 1 0 -5.5 0zM998.25 495 a2.75 2.75 0 1 0 5.5 0 a2.75 2.75 0 1 0 -5.5 0zM976.25 605 a2.75 2.75 0 1 0 5.5 0 a2.75 2.75 0 1 0 -5.5 0zM998.25 473 a2.75 2.75 0 1 0 5.5 0 a2.75 2.75 0 1 0 -5.5 0zM976.25 583 a2.75 2.75 0 1 0 5.5 0 a2.75 2.75 0 1 0 -5.5 0z" fill="black"></path><path d="M2384.25 77 a2.75 2.75 0 1 0 5.5 0 a2.75 2.75 0 1 0 -5.5 0z" fill="black"></path><path d="M932.25 957 a2.75 2.75 0 1 0 5.5 0 a2.75 2.75 0 1 0 -5.5 0zM1042.25 121 a2.75 2.75 0 1 0 5.5 0 a2.75 2.75 0 1 0 -5.5 0zM954.25 451 a2.75 2.75 0 1 0 5.5 0 a2.75 2.75 0 1 0 -5.5 0zM976.25 275 a2.75 2.75 0 1 0 5.5 0 a2.75 2.75 0 1 0 -5.5 0zM910.25 957 a2.75 2.75 0 1 0 5.5 0 a2.75 2.75 0 1 0 -5.5 0zM976.25 253 a2.75 2.75 0 1 0 5.5 0 a2.75 2.75 0 1 0 -5.5 0z" fill="black"></path><path d="M2428.25 275 a2.75 2.75 0 1 0 5.5 0 a2.75 2.75 0 1 0 -5.5 0zM2406.25 143 a2.75 2.75 0 1 0 5.5 0 a2.75 2.75 0 1 0 -5.5 0z" fill="black"></path><path d="M998.25 165 a2.75 2.75 0 1 0 5.5 0 a2.75 2.75 0 1 0 -5.5 0z" fill="black"></path><path d="M2494.25 627 a2.75 2.75 0 1 0 5.5 0 a2.75 2.75 0 1 0 -5.5 0zM2472.25 473 a2.75 2.75 0 1 0 5.5 0 a2.75 2.75 0 1 0 -5.5 0zM2450.25 407 a2.75 2.75 0 1 0 5.5 0 a2.75 2.75 0 1 0 -5.5 0zM2472.25 187 a2.75 2.75 0 1 0 5.5 0 a2.75 2.75 0 1 0 -5.5 0zM2472.25 451 a2.75 2.75 0 1 0 5.5 0 a2.75 2.75 0 1 0 -5.5 0zM2450.25 385 a2.75 2.75 0 1 0 5.5 0 a2.75 2.75 0 1 0 -5.5 0zM2428.25 341 a2.75 2.75 0 1 0 5.5 0 a2.75 2.75 0 1 0 -5.5 0z" fill="black"></path><path d="M910.25 913 a2.75 2.75 0 1 0 5.5 0 a2.75 2.75 0 1 0 -5.5 0zM910.25 539 a2.75 2.75 0 1 0 5.5 0 a2.75 2.75 0 1 0 -5.5 0zM888.25 847 a2.75 2.75 0 1 0 5.5 0 a2.75 2.75 0 1 0 -5.5 0zM910.25 517 a2.75 2.75 0 1 0 5.5 0 a2.75 2.75 0 1 0 -5.5 0zM866.25 913 a2.75 2.75 0 1 0 5.5 0 a2.75 2.75 0 1 0 -5.5 0zM888.25 1001 a2.75 2.75 0 1 0 5.5 0 a2.75 2.75 0 1 0 -5.5 0zM844.25 847 a2.75 2.75 0 1 0 5.5 0 a2.75 2.75 0 1 0 -5.5 0zM888.25 759 a2.75 2.75 0 1 0 5.5 0 a2.75 2.75 0 1 0 -5.5 0zM954.25 407 a2.75 2.75 0 1 0 5.5 0 a2.75 2.75 0 1 0 -5.5 0zM976.25 231 a2.75 2.75 0 1 0 5.5 0 a2.75 2.75 0 1 0 -5.5 0zM888.25 715 a2.75 2.75 0 1 0 5.5 0 a2.75 2.75 0 1 0 -5.5 0z" fill="black"></path><path d="M2472.25 143 a2.75 2.75 0 1 0 5.5 0 a2.75 2.75 0 1 0 -5.5 0zM2494.25 187 a2.75 2.75 0 1 0 5.5 0 a2.75 2.75 0 1 0 -5.5 0z" fill="black"></path><path d="M932.25 363 a2.75 2.75 0 1 0 5.5 0 a2.75 2.75 0 1 0 -5.5 0z" fill="black"></path><path d="M2538.25 913 a2.75 2.75 0 1 0 5.5 0 a2.75 2.75 0 1 0 -5.5 0zM2560.25 759 a2.75 2.75 0 1 0 5.5 0 a2.75 2.75 0 1 0 -5.5 0zM2538.25 363 a2.75 2.75 0 1 0 5.5 0 a2.75 2.75 0 1 0 -5.5 0zM2516.25 495 a2.75 2.75 0 1 0 5.5 0 a2.75 2.75 0 1 0 -5.5 0zM2516.25 473 a2.75 2.75 0 1 0 5.5 0 a2.75 2.75 0 1 0 -5.5 0zM2560.25 891 a2.75 2.75 0 1 0 5.5 0 a2.75 2.75 0 1 0 -5.5 0zM2494.25 121 a2.75 2.75 0 1 0 5.5 0 a2.75 2.75 0 1 0 -5.5 0zM2494.25 341 a2.75 2.75 0 1 0 5.5 0 a2.75 2.75 0 1 0 -5.5 0zM2494.25 385 a2.75 2.75 0 1 0 5.5 0 a2.75 2.75 0 1 0 -5.5 0zM2538.25 429 a2.75 2.75 0 1 0 5.5 0 a2.75 2.75 0 1 0 -5.5 0zM2560.25 803 a2.75 2.75 0 1 0 5.5 0 a2.75 2.75 0 1 0 -5.5 0z" fill="black"></path><path d="M888.25 649 a2.75 2.75 0 1 0 5.5 0 a2.75 2.75 0 1 0 -5.5 0zM866.25 517 a2.75 2.75 0 1 0 5.5 0 a2.75 2.75 0 1 0 -5.5 0zM888.25 253 a2.75 2.75 0 1 0 5.5 0 a2.75 2.75 0 1 0 -5.5 0zM866.25 693 a2.75 2.75 0 1 0 5.5 0 a2.75 2.75 0 1 0 -5.5 0zM910.25 187 a2.75 2.75 0 1 0 5.5 0 a2.75 2.75 0 1 0 -5.5 0zM866.25 473 a2.75 2.75 0 1 0 5.5 0 a2.75 2.75 0 1 0 -5.5 0zM866.25 605 a2.75 2.75 0 1 0 5.5 0 a2.75 2.75 0 1 0 -5.5 0zM866.25 451 a2.75 2.75 0 1 0 5.5 0 a2.75 2.75 0 1 0 -5.5 0z" fill="black"></path><path d="M2560.25 297 a2.75 2.75 0 1 0 5.5 0 a2.75 2.75 0 1 0 -5.5 0zM2538.25 187 a2.75 2.75 0 1 0 5.5 0 a2.75 2.75 0 1 0 -5.5 0zM2538.25 297 a2.75 2.75 0 1 0 5.5 0 a2.75 2.75 0 1 0 -5.5 0z" fill="black"></path><path d="M910.25 209 a2.75 2.75 0 1 0 5.5 0 a2.75 2.75 0 1 0 -5.5 0zM910.25 165 a2.75 2.75 0 1 0 5.5 0 a2.75 2.75 0 1 0 -5.5 0z" fill="black"></path><path d="M2582.25 957 a2.75 2.75 0 1 0 5.5 0 a2.75 2.75 0 1 0 -5.5 0zM2604.25 869 a2.75 2.75 0 1 0 5.5 0 a2.75 2.75 0 1 0 -5.5 0zM2604.25 737 a2.75 2.75 0 1 0 5.5 0 a2.75 2.75 0 1 0 -5.5 0zM2648.25 1001 a2.75 2.75 0 1 0 5.5 0 a2.75 2.75 0 1 0 -5.5 0zM2604.25 583 a2.75 2.75 0 1 0 5.5 0 a2.75 2.75 0 1 0 -5.5 0zM2560.25 1001 a2.75 2.75 0 1 0 5.5 0 a2.75 2.75 0 1 0 -5.5 0zM2560.25 627 a2.75 2.75 0 1 0 5.5 0 a2.75 2.75 0 1 0 -5.5 0zM2626.25 671 a2.75 2.75 0 1 0 5.5 0 a2.75 2.75 0 1 0 -5.5 0zM2560.25 429 a2.75 2.75 0 1 0 5.5 0 a2.75 2.75 0 1 0 -5.5 0zM2604.25 517 a2.75 2.75 0 1 0 5.5 0 a2.75 2.75 0 1 0 -5.5 0zM2604.25 671 a2.75 2.75 0 1 0 5.5 0 a2.75 2.75 0 1 0 -5.5 0zM2604.25 1001 a2.75 2.75 0 1 0 5.5 0 a2.75 2.75 0 1 0 -5.5 0z" fill="black"></path><path d="M822.25 671 a2.75 2.75 0 1 0 5.5 0 a2.75 2.75 0 1 0 -5.5 0zM844.25 737 a2.75 2.75 0 1 0 5.5 0 a2.75 2.75 0 1 0 -5.5 0zM866.25 385 a2.75 2.75 0 1 0 5.5 0 a2.75 2.75 0 1 0 -5.5 0zM866.25 363 a2.75 2.75 0 1 0 5.5 0 a2.75 2.75 0 1 0 -5.5 0zM844.25 517 a2.75 2.75 0 1 0 5.5 0 a2.75 2.75 0 1 0 -5.5 0zM844.25 583 a2.75 2.75 0 1 0 5.5 0 a2.75 2.75 0 1 0 -5.5 0zM866.25 429 a2.75 2.75 0 1 0 5.5 0 a2.75 2.75 0 1 0 -5.5 0zM866.25 253 a2.75 2.75 0 1 0 5.5 0 a2.75 2.75 0 1 0 -5.5 0zM844.25 561 a2.75 2.75 0 1 0 5.5 0 a2.75 2.75 0 1 0 -5.5 0z" fill="black"></path><path d="M800.25 913 a2.75 2.75 0 1 0 5.5 0 a2.75 2.75 0 1 0 -5.5 0zM778.25 913 a2.75 2.75 0 1 0 5.5 0 a2.75 2.75 0 1 0 -5.5 0zM778.25 517 a2.75 2.75 0 1 0 5.5 0 a2.75 2.75 0 1 0 -5.5 0zM778.25 759 a2.75 2.75 0 1 0 5.5 0 a2.75 2.75 0 1 0 -5.5 0zM822.25 781 a2.75 2.75 0 1 0 5.5 0 a2.75 2.75 0 1 0 -5.5 0zM800.25 407 a2.75 2.75 0 1 0 5.5 0 a2.75 2.75 0 1 0 -5.5 0zM800.25 1001 a2.75 2.75 0 1 0 5.5 0 a2.75 2.75 0 1 0 -5.5 0zM822.25 473 a2.75 2.75 0 1 0 5.5 0 a2.75 2.75 0 1 0 -5.5 0zM778.25 627 a2.75 2.75 0 1 0 5.5 0 a2.75 2.75 0 1 0 -5.5 0zM822.25 715 a2.75 2.75 0 1 0 5.5 0 a2.75 2.75 0 1 0 -5.5 0zM756.25 891 a2.75 2.75 0 1 0 5.5 0 a2.75 2.75 0 1 0 -5.5 0z" fill="black"></path><path d="M2538.25 77 a2.75 2.75 0 1 0 5.5 0 a2.75 2.75 0 1 0 -5.5 0z" fill="black"></path><path d="M866.25 77 a2.75 2.75 0 1 0 5.5 0 a2.75 2.75 0 1 0 -5.5 0z" fill="black"></path><path d="M2626.25 495 a2.75 2.75 0 1 0 5.5 0 a2.75 2.75 0 1 0 -5.5 0zM2604.25 407 a2.75 2.75 0 1 0 5.5 0 a2.75 2.75 0 1 0 -5.5 0zM2604.25 341 a2.75 2.75 0 1 0 5.5 0 a2.75 2.75 0 1 0 -5.5 0z" fill="black"></path><path d="M756.25 649 a2.75 2.75 0 1 0 5.5 0 a2.75 2.75 0 1 0 -5.5 0zM778.25 429 a2.75 2.75 0 1 0 5.5 0 a2.75 2.75 0 1 0 -5.5 0z" fill="black"></path><path d="M2736.25 979 a2.75 2.75 0 1 0 5.5 0 a2.75 2.75 0 1 0 -5.5 0zM2714.25 1001 a2.75 2.75 0 1 0 5.5 0 a2.75 2.75 0 1 0 -5.5 0zM2714.25 913 a2.75 2.75 0 1 0 5.5 0 a2.75 2.75 0 1 0 -5.5 0zM2780.25 957 a2.75 2.75 0 1 0 5.5 0 a2.75 2.75 0 1 0 -5.5 0zM2758.25 803 a2.75 2.75 0 1 0 5.5 0 a2.75 2.75 0 1 0 -5.5 0zM2714.25 737 a2.75 2.75 0 1 0 5.5 0 a2.75 2.75 0 1 0 -5.5 0zM2670.25 693 a2.75 2.75 0 1 0 5.5 0 a2.75 2.75 0 1 0 -5.5 0zM2692.25 1001 a2.75 2.75 0 1 0 5.5 0 a2.75 2.75 0 1 0 -5.5 0zM2626.25 561 a2.75 2.75 0 1 0 5.5 0 a2.75 2.75 0 1 0 -5.5 0zM2670.25 495 a2.75 2.75 0 1 0 5.5 0 a2.75 2.75 0 1 0 -5.5 0zM2648.25 517 a2.75 2.75 0 1 0 5.5 0 a2.75 2.75 0 1 0 -5.5 0zM2648.25 297 a2.75 2.75 0 1 0 5.5 0 a2.75 2.75 0 1 0 -5.5 0z" fill="black"></path><path d="M734.25 671 a2.75 2.75 0 1 0 5.5 0 a2.75 2.75 0 1 0 -5.5 0zM712.25 429 a2.75 2.75 0 1 0 5.5 0 a2.75 2.75 0 1 0 -5.5 0zM756.25 341 a2.75 2.75 0 1 0 5.5 0 a2.75 2.75 0 1 0 -5.5 0zM690.25 517 a2.75 2.75 0 1 0 5.5 0 a2.75 2.75 0 1 0 -5.5 0zM712.25 693 a2.75 2.75 0 1 0 5.5 0 a2.75 2.75 0 1 0 -5.5 0zM690.25 407 a2.75 2.75 0 1 0 5.5 0 a2.75 2.75 0 1 0 -5.5 0zM800.25 99 a2.75 2.75 0 1 0 5.5 0 a2.75 2.75 0 1 0 -5.5 0zM690.25 649 a2.75 2.75 0 1 0 5.5 0 a2.75 2.75 0 1 0 -5.5 0zM778.25 165 a2.75 2.75 0 1 0 5.5 0 a2.75 2.75 0 1 0 -5.5 0z" fill="black"></path><path d="M2824.25 1001 a2.75 2.75 0 1 0 5.5 0 a2.75 2.75 0 1 0 -5.5 0zM2846.25 1001 a2.75 2.75 0 1 0 5.5 0 a2.75 2.75 0 1 0 -5.5 0zM2714.25 605 a2.75 2.75 0 1 0 5.5 0 a2.75 2.75 0 1 0 -5.5 0zM2692.25 319 a2.75 2.75 0 1 0 5.5 0 a2.75 2.75 0 1 0 -5.5 0zM2846.25 979 a2.75 2.75 0 1 0 5.5 0 a2.75 2.75 0 1 0 -5.5 0zM2670.25 451 a2.75 2.75 0 1 0 5.5 0 a2.75 2.75 0 1 0 -5.5 0zM2692.25 297 a2.75 2.75 0 1 0 5.5 0 a2.75 2.75 0 1 0 -5.5 0zM2758.25 693 a2.75 2.75 0 1 0 5.5 0 a2.75 2.75 0 1 0 -5.5 0zM2670.25 209 a2.75 2.75 0 1 0 5.5 0 a2.75 2.75 0 1 0 -5.5 0zM2802.25 1001 a2.75 2.75 0 1 0 5.5 0 a2.75 2.75 0 1 0 -5.5 0zM2648.25 275 a2.75 2.75 0 1 0 5.5 0 a2.75 2.75 0 1 0 -5.5 0zM2802.25 869 a2.75 2.75 0 1 0 5.5 0 a2.75 2.75 0 1 0 -5.5 0z" fill="black"></path><path d="M822.25 55 a2.75 2.75 0 1 0 5.5 0 a2.75 2.75 0 1 0 -5.5 0zM800.25 77 a2.75 2.75 0 1 0 5.5 0 a2.75 2.75 0 1 0 -5.5 0z" fill="black"></path></mask></defs></svg>