<svg xmlns="http://www.w3.org/2000/svg" version="1.1" xmlns:xlink="http://www.w3.org/1999/xlink" xmlns:svgjs="http://svgjs.dev/svgjs" viewBox="0 0 800 800" opacity="0.32"><defs><linearGradient x1="50%" y1="0%" x2="50%" y2="100%" id="wwwhirl-grad"><stop stop-color="hsl(200, 94%, 14%)" stop-opacity="1" offset="45%"></stop><stop stop-color="hsla(325, 96%, 48%, 1.00)" stop-opacity="1" offset="100%"></stop></linearGradient></defs><g stroke-width="1" stroke="url(#wwwhirl-grad)" fill="none" stroke-linecap="round"><path d="M-410.7499363875389 594.5329910319035C-320.66660419967445 420.3343474136204 -320.66660419967445 82.97226837006775 -140.49993982394534 71.93706017705433C39.66672455178377 60.901851984040945 -50.416607636080755 490.4867423549199 129.75005673964836 561.4273664528632C309.9167211153774 632.3679905508066 219.83338892751283 229.5828915058173 400.00005330324177 284.7589324708843C580.166717678971 339.9349734359513 490.08338549110647 754.5435098305977 670.2500498668355 726.9554893480644C850.4167142425647 699.3674688655309 760.3333820547002 253.22976620513174 940.5000464304292 201.99487102328376C1120.6667108061579 150.7599758414358 1120.6667108061579 449.4988262094416 1210.7500429940226 573.2508038025205 " transform="rotate(117.5, 400, 400)"></path><path d="M-393.4999364423752 590.3939738536669C-305.3332708968057 419.90168435492177 -305.3332708968057 89.71752188676388 -128.99993980566654 78.9171053574316C47.33339128547266 68.11668882809934 -40.83327426009703 488.5614751485341 135.50005683104212 557.9927242656701C311.83338792218115 627.4239733828061 223.66672237661157 233.2087700621783 400.0000534677507 287.21085270883964C576.33338455889 341.212935355501 488.1667190133202 747.0000135289848 664.5000501044592 719.9989722056541C840.8333811955986 692.9979308823235 752.6667156500291 256.35251976789027 929.000046741168 206.2077287388476C1105.333377832307 156.06293770980494 1105.333377832307 448.44564232529996 1193.5000433778764 569.5645991185261 " transform="rotate(115, 400, 400)"></path><path d="M-376.2499364972115 586.2550024517975C-289.9999375939369 419.46906707259035 -289.9999375939369 96.46282117982717 -117.4999397873878 85.89719631417603C55.000058019161315 75.33157144852493 -31.249940884113244 486.63625371851543 141.25005692243587 554.5581278548441C313.750054728985 622.4800019911729 227.50005582571032 236.8346943949065 400.00005363225955 289.6628187231622C572.5000514388089 342.49094305141784 486.250052535534 739.4565630037389 658.7500503420831 713.0425008396112C831.2500481486325 686.6284386754834 745.0000492453578 259.4753191070161 917.5000470519069 210.42063223077866C1090.0000448584558 161.36594535454125 1090.0000448584558 447.39250421752547 1176.2500437617305 565.8784402108989 " transform="rotate(112.5, 400, 400)"></path><path d="M-358.99993655204776 582.116015791139C-274.6666042910682 419.03643453146987 -274.6666042910682 103.20810521410141 -105.99993976910906 92.8772720121314C62.6667247528502 82.54643881016142 -21.66660750812946 484.7110170297077 147.00005701382963 551.1235161852292C315.66672153578884 617.5360153407505 231.33338927480918 240.46060346884565 400.00005379676827 292.1147694786956C568.6667183187274 343.7689354885456 484.3333860577478 731.913097219704 653.000050579707 706.0860142147792C821.6667151016663 680.2589312098543 737.3333828406869 262.59810318735276 906.0000473626458 214.63352046392066C1074.6667118846049 166.6689377404885 1074.6667118846049 446.339350850962 1159.0000441455843 562.1922660444827 " transform="rotate(110, 400, 400)"></path><path d="M-341.74993660688403 577.9769833541136C-259.33327098819944 418.6037562139822 -259.33327098819944 109.95334347200847 -94.49993975083032 99.8573019337196C70.33339148653886 89.76126039543075 -12.083274132145732 482.7857345645328 152.7500571052235 547.6888587392469C317.58338834259257 612.591982913961 235.16672272390804 244.08646676641763 400.0000539612771 294.56667445786195C564.8333851986463 345.0468821493062 482.41671957996175 724.369585659302 647.2500508173307 699.1294818135798C812.0833820547002 673.8893779678577 729.6667164360156 265.7208414913223 894.5000476733846 218.84636292069547C1059.3333789107537 171.9718843500686 1059.3333789107537 445.28615170803135 1141.7500445294381 558.5060461016992 " transform="rotate(107.5, 400, 400)"></path><path d="M-324.4999366617203 573.8379966934551C-243.99993768533074 418.17112367286165 -243.99993768533074 116.6986275062827 -82.99993973255152 106.83737763167497C78.00005822022763 96.97612775706727 -2.4999407561619478 480.8604978757251 158.50005719661726 544.2542470696319C319.5000551493964 607.6479962635387 239.00005617300678 247.71237584035677 400.00005412578605 297.01862521339535C561.0000520785651 346.324874586434 480.50005310217546 716.826119875267 641.5000510549546 692.1729951887478C802.5000490077339 667.5198705022285 722.0000500313445 268.843625571659 883.0000479841235 223.05925115383744C1044.0000459369026 177.27487673601587 1044.0000459369026 444.2329983414678 1124.5000449132922 554.8198719352831 " transform="rotate(105, 400, 400)"></path><path d="M-307.2499367165566 569.6989947740075C-228.666604382462 417.73847587295205 -228.666604382462 123.44389628176788 -71.49993971427278 113.81743807084129C85.66672495391651 104.1909798599147 7.083392619821836 478.93524592812827 164.25005728801102 540.8196201412277C321.41672195620026 602.7039943543272 242.83338962210564 251.33826965550682 400.00005429029477 299.4705607101397C557.1667189584839 347.60285176477265 478.5833866243893 709.282638832443 635.7500512925785 685.2164933051265C792.9167159607678 661.1503477778102 714.3333836266734 271.96639439320666 871.5000482948624 227.27212412819034C1028.6667129630516 182.57785386317403 1028.6667129630516 443.1798297161152 1107.250045297146 551.1336825100777 " transform="rotate(102.5, 400, 400)"></path><path d="M-289.99993677139287 565.559977595771C-213.33327107959326 417.30581281425344 -213.33327107959326 130.189149798464 -59.999939695994044 120.79748325121854C93.33339168760523 111.4058167039731 16.66672599580562 477.0099787217424 170.00005737940478 537.3849779540346C323.3333887630041 597.7599771863268 246.6667230712044 254.96414821186784 400.0000544548036 301.9224809480951C553.3333858384027 348.88081368432233 476.6667201466032 701.7391425308299 630.0000515302024 678.2599761627164C783.3333829138016 654.7808097946029 706.6667172220023 275.08914795596525 860.0000486056013 231.4849818437542C1013.3333799892005 187.88081573154318 1013.3333799892005 442.1266458319736 1090.0000456809998 547.4474778260833 " transform="rotate(100, 400, 400)"></path><path d="M-272.74993682622915 561.4209756763235C-197.9999377767245 416.8731650143439 -197.9999377767245 136.9344185739492 -48.49993967771525 127.77754369038485C101.00005842129406 118.62066880682056 26.250059371789348 475.0847267741456 175.75005747079854 533.9503510256305C325.25005556980784 592.8159752771154 250.50005652030313 258.59004202701794 400.00005461931244 304.37441644483954C549.5000527183216 350.158790862661 474.75005366881703 694.195661488006 624.2500517678262 671.3034742790952C773.7500498668355 648.4112870701845 699.0000508173312 278.2119167775129 848.5000489163401 235.69785481810715C998.0000470153493 193.1837928587014 998.0000470153493 441.073477206621 1072.750046064854 543.761288400878 " transform="rotate(97.5, 400, 400)"></path><path d="M-255.49993688106537 557.2819584980869C-182.66660447385578 416.4405019556453 -182.66660447385578 143.67967209064528 -36.99993965943651 134.7575888707621C108.66672515498283 125.83550565087893 35.83339274777313 473.15945956775977 181.5000575621923 530.5157088384374C327.1667223766117 587.871958109115 254.33338996940188 262.21592058337893 400.00005478382127 306.8263366827948C545.6667195982404 351.4367527822107 472.83338719103074 686.652165186393 618.50005200545 664.3469571366851C764.1667168198696 642.0417490869772 691.33338441266 281.3346703402715 837.000049227079 239.910712533671C982.6667140414982 198.48675472707052 982.6667140414982 440.0202933224794 1055.5000464487077 540.0750837168837 " transform="rotate(95, 400, 400)"></path><path d="M-238.24993693590164 553.1430176137957C-167.33327117098705 416.007915190892 -167.33327117098705 150.42500190128672 -25.499939641157766 141.73771034508468C116.3333918886716 133.05041878888264 45.416726123756916 471.2342686553193 187.25005765358617 527.0811429451895C329.08338918341553 582.9280172350598 258.16672341850085 265.8418754336853 400.00005494833 309.2783332146955C541.8333864781592 352.7147909957057 470.9167207132447 679.1087451787251 612.7500522430739 657.3905162882202C754.5833837729033 635.6722873977151 683.6667180079887 284.4575001969754 825.5000495378179 244.12364654318014C967.3333810676472 203.78979288938496 967.3333810676472 438.9671857322831 1038.2500468325616 536.3889553268345 " transform="rotate(92.5, 400, 400)"></path><path d="M-220.99993699073792 549.0040156943483C-151.9999378681183 415.57526739098245 -151.9999378681183 157.1702706767719 -13.999939622879026 148.71777078425097C124.00005862236031 140.2652708917301 55.000059499740644 469.3090167077225 193.00005774498004 523.6465160167854C331.00005599021927 577.9840153258484 262.0000568675996 269.46776924883534 400.0000551128388 311.73026871143986C538.0000533580782 353.9927681740444 469.0000542354584 671.5652641359013 607.0000524806977 650.434014404599C745.0000507259372 629.3027646732969 676.0000516033176 287.58026901852304 814.0000498485567 248.33651951753308C952.0000480937961 209.09277001654317 952.0000480937961 437.91401710693054 1021.0000472164156 532.7027659016293 " transform="rotate(90, 400, 400)"></path><path d="M-203.7499370455742 544.8649985161117C-136.66660456524954 415.1426043322838 -136.66660456524954 163.915524193468 -2.499939604600229 155.69781596462823C131.66672535604914 147.48010773578847 64.58339287572443 467.38374950133664 198.7500578363738 520.2118738295924C332.9167227970231 573.039998157848 265.83339031669834 273.0936478051964 400.00005527734777 314.18218894939525C534.166720237997 355.27073009359407 467.0833877576723 664.0217678342882 601.2500527183216 643.4774972621889C735.416717678971 622.9332266900894 668.3333851986464 290.70302258128163 802.5000501592958 252.54937723309695C936.6667151199449 214.3957318849123 936.6667151199449 436.8608332227889 1003.7500476002695 529.016561217635 " transform="rotate(87.5, 400, 400)"></path><path d="M-186.49993710041048 540.7260271142422C-121.33327126238083 414.70998704995236 -121.33327126238083 170.6608234865313 9.000060413678511 162.67790692137265C139.3333920897379 154.69499035621405 74.16672625170821 465.458528071318 204.50005792776756 516.7772774187664C334.83338960382696 568.0960267662147 269.6667237657972 276.7195721379246 400.0000554418565 316.6341549637177C530.3333871179159 356.54873778951094 465.16672127988613 656.4783173090425 595.5000529559455 636.5210258961459C725.8333846320049 616.5637344832494 660.6667187939754 293.8258219204074 791.0000504700347 256.762280725028C921.3333821460938 219.6987395296486 921.3333821460938 435.8076951150145 986.5000479841233 525.3304023100077 " transform="rotate(85, 400, 400)"></path><path d="M-169.24993715524676 536.5870099360056C-105.9999379595121 414.27732399125375 -105.9999379595121 177.40607700322744 20.50006043195731 169.6579521017499C147.00005882342668 161.90982720027245 83.75005962769194 463.5332608649322 210.25005801916132 513.3426352315732C336.7500564106306 563.1520095982144 273.50005721489595 280.3454506942856 400.0000556063653 319.0860752016731C526.5000539978347 357.82669970906056 463.25005480209995 648.9348210074294 589.7500531935693 629.5645087537357C716.2500515850387 610.1941965000419 653.0000523893042 296.948575483166 779.5000507807733 260.9751384405919C906.0000491722426 225.00170139801776 906.0000491722426 434.7545112308729 969.2500483679773 521.6441976260134 " transform="rotate(82.5, 400, 400)"></path><path d="M-151.99993721008303 532.447992757769C-90.66660465664336 413.84466093255514 -90.66660465664336 184.15133051992353 32.00006045023599 176.63799728212717C154.66672555711546 169.1246640443308 93.33339300367572 461.60799365854626 216.00005811055507 509.90799304438C338.66672321743454 558.2079924302138 277.3333906639948 283.9713292506466 400.00005577087416 321.5379954396284C522.6667208777535 359.1046616286102 461.3333883243138 641.3913247058163 584.0000534311932 622.6079916113254C706.6667185380726 603.8246585168347 645.333385984633 300.07132904592453 768.0000510915122 265.1879961561557C890.6667161983917 230.30466326638688 890.6667161983917 433.7013273467312 952.0000487518312 517.957992942019 " transform="rotate(80, 400, 400)"></path><path d="M-134.7499372649193 528.3089908383216C-75.33327135377462 413.41201313264554 -75.33327135377462 190.89659929540872 43.50006046851479 183.6180577212935C162.33339229080423 176.33951614717827 102.91672637965951 459.68274171094953 221.7500582019489 506.473366115976C340.58339002423827 553.2639905210024 281.16672411309355 287.5972230657967 400.000055935383 323.98993093637284C518.8333877576724 360.38263880694893 459.4167218465276 633.8478436629923 578.250053668817 615.6514897277043C697.0833854911065 597.4551357924163 637.6667195799619 303.1940978674722 756.5000514022512 269.4008691305086C875.3333832245403 235.60764039354507 875.3333832245403 432.64815872137865 934.7500491356852 514.2718035168136 " transform="rotate(77.5, 400, 400)"></path><path d="M-117.49993731975556 524.1699889188742C-59.99993805090588 412.979365332736 -59.99993805090588 197.6418680708939 55.00006048679353 190.59811816045982C170.000059024493 183.55436825002573 112.50005975564329 457.75748976335274 227.5000582933427 503.0387391875719C342.500056831042 548.319988611791 285.0000575621923 291.2231168809468 400.0000560998917 326.44186643311724C515.0000546375912 361.6606159852877 457.5000553687414 626.3043626201684 572.5000539064408 608.6949878440832C687.5000524441402 591.0856130679981 630.0000531752906 306.31686668901983 745.0000517129901 273.61374210486156C860.0000502506896 240.91061752070328 860.0000502506896 431.5949900960261 917.5000495195391 510.5856140916084 " transform="rotate(75, 400, 400)"></path><path d="M-100.24996789216996 520.0310022582157C-44.66663526561527 412.5467327916155 -44.66663526561527 204.38715210516813 66.50002998749414 197.57819385841518C177.66669524060364 190.76923561166222 122.08336261404895 455.832253074545 233.25002786715834 499.60412751795684C344.41669312026784 543.3760019613687 288.83336049371303 294.8490259548859 400.0000257468224 328.8938171886507C511.1666909999319 362.9386084224154 455.5833583733771 618.7608968361335 566.7500236264866 601.7385012192511C677.9166888795961 584.7161056023688 622.3333562530414 309.43965076935655 733.5000215061508 277.82663033800355C844.6666867592603 246.21360990665056 844.6666867592603 430.5418367294626 900.2500193858148 506.89943992519215 " transform="rotate(72.5, 400, 400)"></path><path d="M-82.99996794700624 515.8919927093737C-29.333301962746532 412.1140773623114 -29.333301962746532 211.13241325125878 78.00003000577294 204.55824666818694C185.33336197429242 197.98408008511515 131.66669599003268 453.9069934975537 239.0000279585521 496.1694929601582C346.33335992707157 538.4319924227627 292.6666939428118 298.4749121406415 400.00002591133125 331.34574505600057C507.3333578798507 364.21657797135964 453.66669189559093 611.217408163915 561.0000238641104 594.7819917062354C668.3333558326299 578.3465752485561 614.6666898483703 312.56241196150967 722.0000218168897 282.03949568296196C829.3333537854091 251.51657940441422 829.3333537854091 429.4886604747155 883.0000197696686 503.2132428705923 " transform="rotate(70, 400, 400)"></path><path d="M-65.7499680018425 511.7530136781098C-13.999968659877794 411.6814524505854 -13.999968659877794 217.87770491492756 89.50003002405168 211.53832999553686C193.00002870798124 205.1989550761462 141.2500293660164 451.98176443814054 244.7500280499459 492.73488891993776C348.2500267338753 533.488013401735 296.50002739191063 302.10082884397514 400.0000260758402 333.79770344092856C503.50002475976964 365.494578037882 451.75002541780486 603.6739500092746 555.2500241017343 587.825512710798C658.7500227856639 571.9770754123213 607.0000234436992 315.6852036712409 710.5000221276284 286.2523915454984C814.0000208115579 256.819579419756 814.0000208115579 428.43551473754655 865.7500201535227 499.5270763335706 " transform="rotate(67.5, 400, 400)"></path><path d="M-48.49999857425691 507.61398887047864C1.3333341254128186 411.2487817624923 1.3333341254128186 224.62295080222913 100.9999995247523 218.51836754651958C200.66666492409183 212.41378429081004 150.83333222442207 450.0564896023601 250.49999762376154 489.30023910335007C350.16666302310114 528.54398860434 300.33333032343126 305.72669977094165 399.9999957227708 336.24961604948936C499.6666611221103 366.7725323280371 449.83332842244045 596.1304460782669 549.49999382178 580.8689879389932C649.1666592211195 565.6075297997194 599.3333265214499 318.8079496046049 698.9999919207893 290.46524163166777C798.6666573201287 262.1225336587306 798.6666573201287 427.3823232240104 848.4999900197984 495.84086402018164 " transform="rotate(65, 400, 400)"></path><path d="M-31.249998629093184 503.4749945804257C16.666667428281556 410.81614159197727 16.666667428281556 231.36822720710884 112.4999995430311 225.49843561508044C208.3333316577806 219.62864402305203 160.41666560040585 448.13124528415784 256.24999771515536 485.8656198043405C352.08332982990487 523.5999943245231 304.16666377253006 309.35260121548623 399.9999958872796 338.7015591756283C495.83332800202913 368.0505171357703 447.9166619446544 588.5869726648375 543.7499940594039 573.9124936847666C639.5833261741534 559.2380147046956 591.6666601167786 321.9307260555471 687.4999922315282 294.67812223541523C783.3333243462775 267.42551841528336 783.3333243462775 426.3291622280524 831.2499904036523 492.15468222437096 " transform="rotate(62.5, 400, 400)"></path><path d="M-13.999998683929448 499.3360155491618C32.000000731150294 410.3835166802513 32.000000731150294 238.11351887077763 123.99999956130983 232.47851894243036C215.99999839146938 226.84351901408309 169.99999897638963 446.20601622474464 261.9999978065492 482.43101576412005C353.99999663670866 518.6560153034952 307.9999972216289 312.97851791881993 399.99999605178846 341.1535175605563C491.99999488194794 369.32851720229263 445.9999954668681 581.0435145101972 537.9999942970277 566.9560146893291C629.9999931271873 552.8685148684609 583.9999937121075 325.05351776527834 675.999992542267 298.89101809795176C767.9999913724264 272.7285184306251 767.9999913724264 425.2760164908834 813.9999907875062 488.4685156873492 " transform="rotate(60, 400, 400)"></path><path d="M3.2500012612342744 495.19697548274166C47.33333403401903 409.9508307333691 47.33333403401903 244.85874949929013 135.4999995795886 239.458541234624C223.6666651251582 234.05833296995786 179.58333235237336 444.28072613017525 267.74999789794293 478.99635068874323C355.91666344351245 513.7119752473113 311.83333067072766 316.6043735869973 399.99999621629723 343.605414910328C488.16666176186686 370.6064562336587 444.083328989082 573.4999953204006 532.2499945346515 559.9994746587353C620.4166600802212 546.49895399707 576.3333273074364 328.17624843985334 664.4999928530059 303.10385292533203C752.6666583985754 278.0314574108107 752.6666583985754 424.2228097185582 796.7499911713601 484.78228811517124 " transform="rotate(57.5, 400, 400)"></path><path d="M20.500001206397997 491.0579659338996C62.66666733688777 409.51817530406504 62.66666733688777 251.60401064538078 146.99999959786734 246.43859404439578C231.33333185884698 241.2731774434108 189.16666572835715 442.35546655318393 273.4999979893367 475.56171613094466C357.8333302503163 508.76796570870533 315.66666411982646 320.2302597727529 399.999996380806 346.0573427776779C484.33332864178556 371.8844257826029 442.1666625112957 565.9565066481821 526.4999947722754 553.0429651457197C610.833327033255 540.1294236432573 568.6666609027653 331.29900963200646 652.9999931637448 307.3167182702904C737.3333254247243 283.3344269085743 737.3333254247243 423.16963346381107 779.499991555214 481.09609106057144 " transform="rotate(55, 400, 400)"></path><path d="M37.75000115156173 486.91898690263577C78.00000063975651 409.08555039233903 78.00000063975651 258.34930230904956 158.4999996161461 253.41867737174567C238.9999985925357 248.48805243444184 198.74999910434087 440.43023749377073 279.2499980807305 472.12711209072415C359.7499970571201 503.8239866876776 319.49999756892527 323.8561764760866 399.9999965453149 348.5093011626059C480.4999955217045 373.1624258491252 440.24999603350966 558.4130484935417 520.7499950098992 546.0864861502821C601.2499939862888 533.7599238070225 560.9999944980941 334.4218013417377 641.4999934744836 311.5296141328269C721.9999924508732 288.6374269239161 721.9999924508732 422.1164877266421 762.249991939068 477.40992452354976 " transform="rotate(52.5, 400, 400)"></path><path d="M55.000001096725455 482.7800078713718C93.33333394262525 408.652925480613 93.33333394262525 265.0945939727183 169.99999963442485 260.3987606990956C246.66666532622446 255.7029274254729 208.33333248032466 438.50500843435753 284.99999817212426 468.69250805050365C361.66666386392393 498.8800076666497 323.33333101802407 327.48209317942025 399.9999967098237 350.96125954753387C476.66666240162317 374.4404259156475 438.3333295557235 550.8695903389013 514.9999952475231 539.1300071548445C591.6666609393227 527.3904239707878 553.333328093423 337.54459305146895 629.9999937852225 315.74250999536343C706.6666594770221 293.9404269392579 706.6666594770221 421.0633419894731 744.9999923229218 473.72375798652797 " transform="rotate(50, 400, 400)"></path><path d="M72.25000104188918 478.64099832252975C108.66666724549398 408.22027005130894 108.66666724549398 271.83985511880894 181.49999965270362 267.3788135088674C254.3333320599133 262.9177718989258 217.91666585630844 436.5797488573662 290.749998263518 465.257873492705C363.5833306707277 493.9359981280438 327.1666644671228 331.1079793651758 399.9999968743325 353.41318741488374C472.8333292815421 375.7183954645917 436.41666307793724 543.3261016666828 509.2499954851469 532.1734976418288C582.0833278923567 521.020893616975 545.6666616887519 340.66735424362207 618.4999940959614 319.95537534032184C691.333326503171 299.2433964370216 691.333326503171 420.010165734726 727.7499927067757 470.03756093192817 " transform="rotate(47.5, 400, 400)"></path><path d="M89.50000098705291 474.50199640308233C124.00000054836272 407.7876222513994 124.00000054836272 278.58512389429416 192.99999967098236 274.3588739480337C261.999998793602 270.13262400177325 227.4999992322922 434.6544969097695 296.4999983549119 461.8232465643009C365.4999974775315 488.9919962188324 330.9999979162217 334.7338731803259 399.9999970388413 355.86512291162813C468.99999616146096 376.9963726429304 434.49999660015106 535.7826206238589 503.4999957227708 525.2169957582078C572.4999948453905 514.6513708925567 537.9999952840807 343.7901230651697 606.9999944067002 324.16824831467477C675.9999935293199 304.5463735641798 675.9999935293199 418.95699710937345 710.4999930906297 466.35137150672284 " transform="rotate(45, 400, 400)"></path><path d="M106.75000093221664 470.3629944836348C139.33333385123146 407.35497445148985 139.33333385123146 285.3303926697793 204.49999968926113 281.3389343872C269.66666552729083 277.3474761046207 237.08333260827598 432.7292449621727 302.24999844630565 458.3886196358969C367.41666428433535 484.047994309621 334.8333313653205 338.359766995476 399.9999972033501 358.31705840837253C465.1666630413798 378.27434982126914 432.58333012236494 528.2391395810349 497.74999596039464 518.2604938745867C562.9166617984243 508.28184816813837 530.3333288794096 346.9128918867174 595.4999947174392 328.38112128902765C660.6666605554688 309.849350691338 660.6666605554688 417.9038284840209 693.2499934744835 462.6651820815175 " transform="rotate(42.5, 400, 400)"></path><path d="M124.00000087738036 466.2240230817654C154.6666671541002 406.92235716915843 154.6666671541002 292.0756919628426 215.99999970753987 288.3190253439444C277.3333322609796 284.56235872504624 246.66666598425974 430.804023532154 307.9999985376994 454.95402322507084C369.33333109113914 479.1040229179878 338.6666648144193 341.98569132820415 399.99999736785895 360.76902442269505C461.3333299212986 379.55235751718595 430.66666364457876 520.695689055789 491.9999961980185 511.30402250854354C553.3333287514581 501.9123559612982 522.6666624747384 350.03569122584315 583.999995028178 332.5940247809587C645.3333275816177 315.1523583360743 645.3333275816177 416.85069037624646 675.9999938583375 458.97902317389037 " transform="rotate(40, 400, 400)"></path><path d="M141.2500008225441 462.0850059035289C170.00000045696893 406.4896941104598 170.00000045696893 298.82094547953875 227.49999972581864 295.2990705243217C284.9999989946684 291.77719556910466 256.2499993602435 428.87875632576817 313.7499986290932 451.51938103787774C371.2499978979429 474.1600057499873 342.499998263518 345.6115698845652 399.99999753236773 363.2209446606504C457.4999968012175 380.83031943673564 428.7499971667926 513.152192754176 486.2499964356423 504.3475053661334C543.749995704492 495.54281797809085 514.9999960700673 353.15844478860174 572.499995338917 336.8068824965226C629.9999946077667 320.4553202044434 629.9999946077667 415.79750649210484 658.7499942421914 455.29281848989604 " transform="rotate(37.5, 400, 400)"></path><path d="M158.50000076770783 457.9460116134759C185.33333375983767 406.05705393994475 185.33333375983767 305.56622188441844 238.9999997440974 302.27913859288253C292.66666572835715 298.9920553013467 265.83333273622725 426.9535120075659 319.499998720487 448.08476173886817C373.1666647047467 469.21601147017043 346.3333317126168 349.2374713291098 399.99999769687656 365.6728877867894C453.6666636811363 382.10830424446885 426.8333306890064 505.6087193407466 480.49999667326614 497.3910111119068C534.1666626575259 489.1733028830671 507.3333296653961 356.2812212395439 560.9999956496558 341.01976310027004C614.6666616339155 325.75830496099616 614.6666616339155 414.7443454961468 641.4999946260452 451.6066366940852 " transform="rotate(35, 400, 400)"></path><path d="M175.75000071287155 453.8070020646338C200.6666670627064 405.6243985106407 200.6666670627064 312.31148303050907 250.49999976237615 309.2591914026543C300.3333324620459 306.2068997747996 275.41666611221103 425.0282524305746 325.2499988118808 444.6501271810696C375.08333151155057 464.27200193156455 350.1666651617156 352.86335751486536 399.9999978613854 368.1248156541392C449.83333056105516 383.38627379341307 424.9166642112202 498.065230668528 474.74999691089 490.43450159889113C524.5833296105598 482.8037725292542 499.66666326072493 359.403982431697 549.4999959603947 345.23262844522844C599.3333286600644 331.06127445875984 599.3333286600644 413.69116924139973 624.2499950098992 447.9204396394854 " transform="rotate(32.5, 400, 400)"></path><path d="M193.00000065803528 449.66800777458093C216.00000036557515 405.19175834012566 216.00000036557515 319.0567594353888 261.9999997806549 316.2392594712152C307.9999991957347 313.42175950704154 284.9999994881948 423.1030081123723 330.99999890327456 441.21550788206C376.9999983183543 459.3280076517476 353.9999986108145 356.48925895941 399.99999802589423 370.57675878027817C445.99999744097397 384.66425860114634 422.99999773343404 490.5217572550986 468.99999714851384 483.47800734466455C514.9999965635936 476.43425743423046 491.99999685605377 362.5267588826392 537.9999962711336 349.44550904897585C583.9999956862132 336.3642592153126 583.9999956862132 412.6380082454417 606.9999953937531 444.23425784367464 " transform="rotate(30, 400, 400)"></path><path d="M210.250000603199 445.5290134845279C231.33333366844388 404.75911816961064 231.33333366844388 325.8020358402685 273.4999997989337 323.21932753977603C315.6666659294235 320.6366192392835 294.5833328641786 421.1777637941701 336.7499989946683 437.78088858305046C378.91666512515815 454.3840133719308 357.83333205991323 360.1151604039546 399.999998190403 373.02870190641704C442.1666643208928 385.94224340887956 421.08333125564786 482.97828384166917 463.2499973861377 476.52151309043796C505.4166635166275 470.06474233920676 484.33333045138266 365.64953533358135 526.4999965818724 353.6583896527233C568.6666627123622 341.6672439718653 568.6666627123622 411.5848472494837 589.749995777607 440.54807604786384 " transform="rotate(27.5, 400, 400)"></path><path d="M227.50000054836272 441.3899963062914C246.66666697131262 404.326455110912 246.66666697131262 332.5472893569646 284.9999998172124 330.1993727201533C323.33333266311223 327.8514560833419 304.16666624016233 419.2524965877842 342.49999908606213 434.3462463958573C380.833331931962 449.4399962039303 361.66666550901203 363.74103896031556 399.99999835491184 375.48062214437243C438.3333312008116 387.2202053284292 419.16666477786174 475.4347875400561 457.49999762376154 469.56499594802773C495.83333046966135 463.69520435599935 476.6666640467115 368.77228889633994 514.9999968926113 357.8712473682872C553.3333297385111 346.9702058402344 553.3333297385111 410.531663365342 572.4999961614609 436.86187136386945 " transform="rotate(25, 400, 400)"></path><path d="M244.75000049352644 437.25098675744937C262.0000002741814 403.8937996816079 262.0000002741814 339.2925505030553 296.49999983549117 337.1794255299251C330.999999396801 335.06630055679483 313.7499996161461 417.32723701079294 348.24999917745595 430.91161183805866C382.7499987387657 444.4959866653244 365.49999895811084 367.36692514607114 399.9999985194206 377.93255001172224C434.4999980807305 388.4981748773734 417.2499983000755 467.89129886783763 451.7499978613854 462.6084864350121C486.24999742269523 457.32567400218653 468.99999764204034 371.89505008849306 503.4999972033501 362.0841127132456C537.99999676466 352.2731753379981 537.99999676466 409.4784871105949 555.2499965453148 433.17567430926965 " transform="rotate(22.5, 400, 400)"></path><path d="M262.00000043869017 433.1119962820936C277.3333335770501 403.46116332579015 277.3333335770501 346.03783072263224 307.99999985376996 344.15949741318315C338.66666613048983 342.2811641037341 323.33333299212984 415.40199650728795 353.9999992688497 427.47699635374636C384.6666655455696 439.5519962002048 369.33333240720964 370.99283040531304 399.99999868392945 380.3844969525585C430.6666649606493 389.77616349980394 415.3333318222894 460.34782926910543 445.99999809900925 455.6519959954827C476.66666437572906 450.95616272186004 461.3333312373692 375.0178303541325 491.999997514089 366.2969971316903C522.6666637908088 357.57616390924807 522.6666637908088 408.42532992933417 537.9999969291687 429.4894963281561 " transform="rotate(20, 400, 400)"></path><path d="M279.25000038385394 428.97298291855435C292.6666668799188 403.0285040817888 292.6666668799188 352.78308805402565 319.4999998720487 351.1395464082577C346.3333328641786 349.49600476248975 332.9166663681136 413.47673311559936 359.74999936024346 424.04235798125046C386.58333235237336 434.6079828469016 373.16666585630844 374.6187127763713 399.9999988484383 382.8364210052111C426.8333318405681 391.05412923405083 413.4166653445032 452.8043367821897 440.2499983366331 448.6954826677698C467.08333132876294 444.58662855334995 453.6666648326981 378.14058773158837 480.4999978248279 370.5098586619514C507.33333081695775 362.8791295923145 507.33333081695775 407.3721498598898 520.7499973130226 425.803295458859 " transform="rotate(17.5, 400, 400)"></path><path d="M296.50000032901767 424.83399625789593C308.0000001827876 402.5958715406683 308.0000001827876 359.5283720882999 330.99999989032744 358.11962210621306C353.9999995978674 356.71087212412624 342.4999997440974 411.55149642679163 365.4999994516373 420.6077463116355C388.49999915917715 429.6639961964793 376.99999930540724 378.24462185031047 399.9999990129471 385.28837176074455C422.999998720487 392.33212167117864 411.499998866717 445.26087099815476 434.4999985742569 441.73899604293774C457.4999982817968 438.21712108772067 445.99999842802686 381.263371811925 468.9999981355668 374.7227468950934C491.9999978431066 368.18212197826176 491.9999978431066 406.3189964933263 503.49999769687656 422.1171212924428 " transform="rotate(15, 400, 400)"></path><path d="M313.7500002741814 420.6950057825402C323.33333348565634 402.1632351848505 323.33333348565634 366.27365230787683 342.49999990860624 365.0996939894712C361.66666633155614 363.92573567106547 352.0833331200812 409.62625592328664 371.2499995430311 417.1731308273232C390.416665965981 424.7200057313597 380.83333275450605 381.8705271095523 399.99999917745595 387.74031870158075C419.1666656004058 393.6101102936091 409.5833323889309 437.71740139942256 428.7499988118808 434.78250560340837C447.9166652348307 431.8476098073942 438.33333202335575 384.3861520775645 457.49999844630565 378.9356313135381C476.66666486925556 373.4851105495118 476.66666486925556 405.2658393120655 486.24999808073045 418.43094331132926 " transform="rotate(12.5, 400, 400)"></path><path d="M331.0000002193451 416.5559924190009C338.66666678852505 401.7305759408492 338.66666678852505 373.01890963927025 353.999999926885 372.07974298454565C369.3333330652449 371.1405763298211 361.6666664960649 407.7009925315981 376.99999963442485 413.7384924548273C392.3333327727848 419.7759923780565 384.6666662036048 385.4964094806106 399.9999993419647 390.19224275423335C415.33333248032466 394.8880760278561 407.6666659111447 430.1739089125068 422.9999990495046 427.82599227569546C438.3333321878645 425.4780756388841 430.6666656186846 387.50890945502033 445.9999987570445 383.14849284379926C461.3333318954044 378.78807623257813 461.3333318954044 404.21265924262116 468.99999846458434 414.74474244203213 " transform="rotate(10, 400, 400)"></path><path d="M348.2500039792061 412.41699812894797C354.000003906091 401.29793577033416 354.000003906091 379.76418604414994 365.500003759861 379.0598110531065C377.00000361363095 378.3554360620631 371.25000368674597 405.7757482133958 382.7500035405159 410.30387315581777C394.25000339428584 414.83199809823964 388.5000034674009 389.12231092515526 400.0000033211708 392.6441858803723C411.50000317494073 396.1660608355893 405.7500032480558 422.6304354990774 417.2500031018257 420.86949802146887C428.7500029555957 419.10856054386034 423.0000030287107 390.6316859059625 434.50000288248066 387.3613734475467C446.00000273625056 384.0910609891309 446.00000273625056 403.15949824666313 451.75000266313555 411.0585606462214 " transform="rotate(7.5, 400, 400)"></path><path d="M365.5000039243698 408.27800383889496C369.3333372089598 400.8652955998191 369.3333372089598 386.5094624490296 377.0000037781398 386.03987912166735C384.6666703473197 385.5702957943051 380.8333370627297 403.8505038951936 388.5000036319097 406.8692538568082C396.1666702010897 409.8880038184228 392.33333691649966 392.74821236969984 400.0000034856796 395.0961290065112C407.6666700548596 397.44404564332257 403.8333367702696 415.08696208564794 411.50000333944956 413.91300376724223C419.1666699086295 412.7390454488366 415.3333366240396 393.7544623569047 423.0000031932195 391.57425405129413C430.66666976239947 389.39404574568357 430.66666976239947 402.1063372507051 434.50000304698943 407.3723788504106 " transform="rotate(5, 400, 400)"></path><path d="M382.75000386953354 404.1389981047502C384.66667051182856 400.4326439852123 384.66667051182856 393.2547274098176 388.5000037964185 393.0199357461364C392.3333370810085 392.7851440824553 390.4166704387135 401.9252481328995 394.2500037233035 403.43462311370683C398.0833370078934 404.94399809451414 396.16667036559846 396.3741023701526 400.00000365018843 397.54806068855834C403.83333693477846 398.72201900696405 401.91667029248345 407.5434772281267 405.7500035770734 406.95649806892385C409.5833368616634 406.369518909721 407.6666702193684 396.8772273637551 411.5000035039584 395.7871232109498C415.33333678854837 394.6970190581445 415.33333678854837 401.0531648106553 417.2500034308433 403.686185610508 " transform="rotate(2.5, 400, 400)"></path></g></svg>